solid OpenSCAD_Model
  facet normal 0 0 1
    outer loop
      vertex 4.13549 4.03111 2
      vertex 2.40451 4.03111 2
      vertex 4.13549 2.07889 2
    endloop
  endfacet
  facet normal 0 0 1
    outer loop
      vertex 4.13549 2.07889 2
      vertex 2.47553 1.93951 2
      vertex 2.5 1.785 2
    endloop
  endfacet
  facet normal 0 0 1
    outer loop
      vertex 2.40451 2.07889 2
      vertex 4.13549 2.07889 2
      vertex 2.40451 4.03111 2
    endloop
  endfacet
  facet normal 0 0 1
    outer loop
      vertex 4.13549 2.07889 2
      vertex 2.40451 2.07889 2
      vertex 2.47553 1.93951 2
    endloop
  endfacet
  facet normal -0 0 1
    outer loop
      vertex 2.29389 3.92049 2
      vertex 2.40451 2.07889 2
      vertex 2.40451 4.03111 2
    endloop
  endfacet
  facet normal 0 0 1
    outer loop
      vertex 2.29389 3.92049 2
      vertex 2.29389 2.18951 2
      vertex 2.40451 2.07889 2
    endloop
  endfacet
  facet normal -0 0 1
    outer loop
      vertex 2.15451 3.84947 2
      vertex 2.29389 2.18951 2
      vertex 2.29389 3.92049 2
    endloop
  endfacet
  facet normal 0 0 1
    outer loop
      vertex 2.15451 3.84947 2
      vertex 2.15451 2.26053 2
      vertex 2.29389 2.18951 2
    endloop
  endfacet
  facet normal -0 0 1
    outer loop
      vertex 2 3.825 2
      vertex 2.15451 2.26053 2
      vertex 2.15451 3.84947 2
    endloop
  endfacet
  facet normal 0 0 1
    outer loop
      vertex 2 3.825 2
      vertex 2 2.285 2
      vertex 2.15451 2.26053 2
    endloop
  endfacet
  facet normal 0 0 1
    outer loop
      vertex 1.84549 3.84947 2
      vertex 2 2.285 2
      vertex 2 3.825 2
    endloop
  endfacet
  facet normal 0 0 1
    outer loop
      vertex 1.84549 3.84947 2
      vertex 1.84549 2.26053 2
      vertex 2 2.285 2
    endloop
  endfacet
  facet normal 0 0 1
    outer loop
      vertex 1.70611 3.92049 2
      vertex 1.84549 2.26053 2
      vertex 1.84549 3.84947 2
    endloop
  endfacet
  facet normal 0 0 1
    outer loop
      vertex 1.70611 3.92049 2
      vertex 1.70611 2.18951 2
      vertex 1.84549 2.26053 2
    endloop
  endfacet
  facet normal 0 0 1
    outer loop
      vertex 1.59549 4.03111 2
      vertex 1.70611 2.18951 2
      vertex 1.70611 3.92049 2
    endloop
  endfacet
  facet normal 0 0 1
    outer loop
      vertex 1.59549 4.03111 2
      vertex 1.59549 2.07889 2
      vertex 1.70611 2.18951 2
    endloop
  endfacet
  facet normal 0 0 1
    outer loop
      vertex 1.52447 4.17049 2
      vertex 1.59549 2.07889 2
      vertex 1.59549 4.03111 2
    endloop
  endfacet
  facet normal 0 0 1
    outer loop
      vertex 1.52447 4.17049 2
      vertex 1.52447 1.93951 2
      vertex 1.59549 2.07889 2
    endloop
  endfacet
  facet normal 0 0 1
    outer loop
      vertex 0 0 2
      vertex 1.52447 4.17049 2
      vertex 1.5 4.325 2
    endloop
  endfacet
  facet normal 0 0 1
    outer loop
      vertex 1.52447 4.17049 2
      vertex 0 0 2
      vertex 1.52447 1.93951 2
    endloop
  endfacet
  facet normal 0 0 1
    outer loop
      vertex 4.24611 4.72951 2
      vertex 2.40451 6.57111 2
      vertex 4.13549 4.61889 2
    endloop
  endfacet
  facet normal 0 0 1
    outer loop
      vertex 4.13549 4.61889 2
      vertex 2.47553 4.47951 2
      vertex 2.5 4.325 2
    endloop
  endfacet
  facet normal 0 0 1
    outer loop
      vertex 2.40451 4.61889 2
      vertex 4.13549 4.61889 2
      vertex 2.40451 6.57111 2
    endloop
  endfacet
  facet normal 0 0 1
    outer loop
      vertex 4.13549 4.61889 2
      vertex 2.40451 4.61889 2
      vertex 2.47553 4.47951 2
    endloop
  endfacet
  facet normal -0 0 1
    outer loop
      vertex 2.29389 6.46049 2
      vertex 2.40451 4.61889 2
      vertex 2.40451 6.57111 2
    endloop
  endfacet
  facet normal 0 0 1
    outer loop
      vertex 2.29389 6.46049 2
      vertex 2.29389 4.72951 2
      vertex 2.40451 4.61889 2
    endloop
  endfacet
  facet normal -0 0 1
    outer loop
      vertex 2.15451 6.38947 2
      vertex 2.29389 4.72951 2
      vertex 2.29389 6.46049 2
    endloop
  endfacet
  facet normal 0 0 1
    outer loop
      vertex 2.15451 6.38947 2
      vertex 2.15451 4.80053 2
      vertex 2.29389 4.72951 2
    endloop
  endfacet
  facet normal -0 0 1
    outer loop
      vertex 2 6.365 2
      vertex 2.15451 4.80053 2
      vertex 2.15451 6.38947 2
    endloop
  endfacet
  facet normal 0 0 1
    outer loop
      vertex 2 6.365 2
      vertex 2 4.825 2
      vertex 2.15451 4.80053 2
    endloop
  endfacet
  facet normal 0 0 1
    outer loop
      vertex 1.84549 6.38947 2
      vertex 2 4.825 2
      vertex 2 6.365 2
    endloop
  endfacet
  facet normal 0 0 1
    outer loop
      vertex 1.84549 6.38947 2
      vertex 1.84549 4.80053 2
      vertex 2 4.825 2
    endloop
  endfacet
  facet normal 0 0 1
    outer loop
      vertex 1.70611 6.46049 2
      vertex 1.84549 4.80053 2
      vertex 1.84549 6.38947 2
    endloop
  endfacet
  facet normal 0 0 1
    outer loop
      vertex 1.70611 6.46049 2
      vertex 1.70611 4.72951 2
      vertex 1.84549 4.80053 2
    endloop
  endfacet
  facet normal 0 0 1
    outer loop
      vertex 1.59549 6.57111 2
      vertex 1.70611 4.72951 2
      vertex 1.70611 6.46049 2
    endloop
  endfacet
  facet normal 0 0 1
    outer loop
      vertex 1.59549 6.57111 2
      vertex 1.59549 4.61889 2
      vertex 1.70611 4.72951 2
    endloop
  endfacet
  facet normal 0 0 1
    outer loop
      vertex 1.52447 6.71049 2
      vertex 1.59549 4.61889 2
      vertex 1.59549 6.57111 2
    endloop
  endfacet
  facet normal 0 0 1
    outer loop
      vertex 1.52447 6.71049 2
      vertex 1.52447 4.47951 2
      vertex 1.59549 4.61889 2
    endloop
  endfacet
  facet normal 0 0 1
    outer loop
      vertex 0 8.65 2
      vertex 1.52447 6.71049 2
      vertex 1.5 6.865 2
    endloop
  endfacet
  facet normal 0 0 1
    outer loop
      vertex 1.52447 6.71049 2
      vertex 0 8.65 2
      vertex 1.52447 4.47951 2
    endloop
  endfacet
  facet normal -0 0 1
    outer loop
      vertex 6.58875 1.93951 2
      vertex 8.01 0 2
      vertex 6.58875 4.17049 2
    endloop
  endfacet
  facet normal 0 0 1
    outer loop
      vertex 8.01 0 2
      vertex 6.58875 1.93951 2
      vertex 6.61905 1.785 2
    endloop
  endfacet
  facet normal -0 0 1
    outer loop
      vertex 6.53961 4.09259 2
      vertex 6.58875 1.93951 2
      vertex 6.58875 4.17049 2
    endloop
  endfacet
  facet normal 0 0 1
    outer loop
      vertex 6.53961 4.09259 2
      vertex 6.53961 2.01741 2
      vertex 6.58875 1.93951 2
    endloop
  endfacet
  facet normal -0 0 1
    outer loop
      vertex 6.50082 4.03111 2
      vertex 6.53961 2.01741 2
      vertex 6.53961 4.09259 2
    endloop
  endfacet
  facet normal 0 0 1
    outer loop
      vertex 6.50082 4.03111 2
      vertex 6.50082 2.07889 2
      vertex 6.53961 2.01741 2
    endloop
  endfacet
  facet normal -0 0 1
    outer loop
      vertex 6.36387 3.92049 2
      vertex 6.50082 2.07889 2
      vertex 6.50082 4.03111 2
    endloop
  endfacet
  facet normal 0 0 1
    outer loop
      vertex 6.36387 3.92049 2
      vertex 6.36387 2.18951 2
      vertex 6.50082 2.07889 2
    endloop
  endfacet
  facet normal -0 0 1
    outer loop
      vertex 6.28251 3.88701 2
      vertex 6.36387 2.18951 2
      vertex 6.36387 3.92049 2
    endloop
  endfacet
  facet normal 0 0 1
    outer loop
      vertex 6.28251 3.88701 2
      vertex 6.28251 2.22299 2
      vertex 6.36387 2.18951 2
    endloop
  endfacet
  facet normal -0 0 1
    outer loop
      vertex 6.1913 3.84947 2
      vertex 6.28251 2.22299 2
      vertex 6.28251 3.88701 2
    endloop
  endfacet
  facet normal 0 0 1
    outer loop
      vertex 6.1913 3.84947 2
      vertex 6.1913 2.26053 2
      vertex 6.28251 2.22299 2
    endloop
  endfacet
  facet normal -0 0 1
    outer loop
      vertex 6 3.825 2
      vertex 6.1913 2.26053 2
      vertex 6.1913 3.84947 2
    endloop
  endfacet
  facet normal 0 0 1
    outer loop
      vertex 6 3.825 2
      vertex 6 2.285 2
      vertex 6.1913 2.26053 2
    endloop
  endfacet
  facet normal -0 0 1
    outer loop
      vertex 4.54 3.825 2
      vertex 6 2.285 2
      vertex 6 3.825 2
    endloop
  endfacet
  facet normal 0 0 1
    outer loop
      vertex 4.54 3.825 2
      vertex 4.54 2.285 2
      vertex 6 2.285 2
    endloop
  endfacet
  facet normal 0 0 1
    outer loop
      vertex 4.38549 3.84947 2
      vertex 4.54 2.285 2
      vertex 4.54 3.825 2
    endloop
  endfacet
  facet normal 0 0 1
    outer loop
      vertex 4.38549 3.84947 2
      vertex 4.38549 2.26053 2
      vertex 4.54 2.285 2
    endloop
  endfacet
  facet normal 0 0 1
    outer loop
      vertex 4.24611 3.92049 2
      vertex 4.38549 2.26053 2
      vertex 4.38549 3.84947 2
    endloop
  endfacet
  facet normal 0 0 1
    outer loop
      vertex 4.24611 3.92049 2
      vertex 4.24611 2.18951 2
      vertex 4.38549 2.26053 2
    endloop
  endfacet
  facet normal 0 0 1
    outer loop
      vertex 4.13549 4.03111 2
      vertex 4.24611 2.18951 2
      vertex 4.24611 3.92049 2
    endloop
  endfacet
  facet normal 0 0 1
    outer loop
      vertex 4.13549 4.03111 2
      vertex 4.13549 2.07889 2
      vertex 4.24611 2.18951 2
    endloop
  endfacet
  facet normal 0 0 1
    outer loop
      vertex 2.47553 4.17049 2
      vertex 4.06447 4.17049 2
      vertex 2.5 4.325 2
    endloop
  endfacet
  facet normal 0 0 1
    outer loop
      vertex 4.06447 4.17049 2
      vertex 2.47553 4.17049 2
      vertex 4.13549 4.03111 2
    endloop
  endfacet
  facet normal -0 0 1
    outer loop
      vertex 2.5 4.325 2
      vertex 4.06447 4.17049 2
      vertex 4.04 4.325 2
    endloop
  endfacet
  facet normal 0 0 1
    outer loop
      vertex 2.40451 4.03111 2
      vertex 4.13549 4.03111 2
      vertex 2.47553 4.17049 2
    endloop
  endfacet
  facet normal 0 0 1
    outer loop
      vertex 8.01 8.65 2
      vertex 6.61905 4.325 2
      vertex 8.01 0 2
    endloop
  endfacet
  facet normal 0 0 1
    outer loop
      vertex 8.01 8.65 2
      vertex 6.58875 4.47951 2
      vertex 6.61905 4.325 2
    endloop
  endfacet
  facet normal -0 0 1
    outer loop
      vertex 6.47553 6.71049 2
      vertex 6.58875 4.47951 2
      vertex 8.01 8.65 2
    endloop
  endfacet
  facet normal 0 0 1
    outer loop
      vertex 6.58875 4.47951 2
      vertex 6.47553 6.71049 2
      vertex 6.53961 4.55741 2
    endloop
  endfacet
  facet normal 0 0 1
    outer loop
      vertex 6.47553 6.71049 2
      vertex 8.01 8.65 2
      vertex 6.5 6.865 2
    endloop
  endfacet
  facet normal 0 0 1
    outer loop
      vertex 8.01 8.65 2
      vertex 6.47553 7.01951 2
      vertex 6.5 6.865 2
    endloop
  endfacet
  facet normal 0 0 1
    outer loop
      vertex 8.01 8.65 2
      vertex 6.40451 7.15889 2
      vertex 6.47553 7.01951 2
    endloop
  endfacet
  facet normal 0 0 1
    outer loop
      vertex 8.01 8.65 2
      vertex 6.29389 7.26951 2
      vertex 6.40451 7.15889 2
    endloop
  endfacet
  facet normal 0 0 1
    outer loop
      vertex 8.01 8.65 2
      vertex 6.15451 7.34053 2
      vertex 6.29389 7.26951 2
    endloop
  endfacet
  facet normal 0 0 1
    outer loop
      vertex 8.01 8.65 2
      vertex 6 7.365 2
      vertex 6.15451 7.34053 2
    endloop
  endfacet
  facet normal 0 0 1
    outer loop
      vertex 8.01 8.65 2
      vertex 5.84549 7.34053 2
      vertex 6 7.365 2
    endloop
  endfacet
  facet normal 0 0 1
    outer loop
      vertex 2.15451 7.34053 2
      vertex 5.84549 7.34053 2
      vertex 8.01 8.65 2
    endloop
  endfacet
  facet normal 0 0 1
    outer loop
      vertex 2.5 6.865 2
      vertex 5.5 6.865 2
      vertex 5.52447 7.01951 2
    endloop
  endfacet
  facet normal 0 0 1
    outer loop
      vertex 5.5 6.865 2
      vertex 4.38549 4.80053 2
      vertex 4.54 4.825 2
    endloop
  endfacet
  facet normal 0 0 1
    outer loop
      vertex 2.47553 7.01951 2
      vertex 5.52447 7.01951 2
      vertex 5.59549 7.15889 2
    endloop
  endfacet
  facet normal 0 0 1
    outer loop
      vertex 2.47553 6.71049 2
      vertex 5.5 6.865 2
      vertex 2.5 6.865 2
    endloop
  endfacet
  facet normal 0 0 1
    outer loop
      vertex 5.5 6.865 2
      vertex 2.47553 6.71049 2
      vertex 4.38549 4.80053 2
    endloop
  endfacet
  facet normal 0 0 1
    outer loop
      vertex 4.06447 4.47951 2
      vertex 2.5 4.325 2
      vertex 4.04 4.325 2
    endloop
  endfacet
  facet normal 0 0 1
    outer loop
      vertex 4.13549 4.61889 2
      vertex 2.5 4.325 2
      vertex 4.06447 4.47951 2
    endloop
  endfacet
  facet normal -0 0 1
    outer loop
      vertex 2.40451 6.57111 2
      vertex 4.24611 4.72951 2
      vertex 2.47553 6.71049 2
    endloop
  endfacet
  facet normal 0 0 1
    outer loop
      vertex 4.38549 4.80053 2
      vertex 2.47553 6.71049 2
      vertex 4.24611 4.72951 2
    endloop
  endfacet
  facet normal 0 0 1
    outer loop
      vertex 2.40451 7.15889 2
      vertex 5.59549 7.15889 2
      vertex 5.70611 7.26951 2
    endloop
  endfacet
  facet normal 0 0 1
    outer loop
      vertex 5.84549 7.34053 2
      vertex 2.15451 7.34053 2
      vertex 5.70611 7.26951 2
    endloop
  endfacet
  facet normal 0 0 1
    outer loop
      vertex 5.52447 7.01951 2
      vertex 2.47553 7.01951 2
      vertex 2.5 6.865 2
    endloop
  endfacet
  facet normal 0 0 1
    outer loop
      vertex 5.59549 7.15889 2
      vertex 2.40451 7.15889 2
      vertex 2.47553 7.01951 2
    endloop
  endfacet
  facet normal 0 0 1
    outer loop
      vertex 5.70611 7.26951 2
      vertex 2.29389 7.26951 2
      vertex 2.40451 7.15889 2
    endloop
  endfacet
  facet normal 0 0 1
    outer loop
      vertex 5.70611 7.26951 2
      vertex 2.15451 7.34053 2
      vertex 2.29389 7.26951 2
    endloop
  endfacet
  facet normal -0 0 1
    outer loop
      vertex 0 8.65 2
      vertex 2.15451 7.34053 2
      vertex 8.01 8.65 2
    endloop
  endfacet
  facet normal 0 0 1
    outer loop
      vertex 2.15451 7.34053 2
      vertex 0 8.65 2
      vertex 2 7.365 2
    endloop
  endfacet
  facet normal 0 0 1
    outer loop
      vertex 1.52447 4.47951 2
      vertex 0 8.65 2
      vertex 1.5 4.325 2
    endloop
  endfacet
  facet normal 0 0 1
    outer loop
      vertex 0 0 2
      vertex 1.5 4.325 2
      vertex 0 8.65 2
    endloop
  endfacet
  facet normal 0 0 1
    outer loop
      vertex 1.52447 7.01951 2
      vertex 0 8.65 2
      vertex 1.5 6.865 2
    endloop
  endfacet
  facet normal 0 0 1
    outer loop
      vertex 1.59549 7.15889 2
      vertex 0 8.65 2
      vertex 1.52447 7.01951 2
    endloop
  endfacet
  facet normal 0 0 1
    outer loop
      vertex 1.70611 7.26951 2
      vertex 0 8.65 2
      vertex 1.59549 7.15889 2
    endloop
  endfacet
  facet normal 0 0 1
    outer loop
      vertex 1.84549 7.34053 2
      vertex 0 8.65 2
      vertex 1.70611 7.26951 2
    endloop
  endfacet
  facet normal 0 0 1
    outer loop
      vertex 2 7.365 2
      vertex 0 8.65 2
      vertex 1.84549 7.34053 2
    endloop
  endfacet
  facet normal -0 0 1
    outer loop
      vertex 6.58875 4.17049 2
      vertex 8.01 0 2
      vertex 6.61905 4.325 2
    endloop
  endfacet
  facet normal -0 0 1
    outer loop
      vertex 6.58875 1.63049 2
      vertex 8.01 0 2
      vertex 6.61905 1.785 2
    endloop
  endfacet
  facet normal -0 0 1
    outer loop
      vertex 6.53961 1.55259 2
      vertex 8.01 0 2
      vertex 6.58875 1.63049 2
    endloop
  endfacet
  facet normal -0 0 1
    outer loop
      vertex 6.50082 1.49111 2
      vertex 8.01 0 2
      vertex 6.53961 1.55259 2
    endloop
  endfacet
  facet normal -0 0 1
    outer loop
      vertex 6.36387 1.38049 2
      vertex 8.01 0 2
      vertex 6.50082 1.49111 2
    endloop
  endfacet
  facet normal -0 0 1
    outer loop
      vertex 6.28251 1.34701 2
      vertex 8.01 0 2
      vertex 6.36387 1.38049 2
    endloop
  endfacet
  facet normal -0 0 1
    outer loop
      vertex 6.1913 1.30947 2
      vertex 8.01 0 2
      vertex 6.28251 1.34701 2
    endloop
  endfacet
  facet normal -0 0 1
    outer loop
      vertex 6 1.285 2
      vertex 8.01 0 2
      vertex 6.1913 1.30947 2
    endloop
  endfacet
  facet normal -0 0 1
    outer loop
      vertex 4.54 1.285 2
      vertex 8.01 0 2
      vertex 6 1.285 2
    endloop
  endfacet
  facet normal 0 0 1
    outer loop
      vertex 0 0 2
      vertex 4.54 1.285 2
      vertex 4.38549 1.30947 2
    endloop
  endfacet
  facet normal 0 0 1
    outer loop
      vertex 4.13549 2.07889 2
      vertex 2.5 1.785 2
      vertex 4.06447 1.93951 2
    endloop
  endfacet
  facet normal 0 0 1
    outer loop
      vertex 4.06447 1.93951 2
      vertex 2.5 1.785 2
      vertex 4.04 1.785 2
    endloop
  endfacet
  facet normal 0 0 1
    outer loop
      vertex 4.04 1.785 2
      vertex 2.5 1.785 2
      vertex 4.06447 1.63049 2
    endloop
  endfacet
  facet normal 0 0 1
    outer loop
      vertex 2.47553 1.63049 2
      vertex 4.06447 1.63049 2
      vertex 2.5 1.785 2
    endloop
  endfacet
  facet normal 0 0 1
    outer loop
      vertex 4.06447 1.63049 2
      vertex 2.47553 1.63049 2
      vertex 4.13549 1.49111 2
    endloop
  endfacet
  facet normal 0 0 1
    outer loop
      vertex 2.40451 1.49111 2
      vertex 4.13549 1.49111 2
      vertex 2.47553 1.63049 2
    endloop
  endfacet
  facet normal 0 0 1
    outer loop
      vertex 4.13549 1.49111 2
      vertex 2.40451 1.49111 2
      vertex 4.24611 1.38049 2
    endloop
  endfacet
  facet normal 0 0 1
    outer loop
      vertex 2.29389 1.38049 2
      vertex 4.24611 1.38049 2
      vertex 2.40451 1.49111 2
    endloop
  endfacet
  facet normal 0 0 1
    outer loop
      vertex 4.24611 1.38049 2
      vertex 2.29389 1.38049 2
      vertex 4.38549 1.30947 2
    endloop
  endfacet
  facet normal 0 0 1
    outer loop
      vertex 2.15451 1.30947 2
      vertex 4.38549 1.30947 2
      vertex 2.29389 1.38049 2
    endloop
  endfacet
  facet normal 0 0 1
    outer loop
      vertex 0 0 2
      vertex 4.38549 1.30947 2
      vertex 2.15451 1.30947 2
    endloop
  endfacet
  facet normal 0 0 1
    outer loop
      vertex 0 0 2
      vertex 2.15451 1.30947 2
      vertex 2 1.285 2
    endloop
  endfacet
  facet normal 0 0 1
    outer loop
      vertex 0 0 2
      vertex 2 1.285 2
      vertex 1.84549 1.30947 2
    endloop
  endfacet
  facet normal 0 0 1
    outer loop
      vertex 1.52447 1.93951 2
      vertex 0 0 2
      vertex 1.5 1.785 2
    endloop
  endfacet
  facet normal 0 0 1
    outer loop
      vertex 4.54 1.285 2
      vertex 0 0 2
      vertex 8.01 0 2
    endloop
  endfacet
  facet normal 0 0 1
    outer loop
      vertex 1.70611 1.38049 2
      vertex 0 0 2
      vertex 1.84549 1.30947 2
    endloop
  endfacet
  facet normal 0 0 1
    outer loop
      vertex 1.59549 1.49111 2
      vertex 0 0 2
      vertex 1.70611 1.38049 2
    endloop
  endfacet
  facet normal 0 0 1
    outer loop
      vertex 1.52447 1.63049 2
      vertex 0 0 2
      vertex 1.59549 1.49111 2
    endloop
  endfacet
  facet normal 0 0 1
    outer loop
      vertex 1.5 1.785 2
      vertex 0 0 2
      vertex 1.52447 1.63049 2
    endloop
  endfacet
  facet normal -0 0 1
    outer loop
      vertex 6.40451 6.57111 2
      vertex 6.53961 4.55741 2
      vertex 6.47553 6.71049 2
    endloop
  endfacet
  facet normal 0 0 1
    outer loop
      vertex 6.53961 4.55741 2
      vertex 6.40451 6.57111 2
      vertex 6.50082 4.61889 2
    endloop
  endfacet
  facet normal -0 0 1
    outer loop
      vertex 6.29389 6.46049 2
      vertex 6.50082 4.61889 2
      vertex 6.40451 6.57111 2
    endloop
  endfacet
  facet normal 0 0 1
    outer loop
      vertex 6.50082 4.61889 2
      vertex 6.29389 6.46049 2
      vertex 6.36387 4.72951 2
    endloop
  endfacet
  facet normal 0 0 1
    outer loop
      vertex 6.29389 6.46049 2
      vertex 6.28251 4.76299 2
      vertex 6.36387 4.72951 2
    endloop
  endfacet
  facet normal -0 0 1
    outer loop
      vertex 6.15451 6.38947 2
      vertex 6.28251 4.76299 2
      vertex 6.29389 6.46049 2
    endloop
  endfacet
  facet normal 0 0 1
    outer loop
      vertex 6.28251 4.76299 2
      vertex 6.15451 6.38947 2
      vertex 6.1913 4.80053 2
    endloop
  endfacet
  facet normal -0 0 1
    outer loop
      vertex 6 6.365 2
      vertex 6.1913 4.80053 2
      vertex 6.15451 6.38947 2
    endloop
  endfacet
  facet normal 0 0 1
    outer loop
      vertex 6 6.365 2
      vertex 6 4.825 2
      vertex 6.1913 4.80053 2
    endloop
  endfacet
  facet normal 0 0 1
    outer loop
      vertex 5.84549 6.38947 2
      vertex 6 4.825 2
      vertex 6 6.365 2
    endloop
  endfacet
  facet normal 0 0 1
    outer loop
      vertex 5.70611 6.46049 2
      vertex 6 4.825 2
      vertex 5.84549 6.38947 2
    endloop
  endfacet
  facet normal 0 0 1
    outer loop
      vertex 4.54 4.825 2
      vertex 5.70611 6.46049 2
      vertex 5.59549 6.57111 2
    endloop
  endfacet
  facet normal 0 0 1
    outer loop
      vertex 4.54 4.825 2
      vertex 5.59549 6.57111 2
      vertex 5.52447 6.71049 2
    endloop
  endfacet
  facet normal 0 0 1
    outer loop
      vertex 5.70611 6.46049 2
      vertex 4.54 4.825 2
      vertex 6 4.825 2
    endloop
  endfacet
  facet normal 0 0 1
    outer loop
      vertex 4.54 4.825 2
      vertex 5.52447 6.71049 2
      vertex 5.5 6.865 2
    endloop
  endfacet
  facet normal 1 -0 0
    outer loop
      vertex 0 0 3.5
      vertex 0 8.65 2
      vertex 0 8.65 3.5
    endloop
  endfacet
  facet normal 1 0 0
    outer loop
      vertex 0 8.65 2
      vertex 0 0 3.5
      vertex 0 0 2
    endloop
  endfacet
  facet normal 0 -1 0
    outer loop
      vertex 0 8.65 2
      vertex 8.01 8.65 3.5
      vertex 0 8.65 3.5
    endloop
  endfacet
  facet normal 0 -1 -0
    outer loop
      vertex 8.01 8.65 3.5
      vertex 0 8.65 2
      vertex 8.01 8.65 2
    endloop
  endfacet
  facet normal 0 1 -0
    outer loop
      vertex 8.01 0 2
      vertex 0 0 3.5
      vertex 8.01 0 3.5
    endloop
  endfacet
  facet normal 0 1 0
    outer loop
      vertex 0 0 3.5
      vertex 8.01 0 2
      vertex 0 0 2
    endloop
  endfacet
  facet normal -1 0 0
    outer loop
      vertex 8.01 0 2
      vertex 8.01 8.65 3.5
      vertex 8.01 8.65 2
    endloop
  endfacet
  facet normal -1 -0 0
    outer loop
      vertex 8.01 8.65 3.5
      vertex 8.01 0 2
      vertex 8.01 0 3.5
    endloop
  endfacet
  facet normal -0.891 -0.454002 0
    outer loop
      vertex 2.47553 1.93951 0
      vertex 2.40451 2.07889 2
      vertex 2.40451 2.07889 0
    endloop
  endfacet
  facet normal -0.891 -0.454002 0
    outer loop
      vertex 2.40451 2.07889 2
      vertex 2.47553 1.93951 0
      vertex 2.47553 1.93951 2
    endloop
  endfacet
  facet normal -0.98769 -0.156422 0
    outer loop
      vertex 2.5 1.785 0
      vertex 2.47553 1.93951 2
      vertex 2.47553 1.93951 0
    endloop
  endfacet
  facet normal -0.98769 -0.156422 0
    outer loop
      vertex 2.47553 1.93951 2
      vertex 2.5 1.785 0
      vertex 2.5 1.785 2
    endloop
  endfacet
  facet normal -0.707107 -0.707107 0
    outer loop
      vertex 2.40451 2.07889 0
      vertex 2.29389 2.18951 2
      vertex 2.29389 2.18951 0
    endloop
  endfacet
  facet normal -0.707107 -0.707107 0
    outer loop
      vertex 2.29389 2.18951 2
      vertex 2.40451 2.07889 0
      vertex 2.40451 2.07889 2
    endloop
  endfacet
  facet normal -0.156422 -0.98769 0
    outer loop
      vertex 2 2.285 0
      vertex 2.15451 2.26053 2
      vertex 2 2.285 2
    endloop
  endfacet
  facet normal -0.156422 -0.98769 -0
    outer loop
      vertex 2.15451 2.26053 2
      vertex 2 2.285 0
      vertex 2.15451 2.26053 0
    endloop
  endfacet
  facet normal 0.98769 -0.156422 0
    outer loop
      vertex 1.5 1.785 2
      vertex 1.52447 1.93951 0
      vertex 1.52447 1.93951 2
    endloop
  endfacet
  facet normal 0.98769 -0.156422 0
    outer loop
      vertex 1.52447 1.93951 0
      vertex 1.5 1.785 2
      vertex 1.5 1.785 0
    endloop
  endfacet
  facet normal -0.891 0.454002 0
    outer loop
      vertex 2.40451 1.49111 0
      vertex 2.47553 1.63049 2
      vertex 2.47553 1.63049 0
    endloop
  endfacet
  facet normal -0.891 0.454002 0
    outer loop
      vertex 2.47553 1.63049 2
      vertex 2.40451 1.49111 0
      vertex 2.40451 1.49111 2
    endloop
  endfacet
  facet normal -0.454002 -0.891 0
    outer loop
      vertex 2.15451 2.26053 0
      vertex 2.29389 2.18951 2
      vertex 2.15451 2.26053 2
    endloop
  endfacet
  facet normal -0.454002 -0.891 -0
    outer loop
      vertex 2.29389 2.18951 2
      vertex 2.15451 2.26053 0
      vertex 2.29389 2.18951 0
    endloop
  endfacet
  facet normal 0.454002 -0.891 0
    outer loop
      vertex 1.70611 2.18951 0
      vertex 1.84549 2.26053 2
      vertex 1.70611 2.18951 2
    endloop
  endfacet
  facet normal 0.454002 -0.891 0
    outer loop
      vertex 1.84549 2.26053 2
      vertex 1.70611 2.18951 0
      vertex 1.84549 2.26053 0
    endloop
  endfacet
  facet normal 0.156422 0.98769 -0
    outer loop
      vertex 2 1.285 0
      vertex 1.84549 1.30947 2
      vertex 2 1.285 2
    endloop
  endfacet
  facet normal 0.156422 0.98769 0
    outer loop
      vertex 1.84549 1.30947 2
      vertex 2 1.285 0
      vertex 1.84549 1.30947 0
    endloop
  endfacet
  facet normal -0.707107 0.707107 0
    outer loop
      vertex 2.29389 1.38049 0
      vertex 2.40451 1.49111 2
      vertex 2.40451 1.49111 0
    endloop
  endfacet
  facet normal -0.707107 0.707107 0
    outer loop
      vertex 2.40451 1.49111 2
      vertex 2.29389 1.38049 0
      vertex 2.29389 1.38049 2
    endloop
  endfacet
  facet normal 0.891 0.454002 0
    outer loop
      vertex 1.59549 1.49111 2
      vertex 1.52447 1.63049 0
      vertex 1.52447 1.63049 2
    endloop
  endfacet
  facet normal 0.891 0.454002 0
    outer loop
      vertex 1.52447 1.63049 0
      vertex 1.59549 1.49111 2
      vertex 1.59549 1.49111 0
    endloop
  endfacet
  facet normal 0.156422 -0.98769 0
    outer loop
      vertex 1.84549 2.26053 0
      vertex 2 2.285 2
      vertex 1.84549 2.26053 2
    endloop
  endfacet
  facet normal 0.156422 -0.98769 0
    outer loop
      vertex 2 2.285 2
      vertex 1.84549 2.26053 0
      vertex 2 2.285 0
    endloop
  endfacet
  facet normal -0.454002 0.891 0
    outer loop
      vertex 2.29389 1.38049 0
      vertex 2.15451 1.30947 2
      vertex 2.29389 1.38049 2
    endloop
  endfacet
  facet normal -0.454002 0.891 0
    outer loop
      vertex 2.15451 1.30947 2
      vertex 2.29389 1.38049 0
      vertex 2.15451 1.30947 0
    endloop
  endfacet
  facet normal -0.156422 0.98769 0
    outer loop
      vertex 2.15451 1.30947 0
      vertex 2 1.285 2
      vertex 2.15451 1.30947 2
    endloop
  endfacet
  facet normal -0.156422 0.98769 0
    outer loop
      vertex 2 1.285 2
      vertex 2.15451 1.30947 0
      vertex 2 1.285 0
    endloop
  endfacet
  facet normal 0.98769 0.156422 0
    outer loop
      vertex 1.52447 1.63049 2
      vertex 1.5 1.785 0
      vertex 1.5 1.785 2
    endloop
  endfacet
  facet normal 0.98769 0.156422 0
    outer loop
      vertex 1.5 1.785 0
      vertex 1.52447 1.63049 2
      vertex 1.52447 1.63049 0
    endloop
  endfacet
  facet normal 0.891 -0.454002 0
    outer loop
      vertex 1.52447 1.93951 2
      vertex 1.59549 2.07889 0
      vertex 1.59549 2.07889 2
    endloop
  endfacet
  facet normal 0.891 -0.454002 0
    outer loop
      vertex 1.59549 2.07889 0
      vertex 1.52447 1.93951 2
      vertex 1.52447 1.93951 0
    endloop
  endfacet
  facet normal 0.707107 -0.707107 0
    outer loop
      vertex 1.59549 2.07889 2
      vertex 1.70611 2.18951 0
      vertex 1.70611 2.18951 2
    endloop
  endfacet
  facet normal 0.707107 -0.707107 0
    outer loop
      vertex 1.70611 2.18951 0
      vertex 1.59549 2.07889 2
      vertex 1.59549 2.07889 0
    endloop
  endfacet
  facet normal -0.98769 0.156422 0
    outer loop
      vertex 2.47553 1.63049 0
      vertex 2.5 1.785 2
      vertex 2.5 1.785 0
    endloop
  endfacet
  facet normal -0.98769 0.156422 0
    outer loop
      vertex 2.5 1.785 2
      vertex 2.47553 1.63049 0
      vertex 2.47553 1.63049 2
    endloop
  endfacet
  facet normal 0.707107 0.707107 0
    outer loop
      vertex 1.70611 1.38049 2
      vertex 1.59549 1.49111 0
      vertex 1.59549 1.49111 2
    endloop
  endfacet
  facet normal 0.707107 0.707107 0
    outer loop
      vertex 1.59549 1.49111 0
      vertex 1.70611 1.38049 2
      vertex 1.70611 1.38049 0
    endloop
  endfacet
  facet normal 0.454002 0.891 -0
    outer loop
      vertex 1.84549 1.30947 0
      vertex 1.70611 1.38049 2
      vertex 1.84549 1.30947 2
    endloop
  endfacet
  facet normal 0.454002 0.891 0
    outer loop
      vertex 1.70611 1.38049 2
      vertex 1.84549 1.30947 0
      vertex 1.70611 1.38049 0
    endloop
  endfacet
  facet normal -0.98769 -0.156422 0
    outer loop
      vertex 2.5 4.325 0
      vertex 2.47553 4.47951 2
      vertex 2.47553 4.47951 0
    endloop
  endfacet
  facet normal -0.98769 -0.156422 0
    outer loop
      vertex 2.47553 4.47951 2
      vertex 2.5 4.325 0
      vertex 2.5 4.325 2
    endloop
  endfacet
  facet normal -0.891 -0.454002 0
    outer loop
      vertex 2.47553 4.47951 0
      vertex 2.40451 4.61889 2
      vertex 2.40451 4.61889 0
    endloop
  endfacet
  facet normal -0.891 -0.454002 0
    outer loop
      vertex 2.40451 4.61889 2
      vertex 2.47553 4.47951 0
      vertex 2.47553 4.47951 2
    endloop
  endfacet
  facet normal -0.454002 0.891 0
    outer loop
      vertex 2.29389 3.92049 0
      vertex 2.15451 3.84947 2
      vertex 2.29389 3.92049 2
    endloop
  endfacet
  facet normal -0.454002 0.891 0
    outer loop
      vertex 2.15451 3.84947 2
      vertex 2.29389 3.92049 0
      vertex 2.15451 3.84947 0
    endloop
  endfacet
  facet normal -0.707107 -0.707107 0
    outer loop
      vertex 2.40451 4.61889 0
      vertex 2.29389 4.72951 2
      vertex 2.29389 4.72951 0
    endloop
  endfacet
  facet normal -0.707107 -0.707107 0
    outer loop
      vertex 2.29389 4.72951 2
      vertex 2.40451 4.61889 0
      vertex 2.40451 4.61889 2
    endloop
  endfacet
  facet normal 0.156422 -0.98769 0
    outer loop
      vertex 1.84549 4.80053 0
      vertex 2 4.825 2
      vertex 1.84549 4.80053 2
    endloop
  endfacet
  facet normal 0.156422 -0.98769 0
    outer loop
      vertex 2 4.825 2
      vertex 1.84549 4.80053 0
      vertex 2 4.825 0
    endloop
  endfacet
  facet normal 0.98769 0.156422 0
    outer loop
      vertex 1.52447 4.17049 2
      vertex 1.5 4.325 0
      vertex 1.5 4.325 2
    endloop
  endfacet
  facet normal 0.98769 0.156422 0
    outer loop
      vertex 1.5 4.325 0
      vertex 1.52447 4.17049 2
      vertex 1.52447 4.17049 0
    endloop
  endfacet
  facet normal 0.156422 0.98769 -0
    outer loop
      vertex 2 3.825 0
      vertex 1.84549 3.84947 2
      vertex 2 3.825 2
    endloop
  endfacet
  facet normal 0.156422 0.98769 0
    outer loop
      vertex 1.84549 3.84947 2
      vertex 2 3.825 0
      vertex 1.84549 3.84947 0
    endloop
  endfacet
  facet normal -0.156422 -0.98769 0
    outer loop
      vertex 2 4.825 0
      vertex 2.15451 4.80053 2
      vertex 2 4.825 2
    endloop
  endfacet
  facet normal -0.156422 -0.98769 -0
    outer loop
      vertex 2.15451 4.80053 2
      vertex 2 4.825 0
      vertex 2.15451 4.80053 0
    endloop
  endfacet
  facet normal 0.891 0.454002 0
    outer loop
      vertex 1.59549 4.03111 2
      vertex 1.52447 4.17049 0
      vertex 1.52447 4.17049 2
    endloop
  endfacet
  facet normal 0.891 0.454002 0
    outer loop
      vertex 1.52447 4.17049 0
      vertex 1.59549 4.03111 2
      vertex 1.59549 4.03111 0
    endloop
  endfacet
  facet normal 0.707107 0.707107 -0
    outer loop
      vertex 1.70611 3.92049 0
      vertex 1.59549 4.03111 2
      vertex 1.70611 3.92049 2
    endloop
  endfacet
  facet normal 0.707107 0.707107 0
    outer loop
      vertex 1.59549 4.03111 2
      vertex 1.70611 3.92049 0
      vertex 1.59549 4.03111 0
    endloop
  endfacet
  facet normal 0.98769 -0.156422 0
    outer loop
      vertex 1.5 4.325 2
      vertex 1.52447 4.47951 0
      vertex 1.52447 4.47951 2
    endloop
  endfacet
  facet normal 0.98769 -0.156422 0
    outer loop
      vertex 1.52447 4.47951 0
      vertex 1.5 4.325 2
      vertex 1.5 4.325 0
    endloop
  endfacet
  facet normal -0.156422 0.98769 0
    outer loop
      vertex 2.15451 3.84947 0
      vertex 2 3.825 2
      vertex 2.15451 3.84947 2
    endloop
  endfacet
  facet normal -0.156422 0.98769 0
    outer loop
      vertex 2 3.825 2
      vertex 2.15451 3.84947 0
      vertex 2 3.825 0
    endloop
  endfacet
  facet normal -0.98769 0.156422 0
    outer loop
      vertex 2.47553 4.17049 0
      vertex 2.5 4.325 2
      vertex 2.5 4.325 0
    endloop
  endfacet
  facet normal -0.98769 0.156422 0
    outer loop
      vertex 2.5 4.325 2
      vertex 2.47553 4.17049 0
      vertex 2.47553 4.17049 2
    endloop
  endfacet
  facet normal 0.891 -0.454002 0
    outer loop
      vertex 1.52447 4.47951 2
      vertex 1.59549 4.61889 0
      vertex 1.59549 4.61889 2
    endloop
  endfacet
  facet normal 0.891 -0.454002 0
    outer loop
      vertex 1.59549 4.61889 0
      vertex 1.52447 4.47951 2
      vertex 1.52447 4.47951 0
    endloop
  endfacet
  facet normal -0.454002 -0.891 0
    outer loop
      vertex 2.15451 4.80053 0
      vertex 2.29389 4.72951 2
      vertex 2.15451 4.80053 2
    endloop
  endfacet
  facet normal -0.454002 -0.891 -0
    outer loop
      vertex 2.29389 4.72951 2
      vertex 2.15451 4.80053 0
      vertex 2.29389 4.72951 0
    endloop
  endfacet
  facet normal -0.891 0.454002 0
    outer loop
      vertex 2.40451 4.03111 0
      vertex 2.47553 4.17049 2
      vertex 2.47553 4.17049 0
    endloop
  endfacet
  facet normal -0.891 0.454002 0
    outer loop
      vertex 2.47553 4.17049 2
      vertex 2.40451 4.03111 0
      vertex 2.40451 4.03111 2
    endloop
  endfacet
  facet normal 0.454002 0.891 -0
    outer loop
      vertex 1.84549 3.84947 0
      vertex 1.70611 3.92049 2
      vertex 1.84549 3.84947 2
    endloop
  endfacet
  facet normal 0.454002 0.891 0
    outer loop
      vertex 1.70611 3.92049 2
      vertex 1.84549 3.84947 0
      vertex 1.70611 3.92049 0
    endloop
  endfacet
  facet normal -0.707107 0.707107 0
    outer loop
      vertex 2.40451 4.03111 0
      vertex 2.29389 3.92049 2
      vertex 2.40451 4.03111 2
    endloop
  endfacet
  facet normal -0.707107 0.707107 0
    outer loop
      vertex 2.29389 3.92049 2
      vertex 2.40451 4.03111 0
      vertex 2.29389 3.92049 0
    endloop
  endfacet
  facet normal 0.707107 -0.707107 0
    outer loop
      vertex 1.59549 4.61889 2
      vertex 1.70611 4.72951 0
      vertex 1.70611 4.72951 2
    endloop
  endfacet
  facet normal 0.707107 -0.707107 0
    outer loop
      vertex 1.70611 4.72951 0
      vertex 1.59549 4.61889 2
      vertex 1.59549 4.61889 0
    endloop
  endfacet
  facet normal 0.454002 -0.891 0
    outer loop
      vertex 1.70611 4.72951 0
      vertex 1.84549 4.80053 2
      vertex 1.70611 4.72951 2
    endloop
  endfacet
  facet normal 0.454002 -0.891 0
    outer loop
      vertex 1.84549 4.80053 2
      vertex 1.70611 4.72951 0
      vertex 1.84549 4.80053 0
    endloop
  endfacet
  facet normal -0.891 -0.454002 -0
    outer loop
      vertex 2.47553 7.01951 2
      vertex 2.40451 7.15889 0.693892
      vertex 2.47553 7.01951 0.554508
    endloop
  endfacet
  facet normal -0.891 -0.454002 0
    outer loop
      vertex 2.40451 7.15889 0.693892
      vertex 2.47553 7.01951 2
      vertex 2.40451 7.15889 2
    endloop
  endfacet
  facet normal -0.98769 -0.156422 -0
    outer loop
      vertex 2.5 6.865 2
      vertex 2.47553 7.01951 0.554508
      vertex 2.5 6.865 0.4
    endloop
  endfacet
  facet normal -0.98769 -0.156422 0
    outer loop
      vertex 2.47553 7.01951 0.554508
      vertex 2.5 6.865 2
      vertex 2.47553 7.01951 2
    endloop
  endfacet
  facet normal -0.454002 0.891 0
    outer loop
      vertex 2.29389 6.46049 0
      vertex 2.15451 6.38947 2
      vertex 2.29389 6.46049 2
    endloop
  endfacet
  facet normal -0.454002 0.891 0
    outer loop
      vertex 2.15451 6.38947 2
      vertex 2.29389 6.46049 0
      vertex 2.15451 6.38947 0
    endloop
  endfacet
  facet normal -0.707107 -0.707107 -0
    outer loop
      vertex 2.40451 7.15889 2
      vertex 2.29389 7.26951 0.804508
      vertex 2.40451 7.15889 0.693892
    endloop
  endfacet
  facet normal -0.707107 -0.707107 0
    outer loop
      vertex 2.29389 7.26951 0.804508
      vertex 2.40451 7.15889 2
      vertex 2.29389 7.26951 2
    endloop
  endfacet
  facet normal 0.891 0.454002 0
    outer loop
      vertex 1.59549 6.57111 2
      vertex 1.52447 6.71049 0
      vertex 1.52447 6.71049 2
    endloop
  endfacet
  facet normal 0.891 0.454002 0
    outer loop
      vertex 1.52447 6.71049 0
      vertex 1.59549 6.57111 2
      vertex 1.59549 6.57111 0
    endloop
  endfacet
  facet normal -0.707107 0.707107 0
    outer loop
      vertex 2.29389 6.46049 0
      vertex 2.40451 6.57111 2
      vertex 2.40451 6.57111 0
    endloop
  endfacet
  facet normal -0.707107 0.707107 0
    outer loop
      vertex 2.40451 6.57111 2
      vertex 2.29389 6.46049 0
      vertex 2.29389 6.46049 2
    endloop
  endfacet
  facet normal 0.891 -0.454002 0
    outer loop
      vertex 1.52447 7.01951 2
      vertex 1.59549 7.15889 0.693893
      vertex 1.59549 7.15889 2
    endloop
  endfacet
  facet normal 0.891 -0.454002 0
    outer loop
      vertex 1.59549 7.15889 0.693893
      vertex 1.52447 7.01951 2
      vertex 1.59549 7.15889 0.693892
    endloop
  endfacet
  facet normal 0.891 -0.454002 0
    outer loop
      vertex 1.59549 7.15889 0.693892
      vertex 1.52447 7.01951 2
      vertex 1.52447 7.01951 0.55451
    endloop
  endfacet
  facet normal -0.156422 0.98769 0
    outer loop
      vertex 2.15451 6.38947 0
      vertex 2 6.365 2
      vertex 2.15451 6.38947 2
    endloop
  endfacet
  facet normal -0.156422 0.98769 0
    outer loop
      vertex 2 6.365 2
      vertex 2.15451 6.38947 0
      vertex 2 6.365 0
    endloop
  endfacet
  facet normal 0.156422 -0.98769 0
    outer loop
      vertex 1.84549 7.34053 2
      vertex 2 7.365 0.9
      vertex 2 7.365 2
    endloop
  endfacet
  facet normal 0.156422 -0.98769 0
    outer loop
      vertex 2 7.365 0.9
      vertex 1.84549 7.34053 2
      vertex 1.84549 7.34053 0.875528
    endloop
  endfacet
  facet normal 0.156422 0.98769 -0
    outer loop
      vertex 2 6.365 0
      vertex 1.84549 6.38947 2
      vertex 2 6.365 2
    endloop
  endfacet
  facet normal 0.156422 0.98769 0
    outer loop
      vertex 1.84549 6.38947 2
      vertex 2 6.365 0
      vertex 1.84549 6.38947 0
    endloop
  endfacet
  facet normal 0.454002 -0.891 0
    outer loop
      vertex 1.70611 7.26951 2
      vertex 1.84549 7.34053 0.875528
      vertex 1.84549 7.34053 2
    endloop
  endfacet
  facet normal 0.454002 -0.891 0
    outer loop
      vertex 1.70611 7.26951 2
      vertex 1.84549 7.34053 0.875527
      vertex 1.84549 7.34053 0.875528
    endloop
  endfacet
  facet normal 0.454002 -0.891 0
    outer loop
      vertex 1.84549 7.34053 0.875527
      vertex 1.70611 7.26951 2
      vertex 1.70611 7.26951 0.804509
    endloop
  endfacet
  facet normal -0.98769 0.156422 0
    outer loop
      vertex 2.47553 6.71049 0
      vertex 2.5 6.865 0.4
      vertex 2.5 6.865 0
    endloop
  endfacet
  facet normal -0.98769 0.156422 0
    outer loop
      vertex 2.47553 6.71049 2
      vertex 2.5 6.865 0.4
      vertex 2.47553 6.71049 0
    endloop
  endfacet
  facet normal -0.98769 0.156422 0
    outer loop
      vertex 2.5 6.865 0.4
      vertex 2.47553 6.71049 2
      vertex 2.5 6.865 2
    endloop
  endfacet
  facet normal 0.454002 0.891 -0
    outer loop
      vertex 1.84549 6.38947 0
      vertex 1.70611 6.46049 2
      vertex 1.84549 6.38947 2
    endloop
  endfacet
  facet normal 0.454002 0.891 0
    outer loop
      vertex 1.70611 6.46049 2
      vertex 1.84549 6.38947 0
      vertex 1.70611 6.46049 0
    endloop
  endfacet
  facet normal -0.891 0.454002 0
    outer loop
      vertex 2.40451 6.57111 0
      vertex 2.47553 6.71049 2
      vertex 2.47553 6.71049 0
    endloop
  endfacet
  facet normal -0.891 0.454002 0
    outer loop
      vertex 2.47553 6.71049 2
      vertex 2.40451 6.57111 0
      vertex 2.40451 6.57111 2
    endloop
  endfacet
  facet normal -0.156422 -0.98769 0
    outer loop
      vertex 2 7.365 0.9
      vertex 2.15451 7.34053 2
      vertex 2 7.365 2
    endloop
  endfacet
  facet normal -0.156422 -0.98769 -0
    outer loop
      vertex 2.15451 7.34053 2
      vertex 2 7.365 0.9
      vertex 2.15451 7.34053 0.875527
    endloop
  endfacet
  facet normal -0.454002 -0.891 0
    outer loop
      vertex 2.15451 7.34053 0.875527
      vertex 2.29389 7.26951 2
      vertex 2.15451 7.34053 2
    endloop
  endfacet
  facet normal -0.454002 -0.891 -0
    outer loop
      vertex 2.29389 7.26951 2
      vertex 2.15451 7.34053 0.875527
      vertex 2.29389 7.26951 0.804508
    endloop
  endfacet
  facet normal 0.98769 0.156422 0
    outer loop
      vertex 1.52447 6.71049 2
      vertex 1.5 6.865 0.4
      vertex 1.5 6.865 2
    endloop
  endfacet
  facet normal 0.98769 0.156422 -0
    outer loop
      vertex 1.52447 6.71049 0
      vertex 1.5 6.865 0.4
      vertex 1.52447 6.71049 2
    endloop
  endfacet
  facet normal 0.98769 0.156422 0
    outer loop
      vertex 1.5 6.865 0.4
      vertex 1.52447 6.71049 0
      vertex 1.5 6.865 0
    endloop
  endfacet
  facet normal 0.98769 -0.156422 0
    outer loop
      vertex 1.5 6.865 2
      vertex 1.52447 7.01951 0.55451
      vertex 1.52447 7.01951 2
    endloop
  endfacet
  facet normal 0.999857 -0.00331436 0.0165718
    outer loop
      vertex 1.52447 7.01951 0.55451
      vertex 1.5 6.865 2
      vertex 1.52447 7.0195 0.554508
    endloop
  endfacet
  facet normal 0.987689 -0.156432 0
    outer loop
      vertex 1.52447 7.0195 0.554508
      vertex 1.5 6.865 2
      vertex 1.5 6.865 0.4
    endloop
  endfacet
  facet normal 0.707107 0.707107 0
    outer loop
      vertex 1.70611 6.46049 2
      vertex 1.59549 6.57111 0
      vertex 1.59549 6.57111 2
    endloop
  endfacet
  facet normal 0.707107 0.707107 0
    outer loop
      vertex 1.59549 6.57111 0
      vertex 1.70611 6.46049 2
      vertex 1.70611 6.46049 0
    endloop
  endfacet
  facet normal 0.707107 -0.707107 0
    outer loop
      vertex 1.59549 7.15889 2
      vertex 1.70611 7.26951 0.804509
      vertex 1.70611 7.26951 2
    endloop
  endfacet
  facet normal 0.707107 -0.707107 0
    outer loop
      vertex 1.70611 7.26951 0.804509
      vertex 1.59549 7.15889 2
      vertex 1.70611 7.26951 0.804508
    endloop
  endfacet
  facet normal 0.707107 -0.707107 0
    outer loop
      vertex 1.70611 7.26951 0.804508
      vertex 1.59549 7.15889 2
      vertex 1.59549 7.15889 0.693893
    endloop
  endfacet
  facet normal 0.707107 -0.707107 0
    outer loop
      vertex 4.13549 2.07889 2
      vertex 4.24611 2.18951 0
      vertex 4.24611 2.18951 2
    endloop
  endfacet
  facet normal 0.707107 -0.707107 0
    outer loop
      vertex 4.24611 2.18951 0
      vertex 4.13549 2.07889 2
      vertex 4.13549 2.07889 0
    endloop
  endfacet
  facet normal -0.57114 -0.707084 0.416932
    outer loop
      vertex 5.04082 2.07889 0
      vertex 6.36387 2.18951 2
      vertex 4.90387 2.18951 0
    endloop
  endfacet
  facet normal -0.57114 -0.707084 0.416932
    outer loop
      vertex 6.36387 2.18951 2
      vertex 5.04082 2.07889 0
      vertex 6.50082 2.07889 2
    endloop
  endfacet
  facet normal -0.71974 -0.453782 0.52541
    outer loop
      vertex 6.58875 1.93951 2
      vertex 5.12271 1.94909 0
      vertex 5.12875 1.93951 0
    endloop
  endfacet
  facet normal -0.719663 -0.45397 0.525353
    outer loop
      vertex 5.12271 1.94909 0
      vertex 6.58875 1.93951 2
      vertex 6.53961 2.01741 2
    endloop
  endfacet
  facet normal -0.366661 -0.89102 0.267662
    outer loop
      vertex 4.90387 2.18951 0
      vertex 6.28251 2.22299 2
      vertex 4.73527 2.25889 0
    endloop
  endfacet
  facet normal -0.366659 -0.891021 0.267661
    outer loop
      vertex 6.28251 2.22299 2
      vertex 4.90387 2.18951 0
      vertex 6.36387 2.18951 2
    endloop
  endfacet
  facet normal -0.366659 0.891021 0.267661
    outer loop
      vertex 4.90387 1.38049 0
      vertex 6.28251 1.34701 2
      vertex 6.36387 1.38049 2
    endloop
  endfacet
  facet normal -0.366661 0.89102 0.267662
    outer loop
      vertex 6.28251 1.34701 2
      vertex 4.90387 1.38049 0
      vertex 4.73527 1.31111 0
    endloop
  endfacet
  facet normal 0.454002 0.891 -0
    outer loop
      vertex 4.38549 1.30947 0
      vertex 4.24611 1.38049 2
      vertex 4.38549 1.30947 2
    endloop
  endfacet
  facet normal 0.454002 0.891 0
    outer loop
      vertex 4.24611 1.38049 2
      vertex 4.38549 1.30947 0
      vertex 4.24611 1.38049 0
    endloop
  endfacet
  facet normal 0.156422 0.98769 -0
    outer loop
      vertex 4.54 1.285 0
      vertex 4.38549 1.30947 2
      vertex 4.54 1.285 2
    endloop
  endfacet
  facet normal 0.156422 0.98769 0
    outer loop
      vertex 4.38549 1.30947 2
      vertex 4.54 1.285 0
      vertex 4.38549 1.30947 0
    endloop
  endfacet
  facet normal -0.367785 -0.890309 0.268483
    outer loop
      vertex 4.73527 2.25889 0
      vertex 6.1913 2.26053 2
      vertex 4.7313 2.26053 0
    endloop
  endfacet
  facet normal -0.366711 -0.890988 0.267701
    outer loop
      vertex 6.1913 2.26053 2
      vertex 4.73527 2.25889 0
      vertex 6.28251 2.22299 2
    endloop
  endfacet
  facet normal -0 1 0
    outer loop
      vertex 4.54 1.285 2
      vertex 6 1.285 2
      vertex 4.54 1.285 0
    endloop
  endfacet
  facet normal 0.98769 -0.156422 0
    outer loop
      vertex 4.04 1.785 2
      vertex 4.06447 1.93951 0
      vertex 4.06447 1.93951 2
    endloop
  endfacet
  facet normal 0.98769 -0.156422 0
    outer loop
      vertex 4.06447 1.93951 0
      vertex 4.04 1.785 2
      vertex 4.04 1.785 0
    endloop
  endfacet
  facet normal 0.891 0.454002 0
    outer loop
      vertex 4.13549 1.49111 2
      vertex 4.06447 1.63049 0
      vertex 4.06447 1.63049 2
    endloop
  endfacet
  facet normal 0.891 0.454002 0
    outer loop
      vertex 4.06447 1.63049 0
      vertex 4.13549 1.49111 2
      vertex 4.13549 1.49111 0
    endloop
  endfacet
  facet normal 0.454002 -0.891 0
    outer loop
      vertex 4.24611 2.18951 0
      vertex 4.38549 2.26053 2
      vertex 4.24611 2.18951 2
    endloop
  endfacet
  facet normal 0.454002 -0.891 0
    outer loop
      vertex 4.38549 2.26053 2
      vertex 4.24611 2.18951 0
      vertex 4.38549 2.26053 0
    endloop
  endfacet
  facet normal -0.719633 -0.454043 0.525332
    outer loop
      vertex 5.04082 2.07889 0
      vertex 6.53961 2.01741 2
      vertex 6.50082 2.07889 2
    endloop
  endfacet
  facet normal -0.719643 -0.454018 0.52534
    outer loop
      vertex 6.53961 2.01741 2
      vertex 5.04082 2.07889 0
      vertex 5.12271 1.94909 0
    endloop
  endfacet
  facet normal -0.366711 0.890988 0.267701
    outer loop
      vertex 4.73527 1.31111 0
      vertex 6.1913 1.30947 2
      vertex 6.28251 1.34701 2
    endloop
  endfacet
  facet normal -0.367785 0.890309 0.268483
    outer loop
      vertex 6.1913 1.30947 2
      vertex 4.73527 1.31111 0
      vertex 4.7313 1.30947 0
    endloop
  endfacet
  facet normal -0.12634 0.98769 0.092228
    outer loop
      vertex 4.7313 1.30947 0
      vertex 6 1.285 2
      vertex 6.1913 1.30947 2
    endloop
  endfacet
  facet normal -0.12634 0.98769 0.092228
    outer loop
      vertex 6 1.285 2
      vertex 4.7313 1.30947 0
      vertex 4.54 1.285 0
    endloop
  endfacet
  facet normal 0.156422 -0.98769 0
    outer loop
      vertex 4.38549 2.26053 0
      vertex 4.54 2.285 2
      vertex 4.38549 2.26053 2
    endloop
  endfacet
  facet normal 0.156422 -0.98769 0
    outer loop
      vertex 4.54 2.285 2
      vertex 4.38549 2.26053 0
      vertex 4.54 2.285 0
    endloop
  endfacet
  facet normal -0.797742 -0.15644 0.582352
    outer loop
      vertex 5.15905 1.785 0
      vertex 6.58875 1.93951 2
      vertex 5.12875 1.93951 0
    endloop
  endfacet
  facet normal -0.797742 -0.15644 0.582352
    outer loop
      vertex 6.58875 1.93951 2
      vertex 5.15905 1.785 0
      vertex 6.61905 1.785 2
    endloop
  endfacet
  facet normal -0.57114 0.707084 0.416932
    outer loop
      vertex 5.04082 1.49111 0
      vertex 6.36387 1.38049 2
      vertex 6.50082 1.49111 2
    endloop
  endfacet
  facet normal -0.57114 0.707084 0.416932
    outer loop
      vertex 6.36387 1.38049 2
      vertex 5.04082 1.49111 0
      vertex 4.90387 1.38049 0
    endloop
  endfacet
  facet normal 0.98769 0.156422 0
    outer loop
      vertex 4.06447 1.63049 2
      vertex 4.04 1.785 0
      vertex 4.04 1.785 2
    endloop
  endfacet
  facet normal 0.98769 0.156422 0
    outer loop
      vertex 4.04 1.785 0
      vertex 4.06447 1.63049 2
      vertex 4.06447 1.63049 0
    endloop
  endfacet
  facet normal 0.891 -0.454002 0
    outer loop
      vertex 4.06447 1.93951 2
      vertex 4.13549 2.07889 0
      vertex 4.13549 2.07889 2
    endloop
  endfacet
  facet normal 0.891 -0.454002 0
    outer loop
      vertex 4.13549 2.07889 0
      vertex 4.06447 1.93951 2
      vertex 4.06447 1.93951 0
    endloop
  endfacet
  facet normal -0.12634 -0.98769 0.092228
    outer loop
      vertex 4.7313 2.26053 0
      vertex 6 2.285 2
      vertex 4.54 2.285 0
    endloop
  endfacet
  facet normal -0.12634 -0.98769 0.092228
    outer loop
      vertex 6 2.285 2
      vertex 4.7313 2.26053 0
      vertex 6.1913 2.26053 2
    endloop
  endfacet
  facet normal -0 -1 0
    outer loop
      vertex 6 2.285 2
      vertex 4.54 2.285 2
      vertex 4.54 2.285 0
    endloop
  endfacet
  facet normal 0.707107 0.707107 0
    outer loop
      vertex 4.24611 1.38049 2
      vertex 4.13549 1.49111 0
      vertex 4.13549 1.49111 2
    endloop
  endfacet
  facet normal 0.707107 0.707107 0
    outer loop
      vertex 4.13549 1.49111 0
      vertex 4.24611 1.38049 2
      vertex 4.24611 1.38049 0
    endloop
  endfacet
  facet normal -0.797742 0.15644 0.582352
    outer loop
      vertex 5.12875 1.63049 0
      vertex 6.61905 1.785 2
      vertex 5.15905 1.785 0
    endloop
  endfacet
  facet normal -0.797742 0.15644 0.582352
    outer loop
      vertex 6.61905 1.785 2
      vertex 5.12875 1.63049 0
      vertex 6.58875 1.63049 2
    endloop
  endfacet
  facet normal -0.719643 0.454018 0.52534
    outer loop
      vertex 5.04082 1.49111 0
      vertex 6.53961 1.55259 2
      vertex 5.12271 1.62091 0
    endloop
  endfacet
  facet normal -0.719633 0.454043 0.525332
    outer loop
      vertex 6.53961 1.55259 2
      vertex 5.04082 1.49111 0
      vertex 6.50082 1.49111 2
    endloop
  endfacet
  facet normal -0.71974 0.453782 0.52541
    outer loop
      vertex 5.12271 1.62091 0
      vertex 6.58875 1.63049 2
      vertex 5.12875 1.63049 0
    endloop
  endfacet
  facet normal -0.719663 0.45397 0.525353
    outer loop
      vertex 6.58875 1.63049 2
      vertex 5.12271 1.62091 0
      vertex 6.53961 1.55259 2
    endloop
  endfacet
  facet normal 0.156422 -0.98769 0
    outer loop
      vertex 4.38549 4.80053 0
      vertex 4.54 4.825 2
      vertex 4.38549 4.80053 2
    endloop
  endfacet
  facet normal 0.156422 -0.98769 0
    outer loop
      vertex 4.54 4.825 2
      vertex 4.38549 4.80053 0
      vertex 4.54 4.825 0
    endloop
  endfacet
  facet normal 0.98769 0.156422 0
    outer loop
      vertex 4.06447 4.17049 2
      vertex 4.04 4.325 0
      vertex 4.04 4.325 2
    endloop
  endfacet
  facet normal 0.98769 0.156422 0
    outer loop
      vertex 4.04 4.325 0
      vertex 4.06447 4.17049 2
      vertex 4.06447 4.17049 0
    endloop
  endfacet
  facet normal -0.719633 -0.454043 0.525332
    outer loop
      vertex 5.04082 4.61889 0
      vertex 6.53961 4.55741 2
      vertex 6.50082 4.61889 2
    endloop
  endfacet
  facet normal -0.719643 -0.454018 0.52534
    outer loop
      vertex 6.53961 4.55741 2
      vertex 5.04082 4.61889 0
      vertex 5.12271 4.48909 0
    endloop
  endfacet
  facet normal -0.57114 -0.707084 0.416932
    outer loop
      vertex 5.04082 4.61889 0
      vertex 6.36387 4.72951 2
      vertex 4.90387 4.72951 0
    endloop
  endfacet
  facet normal -0.57114 -0.707084 0.416932
    outer loop
      vertex 6.36387 4.72951 2
      vertex 5.04082 4.61889 0
      vertex 6.50082 4.61889 2
    endloop
  endfacet
  facet normal 0.891 0.454002 0
    outer loop
      vertex 4.13549 4.03111 2
      vertex 4.06447 4.17049 0
      vertex 4.06447 4.17049 2
    endloop
  endfacet
  facet normal 0.891 0.454002 0
    outer loop
      vertex 4.06447 4.17049 0
      vertex 4.13549 4.03111 2
      vertex 4.13549 4.03111 0
    endloop
  endfacet
  facet normal -0.366711 0.890988 0.267701
    outer loop
      vertex 4.73527 3.85111 0
      vertex 6.1913 3.84947 2
      vertex 6.28251 3.88701 2
    endloop
  endfacet
  facet normal -0.367785 0.890309 0.268483
    outer loop
      vertex 6.1913 3.84947 2
      vertex 4.73527 3.85111 0
      vertex 4.7313 3.84947 0
    endloop
  endfacet
  facet normal -0.797742 -0.15644 0.582352
    outer loop
      vertex 5.15905 4.325 0
      vertex 6.58875 4.47951 2
      vertex 5.12875 4.47951 0
    endloop
  endfacet
  facet normal -0.797742 -0.15644 0.582352
    outer loop
      vertex 6.58875 4.47951 2
      vertex 5.15905 4.325 0
      vertex 6.61905 4.325 2
    endloop
  endfacet
  facet normal -0 1 0
    outer loop
      vertex 4.54 3.825 2
      vertex 6 3.825 2
      vertex 4.54 3.825 0
    endloop
  endfacet
  facet normal -0.71974 -0.453782 0.52541
    outer loop
      vertex 6.58875 4.47951 2
      vertex 5.12271 4.48909 0
      vertex 5.12875 4.47951 0
    endloop
  endfacet
  facet normal -0.719663 -0.45397 0.525353
    outer loop
      vertex 5.12271 4.48909 0
      vertex 6.58875 4.47951 2
      vertex 6.53961 4.55741 2
    endloop
  endfacet
  facet normal 0.707107 -0.707107 0
    outer loop
      vertex 4.13549 4.61889 2
      vertex 4.24611 4.72951 0
      vertex 4.24611 4.72951 2
    endloop
  endfacet
  facet normal 0.707107 -0.707107 0
    outer loop
      vertex 4.24611 4.72951 0
      vertex 4.13549 4.61889 2
      vertex 4.13549 4.61889 0
    endloop
  endfacet
  facet normal 0.454002 -0.891 0
    outer loop
      vertex 4.24611 4.72951 0
      vertex 4.38549 4.80053 2
      vertex 4.24611 4.72951 2
    endloop
  endfacet
  facet normal 0.454002 -0.891 0
    outer loop
      vertex 4.38549 4.80053 2
      vertex 4.24611 4.72951 0
      vertex 4.38549 4.80053 0
    endloop
  endfacet
  facet normal -0.366661 -0.89102 0.267662
    outer loop
      vertex 4.90387 4.72951 0
      vertex 6.28251 4.76299 2
      vertex 4.73527 4.79889 0
    endloop
  endfacet
  facet normal -0.366659 -0.891021 0.267661
    outer loop
      vertex 6.28251 4.76299 2
      vertex 4.90387 4.72951 0
      vertex 6.36387 4.72951 2
    endloop
  endfacet
  facet normal -0.366659 0.891021 0.267661
    outer loop
      vertex 4.90387 3.92049 0
      vertex 6.28251 3.88701 2
      vertex 6.36387 3.92049 2
    endloop
  endfacet
  facet normal -0.366661 0.89102 0.267662
    outer loop
      vertex 6.28251 3.88701 2
      vertex 4.90387 3.92049 0
      vertex 4.73527 3.85111 0
    endloop
  endfacet
  facet normal -0.71974 0.453782 0.52541
    outer loop
      vertex 5.12271 4.16091 0
      vertex 6.58875 4.17049 2
      vertex 5.12875 4.17049 0
    endloop
  endfacet
  facet normal -0.719663 0.45397 0.525353
    outer loop
      vertex 6.58875 4.17049 2
      vertex 5.12271 4.16091 0
      vertex 6.53961 4.09259 2
    endloop
  endfacet
  facet normal -0.12634 0.98769 0.092228
    outer loop
      vertex 4.7313 3.84947 0
      vertex 6 3.825 2
      vertex 6.1913 3.84947 2
    endloop
  endfacet
  facet normal -0.12634 0.98769 0.092228
    outer loop
      vertex 6 3.825 2
      vertex 4.7313 3.84947 0
      vertex 4.54 3.825 0
    endloop
  endfacet
  facet normal 0.891 -0.454002 0
    outer loop
      vertex 4.06447 4.47951 2
      vertex 4.13549 4.61889 0
      vertex 4.13549 4.61889 2
    endloop
  endfacet
  facet normal 0.891 -0.454002 0
    outer loop
      vertex 4.13549 4.61889 0
      vertex 4.06447 4.47951 2
      vertex 4.06447 4.47951 0
    endloop
  endfacet
  facet normal -0.12634 -0.98769 0.092228
    outer loop
      vertex 4.7313 4.80053 0
      vertex 6 4.825 2
      vertex 4.54 4.825 0
    endloop
  endfacet
  facet normal -0.12634 -0.98769 0.092228
    outer loop
      vertex 6 4.825 2
      vertex 4.7313 4.80053 0
      vertex 6.1913 4.80053 2
    endloop
  endfacet
  facet normal -0 -1 0
    outer loop
      vertex 6 4.825 2
      vertex 4.54 4.825 2
      vertex 4.54 4.825 0
    endloop
  endfacet
  facet normal 0.156422 0.98769 -0
    outer loop
      vertex 4.54 3.825 0
      vertex 4.38549 3.84947 2
      vertex 4.54 3.825 2
    endloop
  endfacet
  facet normal 0.156422 0.98769 0
    outer loop
      vertex 4.38549 3.84947 2
      vertex 4.54 3.825 0
      vertex 4.38549 3.84947 0
    endloop
  endfacet
  facet normal 0.454002 0.891 -0
    outer loop
      vertex 4.38549 3.84947 0
      vertex 4.24611 3.92049 2
      vertex 4.38549 3.84947 2
    endloop
  endfacet
  facet normal 0.454002 0.891 0
    outer loop
      vertex 4.24611 3.92049 2
      vertex 4.38549 3.84947 0
      vertex 4.24611 3.92049 0
    endloop
  endfacet
  facet normal 0.98769 -0.156422 0
    outer loop
      vertex 4.04 4.325 2
      vertex 4.06447 4.47951 0
      vertex 4.06447 4.47951 2
    endloop
  endfacet
  facet normal 0.98769 -0.156422 0
    outer loop
      vertex 4.06447 4.47951 0
      vertex 4.04 4.325 2
      vertex 4.04 4.325 0
    endloop
  endfacet
  facet normal -0.367785 -0.890309 0.268483
    outer loop
      vertex 4.73527 4.79889 0
      vertex 6.1913 4.80053 2
      vertex 4.7313 4.80053 0
    endloop
  endfacet
  facet normal -0.366711 -0.890988 0.267701
    outer loop
      vertex 6.1913 4.80053 2
      vertex 4.73527 4.79889 0
      vertex 6.28251 4.76299 2
    endloop
  endfacet
  facet normal -0.719643 0.454018 0.52534
    outer loop
      vertex 5.04082 4.03111 0
      vertex 6.53961 4.09259 2
      vertex 5.12271 4.16091 0
    endloop
  endfacet
  facet normal -0.719633 0.454043 0.525332
    outer loop
      vertex 6.53961 4.09259 2
      vertex 5.04082 4.03111 0
      vertex 6.50082 4.03111 2
    endloop
  endfacet
  facet normal 0.707107 0.707107 -0
    outer loop
      vertex 4.24611 3.92049 0
      vertex 4.13549 4.03111 2
      vertex 4.24611 3.92049 2
    endloop
  endfacet
  facet normal 0.707107 0.707107 0
    outer loop
      vertex 4.13549 4.03111 2
      vertex 4.24611 3.92049 0
      vertex 4.13549 4.03111 0
    endloop
  endfacet
  facet normal -0.797742 0.15644 0.582352
    outer loop
      vertex 5.12875 4.17049 0
      vertex 6.61905 4.325 2
      vertex 5.15905 4.325 0
    endloop
  endfacet
  facet normal -0.797742 0.15644 0.582352
    outer loop
      vertex 6.61905 4.325 2
      vertex 5.12875 4.17049 0
      vertex 6.58875 4.17049 2
    endloop
  endfacet
  facet normal -0.57114 0.707084 0.416932
    outer loop
      vertex 5.04082 4.03111 0
      vertex 6.36387 3.92049 2
      vertex 6.50082 4.03111 2
    endloop
  endfacet
  facet normal -0.57114 0.707084 0.416932
    outer loop
      vertex 6.36387 3.92049 2
      vertex 5.04082 4.03111 0
      vertex 4.90387 3.92049 0
    endloop
  endfacet
  facet normal -0.707107 -0.707107 -0
    outer loop
      vertex 6.40451 7.15889 2
      vertex 6.29389 7.26951 0.804508
      vertex 6.40451 7.15889 0.693892
    endloop
  endfacet
  facet normal -0.707107 -0.707107 0
    outer loop
      vertex 6.29389 7.26951 0.804508
      vertex 6.40451 7.15889 2
      vertex 6.29389 7.26951 2
    endloop
  endfacet
  facet normal 0.98769 0.156422 0
    outer loop
      vertex 5.52447 6.71049 2
      vertex 5.5 6.865 0.4
      vertex 5.5 6.865 2
    endloop
  endfacet
  facet normal 0.98769 0.156422 -0
    outer loop
      vertex 5.52447 6.71049 0
      vertex 5.5 6.865 0.4
      vertex 5.52447 6.71049 2
    endloop
  endfacet
  facet normal 0.98769 0.156422 0
    outer loop
      vertex 5.5 6.865 0.4
      vertex 5.52447 6.71049 0
      vertex 5.5 6.865 0
    endloop
  endfacet
  facet normal 0.707107 0.707107 0
    outer loop
      vertex 5.70611 6.46049 2
      vertex 5.59549 6.57111 0
      vertex 5.59549 6.57111 2
    endloop
  endfacet
  facet normal 0.707107 0.707107 0
    outer loop
      vertex 5.59549 6.57111 0
      vertex 5.70611 6.46049 2
      vertex 5.70611 6.46049 0
    endloop
  endfacet
  facet normal -0.454002 -0.891 0
    outer loop
      vertex 6.15451 7.34053 0.875527
      vertex 6.29389 7.26951 2
      vertex 6.15451 7.34053 2
    endloop
  endfacet
  facet normal -0.454002 -0.891 -0
    outer loop
      vertex 6.29389 7.26951 2
      vertex 6.15451 7.34053 0.875527
      vertex 6.29389 7.26951 0.804508
    endloop
  endfacet
  facet normal 0.707107 -0.707107 0
    outer loop
      vertex 5.59549 7.15889 2
      vertex 5.70611 7.26951 0.804508
      vertex 5.70611 7.26951 2
    endloop
  endfacet
  facet normal 0.707107 -0.707107 0
    outer loop
      vertex 5.70611 7.26951 0.804508
      vertex 5.59549 7.15889 2
      vertex 5.59549 7.15889 0.693892
    endloop
  endfacet
  facet normal -0.156422 0.98769 0
    outer loop
      vertex 6.15451 6.38947 0
      vertex 6 6.365 2
      vertex 6.15451 6.38947 2
    endloop
  endfacet
  facet normal -0.156422 0.98769 0
    outer loop
      vertex 6 6.365 2
      vertex 6.15451 6.38947 0
      vertex 6 6.365 0
    endloop
  endfacet
  facet normal -0.454002 0.891 0
    outer loop
      vertex 6.29389 6.46049 0
      vertex 6.15451 6.38947 2
      vertex 6.29389 6.46049 2
    endloop
  endfacet
  facet normal -0.454002 0.891 0
    outer loop
      vertex 6.15451 6.38947 2
      vertex 6.29389 6.46049 0
      vertex 6.15451 6.38947 0
    endloop
  endfacet
  facet normal 0.156422 -0.98769 0
    outer loop
      vertex 5.84549 7.34053 2
      vertex 6 7.365 0.9
      vertex 6 7.365 2
    endloop
  endfacet
  facet normal 0.156422 -0.98769 0
    outer loop
      vertex 6 7.365 0.9
      vertex 5.84549 7.34053 2
      vertex 5.84549 7.34053 0.875527
    endloop
  endfacet
  facet normal -0.891 0.454002 0
    outer loop
      vertex 6.40451 6.57111 0
      vertex 6.47553 6.71049 2
      vertex 6.47553 6.71049 0
    endloop
  endfacet
  facet normal -0.891 0.454002 0
    outer loop
      vertex 6.47553 6.71049 2
      vertex 6.40451 6.57111 0
      vertex 6.40451 6.57111 2
    endloop
  endfacet
  facet normal 0.454002 -0.891 0
    outer loop
      vertex 5.70611 7.26951 2
      vertex 5.84549 7.34053 0.875527
      vertex 5.84549 7.34053 2
    endloop
  endfacet
  facet normal 0.454002 -0.891 0
    outer loop
      vertex 5.84549 7.34053 0.875527
      vertex 5.70611 7.26951 2
      vertex 5.70611 7.26951 0.804508
    endloop
  endfacet
  facet normal 0.454002 0.891 -0
    outer loop
      vertex 5.84549 6.38947 0
      vertex 5.70611 6.46049 2
      vertex 5.84549 6.38947 2
    endloop
  endfacet
  facet normal 0.454002 0.891 0
    outer loop
      vertex 5.70611 6.46049 2
      vertex 5.84549 6.38947 0
      vertex 5.70611 6.46049 0
    endloop
  endfacet
  facet normal -0.891 -0.454002 -0
    outer loop
      vertex 6.47553 7.01951 2
      vertex 6.40451 7.15889 0.693892
      vertex 6.47553 7.01951 0.554508
    endloop
  endfacet
  facet normal -0.891 -0.454002 0
    outer loop
      vertex 6.40451 7.15889 0.693892
      vertex 6.47553 7.01951 2
      vertex 6.40451 7.15889 2
    endloop
  endfacet
  facet normal -0.98769 -0.156422 -0
    outer loop
      vertex 6.5 6.865 2
      vertex 6.47553 7.01951 0.554508
      vertex 6.5 6.865 0.4
    endloop
  endfacet
  facet normal -0.98769 -0.156422 0
    outer loop
      vertex 6.47553 7.01951 0.554508
      vertex 6.5 6.865 2
      vertex 6.47553 7.01951 2
    endloop
  endfacet
  facet normal -0.156422 -0.98769 0
    outer loop
      vertex 6 7.365 0.9
      vertex 6.15451 7.34053 2
      vertex 6 7.365 2
    endloop
  endfacet
  facet normal -0.156422 -0.98769 -0
    outer loop
      vertex 6.15451 7.34053 2
      vertex 6 7.365 0.9
      vertex 6.15451 7.34053 0.875527
    endloop
  endfacet
  facet normal 0.891 0.454002 0
    outer loop
      vertex 5.59549 6.57111 2
      vertex 5.52447 6.71049 0
      vertex 5.52447 6.71049 2
    endloop
  endfacet
  facet normal 0.891 0.454002 0
    outer loop
      vertex 5.52447 6.71049 0
      vertex 5.59549 6.57111 2
      vertex 5.59549 6.57111 0
    endloop
  endfacet
  facet normal 0.98769 -0.156422 0
    outer loop
      vertex 5.5 6.865 2
      vertex 5.52447 7.01951 0.554508
      vertex 5.52447 7.01951 2
    endloop
  endfacet
  facet normal 0.98769 -0.156422 0
    outer loop
      vertex 5.52447 7.01951 0.554508
      vertex 5.5 6.865 2
      vertex 5.5 6.865 0.4
    endloop
  endfacet
  facet normal 0.156422 0.98769 -0
    outer loop
      vertex 6 6.365 0
      vertex 5.84549 6.38947 2
      vertex 6 6.365 2
    endloop
  endfacet
  facet normal 0.156422 0.98769 0
    outer loop
      vertex 5.84549 6.38947 2
      vertex 6 6.365 0
      vertex 5.84549 6.38947 0
    endloop
  endfacet
  facet normal -0.98769 0.156422 0
    outer loop
      vertex 6.47553 6.71049 0
      vertex 6.5 6.865 0.4
      vertex 6.5 6.865 0
    endloop
  endfacet
  facet normal -0.98769 0.156422 0
    outer loop
      vertex 6.47553 6.71049 2
      vertex 6.5 6.865 0.4
      vertex 6.47553 6.71049 0
    endloop
  endfacet
  facet normal -0.98769 0.156422 0
    outer loop
      vertex 6.5 6.865 0.4
      vertex 6.47553 6.71049 2
      vertex 6.5 6.865 2
    endloop
  endfacet
  facet normal 0.891 -0.454002 0
    outer loop
      vertex 5.52447 7.01951 2
      vertex 5.59549 7.15889 0.693892
      vertex 5.59549 7.15889 2
    endloop
  endfacet
  facet normal 0.891 -0.454002 0
    outer loop
      vertex 5.59549 7.15889 0.693892
      vertex 5.52447 7.01951 2
      vertex 5.52447 7.01951 0.554508
    endloop
  endfacet
  facet normal -0.707107 0.707107 0
    outer loop
      vertex 6.29389 6.46049 0
      vertex 6.40451 6.57111 2
      vertex 6.40451 6.57111 0
    endloop
  endfacet
  facet normal -0.707107 0.707107 0
    outer loop
      vertex 6.40451 6.57111 2
      vertex 6.29389 6.46049 0
      vertex 6.29389 6.46049 2
    endloop
  endfacet
  facet normal 1 -0 0
    outer loop
      vertex 8.5 -0.5 3.5
      vertex 8.5 9.15 0
      vertex 8.5 9.15 3.5
    endloop
  endfacet
  facet normal 1 0 0
    outer loop
      vertex 8.5 9.15 0
      vertex 8.5 -0.5 3.5
      vertex 8.5 -0.5 0
    endloop
  endfacet
  facet normal 0 0 1
    outer loop
      vertex 8.5 9.15 3.5
      vertex 8.01 8.65 3.5
      vertex 8.5 -0.5 3.5
    endloop
  endfacet
  facet normal 0 0 1
    outer loop
      vertex 8.5 9.15 3.5
      vertex 0 8.65 3.5
      vertex 8.01 8.65 3.5
    endloop
  endfacet
  facet normal 0 0 1
    outer loop
      vertex 0 8.65 3.5
      vertex -0.5 9.15 3.5
      vertex 0 0 3.5
    endloop
  endfacet
  facet normal -0 0 1
    outer loop
      vertex -0.5 9.15 3.5
      vertex 0 8.65 3.5
      vertex 8.5 9.15 3.5
    endloop
  endfacet
  facet normal -0 0 1
    outer loop
      vertex 8.01 0 3.5
      vertex 8.5 -0.5 3.5
      vertex 8.01 8.65 3.5
    endloop
  endfacet
  facet normal -0 0 1
    outer loop
      vertex 0 0 3.5
      vertex 8.5 -0.5 3.5
      vertex 8.01 0 3.5
    endloop
  endfacet
  facet normal 0 0 1
    outer loop
      vertex 0 0 3.5
      vertex -0.5 -0.5 3.5
      vertex 8.5 -0.5 3.5
    endloop
  endfacet
  facet normal 0 0 1
    outer loop
      vertex -0.5 -0.5 3.5
      vertex 0 0 3.5
      vertex -0.5 9.15 3.5
    endloop
  endfacet
  facet normal 0 0 -1
    outer loop
      vertex 2.40451 4.61889 0
      vertex 4.13549 4.61889 0
      vertex 2.47553 4.47951 0
    endloop
  endfacet
  facet normal 0 0 -1
    outer loop
      vertex 4.13549 4.61889 0
      vertex 2.47553 6.71049 0
      vertex 2.5 6.865 0
    endloop
  endfacet
  facet normal 0 0 -1
    outer loop
      vertex 2.40451 6.57111 0
      vertex 4.13549 4.61889 0
      vertex 2.40451 4.61889 0
    endloop
  endfacet
  facet normal 0 0 -1
    outer loop
      vertex 4.13549 4.61889 0
      vertex 2.40451 6.57111 0
      vertex 2.47553 6.71049 0
    endloop
  endfacet
  facet normal 0 0 -1
    outer loop
      vertex 2.29389 4.72951 0
      vertex 2.40451 6.57111 0
      vertex 2.40451 4.61889 0
    endloop
  endfacet
  facet normal 0 0 -1
    outer loop
      vertex 2.29389 4.72951 0
      vertex 2.29389 6.46049 0
      vertex 2.40451 6.57111 0
    endloop
  endfacet
  facet normal 0 0 -1
    outer loop
      vertex 2.15451 4.80053 0
      vertex 2.29389 6.46049 0
      vertex 2.29389 4.72951 0
    endloop
  endfacet
  facet normal 0 0 -1
    outer loop
      vertex 2.15451 4.80053 0
      vertex 2.15451 6.38947 0
      vertex 2.29389 6.46049 0
    endloop
  endfacet
  facet normal 0 0 -1
    outer loop
      vertex 2 4.825 0
      vertex 2.15451 6.38947 0
      vertex 2.15451 4.80053 0
    endloop
  endfacet
  facet normal 0 0 -1
    outer loop
      vertex 2 4.825 0
      vertex 2 6.365 0
      vertex 2.15451 6.38947 0
    endloop
  endfacet
  facet normal 0 0 -1
    outer loop
      vertex 1.84549 4.80053 0
      vertex 2 6.365 0
      vertex 2 4.825 0
    endloop
  endfacet
  facet normal 0 0 -1
    outer loop
      vertex 1.84549 4.80053 0
      vertex 1.84549 6.38947 0
      vertex 2 6.365 0
    endloop
  endfacet
  facet normal 0 0 -1
    outer loop
      vertex 1.70611 4.72951 0
      vertex 1.84549 6.38947 0
      vertex 1.84549 4.80053 0
    endloop
  endfacet
  facet normal 0 0 -1
    outer loop
      vertex 1.70611 4.72951 0
      vertex 1.70611 6.46049 0
      vertex 1.84549 6.38947 0
    endloop
  endfacet
  facet normal 0 0 -1
    outer loop
      vertex 1.59549 4.61889 0
      vertex 1.70611 6.46049 0
      vertex 1.70611 4.72951 0
    endloop
  endfacet
  facet normal 0 0 -1
    outer loop
      vertex 1.59549 4.61889 0
      vertex 1.59549 6.57111 0
      vertex 1.70611 6.46049 0
    endloop
  endfacet
  facet normal 0 0 -1
    outer loop
      vertex 1.52447 4.47951 0
      vertex 1.59549 6.57111 0
      vertex 1.59549 4.61889 0
    endloop
  endfacet
  facet normal 0 0 -1
    outer loop
      vertex 1.52447 4.47951 0
      vertex 1.52447 6.71049 0
      vertex 1.59549 6.57111 0
    endloop
  endfacet
  facet normal 0 0 -1
    outer loop
      vertex -0.5 9.15 0
      vertex 1.52447 4.47951 0
      vertex 1.5 4.325 0
    endloop
  endfacet
  facet normal 0 0 -1
    outer loop
      vertex 1.52447 4.47951 0
      vertex -0.5 9.15 0
      vertex 1.52447 6.71049 0
    endloop
  endfacet
  facet normal 0 0 -1
    outer loop
      vertex 4.13549 2.07889 0
      vertex 2.40451 2.07889 0
      vertex 4.13549 4.03111 0
    endloop
  endfacet
  facet normal 0 0 -1
    outer loop
      vertex 4.13549 4.03111 0
      vertex 2.47553 4.17049 0
      vertex 2.5 4.325 0
    endloop
  endfacet
  facet normal 0 0 -1
    outer loop
      vertex 2.40451 4.03111 0
      vertex 4.13549 4.03111 0
      vertex 2.40451 2.07889 0
    endloop
  endfacet
  facet normal 0 0 -1
    outer loop
      vertex 4.13549 4.03111 0
      vertex 2.40451 4.03111 0
      vertex 2.47553 4.17049 0
    endloop
  endfacet
  facet normal 0 0 -1
    outer loop
      vertex 2.29389 2.18951 0
      vertex 2.40451 4.03111 0
      vertex 2.40451 2.07889 0
    endloop
  endfacet
  facet normal 0 0 -1
    outer loop
      vertex 2.29389 2.18951 0
      vertex 2.29389 3.92049 0
      vertex 2.40451 4.03111 0
    endloop
  endfacet
  facet normal 0 0 -1
    outer loop
      vertex 2.15451 2.26053 0
      vertex 2.29389 3.92049 0
      vertex 2.29389 2.18951 0
    endloop
  endfacet
  facet normal 0 0 -1
    outer loop
      vertex 2.15451 2.26053 0
      vertex 2.15451 3.84947 0
      vertex 2.29389 3.92049 0
    endloop
  endfacet
  facet normal 0 0 -1
    outer loop
      vertex 2 2.285 0
      vertex 2.15451 3.84947 0
      vertex 2.15451 2.26053 0
    endloop
  endfacet
  facet normal 0 0 -1
    outer loop
      vertex 2 2.285 0
      vertex 2 3.825 0
      vertex 2.15451 3.84947 0
    endloop
  endfacet
  facet normal 0 0 -1
    outer loop
      vertex 1.84549 2.26053 0
      vertex 2 3.825 0
      vertex 2 2.285 0
    endloop
  endfacet
  facet normal 0 0 -1
    outer loop
      vertex 1.84549 2.26053 0
      vertex 1.84549 3.84947 0
      vertex 2 3.825 0
    endloop
  endfacet
  facet normal 0 0 -1
    outer loop
      vertex 1.70611 2.18951 0
      vertex 1.84549 3.84947 0
      vertex 1.84549 2.26053 0
    endloop
  endfacet
  facet normal 0 0 -1
    outer loop
      vertex 1.70611 2.18951 0
      vertex 1.70611 3.92049 0
      vertex 1.84549 3.84947 0
    endloop
  endfacet
  facet normal 0 0 -1
    outer loop
      vertex 1.59549 2.07889 0
      vertex 1.70611 3.92049 0
      vertex 1.70611 2.18951 0
    endloop
  endfacet
  facet normal 0 0 -1
    outer loop
      vertex 1.59549 2.07889 0
      vertex 1.59549 4.03111 0
      vertex 1.70611 3.92049 0
    endloop
  endfacet
  facet normal 0 0 -1
    outer loop
      vertex 1.52447 1.93951 0
      vertex 1.59549 4.03111 0
      vertex 1.59549 2.07889 0
    endloop
  endfacet
  facet normal 0 0 -1
    outer loop
      vertex 1.52447 1.93951 0
      vertex 1.52447 4.17049 0
      vertex 1.59549 4.03111 0
    endloop
  endfacet
  facet normal 0 0 -1
    outer loop
      vertex -0.5 -0.5 0
      vertex 1.52447 1.93951 0
      vertex 1.5 1.785 0
    endloop
  endfacet
  facet normal -0 0 -1
    outer loop
      vertex 1.52447 1.93951 0
      vertex -0.5 -0.5 0
      vertex 1.52447 4.17049 0
    endloop
  endfacet
  facet normal 0 0 -1
    outer loop
      vertex 5.12875 4.17049 0
      vertex 8.5 -0.5 0
      vertex 5.12875 1.93951 0
    endloop
  endfacet
  facet normal 0 0 -1
    outer loop
      vertex 8.5 -0.5 0
      vertex 5.12875 4.17049 0
      vertex 5.15905 4.325 0
    endloop
  endfacet
  facet normal 0 0 -1
    outer loop
      vertex 5.12271 1.94909 0
      vertex 5.12875 4.17049 0
      vertex 5.12875 1.93951 0
    endloop
  endfacet
  facet normal 0 0 -1
    outer loop
      vertex 5.12271 1.94909 0
      vertex 5.12271 4.16091 0
      vertex 5.12875 4.17049 0
    endloop
  endfacet
  facet normal 0 0 -1
    outer loop
      vertex 5.04082 2.07889 0
      vertex 5.12271 4.16091 0
      vertex 5.12271 1.94909 0
    endloop
  endfacet
  facet normal 0 0 -1
    outer loop
      vertex 5.04082 2.07889 0
      vertex 5.04082 4.03111 0
      vertex 5.12271 4.16091 0
    endloop
  endfacet
  facet normal 0 0 -1
    outer loop
      vertex 4.90387 2.18951 0
      vertex 5.04082 4.03111 0
      vertex 5.04082 2.07889 0
    endloop
  endfacet
  facet normal 0 0 -1
    outer loop
      vertex 4.90387 2.18951 0
      vertex 4.90387 3.92049 0
      vertex 5.04082 4.03111 0
    endloop
  endfacet
  facet normal 0 0 -1
    outer loop
      vertex 4.73527 2.25889 0
      vertex 4.90387 3.92049 0
      vertex 4.90387 2.18951 0
    endloop
  endfacet
  facet normal 0 0 -1
    outer loop
      vertex 4.73527 2.25889 0
      vertex 4.73527 3.85111 0
      vertex 4.90387 3.92049 0
    endloop
  endfacet
  facet normal 0 0 -1
    outer loop
      vertex 4.7313 2.26053 0
      vertex 4.73527 3.85111 0
      vertex 4.73527 2.25889 0
    endloop
  endfacet
  facet normal 0 0 -1
    outer loop
      vertex 4.7313 2.26053 0
      vertex 4.7313 3.84947 0
      vertex 4.73527 3.85111 0
    endloop
  endfacet
  facet normal 0 0 -1
    outer loop
      vertex 4.54 2.285 0
      vertex 4.7313 3.84947 0
      vertex 4.7313 2.26053 0
    endloop
  endfacet
  facet normal 0 0 -1
    outer loop
      vertex 4.54 2.285 0
      vertex 4.54 3.825 0
      vertex 4.7313 3.84947 0
    endloop
  endfacet
  facet normal 0 0 -1
    outer loop
      vertex 4.38549 2.26053 0
      vertex 4.54 3.825 0
      vertex 4.54 2.285 0
    endloop
  endfacet
  facet normal 0 0 -1
    outer loop
      vertex 4.38549 2.26053 0
      vertex 4.38549 3.84947 0
      vertex 4.54 3.825 0
    endloop
  endfacet
  facet normal 0 0 -1
    outer loop
      vertex 4.24611 2.18951 0
      vertex 4.38549 3.84947 0
      vertex 4.38549 2.26053 0
    endloop
  endfacet
  facet normal 0 0 -1
    outer loop
      vertex 4.24611 2.18951 0
      vertex 4.24611 3.92049 0
      vertex 4.38549 3.84947 0
    endloop
  endfacet
  facet normal 0 0 -1
    outer loop
      vertex 4.13549 2.07889 0
      vertex 4.24611 3.92049 0
      vertex 4.24611 2.18951 0
    endloop
  endfacet
  facet normal 0 0 -1
    outer loop
      vertex 4.13549 2.07889 0
      vertex 4.13549 4.03111 0
      vertex 4.24611 3.92049 0
    endloop
  endfacet
  facet normal 0 0 -1
    outer loop
      vertex 2.47553 1.93951 0
      vertex 4.06447 1.93951 0
      vertex 2.5 1.785 0
    endloop
  endfacet
  facet normal 0 0 -1
    outer loop
      vertex 4.06447 1.93951 0
      vertex 2.47553 1.93951 0
      vertex 4.13549 2.07889 0
    endloop
  endfacet
  facet normal 0 0 -1
    outer loop
      vertex 2.5 1.785 0
      vertex 4.06447 1.93951 0
      vertex 4.04 1.785 0
    endloop
  endfacet
  facet normal 0 0 -1
    outer loop
      vertex 2.40451 2.07889 0
      vertex 4.13549 2.07889 0
      vertex 2.47553 1.93951 0
    endloop
  endfacet
  facet normal 0 0 -1
    outer loop
      vertex 6.47553 6.71049 0
      vertex 8.5 9.15 0
      vertex 8.5 -0.5 0
    endloop
  endfacet
  facet normal 0 0 -1
    outer loop
      vertex 8.5 9.15 0
      vertex 6.47553 6.71049 0
      vertex 6.5 6.865 0
    endloop
  endfacet
  facet normal 0 0 -1
    outer loop
      vertex 8.5 -0.5 0
      vertex 6.40451 6.57111 0
      vertex 6.47553 6.71049 0
    endloop
  endfacet
  facet normal 0 0 -1
    outer loop
      vertex 8.5 -0.5 0
      vertex 6.29389 6.46049 0
      vertex 6.40451 6.57111 0
    endloop
  endfacet
  facet normal 0 0 -1
    outer loop
      vertex 5.15905 4.325 0
      vertex 6.29389 6.46049 0
      vertex 8.5 -0.5 0
    endloop
  endfacet
  facet normal 0 0 -1
    outer loop
      vertex 6.29389 6.46049 0
      vertex 5.15905 4.325 0
      vertex 6.15451 6.38947 0
    endloop
  endfacet
  facet normal 0 0 -1
    outer loop
      vertex 5.12875 4.47951 0
      vertex 6.15451 6.38947 0
      vertex 5.15905 4.325 0
    endloop
  endfacet
  facet normal 0 0 -1
    outer loop
      vertex 6.15451 6.38947 0
      vertex 5.12875 4.47951 0
      vertex 6 6.365 0
    endloop
  endfacet
  facet normal 0 0 -1
    outer loop
      vertex 5.12271 4.48909 0
      vertex 6 6.365 0
      vertex 5.12875 4.47951 0
    endloop
  endfacet
  facet normal 0 0 -1
    outer loop
      vertex 5.04082 4.61889 0
      vertex 6 6.365 0
      vertex 5.12271 4.48909 0
    endloop
  endfacet
  facet normal 0 0 -1
    outer loop
      vertex 4.90387 4.72951 0
      vertex 5.84549 6.38947 0
      vertex 5.04082 4.61889 0
    endloop
  endfacet
  facet normal -0 0 -1
    outer loop
      vertex 6 6.365 0
      vertex 5.04082 4.61889 0
      vertex 5.84549 6.38947 0
    endloop
  endfacet
  facet normal 0 0 -1
    outer loop
      vertex 5.12875 1.93951 0
      vertex 8.5 -0.5 0
      vertex 5.15905 1.785 0
    endloop
  endfacet
  facet normal 0 0 -1
    outer loop
      vertex 8.5 -0.5 0
      vertex 5.12875 1.63049 0
      vertex 5.15905 1.785 0
    endloop
  endfacet
  facet normal 0 0 -1
    outer loop
      vertex 8.5 -0.5 0
      vertex 5.12271 1.62091 0
      vertex 5.12875 1.63049 0
    endloop
  endfacet
  facet normal 0 0 -1
    outer loop
      vertex 8.5 -0.5 0
      vertex 5.04082 1.49111 0
      vertex 5.12271 1.62091 0
    endloop
  endfacet
  facet normal 0 0 -1
    outer loop
      vertex 8.5 -0.5 0
      vertex 4.90387 1.38049 0
      vertex 5.04082 1.49111 0
    endloop
  endfacet
  facet normal 0 0 -1
    outer loop
      vertex 8.5 -0.5 0
      vertex 4.73527 1.31111 0
      vertex 4.90387 1.38049 0
    endloop
  endfacet
  facet normal 0 0 -1
    outer loop
      vertex 8.5 -0.5 0
      vertex 4.7313 1.30947 0
      vertex 4.73527 1.31111 0
    endloop
  endfacet
  facet normal 0 0 -1
    outer loop
      vertex 8.5 -0.5 0
      vertex 4.54 1.285 0
      vertex 4.7313 1.30947 0
    endloop
  endfacet
  facet normal 0 0 -1
    outer loop
      vertex -0.5 -0.5 0
      vertex 4.54 1.285 0
      vertex 8.5 -0.5 0
    endloop
  endfacet
  facet normal 0 0 -1
    outer loop
      vertex 4.13549 4.03111 0
      vertex 2.5 4.325 0
      vertex 4.06447 4.17049 0
    endloop
  endfacet
  facet normal 0 0 -1
    outer loop
      vertex 4.06447 1.63049 0
      vertex 2.5 1.785 0
      vertex 4.04 1.785 0
    endloop
  endfacet
  facet normal 0 0 -1
    outer loop
      vertex 2.47553 1.63049 0
      vertex 4.06447 1.63049 0
      vertex 4.13549 1.49111 0
    endloop
  endfacet
  facet normal 0 0 -1
    outer loop
      vertex 2.40451 1.49111 0
      vertex 4.13549 1.49111 0
      vertex 4.24611 1.38049 0
    endloop
  endfacet
  facet normal 0 0 -1
    outer loop
      vertex 2.29389 1.38049 0
      vertex 4.24611 1.38049 0
      vertex 4.38549 1.30947 0
    endloop
  endfacet
  facet normal -0 0 -1
    outer loop
      vertex 4.54 1.285 0
      vertex -0.5 -0.5 0
      vertex 4.38549 1.30947 0
    endloop
  endfacet
  facet normal 0 0 -1
    outer loop
      vertex 4.06447 1.63049 0
      vertex 2.47553 1.63049 0
      vertex 2.5 1.785 0
    endloop
  endfacet
  facet normal 0 0 -1
    outer loop
      vertex 4.13549 1.49111 0
      vertex 2.40451 1.49111 0
      vertex 2.47553 1.63049 0
    endloop
  endfacet
  facet normal 0 0 -1
    outer loop
      vertex 4.24611 1.38049 0
      vertex 2.29389 1.38049 0
      vertex 2.40451 1.49111 0
    endloop
  endfacet
  facet normal 0 0 -1
    outer loop
      vertex 4.38549 1.30947 0
      vertex 2.15451 1.30947 0
      vertex 2.29389 1.38049 0
    endloop
  endfacet
  facet normal -0 0 -1
    outer loop
      vertex 4.38549 1.30947 0
      vertex -0.5 -0.5 0
      vertex 2.15451 1.30947 0
    endloop
  endfacet
  facet normal 0 0 -1
    outer loop
      vertex 2.15451 1.30947 0
      vertex -0.5 -0.5 0
      vertex 2 1.285 0
    endloop
  endfacet
  facet normal -0 0 -1
    outer loop
      vertex 1.52447 4.17049 0
      vertex -0.5 -0.5 0
      vertex 1.5 4.325 0
    endloop
  endfacet
  facet normal 0 0 -1
    outer loop
      vertex 1.52447 6.71049 0
      vertex -0.5 9.15 0
      vertex 1.5 6.865 0
    endloop
  endfacet
  facet normal -0 0 -1
    outer loop
      vertex 2 1.285 0
      vertex -0.5 -0.5 0
      vertex 1.84549 1.30947 0
    endloop
  endfacet
  facet normal 0 0 -1
    outer loop
      vertex -0.5 -0.5 0
      vertex 1.70611 1.38049 0
      vertex 1.84549 1.30947 0
    endloop
  endfacet
  facet normal 0 0 -1
    outer loop
      vertex -0.5 -0.5 0
      vertex 1.59549 1.49111 0
      vertex 1.70611 1.38049 0
    endloop
  endfacet
  facet normal 0 0 -1
    outer loop
      vertex -0.5 -0.5 0
      vertex 1.52447 1.63049 0
      vertex 1.59549 1.49111 0
    endloop
  endfacet
  facet normal 0 0 -1
    outer loop
      vertex -0.5 -0.5 0
      vertex 1.5 1.785 0
      vertex 1.52447 1.63049 0
    endloop
  endfacet
  facet normal -0 0 -1
    outer loop
      vertex 1.5 4.325 0
      vertex -0.5 -0.5 0
      vertex -0.5 9.15 0
    endloop
  endfacet
  facet normal 0 0 -1
    outer loop
      vertex 1.5 6.865 0
      vertex -0.5 9.15 0
      vertex 1.5 9.15 0
    endloop
  endfacet
  facet normal -0 0 -1
    outer loop
      vertex 8.5 9.15 0
      vertex 6.5 6.865 0
      vertex 6.5 9.15 0
    endloop
  endfacet
  facet normal -0 0 -1
    outer loop
      vertex 5.84549 6.38947 0
      vertex 4.90387 4.72951 0
      vertex 5.70611 6.46049 0
    endloop
  endfacet
  facet normal 0 0 -1
    outer loop
      vertex 4.73527 4.79889 0
      vertex 5.70611 6.46049 0
      vertex 4.90387 4.72951 0
    endloop
  endfacet
  facet normal 0 0 -1
    outer loop
      vertex 4.7313 4.80053 0
      vertex 5.70611 6.46049 0
      vertex 4.73527 4.79889 0
    endloop
  endfacet
  facet normal -0 0 -1
    outer loop
      vertex 5.70611 6.46049 0
      vertex 4.7313 4.80053 0
      vertex 5.59549 6.57111 0
    endloop
  endfacet
  facet normal 0 0 -1
    outer loop
      vertex 4.54 4.825 0
      vertex 5.59549 6.57111 0
      vertex 4.7313 4.80053 0
    endloop
  endfacet
  facet normal -0 0 -1
    outer loop
      vertex 5.59549 6.57111 0
      vertex 4.54 4.825 0
      vertex 5.52447 6.71049 0
    endloop
  endfacet
  facet normal 0 0 -1
    outer loop
      vertex 4.38549 4.80053 0
      vertex 5.52447 6.71049 0
      vertex 4.54 4.825 0
    endloop
  endfacet
  facet normal 0 0 -1
    outer loop
      vertex 2.5 6.865 0
      vertex 5.52447 6.71049 0
      vertex 4.38549 4.80053 0
    endloop
  endfacet
  facet normal 0 0 -1
    outer loop
      vertex 5.52447 6.71049 0
      vertex 2.5 6.865 0
      vertex 5.5 6.865 0
    endloop
  endfacet
  facet normal 0 0 -1
    outer loop
      vertex 2.5 6.865 0
      vertex 4.38549 4.80053 0
      vertex 4.24611 4.72951 0
    endloop
  endfacet
  facet normal 0 0 -1
    outer loop
      vertex 2.5 6.865 0
      vertex 4.24611 4.72951 0
      vertex 4.13549 4.61889 0
    endloop
  endfacet
  facet normal 0 0 -1
    outer loop
      vertex 2.47553 4.47951 0
      vertex 4.06447 4.47951 0
      vertex 2.5 4.325 0
    endloop
  endfacet
  facet normal 0 0 -1
    outer loop
      vertex 4.06447 4.17049 0
      vertex 2.5 4.325 0
      vertex 4.04 4.325 0
    endloop
  endfacet
  facet normal 0 0 -1
    outer loop
      vertex 4.04 4.325 0
      vertex 2.5 4.325 0
      vertex 4.06447 4.47951 0
    endloop
  endfacet
  facet normal 0 0 -1
    outer loop
      vertex 4.06447 4.47951 0
      vertex 2.47553 4.47951 0
      vertex 4.13549 4.61889 0
    endloop
  endfacet
  facet normal 0 0 -1
    outer loop
      vertex 5.5 6.865 0
      vertex 2.5 6.865 0
      vertex 5.5 9.15 0
    endloop
  endfacet
  facet normal -0 0 -1
    outer loop
      vertex 5.5 9.15 0
      vertex 2.5 6.865 0
      vertex 2.5 9.15 0
    endloop
  endfacet
  facet normal -1 0 0
    outer loop
      vertex -0.5 -0.5 0
      vertex -0.5 9.15 3.5
      vertex -0.5 9.15 0
    endloop
  endfacet
  facet normal -1 -0 0
    outer loop
      vertex -0.5 9.15 3.5
      vertex -0.5 -0.5 0
      vertex -0.5 -0.5 3.5
    endloop
  endfacet
  facet normal 0 1 -0
    outer loop
      vertex 2.15451 9.15 0.875527
      vertex -0.5 9.15 3.5
      vertex 5.84549 9.15 0.875527
    endloop
  endfacet
  facet normal 0 1 0
    outer loop
      vertex -0.5 9.15 3.5
      vertex 2.15451 9.15 0.875527
      vertex 2 9.15 0.9
    endloop
  endfacet
  facet normal 0 1 -0
    outer loop
      vertex 5.70611 9.15 0.804508
      vertex 2.15451 9.15 0.875527
      vertex 5.84549 9.15 0.875527
    endloop
  endfacet
  facet normal 0 1 0
    outer loop
      vertex 5.70611 9.15 0.804508
      vertex 2.29389 9.15 0.804508
      vertex 2.15451 9.15 0.875527
    endloop
  endfacet
  facet normal 0 1 -0
    outer loop
      vertex 5.59549 9.15 0.693892
      vertex 2.29389 9.15 0.804508
      vertex 5.70611 9.15 0.804508
    endloop
  endfacet
  facet normal 0 1 0
    outer loop
      vertex 5.59549 9.15 0.693892
      vertex 2.40451 9.15 0.693892
      vertex 2.29389 9.15 0.804508
    endloop
  endfacet
  facet normal 0 1 -0
    outer loop
      vertex 5.52447 9.15 0.554508
      vertex 2.40451 9.15 0.693892
      vertex 5.59549 9.15 0.693892
    endloop
  endfacet
  facet normal 0 1 0
    outer loop
      vertex 5.52447 9.15 0.554508
      vertex 2.47553 9.15 0.554508
      vertex 2.40451 9.15 0.693892
    endloop
  endfacet
  facet normal 0 1 -0
    outer loop
      vertex 5.5 9.15 0.4
      vertex 2.47553 9.15 0.554508
      vertex 5.52447 9.15 0.554508
    endloop
  endfacet
  facet normal 0 1 0
    outer loop
      vertex 5.5 9.15 0.4
      vertex 2.5 9.15 0.4
      vertex 2.47553 9.15 0.554508
    endloop
  endfacet
  facet normal 0 1 -0
    outer loop
      vertex 5.5 9.15 0
      vertex 2.5 9.15 0.4
      vertex 5.5 9.15 0.4
    endloop
  endfacet
  facet normal 0 1 0
    outer loop
      vertex 2.5 9.15 0.4
      vertex 5.5 9.15 0
      vertex 2.5 9.15 0
    endloop
  endfacet
  facet normal 0 1 0
    outer loop
      vertex 5.84549 9.15 0.875527
      vertex 8.5 9.15 3.5
      vertex 6 9.15 0.9
    endloop
  endfacet
  facet normal 0 1 0
    outer loop
      vertex 8.5 9.15 3.5
      vertex 6.15451 9.15 0.875527
      vertex 6 9.15 0.9
    endloop
  endfacet
  facet normal 0 1 0
    outer loop
      vertex 8.5 9.15 3.5
      vertex 6.29389 9.15 0.804508
      vertex 6.15451 9.15 0.875527
    endloop
  endfacet
  facet normal 0 1 0
    outer loop
      vertex 8.5 9.15 3.5
      vertex 6.40451 9.15 0.693892
      vertex 6.29389 9.15 0.804508
    endloop
  endfacet
  facet normal 0 1 -0
    outer loop
      vertex 8.5 9.15 0
      vertex 6.40451 9.15 0.693892
      vertex 8.5 9.15 3.5
    endloop
  endfacet
  facet normal 0 1 0
    outer loop
      vertex 6.40451 9.15 0.693892
      vertex 8.5 9.15 0
      vertex 6.47553 9.15 0.554508
    endloop
  endfacet
  facet normal 0 1 0
    outer loop
      vertex 6.47553 9.15 0.554508
      vertex 8.5 9.15 0
      vertex 6.5 9.15 0.4
    endloop
  endfacet
  facet normal 0 1 0
    outer loop
      vertex 6.5 9.15 0.4
      vertex 8.5 9.15 0
      vertex 6.5 9.15 0
    endloop
  endfacet
  facet normal 0 1 0
    outer loop
      vertex 8.5 9.15 3.5
      vertex 5.84549 9.15 0.875527
      vertex -0.5 9.15 3.5
    endloop
  endfacet
  facet normal 0 1 -0
    outer loop
      vertex 1.84549 9.15 0.875527
      vertex -0.5 9.15 3.5
      vertex 2 9.15 0.9
    endloop
  endfacet
  facet normal 0 1 -0
    outer loop
      vertex 1.70611 9.15 0.804508
      vertex -0.5 9.15 3.5
      vertex 1.84549 9.15 0.875527
    endloop
  endfacet
  facet normal 0 1 -0
    outer loop
      vertex 1.59549 9.15 0.693892
      vertex -0.5 9.15 3.5
      vertex 1.70611 9.15 0.804508
    endloop
  endfacet
  facet normal 0 1 0
    outer loop
      vertex -0.5 9.15 0
      vertex 1.59549 9.15 0.693892
      vertex 1.52447 9.15 0.554508
    endloop
  endfacet
  facet normal 0 1 0
    outer loop
      vertex -0.5 9.15 0
      vertex 1.52447 9.15 0.554508
      vertex 1.5 9.15 0.4
    endloop
  endfacet
  facet normal 0 1 0
    outer loop
      vertex -0.5 9.15 0
      vertex 1.5 9.15 0.4
      vertex 1.5 9.15 0
    endloop
  endfacet
  facet normal 0 1 0
    outer loop
      vertex 1.59549 9.15 0.693892
      vertex -0.5 9.15 0
      vertex -0.5 9.15 3.5
    endloop
  endfacet
  facet normal 0 -1 0
    outer loop
      vertex -0.5 -0.5 0
      vertex 8.5 -0.5 3.5
      vertex -0.5 -0.5 3.5
    endloop
  endfacet
  facet normal 0 -1 -0
    outer loop
      vertex 8.5 -0.5 3.5
      vertex -0.5 -0.5 0
      vertex 8.5 -0.5 0
    endloop
  endfacet
  facet normal -1 0 0
    outer loop
      vertex 2.5 6.865 0
      vertex 2.5 9.15 0.4
      vertex 2.5 9.15 0
    endloop
  endfacet
  facet normal -1 -0 0
    outer loop
      vertex 2.5 9.15 0.4
      vertex 2.5 6.865 0
      vertex 2.5 6.865 0.4
    endloop
  endfacet
  facet normal -0.707094 0 -0.70712
    outer loop
      vertex 2.40451 9.15 0.693892
      vertex 2.29389 7.26951 0.804508
      vertex 2.29389 9.15 0.804508
    endloop
  endfacet
  facet normal -0.707094 0 -0.70712
    outer loop
      vertex 2.29389 7.26951 0.804508
      vertex 2.40451 9.15 0.693892
      vertex 2.40451 7.15889 0.693892
    endloop
  endfacet
  facet normal 0.707094 0 -0.70712
    outer loop
      vertex 1.70611 7.26951 0.804508
      vertex 1.59549 9.15 0.693892
      vertex 1.70611 9.15 0.804508
    endloop
  endfacet
  facet normal 0.707091 -3.5514e-07 -0.707123
    outer loop
      vertex 1.59549 7.15889 0.693893
      vertex 1.59549 9.15 0.693892
      vertex 1.70611 7.26951 0.804508
    endloop
  endfacet
  facet normal 1 0 0
    outer loop
      vertex 1.59549 9.15 0.693892
      vertex 1.59549 7.15889 0.693893
      vertex 1.59549 7.15889 0.693892
    endloop
  endfacet
  facet normal 0.98769 0 -0.156424
    outer loop
      vertex 1.52447 7.0195 0.554508
      vertex 1.5 9.15 0.4
      vertex 1.52447 9.15 0.554508
    endloop
  endfacet
  facet normal 0.98769 0 -0.156424
    outer loop
      vertex 1.5 9.15 0.4
      vertex 1.52447 7.0195 0.554508
      vertex 1.5 6.865 0.4
    endloop
  endfacet
  facet normal 0.453992 -4.73816e-07 -0.891006
    outer loop
      vertex 1.70611 9.15 0.804508
      vertex 1.84549 7.34053 0.875527
      vertex 1.70611 7.26951 0.804509
    endloop
  endfacet
  facet normal 1 0 0
    outer loop
      vertex 1.70611 9.15 0.804508
      vertex 1.70611 7.26951 0.804509
      vertex 1.70611 7.26951 0.804508
    endloop
  endfacet
  facet normal 0.453997 0 -0.891003
    outer loop
      vertex 1.84549 7.34053 0.875527
      vertex 1.70611 9.15 0.804508
      vertex 1.84549 9.15 0.875527
    endloop
  endfacet
  facet normal -0.453997 0 -0.891003
    outer loop
      vertex 2.15451 7.34053 0.875527
      vertex 2.29389 9.15 0.804508
      vertex 2.29389 7.26951 0.804508
    endloop
  endfacet
  facet normal -0.453997 0 -0.891003
    outer loop
      vertex 2.29389 9.15 0.804508
      vertex 2.15451 7.34053 0.875527
      vertex 2.15451 9.15 0.875527
    endloop
  endfacet
  facet normal -0.98769 0 -0.156424
    outer loop
      vertex 2.5 9.15 0.4
      vertex 2.47553 7.01951 0.554508
      vertex 2.47553 9.15 0.554508
    endloop
  endfacet
  facet normal -0.98769 0 -0.156424
    outer loop
      vertex 2.47553 7.01951 0.554508
      vertex 2.5 9.15 0.4
      vertex 2.5 6.865 0.4
    endloop
  endfacet
  facet normal -0.891006 0 -0.453992
    outer loop
      vertex 2.47553 9.15 0.554508
      vertex 2.40451 7.15889 0.693892
      vertex 2.40451 9.15 0.693892
    endloop
  endfacet
  facet normal -0.891006 0 -0.453992
    outer loop
      vertex 2.40451 7.15889 0.693892
      vertex 2.47553 9.15 0.554508
      vertex 2.47553 7.01951 0.554508
    endloop
  endfacet
  facet normal 0.891006 0 -0.453992
    outer loop
      vertex 1.59549 7.15889 0.693892
      vertex 1.52447 9.15 0.554508
      vertex 1.59549 9.15 0.693892
    endloop
  endfacet
  facet normal 0.891003 -4.2619e-07 -0.453997
    outer loop
      vertex 1.52447 7.01951 0.55451
      vertex 1.52447 9.15 0.554508
      vertex 1.59549 7.15889 0.693892
    endloop
  endfacet
  facet normal 1 0 0
    outer loop
      vertex 1.52447 9.15 0.554508
      vertex 1.52447 7.01951 0.55451
      vertex 1.52447 7.0195 0.554508
    endloop
  endfacet
  facet normal 1 -0 0
    outer loop
      vertex 1.5 6.865 0.4
      vertex 1.5 9.15 0
      vertex 1.5 9.15 0.4
    endloop
  endfacet
  facet normal 1 0 0
    outer loop
      vertex 1.5 9.15 0
      vertex 1.5 6.865 0.4
      vertex 1.5 6.865 0
    endloop
  endfacet
  facet normal 0.156435 -5.45844e-07 -0.987688
    outer loop
      vertex 1.84549 9.15 0.875527
      vertex 2 7.365 0.9
      vertex 1.84549 7.34053 0.875528
    endloop
  endfacet
  facet normal 1 0 0
    outer loop
      vertex 1.84549 9.15 0.875527
      vertex 1.84549 7.34053 0.875528
      vertex 1.84549 7.34053 0.875527
    endloop
  endfacet
  facet normal 0.156441 0 -0.987687
    outer loop
      vertex 2 7.365 0.9
      vertex 1.84549 9.15 0.875527
      vertex 2 9.15 0.9
    endloop
  endfacet
  facet normal -0.156441 0 -0.987687
    outer loop
      vertex 2 7.365 0.9
      vertex 2.15451 9.15 0.875527
      vertex 2.15451 7.34053 0.875527
    endloop
  endfacet
  facet normal -0.156441 0 -0.987687
    outer loop
      vertex 2.15451 9.15 0.875527
      vertex 2 7.365 0.9
      vertex 2 9.15 0.9
    endloop
  endfacet
  facet normal -1 0 0
    outer loop
      vertex 6.5 6.865 0
      vertex 6.5 9.15 0.4
      vertex 6.5 9.15 0
    endloop
  endfacet
  facet normal -1 -0 0
    outer loop
      vertex 6.5 9.15 0.4
      vertex 6.5 6.865 0
      vertex 6.5 6.865 0.4
    endloop
  endfacet
  facet normal -0.707094 0 -0.70712
    outer loop
      vertex 6.40451 9.15 0.693892
      vertex 6.29389 7.26951 0.804508
      vertex 6.29389 9.15 0.804508
    endloop
  endfacet
  facet normal -0.707094 0 -0.70712
    outer loop
      vertex 6.29389 7.26951 0.804508
      vertex 6.40451 9.15 0.693892
      vertex 6.40451 7.15889 0.693892
    endloop
  endfacet
  facet normal 0.707094 0 -0.70712
    outer loop
      vertex 5.70611 7.26951 0.804508
      vertex 5.59549 9.15 0.693892
      vertex 5.70611 9.15 0.804508
    endloop
  endfacet
  facet normal 0.707094 0 -0.70712
    outer loop
      vertex 5.59549 9.15 0.693892
      vertex 5.70611 7.26951 0.804508
      vertex 5.59549 7.15889 0.693892
    endloop
  endfacet
  facet normal 0.453997 0 -0.891003
    outer loop
      vertex 5.70611 9.15 0.804508
      vertex 5.84549 7.34053 0.875527
      vertex 5.70611 7.26951 0.804508
    endloop
  endfacet
  facet normal 0.453997 0 -0.891003
    outer loop
      vertex 5.84549 7.34053 0.875527
      vertex 5.70611 9.15 0.804508
      vertex 5.84549 9.15 0.875527
    endloop
  endfacet
  facet normal -0.453997 0 -0.891003
    outer loop
      vertex 6.15451 7.34053 0.875527
      vertex 6.29389 9.15 0.804508
      vertex 6.29389 7.26951 0.804508
    endloop
  endfacet
  facet normal -0.453997 0 -0.891003
    outer loop
      vertex 6.29389 9.15 0.804508
      vertex 6.15451 7.34053 0.875527
      vertex 6.15451 9.15 0.875527
    endloop
  endfacet
  facet normal -0.98769 0 -0.156424
    outer loop
      vertex 6.5 9.15 0.4
      vertex 6.47553 7.01951 0.554508
      vertex 6.47553 9.15 0.554508
    endloop
  endfacet
  facet normal -0.98769 0 -0.156424
    outer loop
      vertex 6.47553 7.01951 0.554508
      vertex 6.5 9.15 0.4
      vertex 6.5 6.865 0.4
    endloop
  endfacet
  facet normal -0.891006 0 -0.453992
    outer loop
      vertex 6.47553 9.15 0.554508
      vertex 6.40451 7.15889 0.693892
      vertex 6.40451 9.15 0.693892
    endloop
  endfacet
  facet normal -0.891006 0 -0.453992
    outer loop
      vertex 6.40451 7.15889 0.693892
      vertex 6.47553 9.15 0.554508
      vertex 6.47553 7.01951 0.554508
    endloop
  endfacet
  facet normal 0.891006 0 -0.453992
    outer loop
      vertex 5.59549 7.15889 0.693892
      vertex 5.52447 9.15 0.554508
      vertex 5.59549 9.15 0.693892
    endloop
  endfacet
  facet normal 0.891006 0 -0.453992
    outer loop
      vertex 5.52447 9.15 0.554508
      vertex 5.59549 7.15889 0.693892
      vertex 5.52447 7.01951 0.554508
    endloop
  endfacet
  facet normal 1 -0 0
    outer loop
      vertex 5.5 6.865 0.4
      vertex 5.5 9.15 0
      vertex 5.5 9.15 0.4
    endloop
  endfacet
  facet normal 1 0 0
    outer loop
      vertex 5.5 9.15 0
      vertex 5.5 6.865 0.4
      vertex 5.5 6.865 0
    endloop
  endfacet
  facet normal 0.156441 0 -0.987687
    outer loop
      vertex 5.84549 9.15 0.875527
      vertex 6 7.365 0.9
      vertex 5.84549 7.34053 0.875527
    endloop
  endfacet
  facet normal 0.156441 0 -0.987687
    outer loop
      vertex 6 7.365 0.9
      vertex 5.84549 9.15 0.875527
      vertex 6 9.15 0.9
    endloop
  endfacet
  facet normal 0.98769 0 -0.156424
    outer loop
      vertex 5.52447 7.01951 0.554508
      vertex 5.5 9.15 0.4
      vertex 5.52447 9.15 0.554508
    endloop
  endfacet
  facet normal 0.98769 0 -0.156424
    outer loop
      vertex 5.5 9.15 0.4
      vertex 5.52447 7.01951 0.554508
      vertex 5.5 6.865 0.4
    endloop
  endfacet
  facet normal -0.156441 0 -0.987687
    outer loop
      vertex 6 7.365 0.9
      vertex 6.15451 9.15 0.875527
      vertex 6.15451 7.34053 0.875527
    endloop
  endfacet
  facet normal -0.156441 0 -0.987687
    outer loop
      vertex 6.15451 9.15 0.875527
      vertex 6 7.365 0.9
      vertex 6 9.15 0.9
    endloop
  endfacet
endsolid OpenSCAD_Model
