M48
;DRILL file {KiCad 5.0.2-bee76a0~70~ubuntu18.04.1} date Sat 24 Apr 2021 01:55:07 PM EDT
;FORMAT={-:-/ absolute / inch / decimal}
FMAT,2
INCH,TZ
T1C0.0236
T2C0.0240
T3C0.0320
T4C0.0360
T5C0.0394
%
G90
G05
T1
X5.7965Y-4.6465
X5.8965Y-4.6465
X5.9965Y-4.6465
T2
X4.7976Y-4.6252
X6.8965Y-4.6185
T3
X5.4739Y-3.7965
X5.4739Y-3.8965
X5.7989Y-3.9465
X5.7989Y-4.2465
X5.5989Y-3.7965
X5.5989Y-4.3965
X5.6989Y-3.7965
X5.6989Y-4.3965
X5.7989Y-3.7965
X5.7989Y-4.3965
X5.8989Y-3.7965
X5.8989Y-4.3965
X5.9989Y-3.7965
X5.9989Y-4.3965
X6.0989Y-3.7965
X6.0989Y-4.3965
X6.1989Y-3.7965
X6.1989Y-4.3965
X6.2989Y-3.7965
X6.2989Y-4.3965
X6.3989Y-3.7965
X6.3989Y-4.3965
X6.4989Y-3.7965
X6.4989Y-4.3965
X6.5989Y-3.7965
X6.5989Y-4.3965
X6.6989Y-3.7965
X6.6989Y-4.3965
X6.7989Y-3.7965
X6.7989Y-4.3965
X6.8989Y-3.7965
X6.8989Y-4.3965
X5.8989Y-3.9465
X5.8989Y-4.2465
X5.6989Y-3.9465
X5.6989Y-4.2465
T4
X5.1996Y-4.1461
X5.2996Y-4.1461
X5.0996Y-4.3961
X5.1996Y-4.3961
X5.2996Y-4.3961
X5.0996Y-4.2711
X5.1996Y-4.2711
X5.2996Y-4.2711
T5
X5.4739Y-3.9965
X5.4739Y-4.0965
X5.4739Y-4.1965
T0
M30
