G04 #@! TF.GenerationSoftware,KiCad,Pcbnew,5.0.2-bee76a0~70~ubuntu18.04.1*
G04 #@! TF.CreationDate,2021-04-24T22:48:44-04:00*
G04 #@! TF.ProjectId,SimpleC64Cart,53696d70-6c65-4433-9634-436172742e6b,rev?*
G04 #@! TF.SameCoordinates,Original*
G04 #@! TF.FileFunction,Soldermask,Bot*
G04 #@! TF.FilePolarity,Negative*
%FSLAX46Y46*%
G04 Gerber Fmt 4.6, Leading zero omitted, Abs format (unit mm)*
G04 Created by KiCad (PCBNEW 5.0.2-bee76a0~70~ubuntu18.04.1) date Sat 24 Apr 2021 10:48:44 PM EDT*
%MOMM*%
%LPD*%
G01*
G04 APERTURE LIST*
%ADD10C,0.100000*%
G04 APERTURE END LIST*
D10*
G36*
X119402319Y-119970004D02*
X119402320Y-119970004D01*
X148602674Y-119980037D01*
X177600000Y-119990000D01*
X177600000Y-129510000D01*
X119390000Y-129510000D01*
X119390000Y-119970000D01*
X119402319Y-119970004D01*
X119402319Y-119970004D01*
G37*
G36*
X136170442Y-115425518D02*
X136236627Y-115432037D01*
X136349853Y-115466384D01*
X136406467Y-115483557D01*
X136545087Y-115557652D01*
X136562991Y-115567222D01*
X136598729Y-115596552D01*
X136700186Y-115679814D01*
X136783448Y-115781271D01*
X136812778Y-115817009D01*
X136812779Y-115817011D01*
X136896443Y-115973533D01*
X136896443Y-115973534D01*
X136947963Y-116143373D01*
X136965359Y-116320000D01*
X136947963Y-116496627D01*
X136913616Y-116609853D01*
X136896443Y-116666467D01*
X136822348Y-116805087D01*
X136812778Y-116822991D01*
X136783448Y-116858729D01*
X136700186Y-116960186D01*
X136598729Y-117043448D01*
X136562991Y-117072778D01*
X136562989Y-117072779D01*
X136406467Y-117156443D01*
X136349853Y-117173616D01*
X136236627Y-117207963D01*
X136170443Y-117214481D01*
X136104260Y-117221000D01*
X136015740Y-117221000D01*
X135949557Y-117214481D01*
X135883373Y-117207963D01*
X135770147Y-117173616D01*
X135713533Y-117156443D01*
X135557011Y-117072779D01*
X135557009Y-117072778D01*
X135521271Y-117043448D01*
X135419814Y-116960186D01*
X135336552Y-116858729D01*
X135307222Y-116822991D01*
X135297652Y-116805087D01*
X135223557Y-116666467D01*
X135206384Y-116609853D01*
X135172037Y-116496627D01*
X135154641Y-116320000D01*
X135172037Y-116143373D01*
X135223557Y-115973534D01*
X135223557Y-115973533D01*
X135307221Y-115817011D01*
X135307222Y-115817009D01*
X135336552Y-115781271D01*
X135419814Y-115679814D01*
X135521271Y-115596552D01*
X135557009Y-115567222D01*
X135574913Y-115557652D01*
X135713533Y-115483557D01*
X135770147Y-115466384D01*
X135883373Y-115432037D01*
X135949558Y-115425518D01*
X136015740Y-115419000D01*
X136104260Y-115419000D01*
X136170442Y-115425518D01*
X136170442Y-115425518D01*
G37*
G36*
X134421000Y-117221000D02*
X132619000Y-117221000D01*
X132619000Y-115419000D01*
X134421000Y-115419000D01*
X134421000Y-117221000D01*
X134421000Y-117221000D01*
G37*
G36*
X136170442Y-112885518D02*
X136236627Y-112892037D01*
X136347606Y-112925702D01*
X136406467Y-112943557D01*
X136496613Y-112991742D01*
X136562991Y-113027222D01*
X136598729Y-113056552D01*
X136700186Y-113139814D01*
X136783448Y-113241271D01*
X136812778Y-113277009D01*
X136812779Y-113277011D01*
X136896443Y-113433533D01*
X136896443Y-113433534D01*
X136947963Y-113603373D01*
X136965359Y-113780000D01*
X136947963Y-113956627D01*
X136913616Y-114069853D01*
X136896443Y-114126467D01*
X136822348Y-114265087D01*
X136812778Y-114282991D01*
X136783448Y-114318729D01*
X136700186Y-114420186D01*
X136598729Y-114503448D01*
X136562991Y-114532778D01*
X136562989Y-114532779D01*
X136406467Y-114616443D01*
X136349853Y-114633616D01*
X136236627Y-114667963D01*
X136170442Y-114674482D01*
X136104260Y-114681000D01*
X136015740Y-114681000D01*
X135949558Y-114674482D01*
X135883373Y-114667963D01*
X135770147Y-114633616D01*
X135713533Y-114616443D01*
X135557011Y-114532779D01*
X135557009Y-114532778D01*
X135521271Y-114503448D01*
X135419814Y-114420186D01*
X135336552Y-114318729D01*
X135307222Y-114282991D01*
X135297652Y-114265087D01*
X135223557Y-114126467D01*
X135206384Y-114069853D01*
X135172037Y-113956627D01*
X135154641Y-113780000D01*
X135172037Y-113603373D01*
X135223557Y-113433534D01*
X135223557Y-113433533D01*
X135307221Y-113277011D01*
X135307222Y-113277009D01*
X135336552Y-113241271D01*
X135419814Y-113139814D01*
X135521271Y-113056552D01*
X135557009Y-113027222D01*
X135623387Y-112991742D01*
X135713533Y-112943557D01*
X135772394Y-112925702D01*
X135883373Y-112892037D01*
X135949558Y-112885518D01*
X136015740Y-112879000D01*
X136104260Y-112879000D01*
X136170442Y-112885518D01*
X136170442Y-112885518D01*
G37*
G36*
X133630442Y-112885518D02*
X133696627Y-112892037D01*
X133807606Y-112925702D01*
X133866467Y-112943557D01*
X133956613Y-112991742D01*
X134022991Y-113027222D01*
X134058729Y-113056552D01*
X134160186Y-113139814D01*
X134243448Y-113241271D01*
X134272778Y-113277009D01*
X134272779Y-113277011D01*
X134356443Y-113433533D01*
X134356443Y-113433534D01*
X134407963Y-113603373D01*
X134425359Y-113780000D01*
X134407963Y-113956627D01*
X134373616Y-114069853D01*
X134356443Y-114126467D01*
X134282348Y-114265087D01*
X134272778Y-114282991D01*
X134243448Y-114318729D01*
X134160186Y-114420186D01*
X134058729Y-114503448D01*
X134022991Y-114532778D01*
X134022989Y-114532779D01*
X133866467Y-114616443D01*
X133809853Y-114633616D01*
X133696627Y-114667963D01*
X133630442Y-114674482D01*
X133564260Y-114681000D01*
X133475740Y-114681000D01*
X133409558Y-114674482D01*
X133343373Y-114667963D01*
X133230147Y-114633616D01*
X133173533Y-114616443D01*
X133017011Y-114532779D01*
X133017009Y-114532778D01*
X132981271Y-114503448D01*
X132879814Y-114420186D01*
X132796552Y-114318729D01*
X132767222Y-114282991D01*
X132757652Y-114265087D01*
X132683557Y-114126467D01*
X132666384Y-114069853D01*
X132632037Y-113956627D01*
X132614641Y-113780000D01*
X132632037Y-113603373D01*
X132683557Y-113433534D01*
X132683557Y-113433533D01*
X132767221Y-113277011D01*
X132767222Y-113277009D01*
X132796552Y-113241271D01*
X132879814Y-113139814D01*
X132981271Y-113056552D01*
X133017009Y-113027222D01*
X133083387Y-112991742D01*
X133173533Y-112943557D01*
X133232394Y-112925702D01*
X133343373Y-112892037D01*
X133409558Y-112885518D01*
X133475740Y-112879000D01*
X133564260Y-112879000D01*
X133630442Y-112885518D01*
X133630442Y-112885518D01*
G37*
G36*
X165210520Y-110309790D02*
X165344580Y-110350457D01*
X165468129Y-110416495D01*
X165576431Y-110505375D01*
X165665303Y-110613666D01*
X165731343Y-110737219D01*
X165772010Y-110871279D01*
X165782300Y-110975760D01*
X165782300Y-112366440D01*
X165772010Y-112470921D01*
X165731343Y-112604981D01*
X165665303Y-112728534D01*
X165576428Y-112836828D01*
X165468134Y-112925703D01*
X165344581Y-112991743D01*
X165210521Y-113032410D01*
X165071100Y-113046141D01*
X164931680Y-113032410D01*
X164797620Y-112991743D01*
X164674067Y-112925703D01*
X164565773Y-112836828D01*
X164476898Y-112728534D01*
X164410858Y-112604981D01*
X164370191Y-112470921D01*
X164359901Y-112366440D01*
X164359900Y-110975761D01*
X164370190Y-110871280D01*
X164410857Y-110737220D01*
X164476895Y-110613671D01*
X164565775Y-110505369D01*
X164674066Y-110416497D01*
X164797619Y-110350457D01*
X164931679Y-110309790D01*
X165071100Y-110296059D01*
X165210520Y-110309790D01*
X165210520Y-110309790D01*
G37*
G36*
X157590520Y-110309790D02*
X157724580Y-110350457D01*
X157848129Y-110416495D01*
X157956431Y-110505375D01*
X158045303Y-110613666D01*
X158111343Y-110737219D01*
X158152010Y-110871279D01*
X158162300Y-110975760D01*
X158162300Y-112366440D01*
X158152010Y-112470921D01*
X158111343Y-112604981D01*
X158045303Y-112728534D01*
X157956428Y-112836828D01*
X157848134Y-112925703D01*
X157724581Y-112991743D01*
X157590521Y-113032410D01*
X157451100Y-113046141D01*
X157311680Y-113032410D01*
X157177620Y-112991743D01*
X157054067Y-112925703D01*
X156945773Y-112836828D01*
X156856898Y-112728534D01*
X156790858Y-112604981D01*
X156750191Y-112470921D01*
X156739901Y-112366440D01*
X156739900Y-110975761D01*
X156750190Y-110871280D01*
X156790857Y-110737220D01*
X156856895Y-110613671D01*
X156945775Y-110505369D01*
X157054066Y-110416497D01*
X157177619Y-110350457D01*
X157311679Y-110309790D01*
X157451100Y-110296059D01*
X157590520Y-110309790D01*
X157590520Y-110309790D01*
G37*
G36*
X172830520Y-110309790D02*
X172964580Y-110350457D01*
X173088129Y-110416495D01*
X173196431Y-110505375D01*
X173285303Y-110613666D01*
X173351343Y-110737219D01*
X173392010Y-110871279D01*
X173402300Y-110975760D01*
X173402300Y-112366440D01*
X173392010Y-112470921D01*
X173351343Y-112604981D01*
X173285303Y-112728534D01*
X173196428Y-112836828D01*
X173088134Y-112925703D01*
X172964581Y-112991743D01*
X172830521Y-113032410D01*
X172691100Y-113046141D01*
X172551680Y-113032410D01*
X172417620Y-112991743D01*
X172294067Y-112925703D01*
X172185773Y-112836828D01*
X172096898Y-112728534D01*
X172030858Y-112604981D01*
X171990191Y-112470921D01*
X171979901Y-112366440D01*
X171979900Y-110975761D01*
X171990190Y-110871280D01*
X172030857Y-110737220D01*
X172096895Y-110613671D01*
X172185775Y-110505369D01*
X172294066Y-110416497D01*
X172417619Y-110350457D01*
X172551679Y-110309790D01*
X172691100Y-110296059D01*
X172830520Y-110309790D01*
X172830520Y-110309790D01*
G37*
G36*
X170290520Y-110309790D02*
X170424580Y-110350457D01*
X170548129Y-110416495D01*
X170656431Y-110505375D01*
X170745303Y-110613666D01*
X170811343Y-110737219D01*
X170852010Y-110871279D01*
X170862300Y-110975760D01*
X170862300Y-112366440D01*
X170852010Y-112470921D01*
X170811343Y-112604981D01*
X170745303Y-112728534D01*
X170656428Y-112836828D01*
X170548134Y-112925703D01*
X170424581Y-112991743D01*
X170290521Y-113032410D01*
X170151100Y-113046141D01*
X170011680Y-113032410D01*
X169877620Y-112991743D01*
X169754067Y-112925703D01*
X169645773Y-112836828D01*
X169556898Y-112728534D01*
X169490858Y-112604981D01*
X169450191Y-112470921D01*
X169439901Y-112366440D01*
X169439900Y-110975761D01*
X169450190Y-110871280D01*
X169490857Y-110737220D01*
X169556895Y-110613671D01*
X169645775Y-110505369D01*
X169754066Y-110416497D01*
X169877619Y-110350457D01*
X170011679Y-110309790D01*
X170151100Y-110296059D01*
X170290520Y-110309790D01*
X170290520Y-110309790D01*
G37*
G36*
X167750520Y-110309790D02*
X167884580Y-110350457D01*
X168008129Y-110416495D01*
X168116431Y-110505375D01*
X168205303Y-110613666D01*
X168271343Y-110737219D01*
X168312010Y-110871279D01*
X168322300Y-110975760D01*
X168322300Y-112366440D01*
X168312010Y-112470921D01*
X168271343Y-112604981D01*
X168205303Y-112728534D01*
X168116428Y-112836828D01*
X168008134Y-112925703D01*
X167884581Y-112991743D01*
X167750521Y-113032410D01*
X167611100Y-113046141D01*
X167471680Y-113032410D01*
X167337620Y-112991743D01*
X167214067Y-112925703D01*
X167105773Y-112836828D01*
X167016898Y-112728534D01*
X166950858Y-112604981D01*
X166910191Y-112470921D01*
X166899901Y-112366440D01*
X166899900Y-110975761D01*
X166910190Y-110871280D01*
X166950857Y-110737220D01*
X167016895Y-110613671D01*
X167105775Y-110505369D01*
X167214066Y-110416497D01*
X167337619Y-110350457D01*
X167471679Y-110309790D01*
X167611100Y-110296059D01*
X167750520Y-110309790D01*
X167750520Y-110309790D01*
G37*
G36*
X162670520Y-110309790D02*
X162804580Y-110350457D01*
X162928129Y-110416495D01*
X163036431Y-110505375D01*
X163125303Y-110613666D01*
X163191343Y-110737219D01*
X163232010Y-110871279D01*
X163242300Y-110975760D01*
X163242300Y-112366440D01*
X163232010Y-112470921D01*
X163191343Y-112604981D01*
X163125303Y-112728534D01*
X163036428Y-112836828D01*
X162928134Y-112925703D01*
X162804581Y-112991743D01*
X162670521Y-113032410D01*
X162531100Y-113046141D01*
X162391680Y-113032410D01*
X162257620Y-112991743D01*
X162134067Y-112925703D01*
X162025773Y-112836828D01*
X161936898Y-112728534D01*
X161870858Y-112604981D01*
X161830191Y-112470921D01*
X161819901Y-112366440D01*
X161819900Y-110975761D01*
X161830190Y-110871280D01*
X161870857Y-110737220D01*
X161936895Y-110613671D01*
X162025775Y-110505369D01*
X162134066Y-110416497D01*
X162257619Y-110350457D01*
X162391679Y-110309790D01*
X162531100Y-110296059D01*
X162670520Y-110309790D01*
X162670520Y-110309790D01*
G37*
G36*
X160130520Y-110309790D02*
X160264580Y-110350457D01*
X160388129Y-110416495D01*
X160496431Y-110505375D01*
X160585303Y-110613666D01*
X160651343Y-110737219D01*
X160692010Y-110871279D01*
X160702300Y-110975760D01*
X160702300Y-112366440D01*
X160692010Y-112470921D01*
X160651343Y-112604981D01*
X160585303Y-112728534D01*
X160496428Y-112836828D01*
X160388134Y-112925703D01*
X160264581Y-112991743D01*
X160130521Y-113032410D01*
X159991100Y-113046141D01*
X159851680Y-113032410D01*
X159717620Y-112991743D01*
X159594067Y-112925703D01*
X159485773Y-112836828D01*
X159396898Y-112728534D01*
X159330858Y-112604981D01*
X159290191Y-112470921D01*
X159279901Y-112366440D01*
X159279900Y-110975761D01*
X159290190Y-110871280D01*
X159330857Y-110737220D01*
X159396895Y-110613671D01*
X159485775Y-110505369D01*
X159594066Y-110416497D01*
X159717619Y-110350457D01*
X159851679Y-110309790D01*
X159991100Y-110296059D01*
X160130520Y-110309790D01*
X160130520Y-110309790D01*
G37*
G36*
X155050520Y-110309790D02*
X155184580Y-110350457D01*
X155308129Y-110416495D01*
X155416431Y-110505375D01*
X155505303Y-110613666D01*
X155571343Y-110737219D01*
X155612010Y-110871279D01*
X155622300Y-110975760D01*
X155622300Y-112366440D01*
X155612010Y-112470921D01*
X155571343Y-112604981D01*
X155505303Y-112728534D01*
X155416428Y-112836828D01*
X155308134Y-112925703D01*
X155184581Y-112991743D01*
X155050521Y-113032410D01*
X154911100Y-113046141D01*
X154771680Y-113032410D01*
X154637620Y-112991743D01*
X154514067Y-112925703D01*
X154405773Y-112836828D01*
X154316898Y-112728534D01*
X154250858Y-112604981D01*
X154210191Y-112470921D01*
X154199901Y-112366440D01*
X154199900Y-110975761D01*
X154210190Y-110871280D01*
X154250857Y-110737220D01*
X154316895Y-110613671D01*
X154405775Y-110505369D01*
X154514066Y-110416497D01*
X154637619Y-110350457D01*
X154771679Y-110309790D01*
X154911100Y-110296059D01*
X155050520Y-110309790D01*
X155050520Y-110309790D01*
G37*
G36*
X152510520Y-110309790D02*
X152644580Y-110350457D01*
X152768129Y-110416495D01*
X152876431Y-110505375D01*
X152965303Y-110613666D01*
X153031343Y-110737219D01*
X153072010Y-110871279D01*
X153082300Y-110975760D01*
X153082300Y-112366440D01*
X153072010Y-112470921D01*
X153031343Y-112604981D01*
X152965303Y-112728534D01*
X152876428Y-112836828D01*
X152768134Y-112925703D01*
X152644581Y-112991743D01*
X152510521Y-113032410D01*
X152371100Y-113046141D01*
X152231680Y-113032410D01*
X152097620Y-112991743D01*
X151974067Y-112925703D01*
X151865773Y-112836828D01*
X151776898Y-112728534D01*
X151710858Y-112604981D01*
X151670191Y-112470921D01*
X151659901Y-112366440D01*
X151659900Y-110975761D01*
X151670190Y-110871280D01*
X151710857Y-110737220D01*
X151776895Y-110613671D01*
X151865775Y-110505369D01*
X151974066Y-110416497D01*
X152097619Y-110350457D01*
X152231679Y-110309790D01*
X152371100Y-110296059D01*
X152510520Y-110309790D01*
X152510520Y-110309790D01*
G37*
G36*
X149970520Y-110309790D02*
X150104580Y-110350457D01*
X150228129Y-110416495D01*
X150336431Y-110505375D01*
X150425303Y-110613666D01*
X150491343Y-110737219D01*
X150532010Y-110871279D01*
X150542300Y-110975760D01*
X150542300Y-112366440D01*
X150532010Y-112470921D01*
X150491343Y-112604981D01*
X150425303Y-112728534D01*
X150336428Y-112836828D01*
X150228134Y-112925703D01*
X150104581Y-112991743D01*
X149970521Y-113032410D01*
X149831100Y-113046141D01*
X149691680Y-113032410D01*
X149557620Y-112991743D01*
X149434067Y-112925703D01*
X149325773Y-112836828D01*
X149236898Y-112728534D01*
X149170858Y-112604981D01*
X149130191Y-112470921D01*
X149119901Y-112366440D01*
X149119900Y-110975761D01*
X149130190Y-110871280D01*
X149170857Y-110737220D01*
X149236895Y-110613671D01*
X149325775Y-110505369D01*
X149434066Y-110416497D01*
X149557619Y-110350457D01*
X149691679Y-110309790D01*
X149831100Y-110296059D01*
X149970520Y-110309790D01*
X149970520Y-110309790D01*
G37*
G36*
X147430520Y-110309790D02*
X147564580Y-110350457D01*
X147688129Y-110416495D01*
X147796431Y-110505375D01*
X147885303Y-110613666D01*
X147951343Y-110737219D01*
X147992010Y-110871279D01*
X148002300Y-110975760D01*
X148002300Y-112366440D01*
X147992010Y-112470921D01*
X147951343Y-112604981D01*
X147885303Y-112728534D01*
X147796428Y-112836828D01*
X147688134Y-112925703D01*
X147564581Y-112991743D01*
X147430521Y-113032410D01*
X147291100Y-113046141D01*
X147151680Y-113032410D01*
X147017620Y-112991743D01*
X146894067Y-112925703D01*
X146785773Y-112836828D01*
X146696898Y-112728534D01*
X146630858Y-112604981D01*
X146590191Y-112470921D01*
X146579901Y-112366440D01*
X146579900Y-110975761D01*
X146590190Y-110871280D01*
X146630857Y-110737220D01*
X146696895Y-110613671D01*
X146785775Y-110505369D01*
X146894066Y-110416497D01*
X147017619Y-110350457D01*
X147151679Y-110309790D01*
X147291100Y-110296059D01*
X147430520Y-110309790D01*
X147430520Y-110309790D01*
G37*
G36*
X144890520Y-110309790D02*
X145024580Y-110350457D01*
X145148129Y-110416495D01*
X145256431Y-110505375D01*
X145345303Y-110613666D01*
X145411343Y-110737219D01*
X145452010Y-110871279D01*
X145462300Y-110975760D01*
X145462300Y-112366440D01*
X145452010Y-112470921D01*
X145411343Y-112604981D01*
X145345303Y-112728534D01*
X145256428Y-112836828D01*
X145148134Y-112925703D01*
X145024581Y-112991743D01*
X144890521Y-113032410D01*
X144751100Y-113046141D01*
X144611680Y-113032410D01*
X144477620Y-112991743D01*
X144354067Y-112925703D01*
X144245773Y-112836828D01*
X144156898Y-112728534D01*
X144090858Y-112604981D01*
X144050191Y-112470921D01*
X144039901Y-112366440D01*
X144039900Y-110975761D01*
X144050190Y-110871280D01*
X144090857Y-110737220D01*
X144156895Y-110613671D01*
X144245775Y-110505369D01*
X144354066Y-110416497D01*
X144477619Y-110350457D01*
X144611679Y-110309790D01*
X144751100Y-110296059D01*
X144890520Y-110309790D01*
X144890520Y-110309790D01*
G37*
G36*
X175370520Y-110309790D02*
X175504580Y-110350457D01*
X175628129Y-110416495D01*
X175736431Y-110505375D01*
X175825303Y-110613666D01*
X175891343Y-110737219D01*
X175932010Y-110871279D01*
X175942300Y-110975760D01*
X175942300Y-112366440D01*
X175932010Y-112470921D01*
X175891343Y-112604981D01*
X175825303Y-112728534D01*
X175736428Y-112836828D01*
X175628134Y-112925703D01*
X175504581Y-112991743D01*
X175370521Y-113032410D01*
X175231100Y-113046141D01*
X175091680Y-113032410D01*
X174957620Y-112991743D01*
X174834067Y-112925703D01*
X174725773Y-112836828D01*
X174636898Y-112728534D01*
X174570858Y-112604981D01*
X174530191Y-112470921D01*
X174519901Y-112366440D01*
X174519900Y-110975761D01*
X174530190Y-110871280D01*
X174570857Y-110737220D01*
X174636895Y-110613671D01*
X174725775Y-110505369D01*
X174834066Y-110416497D01*
X174957619Y-110350457D01*
X175091679Y-110309790D01*
X175231100Y-110296059D01*
X175370520Y-110309790D01*
X175370520Y-110309790D01*
G37*
G36*
X142350520Y-110309790D02*
X142484580Y-110350457D01*
X142608129Y-110416495D01*
X142716431Y-110505375D01*
X142805303Y-110613666D01*
X142871343Y-110737219D01*
X142912010Y-110871279D01*
X142922300Y-110975760D01*
X142922300Y-112366440D01*
X142912010Y-112470921D01*
X142871343Y-112604981D01*
X142805303Y-112728534D01*
X142716428Y-112836828D01*
X142608134Y-112925703D01*
X142484581Y-112991743D01*
X142350521Y-113032410D01*
X142211100Y-113046141D01*
X142071680Y-113032410D01*
X141937620Y-112991743D01*
X141814067Y-112925703D01*
X141705773Y-112836828D01*
X141616898Y-112728534D01*
X141550858Y-112604981D01*
X141510191Y-112470921D01*
X141499901Y-112366440D01*
X141499900Y-110975761D01*
X141510190Y-110871280D01*
X141550857Y-110737220D01*
X141616895Y-110613671D01*
X141705775Y-110505369D01*
X141814066Y-110416497D01*
X141937619Y-110350457D01*
X142071679Y-110309790D01*
X142211100Y-110296059D01*
X142350520Y-110309790D01*
X142350520Y-110309790D01*
G37*
G36*
X136769378Y-106007826D02*
X136865136Y-106036874D01*
X136913016Y-106051398D01*
X136961299Y-106077206D01*
X137045392Y-106122155D01*
X137161422Y-106217378D01*
X137256645Y-106333408D01*
X137301594Y-106417501D01*
X137327402Y-106465784D01*
X137327402Y-106465785D01*
X137370974Y-106609422D01*
X137382000Y-106721374D01*
X137382000Y-108218626D01*
X137370974Y-108330578D01*
X137345813Y-108413523D01*
X137327402Y-108474216D01*
X137318239Y-108491358D01*
X137256645Y-108606592D01*
X137256643Y-108606594D01*
X137161425Y-108722619D01*
X137161423Y-108722620D01*
X137161422Y-108722622D01*
X137045391Y-108817845D01*
X136983362Y-108851000D01*
X136913015Y-108888602D01*
X136865135Y-108903126D01*
X136769377Y-108932174D01*
X136620000Y-108946886D01*
X136470622Y-108932174D01*
X136374864Y-108903126D01*
X136326984Y-108888602D01*
X136256637Y-108851000D01*
X136194608Y-108817845D01*
X136148196Y-108779756D01*
X136078581Y-108722625D01*
X136078580Y-108722623D01*
X136078578Y-108722622D01*
X135983355Y-108606591D01*
X135947976Y-108540402D01*
X135912598Y-108474215D01*
X135894188Y-108413523D01*
X135869026Y-108330577D01*
X135858000Y-108218625D01*
X135858001Y-106721374D01*
X135869027Y-106609422D01*
X135912599Y-106465785D01*
X135912599Y-106465784D01*
X135938407Y-106417501D01*
X135983356Y-106333408D01*
X136078579Y-106217378D01*
X136194609Y-106122155D01*
X136278702Y-106077206D01*
X136326985Y-106051398D01*
X136374865Y-106036874D01*
X136470623Y-106007826D01*
X136620000Y-105993114D01*
X136769378Y-106007826D01*
X136769378Y-106007826D01*
G37*
G36*
X139309378Y-106007826D02*
X139405136Y-106036874D01*
X139453016Y-106051398D01*
X139501299Y-106077206D01*
X139585392Y-106122155D01*
X139701422Y-106217378D01*
X139796645Y-106333408D01*
X139841594Y-106417501D01*
X139867402Y-106465784D01*
X139867402Y-106465785D01*
X139910974Y-106609422D01*
X139922000Y-106721374D01*
X139922000Y-108218626D01*
X139910974Y-108330578D01*
X139885813Y-108413523D01*
X139867402Y-108474216D01*
X139858239Y-108491358D01*
X139796645Y-108606592D01*
X139796643Y-108606594D01*
X139701425Y-108722619D01*
X139701423Y-108722620D01*
X139701422Y-108722622D01*
X139585391Y-108817845D01*
X139523362Y-108851000D01*
X139453015Y-108888602D01*
X139405135Y-108903126D01*
X139309377Y-108932174D01*
X139160000Y-108946886D01*
X139010622Y-108932174D01*
X138914864Y-108903126D01*
X138866984Y-108888602D01*
X138796637Y-108851000D01*
X138734608Y-108817845D01*
X138688196Y-108779756D01*
X138618581Y-108722625D01*
X138618580Y-108722623D01*
X138618578Y-108722622D01*
X138523355Y-108606591D01*
X138487976Y-108540402D01*
X138452598Y-108474215D01*
X138434188Y-108413523D01*
X138409026Y-108330577D01*
X138398000Y-108218625D01*
X138398001Y-106721374D01*
X138409027Y-106609422D01*
X138452599Y-106465785D01*
X138452599Y-106465784D01*
X138478407Y-106417501D01*
X138523356Y-106333408D01*
X138618579Y-106217378D01*
X138734609Y-106122155D01*
X138818702Y-106077206D01*
X138866985Y-106051398D01*
X138914865Y-106036874D01*
X139010623Y-106007826D01*
X139160000Y-105993114D01*
X139309378Y-106007826D01*
X139309378Y-106007826D01*
G37*
G36*
X128851000Y-108851000D02*
X127149000Y-108851000D01*
X127149000Y-107149000D01*
X128851000Y-107149000D01*
X128851000Y-108851000D01*
X128851000Y-108851000D01*
G37*
G36*
X132851000Y-108851000D02*
X131149000Y-108851000D01*
X131149000Y-107149000D01*
X132851000Y-107149000D01*
X132851000Y-108851000D01*
X132851000Y-108851000D01*
G37*
G36*
X147498550Y-107177231D02*
X147627978Y-107230842D01*
X147744466Y-107308677D01*
X147843523Y-107407734D01*
X147921358Y-107524222D01*
X147974969Y-107653650D01*
X148002300Y-107791052D01*
X148002300Y-107931148D01*
X147974969Y-108068550D01*
X147921358Y-108197978D01*
X147843523Y-108314466D01*
X147744466Y-108413523D01*
X147627978Y-108491358D01*
X147498550Y-108544969D01*
X147361148Y-108572300D01*
X147221052Y-108572300D01*
X147083650Y-108544969D01*
X146954222Y-108491358D01*
X146837734Y-108413523D01*
X146738677Y-108314466D01*
X146660842Y-108197978D01*
X146607231Y-108068550D01*
X146579900Y-107931148D01*
X146579900Y-107791052D01*
X146607231Y-107653650D01*
X146660842Y-107524222D01*
X146738677Y-107407734D01*
X146837734Y-107308677D01*
X146954222Y-107230842D01*
X147083650Y-107177231D01*
X147221052Y-107149900D01*
X147361148Y-107149900D01*
X147498550Y-107177231D01*
X147498550Y-107177231D01*
G37*
G36*
X144958550Y-107177231D02*
X145087978Y-107230842D01*
X145204466Y-107308677D01*
X145303523Y-107407734D01*
X145381358Y-107524222D01*
X145434969Y-107653650D01*
X145462300Y-107791052D01*
X145462300Y-107931148D01*
X145434969Y-108068550D01*
X145381358Y-108197978D01*
X145303523Y-108314466D01*
X145204466Y-108413523D01*
X145087978Y-108491358D01*
X144958550Y-108544969D01*
X144821148Y-108572300D01*
X144681052Y-108572300D01*
X144543650Y-108544969D01*
X144414222Y-108491358D01*
X144297734Y-108413523D01*
X144198677Y-108314466D01*
X144120842Y-108197978D01*
X144067231Y-108068550D01*
X144039900Y-107931148D01*
X144039900Y-107791052D01*
X144067231Y-107653650D01*
X144120842Y-107524222D01*
X144198677Y-107407734D01*
X144297734Y-107308677D01*
X144414222Y-107230842D01*
X144543650Y-107177231D01*
X144681052Y-107149900D01*
X144821148Y-107149900D01*
X144958550Y-107177231D01*
X144958550Y-107177231D01*
G37*
G36*
X139209378Y-102707826D02*
X139305136Y-102736874D01*
X139353016Y-102751398D01*
X139401299Y-102777206D01*
X139485392Y-102822155D01*
X139601422Y-102917378D01*
X139696645Y-103033408D01*
X139741594Y-103117501D01*
X139767402Y-103165784D01*
X139767402Y-103165785D01*
X139810974Y-103309422D01*
X139822000Y-103421374D01*
X139822000Y-104918626D01*
X139810974Y-105030578D01*
X139781926Y-105126336D01*
X139767402Y-105174216D01*
X139741594Y-105222499D01*
X139696645Y-105306592D01*
X139696643Y-105306594D01*
X139601425Y-105422619D01*
X139601423Y-105422620D01*
X139601422Y-105422622D01*
X139485391Y-105517845D01*
X139419203Y-105553223D01*
X139353015Y-105588602D01*
X139305135Y-105603126D01*
X139209377Y-105632174D01*
X139060000Y-105646886D01*
X138910622Y-105632174D01*
X138814864Y-105603126D01*
X138766984Y-105588602D01*
X138718701Y-105562794D01*
X138634608Y-105517845D01*
X138588196Y-105479756D01*
X138518581Y-105422625D01*
X138518580Y-105422623D01*
X138518578Y-105422622D01*
X138423355Y-105306591D01*
X138352599Y-105174216D01*
X138352598Y-105174215D01*
X138338074Y-105126335D01*
X138309026Y-105030577D01*
X138298000Y-104918625D01*
X138298001Y-103421374D01*
X138309027Y-103309422D01*
X138352599Y-103165785D01*
X138352599Y-103165784D01*
X138378407Y-103117501D01*
X138423356Y-103033408D01*
X138518579Y-102917378D01*
X138634609Y-102822155D01*
X138718702Y-102777206D01*
X138766985Y-102751398D01*
X138814865Y-102736874D01*
X138910623Y-102707826D01*
X139060000Y-102693114D01*
X139209378Y-102707826D01*
X139209378Y-102707826D01*
G37*
G36*
X136669378Y-102707826D02*
X136765136Y-102736874D01*
X136813016Y-102751398D01*
X136861299Y-102777206D01*
X136945392Y-102822155D01*
X137061422Y-102917378D01*
X137156645Y-103033408D01*
X137201594Y-103117501D01*
X137227402Y-103165784D01*
X137227402Y-103165785D01*
X137270974Y-103309422D01*
X137282000Y-103421374D01*
X137282000Y-104918626D01*
X137270974Y-105030578D01*
X137241926Y-105126336D01*
X137227402Y-105174216D01*
X137201594Y-105222499D01*
X137156645Y-105306592D01*
X137156643Y-105306594D01*
X137061425Y-105422619D01*
X137061423Y-105422620D01*
X137061422Y-105422622D01*
X136945391Y-105517845D01*
X136879203Y-105553223D01*
X136813015Y-105588602D01*
X136765135Y-105603126D01*
X136669377Y-105632174D01*
X136520000Y-105646886D01*
X136370622Y-105632174D01*
X136274864Y-105603126D01*
X136226984Y-105588602D01*
X136178701Y-105562794D01*
X136094608Y-105517845D01*
X136048196Y-105479756D01*
X135978581Y-105422625D01*
X135978580Y-105422623D01*
X135978578Y-105422622D01*
X135883355Y-105306591D01*
X135812599Y-105174216D01*
X135812598Y-105174215D01*
X135798074Y-105126335D01*
X135769026Y-105030577D01*
X135758000Y-104918625D01*
X135758001Y-103421374D01*
X135769027Y-103309422D01*
X135812599Y-103165785D01*
X135812599Y-103165784D01*
X135838407Y-103117501D01*
X135883356Y-103033408D01*
X135978579Y-102917378D01*
X136094609Y-102822155D01*
X136178702Y-102777206D01*
X136226985Y-102751398D01*
X136274865Y-102736874D01*
X136370623Y-102707826D01*
X136520000Y-102693114D01*
X136669378Y-102707826D01*
X136669378Y-102707826D01*
G37*
G36*
X128166821Y-99541313D02*
X128166824Y-99541314D01*
X128166825Y-99541314D01*
X128327239Y-99589975D01*
X128327241Y-99589976D01*
X128327244Y-99589977D01*
X128475078Y-99668995D01*
X128604659Y-99775341D01*
X128711005Y-99904922D01*
X128790023Y-100052756D01*
X128838687Y-100213179D01*
X128855117Y-100380000D01*
X128838687Y-100546821D01*
X128838686Y-100546824D01*
X128838686Y-100546825D01*
X128793900Y-100694466D01*
X128790023Y-100707244D01*
X128711005Y-100855078D01*
X128604659Y-100984659D01*
X128475078Y-101091005D01*
X128327244Y-101170023D01*
X128327241Y-101170024D01*
X128327239Y-101170025D01*
X128166825Y-101218686D01*
X128166824Y-101218686D01*
X128166821Y-101218687D01*
X128041804Y-101231000D01*
X127958196Y-101231000D01*
X127833179Y-101218687D01*
X127833176Y-101218686D01*
X127833175Y-101218686D01*
X127672761Y-101170025D01*
X127672759Y-101170024D01*
X127672756Y-101170023D01*
X127524922Y-101091005D01*
X127395341Y-100984659D01*
X127288995Y-100855078D01*
X127209977Y-100707244D01*
X127206101Y-100694466D01*
X127161314Y-100546825D01*
X127161314Y-100546824D01*
X127161313Y-100546821D01*
X127144883Y-100380000D01*
X127161313Y-100213179D01*
X127209977Y-100052756D01*
X127288995Y-99904922D01*
X127395341Y-99775341D01*
X127524922Y-99668995D01*
X127672756Y-99589977D01*
X127672759Y-99589976D01*
X127672761Y-99589975D01*
X127833175Y-99541314D01*
X127833176Y-99541314D01*
X127833179Y-99541313D01*
X127958196Y-99529000D01*
X128041804Y-99529000D01*
X128166821Y-99541313D01*
X128166821Y-99541313D01*
G37*
G36*
X132166821Y-99541313D02*
X132166824Y-99541314D01*
X132166825Y-99541314D01*
X132327239Y-99589975D01*
X132327241Y-99589976D01*
X132327244Y-99589977D01*
X132475078Y-99668995D01*
X132604659Y-99775341D01*
X132711005Y-99904922D01*
X132790023Y-100052756D01*
X132838687Y-100213179D01*
X132855117Y-100380000D01*
X132838687Y-100546821D01*
X132838686Y-100546824D01*
X132838686Y-100546825D01*
X132793900Y-100694466D01*
X132790023Y-100707244D01*
X132711005Y-100855078D01*
X132604659Y-100984659D01*
X132475078Y-101091005D01*
X132327244Y-101170023D01*
X132327241Y-101170024D01*
X132327239Y-101170025D01*
X132166825Y-101218686D01*
X132166824Y-101218686D01*
X132166821Y-101218687D01*
X132041804Y-101231000D01*
X131958196Y-101231000D01*
X131833179Y-101218687D01*
X131833176Y-101218686D01*
X131833175Y-101218686D01*
X131672761Y-101170025D01*
X131672759Y-101170024D01*
X131672756Y-101170023D01*
X131524922Y-101091005D01*
X131395341Y-100984659D01*
X131288995Y-100855078D01*
X131209977Y-100707244D01*
X131206101Y-100694466D01*
X131161314Y-100546825D01*
X131161314Y-100546824D01*
X131161313Y-100546821D01*
X131144883Y-100380000D01*
X131161313Y-100213179D01*
X131209977Y-100052756D01*
X131288995Y-99904922D01*
X131395341Y-99775341D01*
X131524922Y-99668995D01*
X131672756Y-99589977D01*
X131672759Y-99589976D01*
X131672761Y-99589975D01*
X131833175Y-99541314D01*
X131833176Y-99541314D01*
X131833179Y-99541313D01*
X131958196Y-99529000D01*
X132041804Y-99529000D01*
X132166821Y-99541313D01*
X132166821Y-99541313D01*
G37*
G36*
X147498550Y-99557231D02*
X147627978Y-99610842D01*
X147744466Y-99688677D01*
X147843523Y-99787734D01*
X147921358Y-99904222D01*
X147974969Y-100033650D01*
X148002300Y-100171052D01*
X148002300Y-100311148D01*
X147974969Y-100448550D01*
X147921358Y-100577978D01*
X147843523Y-100694466D01*
X147744466Y-100793523D01*
X147627978Y-100871358D01*
X147498550Y-100924969D01*
X147361148Y-100952300D01*
X147221052Y-100952300D01*
X147083650Y-100924969D01*
X146954222Y-100871358D01*
X146837734Y-100793523D01*
X146738677Y-100694466D01*
X146660842Y-100577978D01*
X146607231Y-100448550D01*
X146579900Y-100311148D01*
X146579900Y-100171052D01*
X146607231Y-100033650D01*
X146660842Y-99904222D01*
X146738677Y-99787734D01*
X146837734Y-99688677D01*
X146954222Y-99610842D01*
X147083650Y-99557231D01*
X147221052Y-99529900D01*
X147361148Y-99529900D01*
X147498550Y-99557231D01*
X147498550Y-99557231D01*
G37*
G36*
X144958550Y-99557231D02*
X145087978Y-99610842D01*
X145204466Y-99688677D01*
X145303523Y-99787734D01*
X145381358Y-99904222D01*
X145434969Y-100033650D01*
X145462300Y-100171052D01*
X145462300Y-100311148D01*
X145434969Y-100448550D01*
X145381358Y-100577978D01*
X145303523Y-100694466D01*
X145204466Y-100793523D01*
X145087978Y-100871358D01*
X144958550Y-100924969D01*
X144821148Y-100952300D01*
X144681052Y-100952300D01*
X144543650Y-100924969D01*
X144414222Y-100871358D01*
X144297734Y-100793523D01*
X144198677Y-100694466D01*
X144120842Y-100577978D01*
X144067231Y-100448550D01*
X144039900Y-100311148D01*
X144039900Y-100171052D01*
X144067231Y-100033650D01*
X144120842Y-99904222D01*
X144198677Y-99787734D01*
X144297734Y-99688677D01*
X144414222Y-99610842D01*
X144543650Y-99557231D01*
X144681052Y-99529900D01*
X144821148Y-99529900D01*
X144958550Y-99557231D01*
X144958550Y-99557231D01*
G37*
G36*
X139243550Y-98287231D02*
X139372978Y-98340842D01*
X139489466Y-98418677D01*
X139588523Y-98517734D01*
X139666358Y-98634222D01*
X139719969Y-98763650D01*
X139747300Y-98901052D01*
X139747300Y-99041148D01*
X139719969Y-99178550D01*
X139666358Y-99307978D01*
X139588523Y-99424466D01*
X139489466Y-99523523D01*
X139372978Y-99601358D01*
X139243550Y-99654969D01*
X139106148Y-99682300D01*
X138966052Y-99682300D01*
X138828650Y-99654969D01*
X138699222Y-99601358D01*
X138582734Y-99523523D01*
X138483677Y-99424466D01*
X138405842Y-99307978D01*
X138352231Y-99178550D01*
X138324900Y-99041148D01*
X138324900Y-98901052D01*
X138352231Y-98763650D01*
X138405842Y-98634222D01*
X138483677Y-98517734D01*
X138582734Y-98418677D01*
X138699222Y-98340842D01*
X138828650Y-98287231D01*
X138966052Y-98259900D01*
X139106148Y-98259900D01*
X139243550Y-98287231D01*
X139243550Y-98287231D01*
G37*
G36*
X152510520Y-95069790D02*
X152644580Y-95110457D01*
X152768129Y-95176495D01*
X152876431Y-95265375D01*
X152965303Y-95373666D01*
X153031343Y-95497219D01*
X153072010Y-95631279D01*
X153082300Y-95735760D01*
X153082300Y-97126440D01*
X153072010Y-97230921D01*
X153031343Y-97364981D01*
X152965303Y-97488534D01*
X152876428Y-97596828D01*
X152768134Y-97685703D01*
X152644581Y-97751743D01*
X152510521Y-97792410D01*
X152371100Y-97806141D01*
X152231680Y-97792410D01*
X152097620Y-97751743D01*
X151974067Y-97685703D01*
X151865773Y-97596828D01*
X151776898Y-97488534D01*
X151710858Y-97364981D01*
X151670191Y-97230921D01*
X151659901Y-97126440D01*
X151659900Y-95735761D01*
X151670190Y-95631280D01*
X151710857Y-95497220D01*
X151776895Y-95373671D01*
X151865775Y-95265369D01*
X151974066Y-95176497D01*
X152097619Y-95110457D01*
X152231679Y-95069790D01*
X152371100Y-95056059D01*
X152510520Y-95069790D01*
X152510520Y-95069790D01*
G37*
G36*
X165210520Y-95069790D02*
X165344580Y-95110457D01*
X165468129Y-95176495D01*
X165576431Y-95265375D01*
X165665303Y-95373666D01*
X165731343Y-95497219D01*
X165772010Y-95631279D01*
X165782300Y-95735760D01*
X165782300Y-97126440D01*
X165772010Y-97230921D01*
X165731343Y-97364981D01*
X165665303Y-97488534D01*
X165576428Y-97596828D01*
X165468134Y-97685703D01*
X165344581Y-97751743D01*
X165210521Y-97792410D01*
X165071100Y-97806141D01*
X164931680Y-97792410D01*
X164797620Y-97751743D01*
X164674067Y-97685703D01*
X164565773Y-97596828D01*
X164476898Y-97488534D01*
X164410858Y-97364981D01*
X164370191Y-97230921D01*
X164359901Y-97126440D01*
X164359900Y-95735761D01*
X164370190Y-95631280D01*
X164410857Y-95497220D01*
X164476895Y-95373671D01*
X164565775Y-95265369D01*
X164674066Y-95176497D01*
X164797619Y-95110457D01*
X164931679Y-95069790D01*
X165071100Y-95056059D01*
X165210520Y-95069790D01*
X165210520Y-95069790D01*
G37*
G36*
X172830520Y-95069790D02*
X172964580Y-95110457D01*
X173088129Y-95176495D01*
X173196431Y-95265375D01*
X173285303Y-95373666D01*
X173351343Y-95497219D01*
X173392010Y-95631279D01*
X173402300Y-95735760D01*
X173402300Y-97126440D01*
X173392010Y-97230921D01*
X173351343Y-97364981D01*
X173285303Y-97488534D01*
X173196428Y-97596828D01*
X173088134Y-97685703D01*
X172964581Y-97751743D01*
X172830521Y-97792410D01*
X172691100Y-97806141D01*
X172551680Y-97792410D01*
X172417620Y-97751743D01*
X172294067Y-97685703D01*
X172185773Y-97596828D01*
X172096898Y-97488534D01*
X172030858Y-97364981D01*
X171990191Y-97230921D01*
X171979901Y-97126440D01*
X171979900Y-95735761D01*
X171990190Y-95631280D01*
X172030857Y-95497220D01*
X172096895Y-95373671D01*
X172185775Y-95265369D01*
X172294066Y-95176497D01*
X172417619Y-95110457D01*
X172551679Y-95069790D01*
X172691100Y-95056059D01*
X172830520Y-95069790D01*
X172830520Y-95069790D01*
G37*
G36*
X167750520Y-95069790D02*
X167884580Y-95110457D01*
X168008129Y-95176495D01*
X168116431Y-95265375D01*
X168205303Y-95373666D01*
X168271343Y-95497219D01*
X168312010Y-95631279D01*
X168322300Y-95735760D01*
X168322300Y-97126440D01*
X168312010Y-97230921D01*
X168271343Y-97364981D01*
X168205303Y-97488534D01*
X168116428Y-97596828D01*
X168008134Y-97685703D01*
X167884581Y-97751743D01*
X167750521Y-97792410D01*
X167611100Y-97806141D01*
X167471680Y-97792410D01*
X167337620Y-97751743D01*
X167214067Y-97685703D01*
X167105773Y-97596828D01*
X167016898Y-97488534D01*
X166950858Y-97364981D01*
X166910191Y-97230921D01*
X166899901Y-97126440D01*
X166899900Y-95735761D01*
X166910190Y-95631280D01*
X166950857Y-95497220D01*
X167016895Y-95373671D01*
X167105775Y-95265369D01*
X167214066Y-95176497D01*
X167337619Y-95110457D01*
X167471679Y-95069790D01*
X167611100Y-95056059D01*
X167750520Y-95069790D01*
X167750520Y-95069790D01*
G37*
G36*
X142350520Y-95069790D02*
X142484580Y-95110457D01*
X142608129Y-95176495D01*
X142716431Y-95265375D01*
X142805303Y-95373666D01*
X142871343Y-95497219D01*
X142912010Y-95631279D01*
X142922300Y-95735760D01*
X142922300Y-97126440D01*
X142912010Y-97230921D01*
X142871343Y-97364981D01*
X142805303Y-97488534D01*
X142716428Y-97596828D01*
X142608134Y-97685703D01*
X142484581Y-97751743D01*
X142350521Y-97792410D01*
X142211100Y-97806141D01*
X142071680Y-97792410D01*
X141937620Y-97751743D01*
X141814067Y-97685703D01*
X141705773Y-97596828D01*
X141616898Y-97488534D01*
X141550858Y-97364981D01*
X141510191Y-97230921D01*
X141499901Y-97126440D01*
X141499900Y-95735761D01*
X141510190Y-95631280D01*
X141550857Y-95497220D01*
X141616895Y-95373671D01*
X141705775Y-95265369D01*
X141814066Y-95176497D01*
X141937619Y-95110457D01*
X142071679Y-95069790D01*
X142211100Y-95056059D01*
X142350520Y-95069790D01*
X142350520Y-95069790D01*
G37*
G36*
X144890520Y-95069790D02*
X145024580Y-95110457D01*
X145148129Y-95176495D01*
X145256431Y-95265375D01*
X145345303Y-95373666D01*
X145411343Y-95497219D01*
X145452010Y-95631279D01*
X145462300Y-95735760D01*
X145462300Y-97126440D01*
X145452010Y-97230921D01*
X145411343Y-97364981D01*
X145345303Y-97488534D01*
X145256428Y-97596828D01*
X145148134Y-97685703D01*
X145024581Y-97751743D01*
X144890521Y-97792410D01*
X144751100Y-97806141D01*
X144611680Y-97792410D01*
X144477620Y-97751743D01*
X144354067Y-97685703D01*
X144245773Y-97596828D01*
X144156898Y-97488534D01*
X144090858Y-97364981D01*
X144050191Y-97230921D01*
X144039901Y-97126440D01*
X144039900Y-95735761D01*
X144050190Y-95631280D01*
X144090857Y-95497220D01*
X144156895Y-95373671D01*
X144245775Y-95265369D01*
X144354066Y-95176497D01*
X144477619Y-95110457D01*
X144611679Y-95069790D01*
X144751100Y-95056059D01*
X144890520Y-95069790D01*
X144890520Y-95069790D01*
G37*
G36*
X147430520Y-95069790D02*
X147564580Y-95110457D01*
X147688129Y-95176495D01*
X147796431Y-95265375D01*
X147885303Y-95373666D01*
X147951343Y-95497219D01*
X147992010Y-95631279D01*
X148002300Y-95735760D01*
X148002300Y-97126440D01*
X147992010Y-97230921D01*
X147951343Y-97364981D01*
X147885303Y-97488534D01*
X147796428Y-97596828D01*
X147688134Y-97685703D01*
X147564581Y-97751743D01*
X147430521Y-97792410D01*
X147291100Y-97806141D01*
X147151680Y-97792410D01*
X147017620Y-97751743D01*
X146894067Y-97685703D01*
X146785773Y-97596828D01*
X146696898Y-97488534D01*
X146630858Y-97364981D01*
X146590191Y-97230921D01*
X146579901Y-97126440D01*
X146579900Y-95735761D01*
X146590190Y-95631280D01*
X146630857Y-95497220D01*
X146696895Y-95373671D01*
X146785775Y-95265369D01*
X146894066Y-95176497D01*
X147017619Y-95110457D01*
X147151679Y-95069790D01*
X147291100Y-95056059D01*
X147430520Y-95069790D01*
X147430520Y-95069790D01*
G37*
G36*
X149970520Y-95069790D02*
X150104580Y-95110457D01*
X150228129Y-95176495D01*
X150336431Y-95265375D01*
X150425303Y-95373666D01*
X150491343Y-95497219D01*
X150532010Y-95631279D01*
X150542300Y-95735760D01*
X150542300Y-97126440D01*
X150532010Y-97230921D01*
X150491343Y-97364981D01*
X150425303Y-97488534D01*
X150336428Y-97596828D01*
X150228134Y-97685703D01*
X150104581Y-97751743D01*
X149970521Y-97792410D01*
X149831100Y-97806141D01*
X149691680Y-97792410D01*
X149557620Y-97751743D01*
X149434067Y-97685703D01*
X149325773Y-97596828D01*
X149236898Y-97488534D01*
X149170858Y-97364981D01*
X149130191Y-97230921D01*
X149119901Y-97126440D01*
X149119900Y-95735761D01*
X149130190Y-95631280D01*
X149170857Y-95497220D01*
X149236895Y-95373671D01*
X149325775Y-95265369D01*
X149434066Y-95176497D01*
X149557619Y-95110457D01*
X149691679Y-95069790D01*
X149831100Y-95056059D01*
X149970520Y-95069790D01*
X149970520Y-95069790D01*
G37*
G36*
X155050520Y-95069790D02*
X155184580Y-95110457D01*
X155308129Y-95176495D01*
X155416431Y-95265375D01*
X155505303Y-95373666D01*
X155571343Y-95497219D01*
X155612010Y-95631279D01*
X155622300Y-95735760D01*
X155622300Y-97126440D01*
X155612010Y-97230921D01*
X155571343Y-97364981D01*
X155505303Y-97488534D01*
X155416428Y-97596828D01*
X155308134Y-97685703D01*
X155184581Y-97751743D01*
X155050521Y-97792410D01*
X154911100Y-97806141D01*
X154771680Y-97792410D01*
X154637620Y-97751743D01*
X154514067Y-97685703D01*
X154405773Y-97596828D01*
X154316898Y-97488534D01*
X154250858Y-97364981D01*
X154210191Y-97230921D01*
X154199901Y-97126440D01*
X154199900Y-95735761D01*
X154210190Y-95631280D01*
X154250857Y-95497220D01*
X154316895Y-95373671D01*
X154405775Y-95265369D01*
X154514066Y-95176497D01*
X154637619Y-95110457D01*
X154771679Y-95069790D01*
X154911100Y-95056059D01*
X155050520Y-95069790D01*
X155050520Y-95069790D01*
G37*
G36*
X157590520Y-95069790D02*
X157724580Y-95110457D01*
X157848129Y-95176495D01*
X157956431Y-95265375D01*
X158045303Y-95373666D01*
X158111343Y-95497219D01*
X158152010Y-95631279D01*
X158162300Y-95735760D01*
X158162300Y-97126440D01*
X158152010Y-97230921D01*
X158111343Y-97364981D01*
X158045303Y-97488534D01*
X157956428Y-97596828D01*
X157848134Y-97685703D01*
X157724581Y-97751743D01*
X157590521Y-97792410D01*
X157451100Y-97806141D01*
X157311680Y-97792410D01*
X157177620Y-97751743D01*
X157054067Y-97685703D01*
X156945773Y-97596828D01*
X156856898Y-97488534D01*
X156790858Y-97364981D01*
X156750191Y-97230921D01*
X156739901Y-97126440D01*
X156739900Y-95735761D01*
X156750190Y-95631280D01*
X156790857Y-95497220D01*
X156856895Y-95373671D01*
X156945775Y-95265369D01*
X157054066Y-95176497D01*
X157177619Y-95110457D01*
X157311679Y-95069790D01*
X157451100Y-95056059D01*
X157590520Y-95069790D01*
X157590520Y-95069790D01*
G37*
G36*
X160130520Y-95069790D02*
X160264580Y-95110457D01*
X160388129Y-95176495D01*
X160496431Y-95265375D01*
X160585303Y-95373666D01*
X160651343Y-95497219D01*
X160692010Y-95631279D01*
X160702300Y-95735760D01*
X160702300Y-97126440D01*
X160692010Y-97230921D01*
X160651343Y-97364981D01*
X160585303Y-97488534D01*
X160496428Y-97596828D01*
X160388134Y-97685703D01*
X160264581Y-97751743D01*
X160130521Y-97792410D01*
X159991100Y-97806141D01*
X159851680Y-97792410D01*
X159717620Y-97751743D01*
X159594067Y-97685703D01*
X159485773Y-97596828D01*
X159396898Y-97488534D01*
X159330858Y-97364981D01*
X159290191Y-97230921D01*
X159279901Y-97126440D01*
X159279900Y-95735761D01*
X159290190Y-95631280D01*
X159330857Y-95497220D01*
X159396895Y-95373671D01*
X159485775Y-95265369D01*
X159594066Y-95176497D01*
X159717619Y-95110457D01*
X159851679Y-95069790D01*
X159991100Y-95056059D01*
X160130520Y-95069790D01*
X160130520Y-95069790D01*
G37*
G36*
X162670520Y-95069790D02*
X162804580Y-95110457D01*
X162928129Y-95176495D01*
X163036431Y-95265375D01*
X163125303Y-95373666D01*
X163191343Y-95497219D01*
X163232010Y-95631279D01*
X163242300Y-95735760D01*
X163242300Y-97126440D01*
X163232010Y-97230921D01*
X163191343Y-97364981D01*
X163125303Y-97488534D01*
X163036428Y-97596828D01*
X162928134Y-97685703D01*
X162804581Y-97751743D01*
X162670521Y-97792410D01*
X162531100Y-97806141D01*
X162391680Y-97792410D01*
X162257620Y-97751743D01*
X162134067Y-97685703D01*
X162025773Y-97596828D01*
X161936898Y-97488534D01*
X161870858Y-97364981D01*
X161830191Y-97230921D01*
X161819901Y-97126440D01*
X161819900Y-95735761D01*
X161830190Y-95631280D01*
X161870857Y-95497220D01*
X161936895Y-95373671D01*
X162025775Y-95265369D01*
X162134066Y-95176497D01*
X162257619Y-95110457D01*
X162391679Y-95069790D01*
X162531100Y-95056059D01*
X162670520Y-95069790D01*
X162670520Y-95069790D01*
G37*
G36*
X170290520Y-95069790D02*
X170424580Y-95110457D01*
X170548129Y-95176495D01*
X170656431Y-95265375D01*
X170745303Y-95373666D01*
X170811343Y-95497219D01*
X170852010Y-95631279D01*
X170862300Y-95735760D01*
X170862300Y-97126440D01*
X170852010Y-97230921D01*
X170811343Y-97364981D01*
X170745303Y-97488534D01*
X170656428Y-97596828D01*
X170548134Y-97685703D01*
X170424581Y-97751743D01*
X170290521Y-97792410D01*
X170151100Y-97806141D01*
X170011680Y-97792410D01*
X169877620Y-97751743D01*
X169754067Y-97685703D01*
X169645773Y-97596828D01*
X169556898Y-97488534D01*
X169490858Y-97364981D01*
X169450191Y-97230921D01*
X169439901Y-97126440D01*
X169439900Y-95735761D01*
X169450190Y-95631280D01*
X169490857Y-95497220D01*
X169556895Y-95373671D01*
X169645775Y-95265369D01*
X169754066Y-95176497D01*
X169877619Y-95110457D01*
X170011679Y-95069790D01*
X170151100Y-95056059D01*
X170290520Y-95069790D01*
X170290520Y-95069790D01*
G37*
G36*
X175370520Y-95069790D02*
X175504580Y-95110457D01*
X175628129Y-95176495D01*
X175736431Y-95265375D01*
X175825303Y-95373666D01*
X175891343Y-95497219D01*
X175932010Y-95631279D01*
X175942300Y-95735760D01*
X175942300Y-97126440D01*
X175932010Y-97230921D01*
X175891343Y-97364981D01*
X175825303Y-97488534D01*
X175736428Y-97596828D01*
X175628134Y-97685703D01*
X175504581Y-97751743D01*
X175370521Y-97792410D01*
X175231100Y-97806141D01*
X175091680Y-97792410D01*
X174957620Y-97751743D01*
X174834067Y-97685703D01*
X174725773Y-97596828D01*
X174636898Y-97488534D01*
X174570858Y-97364981D01*
X174530191Y-97230921D01*
X174519901Y-97126440D01*
X174519900Y-95735761D01*
X174530190Y-95631280D01*
X174570857Y-95497220D01*
X174636895Y-95373671D01*
X174725775Y-95265369D01*
X174834066Y-95176497D01*
X174957619Y-95110457D01*
X175091679Y-95069790D01*
X175231100Y-95056059D01*
X175370520Y-95069790D01*
X175370520Y-95069790D01*
G37*
G36*
X126247450Y-95756131D02*
X126376878Y-95809742D01*
X126493366Y-95887577D01*
X126592423Y-95986634D01*
X126670258Y-96103122D01*
X126723869Y-96232550D01*
X126751200Y-96369952D01*
X126751200Y-96510048D01*
X126723869Y-96647450D01*
X126670258Y-96776878D01*
X126592423Y-96893366D01*
X126493366Y-96992423D01*
X126376878Y-97070258D01*
X126247450Y-97123869D01*
X126110048Y-97151200D01*
X125969952Y-97151200D01*
X125832550Y-97123869D01*
X125703122Y-97070258D01*
X125586634Y-96992423D01*
X125487577Y-96893366D01*
X125409742Y-96776878D01*
X125356131Y-96647450D01*
X125328800Y-96510048D01*
X125328800Y-96369952D01*
X125356131Y-96232550D01*
X125409742Y-96103122D01*
X125487577Y-95986634D01*
X125586634Y-95887577D01*
X125703122Y-95809742D01*
X125832550Y-95756131D01*
X125969952Y-95728800D01*
X126110048Y-95728800D01*
X126247450Y-95756131D01*
X126247450Y-95756131D01*
G37*
G36*
X133867450Y-95756131D02*
X133996878Y-95809742D01*
X134113366Y-95887577D01*
X134212423Y-95986634D01*
X134290258Y-96103122D01*
X134343869Y-96232550D01*
X134371200Y-96369952D01*
X134371200Y-96510048D01*
X134343869Y-96647450D01*
X134290258Y-96776878D01*
X134212423Y-96893366D01*
X134113366Y-96992423D01*
X133996878Y-97070258D01*
X133867450Y-97123869D01*
X133730048Y-97151200D01*
X133589952Y-97151200D01*
X133452550Y-97123869D01*
X133323122Y-97070258D01*
X133206634Y-96992423D01*
X133107577Y-96893366D01*
X133029742Y-96776878D01*
X132976131Y-96647450D01*
X132948800Y-96510048D01*
X132948800Y-96369952D01*
X132976131Y-96232550D01*
X133029742Y-96103122D01*
X133107577Y-95986634D01*
X133206634Y-95887577D01*
X133323122Y-95809742D01*
X133452550Y-95756131D01*
X133589952Y-95728800D01*
X133730048Y-95728800D01*
X133867450Y-95756131D01*
X133867450Y-95756131D01*
G37*
G36*
X139243550Y-95747231D02*
X139372978Y-95800842D01*
X139489466Y-95878677D01*
X139588523Y-95977734D01*
X139666358Y-96094222D01*
X139719969Y-96223650D01*
X139747300Y-96361052D01*
X139747300Y-96501148D01*
X139719969Y-96638550D01*
X139666358Y-96767978D01*
X139588523Y-96884466D01*
X139489466Y-96983523D01*
X139372978Y-97061358D01*
X139243550Y-97114969D01*
X139106148Y-97142300D01*
X138966052Y-97142300D01*
X138828650Y-97114969D01*
X138699222Y-97061358D01*
X138582734Y-96983523D01*
X138483677Y-96884466D01*
X138405842Y-96767978D01*
X138352231Y-96638550D01*
X138324900Y-96501148D01*
X138324900Y-96361052D01*
X138352231Y-96223650D01*
X138405842Y-96094222D01*
X138483677Y-95977734D01*
X138582734Y-95878677D01*
X138699222Y-95800842D01*
X138828650Y-95747231D01*
X138966052Y-95719900D01*
X139106148Y-95719900D01*
X139243550Y-95747231D01*
X139243550Y-95747231D01*
G37*
G36*
X148722975Y-80964122D02*
X148941988Y-81007686D01*
X149217064Y-81121626D01*
X149464625Y-81287041D01*
X149675159Y-81497575D01*
X149840574Y-81745136D01*
X149954514Y-82020212D01*
X150012600Y-82312230D01*
X150012600Y-82609970D01*
X149954514Y-82901988D01*
X149840574Y-83177064D01*
X149800136Y-83237583D01*
X149788585Y-83259194D01*
X149781472Y-83282643D01*
X149779070Y-83307030D01*
X149781472Y-83331416D01*
X149788585Y-83354865D01*
X149800137Y-83376476D01*
X149815682Y-83395418D01*
X149834621Y-83410960D01*
X149855071Y-83424625D01*
X150152769Y-83623541D01*
X150513659Y-83984431D01*
X150513661Y-83984434D01*
X150797215Y-84408801D01*
X150992530Y-84880333D01*
X151092100Y-85380909D01*
X151092100Y-85891291D01*
X150992530Y-86391867D01*
X150797215Y-86863399D01*
X150515574Y-87284903D01*
X150513659Y-87287769D01*
X150152769Y-87648659D01*
X150152766Y-87648661D01*
X149728399Y-87932215D01*
X149256867Y-88127530D01*
X149090008Y-88160720D01*
X148756293Y-88227100D01*
X148245907Y-88227100D01*
X147912192Y-88160720D01*
X147745333Y-88127530D01*
X147273801Y-87932215D01*
X146849434Y-87648661D01*
X146849431Y-87648659D01*
X146488541Y-87287769D01*
X146486626Y-87284903D01*
X146204985Y-86863399D01*
X146009670Y-86391867D01*
X145910100Y-85891291D01*
X145910100Y-85380909D01*
X146009670Y-84880333D01*
X146204985Y-84408801D01*
X146488539Y-83984434D01*
X146488541Y-83984431D01*
X146849431Y-83623541D01*
X147147129Y-83424625D01*
X147167579Y-83410960D01*
X147186518Y-83395417D01*
X147202064Y-83376475D01*
X147213615Y-83354864D01*
X147220728Y-83331415D01*
X147223130Y-83307029D01*
X147220728Y-83282643D01*
X147213615Y-83259194D01*
X147202064Y-83237583D01*
X147161626Y-83177064D01*
X147047686Y-82901988D01*
X146989600Y-82609970D01*
X146989600Y-82312230D01*
X147047686Y-82020212D01*
X147161626Y-81745136D01*
X147327041Y-81497575D01*
X147537575Y-81287041D01*
X147785136Y-81121626D01*
X148060212Y-81007686D01*
X148279225Y-80964122D01*
X148352229Y-80949600D01*
X148649971Y-80949600D01*
X148722975Y-80964122D01*
X148722975Y-80964122D01*
G37*
M02*
