G04 #@! TF.GenerationSoftware,KiCad,Pcbnew,5.0.2-bee76a0~70~ubuntu18.04.1*
G04 #@! TF.CreationDate,2021-04-24T22:48:44-04:00*
G04 #@! TF.ProjectId,SimpleC64Cart,53696d70-6c65-4433-9634-436172742e6b,rev?*
G04 #@! TF.SameCoordinates,Original*
G04 #@! TF.FileFunction,Copper,L2,Bot*
G04 #@! TF.FilePolarity,Positive*
%FSLAX46Y46*%
G04 Gerber Fmt 4.6, Leading zero omitted, Abs format (unit mm)*
G04 Created by KiCad (PCBNEW 5.0.2-bee76a0~70~ubuntu18.04.1) date Sat 24 Apr 2021 10:48:44 PM EDT*
%MOMM*%
%LPD*%
G01*
G04 APERTURE LIST*
G04 #@! TA.AperFunction,ComponentPad*
%ADD10O,1.600000X1.600000*%
G04 #@! TD*
G04 #@! TA.AperFunction,ComponentPad*
%ADD11R,1.600000X1.600000*%
G04 #@! TD*
G04 #@! TA.AperFunction,ComponentPad*
%ADD12O,1.422400X2.844800*%
G04 #@! TD*
G04 #@! TA.AperFunction,ComponentPad*
%ADD13C,1.320800*%
G04 #@! TD*
G04 #@! TA.AperFunction,Conductor*
%ADD14C,0.100000*%
G04 #@! TD*
G04 #@! TA.AperFunction,ConnectorPad*
%ADD15C,1.500000*%
G04 #@! TD*
G04 #@! TA.AperFunction,ComponentPad*
%ADD16O,1.320800X2.641600*%
G04 #@! TD*
G04 #@! TA.AperFunction,ComponentPad*
%ADD17O,1.700000X1.700000*%
G04 #@! TD*
G04 #@! TA.AperFunction,ComponentPad*
%ADD18R,1.700000X1.700000*%
G04 #@! TD*
G04 #@! TA.AperFunction,ViaPad*
%ADD19C,0.914400*%
G04 #@! TD*
G04 #@! TA.AperFunction,ViaPad*
%ADD20C,0.904800*%
G04 #@! TD*
G04 #@! TA.AperFunction,Conductor*
%ADD21C,1.270000*%
G04 #@! TD*
G04 #@! TA.AperFunction,Conductor*
%ADD22C,0.254000*%
G04 #@! TD*
G04 APERTURE END LIST*
D10*
G04 #@! TO.P,D1,2*
G04 #@! TO.N,N$1*
X132000000Y-100380000D03*
D11*
G04 #@! TO.P,D1,1*
G04 #@! TO.N,~ROML*
X132000000Y-108000000D03*
G04 #@! TD*
D10*
G04 #@! TO.P,D2,2*
G04 #@! TO.N,N$1*
X128000000Y-100380000D03*
D11*
G04 #@! TO.P,D2,1*
G04 #@! TO.N,~ROMH*
X128000000Y-108000000D03*
G04 #@! TD*
D12*
G04 #@! TO.P,A15,2*
G04 #@! TO.N,ADDR15*
X139160000Y-107470000D03*
G04 #@! TO.P,A15,1*
G04 #@! TO.N,GND*
X136620000Y-107470000D03*
G04 #@! TD*
D13*
G04 #@! TO.P,R1,1*
G04 #@! TO.N,VCC*
X126040000Y-96440000D03*
G04 #@! TO.P,R1,2*
G04 #@! TO.N,N$1*
X133660000Y-96440000D03*
G04 #@! TD*
D12*
G04 #@! TO.P,A14,1*
G04 #@! TO.N,GND*
X136520000Y-104170000D03*
G04 #@! TO.P,A14,2*
G04 #@! TO.N,ADDR14*
X139060000Y-104170000D03*
G04 #@! TD*
D14*
G04 #@! TO.N,GND*
G04 #@! TO.C,X1*
G36*
X175718154Y-120231983D02*
X175739995Y-120235223D01*
X175761414Y-120240588D01*
X175782204Y-120248027D01*
X175802164Y-120257468D01*
X175821103Y-120268819D01*
X175838838Y-120281973D01*
X175855199Y-120296801D01*
X175870027Y-120313162D01*
X175883181Y-120330897D01*
X175894532Y-120349836D01*
X175903973Y-120369796D01*
X175911412Y-120390586D01*
X175916777Y-120412005D01*
X175920017Y-120433846D01*
X175921100Y-120455900D01*
X175921100Y-128895900D01*
X175920017Y-128917954D01*
X175916777Y-128939795D01*
X175911412Y-128961214D01*
X175903973Y-128982004D01*
X175894532Y-129001964D01*
X175883181Y-129020903D01*
X175870027Y-129038638D01*
X175855199Y-129054999D01*
X175838838Y-129069827D01*
X175821103Y-129082981D01*
X175802164Y-129094332D01*
X175782204Y-129103773D01*
X175761414Y-129111212D01*
X175739995Y-129116577D01*
X175718154Y-129119817D01*
X175696100Y-129120900D01*
X174646100Y-129120900D01*
X174624046Y-129119817D01*
X174602205Y-129116577D01*
X174580786Y-129111212D01*
X174559996Y-129103773D01*
X174540036Y-129094332D01*
X174521097Y-129082981D01*
X174503362Y-129069827D01*
X174487001Y-129054999D01*
X174472173Y-129038638D01*
X174459019Y-129020903D01*
X174447668Y-129001964D01*
X174438227Y-128982004D01*
X174430788Y-128961214D01*
X174425423Y-128939795D01*
X174422183Y-128917954D01*
X174421100Y-128895900D01*
X174421100Y-120455900D01*
X174422183Y-120433846D01*
X174425423Y-120412005D01*
X174430788Y-120390586D01*
X174438227Y-120369796D01*
X174447668Y-120349836D01*
X174459019Y-120330897D01*
X174472173Y-120313162D01*
X174487001Y-120296801D01*
X174503362Y-120281973D01*
X174521097Y-120268819D01*
X174540036Y-120257468D01*
X174559996Y-120248027D01*
X174580786Y-120240588D01*
X174602205Y-120235223D01*
X174624046Y-120231983D01*
X174646100Y-120230900D01*
X175696100Y-120230900D01*
X175718154Y-120231983D01*
X175718154Y-120231983D01*
G37*
D15*
G04 #@! TD*
G04 #@! TO.P,X1,Z*
G04 #@! TO.N,GND*
X175171100Y-124675900D03*
D14*
G04 #@! TO.N,A0*
G04 #@! TO.C,X1*
G36*
X173178154Y-120231983D02*
X173199995Y-120235223D01*
X173221414Y-120240588D01*
X173242204Y-120248027D01*
X173262164Y-120257468D01*
X173281103Y-120268819D01*
X173298838Y-120281973D01*
X173315199Y-120296801D01*
X173330027Y-120313162D01*
X173343181Y-120330897D01*
X173354532Y-120349836D01*
X173363973Y-120369796D01*
X173371412Y-120390586D01*
X173376777Y-120412005D01*
X173380017Y-120433846D01*
X173381100Y-120455900D01*
X173381100Y-128895900D01*
X173380017Y-128917954D01*
X173376777Y-128939795D01*
X173371412Y-128961214D01*
X173363973Y-128982004D01*
X173354532Y-129001964D01*
X173343181Y-129020903D01*
X173330027Y-129038638D01*
X173315199Y-129054999D01*
X173298838Y-129069827D01*
X173281103Y-129082981D01*
X173262164Y-129094332D01*
X173242204Y-129103773D01*
X173221414Y-129111212D01*
X173199995Y-129116577D01*
X173178154Y-129119817D01*
X173156100Y-129120900D01*
X172106100Y-129120900D01*
X172084046Y-129119817D01*
X172062205Y-129116577D01*
X172040786Y-129111212D01*
X172019996Y-129103773D01*
X172000036Y-129094332D01*
X171981097Y-129082981D01*
X171963362Y-129069827D01*
X171947001Y-129054999D01*
X171932173Y-129038638D01*
X171919019Y-129020903D01*
X171907668Y-129001964D01*
X171898227Y-128982004D01*
X171890788Y-128961214D01*
X171885423Y-128939795D01*
X171882183Y-128917954D01*
X171881100Y-128895900D01*
X171881100Y-120455900D01*
X171882183Y-120433846D01*
X171885423Y-120412005D01*
X171890788Y-120390586D01*
X171898227Y-120369796D01*
X171907668Y-120349836D01*
X171919019Y-120330897D01*
X171932173Y-120313162D01*
X171947001Y-120296801D01*
X171963362Y-120281973D01*
X171981097Y-120268819D01*
X172000036Y-120257468D01*
X172019996Y-120248027D01*
X172040786Y-120240588D01*
X172062205Y-120235223D01*
X172084046Y-120231983D01*
X172106100Y-120230900D01*
X173156100Y-120230900D01*
X173178154Y-120231983D01*
X173178154Y-120231983D01*
G37*
D15*
G04 #@! TD*
G04 #@! TO.P,X1,Y*
G04 #@! TO.N,A0*
X172631100Y-124675900D03*
D14*
G04 #@! TO.N,A1*
G04 #@! TO.C,X1*
G36*
X170638154Y-120231983D02*
X170659995Y-120235223D01*
X170681414Y-120240588D01*
X170702204Y-120248027D01*
X170722164Y-120257468D01*
X170741103Y-120268819D01*
X170758838Y-120281973D01*
X170775199Y-120296801D01*
X170790027Y-120313162D01*
X170803181Y-120330897D01*
X170814532Y-120349836D01*
X170823973Y-120369796D01*
X170831412Y-120390586D01*
X170836777Y-120412005D01*
X170840017Y-120433846D01*
X170841100Y-120455900D01*
X170841100Y-128895900D01*
X170840017Y-128917954D01*
X170836777Y-128939795D01*
X170831412Y-128961214D01*
X170823973Y-128982004D01*
X170814532Y-129001964D01*
X170803181Y-129020903D01*
X170790027Y-129038638D01*
X170775199Y-129054999D01*
X170758838Y-129069827D01*
X170741103Y-129082981D01*
X170722164Y-129094332D01*
X170702204Y-129103773D01*
X170681414Y-129111212D01*
X170659995Y-129116577D01*
X170638154Y-129119817D01*
X170616100Y-129120900D01*
X169566100Y-129120900D01*
X169544046Y-129119817D01*
X169522205Y-129116577D01*
X169500786Y-129111212D01*
X169479996Y-129103773D01*
X169460036Y-129094332D01*
X169441097Y-129082981D01*
X169423362Y-129069827D01*
X169407001Y-129054999D01*
X169392173Y-129038638D01*
X169379019Y-129020903D01*
X169367668Y-129001964D01*
X169358227Y-128982004D01*
X169350788Y-128961214D01*
X169345423Y-128939795D01*
X169342183Y-128917954D01*
X169341100Y-128895900D01*
X169341100Y-120455900D01*
X169342183Y-120433846D01*
X169345423Y-120412005D01*
X169350788Y-120390586D01*
X169358227Y-120369796D01*
X169367668Y-120349836D01*
X169379019Y-120330897D01*
X169392173Y-120313162D01*
X169407001Y-120296801D01*
X169423362Y-120281973D01*
X169441097Y-120268819D01*
X169460036Y-120257468D01*
X169479996Y-120248027D01*
X169500786Y-120240588D01*
X169522205Y-120235223D01*
X169544046Y-120231983D01*
X169566100Y-120230900D01*
X170616100Y-120230900D01*
X170638154Y-120231983D01*
X170638154Y-120231983D01*
G37*
D15*
G04 #@! TD*
G04 #@! TO.P,X1,X*
G04 #@! TO.N,A1*
X170091100Y-124675900D03*
D14*
G04 #@! TO.N,A2*
G04 #@! TO.C,X1*
G36*
X168098154Y-120231983D02*
X168119995Y-120235223D01*
X168141414Y-120240588D01*
X168162204Y-120248027D01*
X168182164Y-120257468D01*
X168201103Y-120268819D01*
X168218838Y-120281973D01*
X168235199Y-120296801D01*
X168250027Y-120313162D01*
X168263181Y-120330897D01*
X168274532Y-120349836D01*
X168283973Y-120369796D01*
X168291412Y-120390586D01*
X168296777Y-120412005D01*
X168300017Y-120433846D01*
X168301100Y-120455900D01*
X168301100Y-128895900D01*
X168300017Y-128917954D01*
X168296777Y-128939795D01*
X168291412Y-128961214D01*
X168283973Y-128982004D01*
X168274532Y-129001964D01*
X168263181Y-129020903D01*
X168250027Y-129038638D01*
X168235199Y-129054999D01*
X168218838Y-129069827D01*
X168201103Y-129082981D01*
X168182164Y-129094332D01*
X168162204Y-129103773D01*
X168141414Y-129111212D01*
X168119995Y-129116577D01*
X168098154Y-129119817D01*
X168076100Y-129120900D01*
X167026100Y-129120900D01*
X167004046Y-129119817D01*
X166982205Y-129116577D01*
X166960786Y-129111212D01*
X166939996Y-129103773D01*
X166920036Y-129094332D01*
X166901097Y-129082981D01*
X166883362Y-129069827D01*
X166867001Y-129054999D01*
X166852173Y-129038638D01*
X166839019Y-129020903D01*
X166827668Y-129001964D01*
X166818227Y-128982004D01*
X166810788Y-128961214D01*
X166805423Y-128939795D01*
X166802183Y-128917954D01*
X166801100Y-128895900D01*
X166801100Y-120455900D01*
X166802183Y-120433846D01*
X166805423Y-120412005D01*
X166810788Y-120390586D01*
X166818227Y-120369796D01*
X166827668Y-120349836D01*
X166839019Y-120330897D01*
X166852173Y-120313162D01*
X166867001Y-120296801D01*
X166883362Y-120281973D01*
X166901097Y-120268819D01*
X166920036Y-120257468D01*
X166939996Y-120248027D01*
X166960786Y-120240588D01*
X166982205Y-120235223D01*
X167004046Y-120231983D01*
X167026100Y-120230900D01*
X168076100Y-120230900D01*
X168098154Y-120231983D01*
X168098154Y-120231983D01*
G37*
D15*
G04 #@! TD*
G04 #@! TO.P,X1,W*
G04 #@! TO.N,A2*
X167551100Y-124675900D03*
D14*
G04 #@! TO.N,A3*
G04 #@! TO.C,X1*
G36*
X165558154Y-120231983D02*
X165579995Y-120235223D01*
X165601414Y-120240588D01*
X165622204Y-120248027D01*
X165642164Y-120257468D01*
X165661103Y-120268819D01*
X165678838Y-120281973D01*
X165695199Y-120296801D01*
X165710027Y-120313162D01*
X165723181Y-120330897D01*
X165734532Y-120349836D01*
X165743973Y-120369796D01*
X165751412Y-120390586D01*
X165756777Y-120412005D01*
X165760017Y-120433846D01*
X165761100Y-120455900D01*
X165761100Y-128895900D01*
X165760017Y-128917954D01*
X165756777Y-128939795D01*
X165751412Y-128961214D01*
X165743973Y-128982004D01*
X165734532Y-129001964D01*
X165723181Y-129020903D01*
X165710027Y-129038638D01*
X165695199Y-129054999D01*
X165678838Y-129069827D01*
X165661103Y-129082981D01*
X165642164Y-129094332D01*
X165622204Y-129103773D01*
X165601414Y-129111212D01*
X165579995Y-129116577D01*
X165558154Y-129119817D01*
X165536100Y-129120900D01*
X164486100Y-129120900D01*
X164464046Y-129119817D01*
X164442205Y-129116577D01*
X164420786Y-129111212D01*
X164399996Y-129103773D01*
X164380036Y-129094332D01*
X164361097Y-129082981D01*
X164343362Y-129069827D01*
X164327001Y-129054999D01*
X164312173Y-129038638D01*
X164299019Y-129020903D01*
X164287668Y-129001964D01*
X164278227Y-128982004D01*
X164270788Y-128961214D01*
X164265423Y-128939795D01*
X164262183Y-128917954D01*
X164261100Y-128895900D01*
X164261100Y-120455900D01*
X164262183Y-120433846D01*
X164265423Y-120412005D01*
X164270788Y-120390586D01*
X164278227Y-120369796D01*
X164287668Y-120349836D01*
X164299019Y-120330897D01*
X164312173Y-120313162D01*
X164327001Y-120296801D01*
X164343362Y-120281973D01*
X164361097Y-120268819D01*
X164380036Y-120257468D01*
X164399996Y-120248027D01*
X164420786Y-120240588D01*
X164442205Y-120235223D01*
X164464046Y-120231983D01*
X164486100Y-120230900D01*
X165536100Y-120230900D01*
X165558154Y-120231983D01*
X165558154Y-120231983D01*
G37*
D15*
G04 #@! TD*
G04 #@! TO.P,X1,V*
G04 #@! TO.N,A3*
X165011100Y-124675900D03*
D14*
G04 #@! TO.N,A4*
G04 #@! TO.C,X1*
G36*
X163018154Y-120231983D02*
X163039995Y-120235223D01*
X163061414Y-120240588D01*
X163082204Y-120248027D01*
X163102164Y-120257468D01*
X163121103Y-120268819D01*
X163138838Y-120281973D01*
X163155199Y-120296801D01*
X163170027Y-120313162D01*
X163183181Y-120330897D01*
X163194532Y-120349836D01*
X163203973Y-120369796D01*
X163211412Y-120390586D01*
X163216777Y-120412005D01*
X163220017Y-120433846D01*
X163221100Y-120455900D01*
X163221100Y-128895900D01*
X163220017Y-128917954D01*
X163216777Y-128939795D01*
X163211412Y-128961214D01*
X163203973Y-128982004D01*
X163194532Y-129001964D01*
X163183181Y-129020903D01*
X163170027Y-129038638D01*
X163155199Y-129054999D01*
X163138838Y-129069827D01*
X163121103Y-129082981D01*
X163102164Y-129094332D01*
X163082204Y-129103773D01*
X163061414Y-129111212D01*
X163039995Y-129116577D01*
X163018154Y-129119817D01*
X162996100Y-129120900D01*
X161946100Y-129120900D01*
X161924046Y-129119817D01*
X161902205Y-129116577D01*
X161880786Y-129111212D01*
X161859996Y-129103773D01*
X161840036Y-129094332D01*
X161821097Y-129082981D01*
X161803362Y-129069827D01*
X161787001Y-129054999D01*
X161772173Y-129038638D01*
X161759019Y-129020903D01*
X161747668Y-129001964D01*
X161738227Y-128982004D01*
X161730788Y-128961214D01*
X161725423Y-128939795D01*
X161722183Y-128917954D01*
X161721100Y-128895900D01*
X161721100Y-120455900D01*
X161722183Y-120433846D01*
X161725423Y-120412005D01*
X161730788Y-120390586D01*
X161738227Y-120369796D01*
X161747668Y-120349836D01*
X161759019Y-120330897D01*
X161772173Y-120313162D01*
X161787001Y-120296801D01*
X161803362Y-120281973D01*
X161821097Y-120268819D01*
X161840036Y-120257468D01*
X161859996Y-120248027D01*
X161880786Y-120240588D01*
X161902205Y-120235223D01*
X161924046Y-120231983D01*
X161946100Y-120230900D01*
X162996100Y-120230900D01*
X163018154Y-120231983D01*
X163018154Y-120231983D01*
G37*
D15*
G04 #@! TD*
G04 #@! TO.P,X1,U*
G04 #@! TO.N,A4*
X162471100Y-124675900D03*
D14*
G04 #@! TO.N,A5*
G04 #@! TO.C,X1*
G36*
X160478154Y-120231983D02*
X160499995Y-120235223D01*
X160521414Y-120240588D01*
X160542204Y-120248027D01*
X160562164Y-120257468D01*
X160581103Y-120268819D01*
X160598838Y-120281973D01*
X160615199Y-120296801D01*
X160630027Y-120313162D01*
X160643181Y-120330897D01*
X160654532Y-120349836D01*
X160663973Y-120369796D01*
X160671412Y-120390586D01*
X160676777Y-120412005D01*
X160680017Y-120433846D01*
X160681100Y-120455900D01*
X160681100Y-128895900D01*
X160680017Y-128917954D01*
X160676777Y-128939795D01*
X160671412Y-128961214D01*
X160663973Y-128982004D01*
X160654532Y-129001964D01*
X160643181Y-129020903D01*
X160630027Y-129038638D01*
X160615199Y-129054999D01*
X160598838Y-129069827D01*
X160581103Y-129082981D01*
X160562164Y-129094332D01*
X160542204Y-129103773D01*
X160521414Y-129111212D01*
X160499995Y-129116577D01*
X160478154Y-129119817D01*
X160456100Y-129120900D01*
X159406100Y-129120900D01*
X159384046Y-129119817D01*
X159362205Y-129116577D01*
X159340786Y-129111212D01*
X159319996Y-129103773D01*
X159300036Y-129094332D01*
X159281097Y-129082981D01*
X159263362Y-129069827D01*
X159247001Y-129054999D01*
X159232173Y-129038638D01*
X159219019Y-129020903D01*
X159207668Y-129001964D01*
X159198227Y-128982004D01*
X159190788Y-128961214D01*
X159185423Y-128939795D01*
X159182183Y-128917954D01*
X159181100Y-128895900D01*
X159181100Y-120455900D01*
X159182183Y-120433846D01*
X159185423Y-120412005D01*
X159190788Y-120390586D01*
X159198227Y-120369796D01*
X159207668Y-120349836D01*
X159219019Y-120330897D01*
X159232173Y-120313162D01*
X159247001Y-120296801D01*
X159263362Y-120281973D01*
X159281097Y-120268819D01*
X159300036Y-120257468D01*
X159319996Y-120248027D01*
X159340786Y-120240588D01*
X159362205Y-120235223D01*
X159384046Y-120231983D01*
X159406100Y-120230900D01*
X160456100Y-120230900D01*
X160478154Y-120231983D01*
X160478154Y-120231983D01*
G37*
D15*
G04 #@! TD*
G04 #@! TO.P,X1,T*
G04 #@! TO.N,A5*
X159931100Y-124675900D03*
D14*
G04 #@! TO.N,A6*
G04 #@! TO.C,X1*
G36*
X157938154Y-120231983D02*
X157959995Y-120235223D01*
X157981414Y-120240588D01*
X158002204Y-120248027D01*
X158022164Y-120257468D01*
X158041103Y-120268819D01*
X158058838Y-120281973D01*
X158075199Y-120296801D01*
X158090027Y-120313162D01*
X158103181Y-120330897D01*
X158114532Y-120349836D01*
X158123973Y-120369796D01*
X158131412Y-120390586D01*
X158136777Y-120412005D01*
X158140017Y-120433846D01*
X158141100Y-120455900D01*
X158141100Y-128895900D01*
X158140017Y-128917954D01*
X158136777Y-128939795D01*
X158131412Y-128961214D01*
X158123973Y-128982004D01*
X158114532Y-129001964D01*
X158103181Y-129020903D01*
X158090027Y-129038638D01*
X158075199Y-129054999D01*
X158058838Y-129069827D01*
X158041103Y-129082981D01*
X158022164Y-129094332D01*
X158002204Y-129103773D01*
X157981414Y-129111212D01*
X157959995Y-129116577D01*
X157938154Y-129119817D01*
X157916100Y-129120900D01*
X156866100Y-129120900D01*
X156844046Y-129119817D01*
X156822205Y-129116577D01*
X156800786Y-129111212D01*
X156779996Y-129103773D01*
X156760036Y-129094332D01*
X156741097Y-129082981D01*
X156723362Y-129069827D01*
X156707001Y-129054999D01*
X156692173Y-129038638D01*
X156679019Y-129020903D01*
X156667668Y-129001964D01*
X156658227Y-128982004D01*
X156650788Y-128961214D01*
X156645423Y-128939795D01*
X156642183Y-128917954D01*
X156641100Y-128895900D01*
X156641100Y-120455900D01*
X156642183Y-120433846D01*
X156645423Y-120412005D01*
X156650788Y-120390586D01*
X156658227Y-120369796D01*
X156667668Y-120349836D01*
X156679019Y-120330897D01*
X156692173Y-120313162D01*
X156707001Y-120296801D01*
X156723362Y-120281973D01*
X156741097Y-120268819D01*
X156760036Y-120257468D01*
X156779996Y-120248027D01*
X156800786Y-120240588D01*
X156822205Y-120235223D01*
X156844046Y-120231983D01*
X156866100Y-120230900D01*
X157916100Y-120230900D01*
X157938154Y-120231983D01*
X157938154Y-120231983D01*
G37*
D15*
G04 #@! TD*
G04 #@! TO.P,X1,S*
G04 #@! TO.N,A6*
X157391100Y-124675900D03*
D14*
G04 #@! TO.N,A7*
G04 #@! TO.C,X1*
G36*
X155398154Y-120231983D02*
X155419995Y-120235223D01*
X155441414Y-120240588D01*
X155462204Y-120248027D01*
X155482164Y-120257468D01*
X155501103Y-120268819D01*
X155518838Y-120281973D01*
X155535199Y-120296801D01*
X155550027Y-120313162D01*
X155563181Y-120330897D01*
X155574532Y-120349836D01*
X155583973Y-120369796D01*
X155591412Y-120390586D01*
X155596777Y-120412005D01*
X155600017Y-120433846D01*
X155601100Y-120455900D01*
X155601100Y-128895900D01*
X155600017Y-128917954D01*
X155596777Y-128939795D01*
X155591412Y-128961214D01*
X155583973Y-128982004D01*
X155574532Y-129001964D01*
X155563181Y-129020903D01*
X155550027Y-129038638D01*
X155535199Y-129054999D01*
X155518838Y-129069827D01*
X155501103Y-129082981D01*
X155482164Y-129094332D01*
X155462204Y-129103773D01*
X155441414Y-129111212D01*
X155419995Y-129116577D01*
X155398154Y-129119817D01*
X155376100Y-129120900D01*
X154326100Y-129120900D01*
X154304046Y-129119817D01*
X154282205Y-129116577D01*
X154260786Y-129111212D01*
X154239996Y-129103773D01*
X154220036Y-129094332D01*
X154201097Y-129082981D01*
X154183362Y-129069827D01*
X154167001Y-129054999D01*
X154152173Y-129038638D01*
X154139019Y-129020903D01*
X154127668Y-129001964D01*
X154118227Y-128982004D01*
X154110788Y-128961214D01*
X154105423Y-128939795D01*
X154102183Y-128917954D01*
X154101100Y-128895900D01*
X154101100Y-120455900D01*
X154102183Y-120433846D01*
X154105423Y-120412005D01*
X154110788Y-120390586D01*
X154118227Y-120369796D01*
X154127668Y-120349836D01*
X154139019Y-120330897D01*
X154152173Y-120313162D01*
X154167001Y-120296801D01*
X154183362Y-120281973D01*
X154201097Y-120268819D01*
X154220036Y-120257468D01*
X154239996Y-120248027D01*
X154260786Y-120240588D01*
X154282205Y-120235223D01*
X154304046Y-120231983D01*
X154326100Y-120230900D01*
X155376100Y-120230900D01*
X155398154Y-120231983D01*
X155398154Y-120231983D01*
G37*
D15*
G04 #@! TD*
G04 #@! TO.P,X1,R*
G04 #@! TO.N,A7*
X154851100Y-124675900D03*
D14*
G04 #@! TO.N,A8*
G04 #@! TO.C,X1*
G36*
X152858154Y-120231983D02*
X152879995Y-120235223D01*
X152901414Y-120240588D01*
X152922204Y-120248027D01*
X152942164Y-120257468D01*
X152961103Y-120268819D01*
X152978838Y-120281973D01*
X152995199Y-120296801D01*
X153010027Y-120313162D01*
X153023181Y-120330897D01*
X153034532Y-120349836D01*
X153043973Y-120369796D01*
X153051412Y-120390586D01*
X153056777Y-120412005D01*
X153060017Y-120433846D01*
X153061100Y-120455900D01*
X153061100Y-128895900D01*
X153060017Y-128917954D01*
X153056777Y-128939795D01*
X153051412Y-128961214D01*
X153043973Y-128982004D01*
X153034532Y-129001964D01*
X153023181Y-129020903D01*
X153010027Y-129038638D01*
X152995199Y-129054999D01*
X152978838Y-129069827D01*
X152961103Y-129082981D01*
X152942164Y-129094332D01*
X152922204Y-129103773D01*
X152901414Y-129111212D01*
X152879995Y-129116577D01*
X152858154Y-129119817D01*
X152836100Y-129120900D01*
X151786100Y-129120900D01*
X151764046Y-129119817D01*
X151742205Y-129116577D01*
X151720786Y-129111212D01*
X151699996Y-129103773D01*
X151680036Y-129094332D01*
X151661097Y-129082981D01*
X151643362Y-129069827D01*
X151627001Y-129054999D01*
X151612173Y-129038638D01*
X151599019Y-129020903D01*
X151587668Y-129001964D01*
X151578227Y-128982004D01*
X151570788Y-128961214D01*
X151565423Y-128939795D01*
X151562183Y-128917954D01*
X151561100Y-128895900D01*
X151561100Y-120455900D01*
X151562183Y-120433846D01*
X151565423Y-120412005D01*
X151570788Y-120390586D01*
X151578227Y-120369796D01*
X151587668Y-120349836D01*
X151599019Y-120330897D01*
X151612173Y-120313162D01*
X151627001Y-120296801D01*
X151643362Y-120281973D01*
X151661097Y-120268819D01*
X151680036Y-120257468D01*
X151699996Y-120248027D01*
X151720786Y-120240588D01*
X151742205Y-120235223D01*
X151764046Y-120231983D01*
X151786100Y-120230900D01*
X152836100Y-120230900D01*
X152858154Y-120231983D01*
X152858154Y-120231983D01*
G37*
D15*
G04 #@! TD*
G04 #@! TO.P,X1,P*
G04 #@! TO.N,A8*
X152311100Y-124675900D03*
D14*
G04 #@! TO.N,A9*
G04 #@! TO.C,X1*
G36*
X150318154Y-120231983D02*
X150339995Y-120235223D01*
X150361414Y-120240588D01*
X150382204Y-120248027D01*
X150402164Y-120257468D01*
X150421103Y-120268819D01*
X150438838Y-120281973D01*
X150455199Y-120296801D01*
X150470027Y-120313162D01*
X150483181Y-120330897D01*
X150494532Y-120349836D01*
X150503973Y-120369796D01*
X150511412Y-120390586D01*
X150516777Y-120412005D01*
X150520017Y-120433846D01*
X150521100Y-120455900D01*
X150521100Y-128895900D01*
X150520017Y-128917954D01*
X150516777Y-128939795D01*
X150511412Y-128961214D01*
X150503973Y-128982004D01*
X150494532Y-129001964D01*
X150483181Y-129020903D01*
X150470027Y-129038638D01*
X150455199Y-129054999D01*
X150438838Y-129069827D01*
X150421103Y-129082981D01*
X150402164Y-129094332D01*
X150382204Y-129103773D01*
X150361414Y-129111212D01*
X150339995Y-129116577D01*
X150318154Y-129119817D01*
X150296100Y-129120900D01*
X149246100Y-129120900D01*
X149224046Y-129119817D01*
X149202205Y-129116577D01*
X149180786Y-129111212D01*
X149159996Y-129103773D01*
X149140036Y-129094332D01*
X149121097Y-129082981D01*
X149103362Y-129069827D01*
X149087001Y-129054999D01*
X149072173Y-129038638D01*
X149059019Y-129020903D01*
X149047668Y-129001964D01*
X149038227Y-128982004D01*
X149030788Y-128961214D01*
X149025423Y-128939795D01*
X149022183Y-128917954D01*
X149021100Y-128895900D01*
X149021100Y-120455900D01*
X149022183Y-120433846D01*
X149025423Y-120412005D01*
X149030788Y-120390586D01*
X149038227Y-120369796D01*
X149047668Y-120349836D01*
X149059019Y-120330897D01*
X149072173Y-120313162D01*
X149087001Y-120296801D01*
X149103362Y-120281973D01*
X149121097Y-120268819D01*
X149140036Y-120257468D01*
X149159996Y-120248027D01*
X149180786Y-120240588D01*
X149202205Y-120235223D01*
X149224046Y-120231983D01*
X149246100Y-120230900D01*
X150296100Y-120230900D01*
X150318154Y-120231983D01*
X150318154Y-120231983D01*
G37*
D15*
G04 #@! TD*
G04 #@! TO.P,X1,N*
G04 #@! TO.N,A9*
X149771100Y-124675900D03*
D14*
G04 #@! TO.N,A10*
G04 #@! TO.C,X1*
G36*
X147778154Y-120231983D02*
X147799995Y-120235223D01*
X147821414Y-120240588D01*
X147842204Y-120248027D01*
X147862164Y-120257468D01*
X147881103Y-120268819D01*
X147898838Y-120281973D01*
X147915199Y-120296801D01*
X147930027Y-120313162D01*
X147943181Y-120330897D01*
X147954532Y-120349836D01*
X147963973Y-120369796D01*
X147971412Y-120390586D01*
X147976777Y-120412005D01*
X147980017Y-120433846D01*
X147981100Y-120455900D01*
X147981100Y-128895900D01*
X147980017Y-128917954D01*
X147976777Y-128939795D01*
X147971412Y-128961214D01*
X147963973Y-128982004D01*
X147954532Y-129001964D01*
X147943181Y-129020903D01*
X147930027Y-129038638D01*
X147915199Y-129054999D01*
X147898838Y-129069827D01*
X147881103Y-129082981D01*
X147862164Y-129094332D01*
X147842204Y-129103773D01*
X147821414Y-129111212D01*
X147799995Y-129116577D01*
X147778154Y-129119817D01*
X147756100Y-129120900D01*
X146706100Y-129120900D01*
X146684046Y-129119817D01*
X146662205Y-129116577D01*
X146640786Y-129111212D01*
X146619996Y-129103773D01*
X146600036Y-129094332D01*
X146581097Y-129082981D01*
X146563362Y-129069827D01*
X146547001Y-129054999D01*
X146532173Y-129038638D01*
X146519019Y-129020903D01*
X146507668Y-129001964D01*
X146498227Y-128982004D01*
X146490788Y-128961214D01*
X146485423Y-128939795D01*
X146482183Y-128917954D01*
X146481100Y-128895900D01*
X146481100Y-120455900D01*
X146482183Y-120433846D01*
X146485423Y-120412005D01*
X146490788Y-120390586D01*
X146498227Y-120369796D01*
X146507668Y-120349836D01*
X146519019Y-120330897D01*
X146532173Y-120313162D01*
X146547001Y-120296801D01*
X146563362Y-120281973D01*
X146581097Y-120268819D01*
X146600036Y-120257468D01*
X146619996Y-120248027D01*
X146640786Y-120240588D01*
X146662205Y-120235223D01*
X146684046Y-120231983D01*
X146706100Y-120230900D01*
X147756100Y-120230900D01*
X147778154Y-120231983D01*
X147778154Y-120231983D01*
G37*
D15*
G04 #@! TD*
G04 #@! TO.P,X1,M*
G04 #@! TO.N,A10*
X147231100Y-124675900D03*
D14*
G04 #@! TO.N,A11*
G04 #@! TO.C,X1*
G36*
X145238154Y-120231983D02*
X145259995Y-120235223D01*
X145281414Y-120240588D01*
X145302204Y-120248027D01*
X145322164Y-120257468D01*
X145341103Y-120268819D01*
X145358838Y-120281973D01*
X145375199Y-120296801D01*
X145390027Y-120313162D01*
X145403181Y-120330897D01*
X145414532Y-120349836D01*
X145423973Y-120369796D01*
X145431412Y-120390586D01*
X145436777Y-120412005D01*
X145440017Y-120433846D01*
X145441100Y-120455900D01*
X145441100Y-128895900D01*
X145440017Y-128917954D01*
X145436777Y-128939795D01*
X145431412Y-128961214D01*
X145423973Y-128982004D01*
X145414532Y-129001964D01*
X145403181Y-129020903D01*
X145390027Y-129038638D01*
X145375199Y-129054999D01*
X145358838Y-129069827D01*
X145341103Y-129082981D01*
X145322164Y-129094332D01*
X145302204Y-129103773D01*
X145281414Y-129111212D01*
X145259995Y-129116577D01*
X145238154Y-129119817D01*
X145216100Y-129120900D01*
X144166100Y-129120900D01*
X144144046Y-129119817D01*
X144122205Y-129116577D01*
X144100786Y-129111212D01*
X144079996Y-129103773D01*
X144060036Y-129094332D01*
X144041097Y-129082981D01*
X144023362Y-129069827D01*
X144007001Y-129054999D01*
X143992173Y-129038638D01*
X143979019Y-129020903D01*
X143967668Y-129001964D01*
X143958227Y-128982004D01*
X143950788Y-128961214D01*
X143945423Y-128939795D01*
X143942183Y-128917954D01*
X143941100Y-128895900D01*
X143941100Y-120455900D01*
X143942183Y-120433846D01*
X143945423Y-120412005D01*
X143950788Y-120390586D01*
X143958227Y-120369796D01*
X143967668Y-120349836D01*
X143979019Y-120330897D01*
X143992173Y-120313162D01*
X144007001Y-120296801D01*
X144023362Y-120281973D01*
X144041097Y-120268819D01*
X144060036Y-120257468D01*
X144079996Y-120248027D01*
X144100786Y-120240588D01*
X144122205Y-120235223D01*
X144144046Y-120231983D01*
X144166100Y-120230900D01*
X145216100Y-120230900D01*
X145238154Y-120231983D01*
X145238154Y-120231983D01*
G37*
D15*
G04 #@! TD*
G04 #@! TO.P,X1,L*
G04 #@! TO.N,A11*
X144691100Y-124675900D03*
D14*
G04 #@! TO.N,A12*
G04 #@! TO.C,X1*
G36*
X142698154Y-120231983D02*
X142719995Y-120235223D01*
X142741414Y-120240588D01*
X142762204Y-120248027D01*
X142782164Y-120257468D01*
X142801103Y-120268819D01*
X142818838Y-120281973D01*
X142835199Y-120296801D01*
X142850027Y-120313162D01*
X142863181Y-120330897D01*
X142874532Y-120349836D01*
X142883973Y-120369796D01*
X142891412Y-120390586D01*
X142896777Y-120412005D01*
X142900017Y-120433846D01*
X142901100Y-120455900D01*
X142901100Y-128895900D01*
X142900017Y-128917954D01*
X142896777Y-128939795D01*
X142891412Y-128961214D01*
X142883973Y-128982004D01*
X142874532Y-129001964D01*
X142863181Y-129020903D01*
X142850027Y-129038638D01*
X142835199Y-129054999D01*
X142818838Y-129069827D01*
X142801103Y-129082981D01*
X142782164Y-129094332D01*
X142762204Y-129103773D01*
X142741414Y-129111212D01*
X142719995Y-129116577D01*
X142698154Y-129119817D01*
X142676100Y-129120900D01*
X141626100Y-129120900D01*
X141604046Y-129119817D01*
X141582205Y-129116577D01*
X141560786Y-129111212D01*
X141539996Y-129103773D01*
X141520036Y-129094332D01*
X141501097Y-129082981D01*
X141483362Y-129069827D01*
X141467001Y-129054999D01*
X141452173Y-129038638D01*
X141439019Y-129020903D01*
X141427668Y-129001964D01*
X141418227Y-128982004D01*
X141410788Y-128961214D01*
X141405423Y-128939795D01*
X141402183Y-128917954D01*
X141401100Y-128895900D01*
X141401100Y-120455900D01*
X141402183Y-120433846D01*
X141405423Y-120412005D01*
X141410788Y-120390586D01*
X141418227Y-120369796D01*
X141427668Y-120349836D01*
X141439019Y-120330897D01*
X141452173Y-120313162D01*
X141467001Y-120296801D01*
X141483362Y-120281973D01*
X141501097Y-120268819D01*
X141520036Y-120257468D01*
X141539996Y-120248027D01*
X141560786Y-120240588D01*
X141582205Y-120235223D01*
X141604046Y-120231983D01*
X141626100Y-120230900D01*
X142676100Y-120230900D01*
X142698154Y-120231983D01*
X142698154Y-120231983D01*
G37*
D15*
G04 #@! TD*
G04 #@! TO.P,X1,K*
G04 #@! TO.N,A12*
X142151100Y-124675900D03*
D14*
G04 #@! TO.N,~ROMH*
G04 #@! TO.C,X1*
G36*
X124918154Y-120231983D02*
X124939995Y-120235223D01*
X124961414Y-120240588D01*
X124982204Y-120248027D01*
X125002164Y-120257468D01*
X125021103Y-120268819D01*
X125038838Y-120281973D01*
X125055199Y-120296801D01*
X125070027Y-120313162D01*
X125083181Y-120330897D01*
X125094532Y-120349836D01*
X125103973Y-120369796D01*
X125111412Y-120390586D01*
X125116777Y-120412005D01*
X125120017Y-120433846D01*
X125121100Y-120455900D01*
X125121100Y-128895900D01*
X125120017Y-128917954D01*
X125116777Y-128939795D01*
X125111412Y-128961214D01*
X125103973Y-128982004D01*
X125094532Y-129001964D01*
X125083181Y-129020903D01*
X125070027Y-129038638D01*
X125055199Y-129054999D01*
X125038838Y-129069827D01*
X125021103Y-129082981D01*
X125002164Y-129094332D01*
X124982204Y-129103773D01*
X124961414Y-129111212D01*
X124939995Y-129116577D01*
X124918154Y-129119817D01*
X124896100Y-129120900D01*
X123846100Y-129120900D01*
X123824046Y-129119817D01*
X123802205Y-129116577D01*
X123780786Y-129111212D01*
X123759996Y-129103773D01*
X123740036Y-129094332D01*
X123721097Y-129082981D01*
X123703362Y-129069827D01*
X123687001Y-129054999D01*
X123672173Y-129038638D01*
X123659019Y-129020903D01*
X123647668Y-129001964D01*
X123638227Y-128982004D01*
X123630788Y-128961214D01*
X123625423Y-128939795D01*
X123622183Y-128917954D01*
X123621100Y-128895900D01*
X123621100Y-120455900D01*
X123622183Y-120433846D01*
X123625423Y-120412005D01*
X123630788Y-120390586D01*
X123638227Y-120369796D01*
X123647668Y-120349836D01*
X123659019Y-120330897D01*
X123672173Y-120313162D01*
X123687001Y-120296801D01*
X123703362Y-120281973D01*
X123721097Y-120268819D01*
X123740036Y-120257468D01*
X123759996Y-120248027D01*
X123780786Y-120240588D01*
X123802205Y-120235223D01*
X123824046Y-120231983D01*
X123846100Y-120230900D01*
X124896100Y-120230900D01*
X124918154Y-120231983D01*
X124918154Y-120231983D01*
G37*
D15*
G04 #@! TD*
G04 #@! TO.P,X1,B*
G04 #@! TO.N,~ROMH*
X124371100Y-124675900D03*
D14*
G04 #@! TO.N,GND*
G04 #@! TO.C,X1*
G36*
X122378154Y-120231983D02*
X122399995Y-120235223D01*
X122421414Y-120240588D01*
X122442204Y-120248027D01*
X122462164Y-120257468D01*
X122481103Y-120268819D01*
X122498838Y-120281973D01*
X122515199Y-120296801D01*
X122530027Y-120313162D01*
X122543181Y-120330897D01*
X122554532Y-120349836D01*
X122563973Y-120369796D01*
X122571412Y-120390586D01*
X122576777Y-120412005D01*
X122580017Y-120433846D01*
X122581100Y-120455900D01*
X122581100Y-128895900D01*
X122580017Y-128917954D01*
X122576777Y-128939795D01*
X122571412Y-128961214D01*
X122563973Y-128982004D01*
X122554532Y-129001964D01*
X122543181Y-129020903D01*
X122530027Y-129038638D01*
X122515199Y-129054999D01*
X122498838Y-129069827D01*
X122481103Y-129082981D01*
X122462164Y-129094332D01*
X122442204Y-129103773D01*
X122421414Y-129111212D01*
X122399995Y-129116577D01*
X122378154Y-129119817D01*
X122356100Y-129120900D01*
X121306100Y-129120900D01*
X121284046Y-129119817D01*
X121262205Y-129116577D01*
X121240786Y-129111212D01*
X121219996Y-129103773D01*
X121200036Y-129094332D01*
X121181097Y-129082981D01*
X121163362Y-129069827D01*
X121147001Y-129054999D01*
X121132173Y-129038638D01*
X121119019Y-129020903D01*
X121107668Y-129001964D01*
X121098227Y-128982004D01*
X121090788Y-128961214D01*
X121085423Y-128939795D01*
X121082183Y-128917954D01*
X121081100Y-128895900D01*
X121081100Y-120455900D01*
X121082183Y-120433846D01*
X121085423Y-120412005D01*
X121090788Y-120390586D01*
X121098227Y-120369796D01*
X121107668Y-120349836D01*
X121119019Y-120330897D01*
X121132173Y-120313162D01*
X121147001Y-120296801D01*
X121163362Y-120281973D01*
X121181097Y-120268819D01*
X121200036Y-120257468D01*
X121219996Y-120248027D01*
X121240786Y-120240588D01*
X121262205Y-120235223D01*
X121284046Y-120231983D01*
X121306100Y-120230900D01*
X122356100Y-120230900D01*
X122378154Y-120231983D01*
X122378154Y-120231983D01*
G37*
D15*
G04 #@! TD*
G04 #@! TO.P,X1,A*
G04 #@! TO.N,GND*
X121831100Y-124675900D03*
D16*
G04 #@! TO.P,U1,28*
G04 #@! TO.N,VCC*
X142211100Y-96431100D03*
G04 #@! TO.P,U1,27*
G04 #@! TO.N,ADDR14*
X144751100Y-96431100D03*
G04 #@! TO.P,U1,26*
G04 #@! TO.N,~ROML*
X147291100Y-96431100D03*
G04 #@! TO.P,U1,25*
G04 #@! TO.N,A8*
X149831100Y-96431100D03*
G04 #@! TO.P,U1,24*
G04 #@! TO.N,A9*
X152371100Y-96431100D03*
G04 #@! TO.P,U1,23*
G04 #@! TO.N,A11*
X154911100Y-96431100D03*
G04 #@! TO.P,U1,22*
G04 #@! TO.N,N$1*
X157451100Y-96431100D03*
G04 #@! TO.P,U1,21*
G04 #@! TO.N,A10*
X159991100Y-96431100D03*
G04 #@! TO.P,U1,20*
G04 #@! TO.N,N$1*
X162531100Y-96431100D03*
G04 #@! TO.P,U1,19*
G04 #@! TO.N,D7*
X165071100Y-96431100D03*
G04 #@! TO.P,U1,18*
G04 #@! TO.N,D6*
X167611100Y-96431100D03*
G04 #@! TO.P,U1,17*
G04 #@! TO.N,D5*
X170151100Y-96431100D03*
G04 #@! TO.P,U1,16*
G04 #@! TO.N,D4*
X172691100Y-96431100D03*
G04 #@! TO.P,U1,15*
G04 #@! TO.N,D3*
X175231100Y-96431100D03*
G04 #@! TO.P,U1,14*
G04 #@! TO.N,GND*
X175231100Y-111671100D03*
G04 #@! TO.P,U1,13*
G04 #@! TO.N,D2*
X172691100Y-111671100D03*
G04 #@! TO.P,U1,12*
G04 #@! TO.N,D1*
X170151100Y-111671100D03*
G04 #@! TO.P,U1,11*
G04 #@! TO.N,D0*
X167611100Y-111671100D03*
G04 #@! TO.P,U1,10*
G04 #@! TO.N,A0*
X165071100Y-111671100D03*
G04 #@! TO.P,U1,9*
G04 #@! TO.N,A1*
X162531100Y-111671100D03*
G04 #@! TO.P,U1,8*
G04 #@! TO.N,A2*
X159991100Y-111671100D03*
G04 #@! TO.P,U1,7*
G04 #@! TO.N,A3*
X157451100Y-111671100D03*
G04 #@! TO.P,U1,6*
G04 #@! TO.N,A4*
X154911100Y-111671100D03*
G04 #@! TO.P,U1,5*
G04 #@! TO.N,A5*
X152371100Y-111671100D03*
G04 #@! TO.P,U1,4*
G04 #@! TO.N,A6*
X149831100Y-111671100D03*
G04 #@! TO.P,U1,3*
G04 #@! TO.N,A7*
X147291100Y-111671100D03*
G04 #@! TO.P,U1,2*
G04 #@! TO.N,A12*
X144751100Y-111671100D03*
G04 #@! TO.P,U1,1*
G04 #@! TO.N,ADDR15*
X142211100Y-111671100D03*
G04 #@! TD*
D13*
G04 #@! TO.P,R2,2*
G04 #@! TO.N,ADDR14*
X147291100Y-100241100D03*
G04 #@! TO.P,R2,1*
G04 #@! TO.N,VCC*
X147291100Y-107861100D03*
G04 #@! TD*
G04 #@! TO.P,R3,2*
G04 #@! TO.N,ADDR15*
X144751100Y-107861100D03*
G04 #@! TO.P,R3,1*
G04 #@! TO.N,VCC*
X144751100Y-100241100D03*
G04 #@! TD*
G04 #@! TO.P,C1,2*
G04 #@! TO.N,GND*
X139036100Y-96431100D03*
G04 #@! TO.P,C1,1*
G04 #@! TO.N,VCC*
X139036100Y-98971100D03*
G04 #@! TD*
D17*
G04 #@! TO.P,TYPE,4*
G04 #@! TO.N,GND*
X136060000Y-113780000D03*
G04 #@! TO.P,TYPE,3*
G04 #@! TO.N,~EXROM*
X136060000Y-116320000D03*
G04 #@! TO.P,TYPE,2*
G04 #@! TO.N,GND*
X133520000Y-113780000D03*
D18*
G04 #@! TO.P,TYPE,1*
G04 #@! TO.N,~GAME*
X133520000Y-116320000D03*
G04 #@! TD*
D19*
G04 #@! TO.N,GND*
X121860000Y-117480000D03*
X175170000Y-117310000D03*
D20*
G04 #@! TO.N,A10*
X147231100Y-118021100D03*
G04 #@! TO.N,A9*
X149771100Y-118021100D03*
G04 #@! TO.N,A8*
X152311100Y-118021100D03*
G04 #@! TD*
D21*
G04 #@! TO.N,GND*
X175171100Y-119291100D02*
X175171100Y-124675900D01*
X121831100Y-124675900D02*
X121831100Y-117508900D01*
X175170000Y-119290000D02*
X175170000Y-117310000D01*
D22*
G04 #@! TO.N,VCC*
X144751100Y-99631500D02*
X144751100Y-100241100D01*
X142211100Y-97091500D02*
X144751100Y-99631500D01*
X142211100Y-96431100D02*
X142211100Y-97091500D01*
X144751100Y-101175046D02*
X148590000Y-105013946D01*
X144751100Y-100241100D02*
X144751100Y-101175046D01*
X148590000Y-105013946D02*
X148590000Y-106620000D01*
X148532200Y-106620000D02*
X147291100Y-107861100D01*
X148590000Y-106620000D02*
X148532200Y-106620000D01*
G04 #@! TO.N,~ROMH*
X124371100Y-115700000D02*
X124371100Y-115481100D01*
X124371100Y-115700000D02*
X124371100Y-114357300D01*
X124371100Y-124675900D02*
X124371100Y-115700000D01*
X128000000Y-110728400D02*
X128000000Y-108000000D01*
X124371100Y-114357300D02*
X128000000Y-110728400D01*
G04 #@! TO.N,A12*
X142151100Y-124675900D02*
X142151100Y-116751100D01*
X144751100Y-113245900D02*
X144750000Y-113247000D01*
X144750000Y-113247000D02*
X144750000Y-114152200D01*
X144751100Y-111671100D02*
X144751100Y-113245900D01*
X142151100Y-116751100D02*
X144750000Y-114152200D01*
G04 #@! TO.N,A11*
X144691100Y-124675900D02*
X144691100Y-118021100D01*
X146332200Y-116380000D02*
X146332200Y-110640508D01*
X146332200Y-110640508D02*
X147832708Y-109140000D01*
X144691100Y-118021100D02*
X146332200Y-116380000D01*
X149943106Y-109140000D02*
X149953106Y-109150000D01*
X147832708Y-109140000D02*
X149943106Y-109140000D01*
X149953106Y-109150000D02*
X153090000Y-109150000D01*
X154911100Y-107328900D02*
X154911100Y-96431100D01*
X153090000Y-109150000D02*
X154911100Y-107328900D01*
G04 #@! TO.N,A10*
X147231100Y-124675900D02*
X147231100Y-118021100D01*
G04 #@! TO.N,A9*
X149771100Y-124675900D02*
X149771100Y-118021100D01*
G04 #@! TO.N,A8*
X152311100Y-124675900D02*
X152311100Y-118021100D01*
G04 #@! TO.N,A7*
X154851100Y-124675900D02*
X154851100Y-119291100D01*
X147291100Y-111671100D02*
X147291100Y-112311100D01*
X147291100Y-112311100D02*
X148540000Y-113560000D01*
X154851100Y-119291100D02*
X149120000Y-113560000D01*
X148540000Y-113560000D02*
X149120000Y-113560000D01*
G04 #@! TO.N,A6*
X157391100Y-124675900D02*
X157391100Y-119291100D01*
X149831100Y-111671100D02*
X149831100Y-112151100D01*
X151070000Y-113390000D02*
X151490000Y-113390000D01*
X149831100Y-112151100D02*
X151070000Y-113390000D01*
X157391100Y-119291100D02*
X151490000Y-113390000D01*
G04 #@! TO.N,A5*
X159931100Y-124675900D02*
X159931100Y-119291100D01*
X152371100Y-111671100D02*
X152371100Y-112311100D01*
X153450000Y-113390000D02*
X154030000Y-113390000D01*
X152371100Y-112311100D02*
X153450000Y-113390000D01*
X159931100Y-119291100D02*
X154030000Y-113390000D01*
G04 #@! TO.N,A4*
X162471100Y-124675900D02*
X162471100Y-119291100D01*
X154911100Y-111671100D02*
X154911100Y-112351100D01*
X156050000Y-113490000D02*
X156670000Y-113490000D01*
X154911100Y-112351100D02*
X156050000Y-113490000D01*
X162471100Y-119291100D02*
X156670000Y-113490000D01*
G04 #@! TO.N,A3*
X165011100Y-124675900D02*
X165011100Y-119291100D01*
X157451100Y-111671100D02*
X157451100Y-112321100D01*
X158660000Y-113530000D02*
X159250000Y-113530000D01*
X157451100Y-112321100D02*
X158660000Y-113530000D01*
X165011100Y-119291100D02*
X159250000Y-113530000D01*
G04 #@! TO.N,A2*
X167551100Y-124675900D02*
X167551100Y-119291100D01*
X159991100Y-111671100D02*
X159991100Y-112291100D01*
X161220000Y-113520000D02*
X161780000Y-113520000D01*
X159991100Y-112291100D02*
X161220000Y-113520000D01*
X167551100Y-119291100D02*
X161780000Y-113520000D01*
G04 #@! TO.N,A1*
X170091100Y-124675900D02*
X170091100Y-119291100D01*
X162531100Y-111671100D02*
X162531100Y-112171100D01*
X163660000Y-113300000D02*
X164100000Y-113300000D01*
X162531100Y-112171100D02*
X163660000Y-113300000D01*
X170091100Y-119291100D02*
X164100000Y-113300000D01*
G04 #@! TO.N,A0*
X172631100Y-124675900D02*
X172631100Y-119291100D01*
X165071100Y-111671100D02*
X165071100Y-112261100D01*
X172631100Y-119291100D02*
X167000000Y-113660000D01*
X166470000Y-113660000D02*
X167000000Y-113660000D01*
X165071100Y-112261100D02*
X166470000Y-113660000D01*
G04 #@! TO.N,N$1*
X155610000Y-93891100D02*
X155610000Y-93929600D01*
X155610000Y-93929600D02*
X157451100Y-95770700D01*
X157451100Y-95770700D02*
X157451100Y-96431100D01*
X141300000Y-93891100D02*
X155610000Y-93891100D01*
X140881100Y-93891100D02*
X141300000Y-93891100D01*
X136208900Y-93891100D02*
X133660000Y-96440000D01*
X141300000Y-93891100D02*
X136208900Y-93891100D01*
X133660000Y-98720000D02*
X133660000Y-96440000D01*
X132000000Y-100380000D02*
X133660000Y-98720000D01*
X129272792Y-100380000D02*
X132000000Y-100380000D01*
X128000000Y-100380000D02*
X129272792Y-100380000D01*
X162531100Y-95770700D02*
X162531100Y-96431100D01*
X160690000Y-93929600D02*
X162531100Y-95770700D01*
X155610000Y-93929600D02*
X160690000Y-93929600D01*
G04 #@! TO.N,ADDR14*
X144751100Y-97091500D02*
X147291100Y-99631500D01*
X147291100Y-99631500D02*
X147291100Y-100241100D01*
X144751100Y-96431100D02*
X144751100Y-97091500D01*
G04 #@! TO.N,ADDR15*
X144751100Y-108470700D02*
X144751100Y-107861100D01*
X142211100Y-111010700D02*
X144751100Y-108470700D01*
X142211100Y-111671100D02*
X142211100Y-111010700D01*
X139551100Y-107861100D02*
X139160000Y-107470000D01*
X144751100Y-107861100D02*
X139551100Y-107861100D01*
G04 #@! TD*
G04 #@! TO.N,GND*
G36*
X176949100Y-119799100D02*
X173085100Y-119799100D01*
X173085100Y-119313388D01*
X173087295Y-119291100D01*
X173085100Y-119268812D01*
X173085100Y-119268805D01*
X173078530Y-119202101D01*
X173052570Y-119116521D01*
X173010413Y-119037651D01*
X172953679Y-118968521D01*
X172936363Y-118954310D01*
X167336795Y-113354743D01*
X167322579Y-113337421D01*
X167253449Y-113280687D01*
X167174579Y-113238530D01*
X167088999Y-113212570D01*
X167022295Y-113206000D01*
X167022288Y-113206000D01*
X167000000Y-113203805D01*
X166977712Y-113206000D01*
X166658053Y-113206000D01*
X166028597Y-112576544D01*
X166044213Y-112525064D01*
X166058500Y-112380003D01*
X166058500Y-110962198D01*
X166623700Y-110962198D01*
X166623701Y-112380003D01*
X166637988Y-112525064D01*
X166694449Y-112711190D01*
X166786136Y-112882724D01*
X166909526Y-113033075D01*
X167059877Y-113156465D01*
X167231411Y-113248152D01*
X167417537Y-113304613D01*
X167611100Y-113323677D01*
X167804664Y-113304613D01*
X167990790Y-113248152D01*
X168162324Y-113156465D01*
X168312675Y-113033075D01*
X168436065Y-112882724D01*
X168527752Y-112711190D01*
X168584213Y-112525064D01*
X168598500Y-112380003D01*
X168598500Y-110962198D01*
X169163700Y-110962198D01*
X169163701Y-112380003D01*
X169177988Y-112525064D01*
X169234449Y-112711190D01*
X169326136Y-112882724D01*
X169449526Y-113033075D01*
X169599877Y-113156465D01*
X169771411Y-113248152D01*
X169957537Y-113304613D01*
X170151100Y-113323677D01*
X170344664Y-113304613D01*
X170530790Y-113248152D01*
X170702324Y-113156465D01*
X170852675Y-113033075D01*
X170976065Y-112882724D01*
X171067752Y-112711190D01*
X171124213Y-112525064D01*
X171138500Y-112380003D01*
X171138500Y-110962198D01*
X171703700Y-110962198D01*
X171703701Y-112380003D01*
X171717988Y-112525064D01*
X171774449Y-112711190D01*
X171866136Y-112882724D01*
X171989526Y-113033075D01*
X172139877Y-113156465D01*
X172311411Y-113248152D01*
X172497537Y-113304613D01*
X172691100Y-113323677D01*
X172884664Y-113304613D01*
X173070790Y-113248152D01*
X173242324Y-113156465D01*
X173392675Y-113033075D01*
X173516065Y-112882724D01*
X173607752Y-112711190D01*
X173664213Y-112525064D01*
X173678500Y-112380003D01*
X173678500Y-111696100D01*
X174139700Y-111696100D01*
X174139700Y-112356500D01*
X174165548Y-112568941D01*
X174232345Y-112772258D01*
X174337523Y-112958636D01*
X174477041Y-113120914D01*
X174645537Y-113252855D01*
X174836536Y-113349389D01*
X175035720Y-113405270D01*
X175206100Y-113314832D01*
X175206100Y-111696100D01*
X175256100Y-111696100D01*
X175256100Y-113314832D01*
X175426480Y-113405270D01*
X175625664Y-113349389D01*
X175816663Y-113252855D01*
X175985159Y-113120914D01*
X176124677Y-112958636D01*
X176229855Y-112772258D01*
X176296652Y-112568941D01*
X176322500Y-112356500D01*
X176322500Y-111696100D01*
X175256100Y-111696100D01*
X175206100Y-111696100D01*
X174139700Y-111696100D01*
X173678500Y-111696100D01*
X173678500Y-110985700D01*
X174139700Y-110985700D01*
X174139700Y-111646100D01*
X175206100Y-111646100D01*
X175206100Y-110027368D01*
X175256100Y-110027368D01*
X175256100Y-111646100D01*
X176322500Y-111646100D01*
X176322500Y-110985700D01*
X176296652Y-110773259D01*
X176229855Y-110569942D01*
X176124677Y-110383564D01*
X175985159Y-110221286D01*
X175816663Y-110089345D01*
X175625664Y-109992811D01*
X175426480Y-109936930D01*
X175256100Y-110027368D01*
X175206100Y-110027368D01*
X175035720Y-109936930D01*
X174836536Y-109992811D01*
X174645537Y-110089345D01*
X174477041Y-110221286D01*
X174337523Y-110383564D01*
X174232345Y-110569942D01*
X174165548Y-110773259D01*
X174139700Y-110985700D01*
X173678500Y-110985700D01*
X173678500Y-110962197D01*
X173664213Y-110817136D01*
X173607752Y-110631010D01*
X173516065Y-110459476D01*
X173392675Y-110309125D01*
X173242324Y-110185735D01*
X173070789Y-110094048D01*
X172884663Y-110037587D01*
X172691100Y-110018523D01*
X172497536Y-110037587D01*
X172311410Y-110094048D01*
X172139876Y-110185735D01*
X171989525Y-110309125D01*
X171866135Y-110459476D01*
X171774448Y-110631011D01*
X171717987Y-110817137D01*
X171703700Y-110962198D01*
X171138500Y-110962198D01*
X171138500Y-110962197D01*
X171124213Y-110817136D01*
X171067752Y-110631010D01*
X170976065Y-110459476D01*
X170852675Y-110309125D01*
X170702324Y-110185735D01*
X170530789Y-110094048D01*
X170344663Y-110037587D01*
X170151100Y-110018523D01*
X169957536Y-110037587D01*
X169771410Y-110094048D01*
X169599876Y-110185735D01*
X169449525Y-110309125D01*
X169326135Y-110459476D01*
X169234448Y-110631011D01*
X169177987Y-110817137D01*
X169163700Y-110962198D01*
X168598500Y-110962198D01*
X168598500Y-110962197D01*
X168584213Y-110817136D01*
X168527752Y-110631010D01*
X168436065Y-110459476D01*
X168312675Y-110309125D01*
X168162324Y-110185735D01*
X167990789Y-110094048D01*
X167804663Y-110037587D01*
X167611100Y-110018523D01*
X167417536Y-110037587D01*
X167231410Y-110094048D01*
X167059876Y-110185735D01*
X166909525Y-110309125D01*
X166786135Y-110459476D01*
X166694448Y-110631011D01*
X166637987Y-110817137D01*
X166623700Y-110962198D01*
X166058500Y-110962198D01*
X166058500Y-110962197D01*
X166044213Y-110817136D01*
X165987752Y-110631010D01*
X165896065Y-110459476D01*
X165772675Y-110309125D01*
X165622324Y-110185735D01*
X165450789Y-110094048D01*
X165264663Y-110037587D01*
X165071100Y-110018523D01*
X164877536Y-110037587D01*
X164691410Y-110094048D01*
X164519876Y-110185735D01*
X164369525Y-110309125D01*
X164246135Y-110459476D01*
X164154448Y-110631011D01*
X164097987Y-110817137D01*
X164083700Y-110962198D01*
X164083701Y-112380003D01*
X164097988Y-112525064D01*
X164154449Y-112711190D01*
X164237956Y-112867421D01*
X164188999Y-112852570D01*
X164122295Y-112846000D01*
X164122288Y-112846000D01*
X164100000Y-112843805D01*
X164077712Y-112846000D01*
X163848053Y-112846000D01*
X163506267Y-112504214D01*
X163518500Y-112380003D01*
X163518500Y-110962197D01*
X163504213Y-110817136D01*
X163447752Y-110631010D01*
X163356065Y-110459476D01*
X163232675Y-110309125D01*
X163082324Y-110185735D01*
X162910789Y-110094048D01*
X162724663Y-110037587D01*
X162531100Y-110018523D01*
X162337536Y-110037587D01*
X162151410Y-110094048D01*
X161979876Y-110185735D01*
X161829525Y-110309125D01*
X161706135Y-110459476D01*
X161614448Y-110631011D01*
X161557987Y-110817137D01*
X161543700Y-110962198D01*
X161543701Y-112380003D01*
X161557988Y-112525064D01*
X161614449Y-112711190D01*
X161706136Y-112882724D01*
X161829526Y-113033075D01*
X161882724Y-113076733D01*
X161868999Y-113072570D01*
X161802295Y-113066000D01*
X161802288Y-113066000D01*
X161780000Y-113063805D01*
X161757712Y-113066000D01*
X161408053Y-113066000D01*
X160941614Y-112599562D01*
X160964213Y-112525064D01*
X160978500Y-112380003D01*
X160978500Y-110962197D01*
X160964213Y-110817136D01*
X160907752Y-110631010D01*
X160816065Y-110459476D01*
X160692675Y-110309125D01*
X160542324Y-110185735D01*
X160370789Y-110094048D01*
X160184663Y-110037587D01*
X159991100Y-110018523D01*
X159797536Y-110037587D01*
X159611410Y-110094048D01*
X159439876Y-110185735D01*
X159289525Y-110309125D01*
X159166135Y-110459476D01*
X159074448Y-110631011D01*
X159017987Y-110817137D01*
X159003700Y-110962198D01*
X159003701Y-112380003D01*
X159017988Y-112525064D01*
X159074449Y-112711190D01*
X159166136Y-112882724D01*
X159289526Y-113033075D01*
X159356190Y-113087785D01*
X159338999Y-113082570D01*
X159272295Y-113076000D01*
X159272288Y-113076000D01*
X159250000Y-113073805D01*
X159227712Y-113076000D01*
X158848053Y-113076000D01*
X158394632Y-112622579D01*
X158424213Y-112525064D01*
X158438500Y-112380003D01*
X158438500Y-110962197D01*
X158424213Y-110817136D01*
X158367752Y-110631010D01*
X158276065Y-110459476D01*
X158152675Y-110309125D01*
X158002324Y-110185735D01*
X157830789Y-110094048D01*
X157644663Y-110037587D01*
X157451100Y-110018523D01*
X157257536Y-110037587D01*
X157071410Y-110094048D01*
X156899876Y-110185735D01*
X156749525Y-110309125D01*
X156626135Y-110459476D01*
X156534448Y-110631011D01*
X156477987Y-110817137D01*
X156463700Y-110962198D01*
X156463701Y-112380003D01*
X156477988Y-112525064D01*
X156534449Y-112711190D01*
X156626136Y-112882724D01*
X156749526Y-113033075D01*
X156762325Y-113043579D01*
X156758999Y-113042570D01*
X156692295Y-113036000D01*
X156692288Y-113036000D01*
X156670000Y-113033805D01*
X156647712Y-113036000D01*
X156238053Y-113036000D01*
X155847650Y-112645597D01*
X155884213Y-112525064D01*
X155898500Y-112380003D01*
X155898500Y-110962197D01*
X155884213Y-110817136D01*
X155827752Y-110631010D01*
X155736065Y-110459476D01*
X155612675Y-110309125D01*
X155462324Y-110185735D01*
X155290789Y-110094048D01*
X155104663Y-110037587D01*
X154911100Y-110018523D01*
X154717536Y-110037587D01*
X154531410Y-110094048D01*
X154359876Y-110185735D01*
X154209525Y-110309125D01*
X154086135Y-110459476D01*
X153994448Y-110631011D01*
X153937987Y-110817137D01*
X153923700Y-110962198D01*
X153923701Y-112380003D01*
X153937988Y-112525064D01*
X153994449Y-112711190D01*
X154086136Y-112882724D01*
X154140637Y-112949134D01*
X154118999Y-112942570D01*
X154052295Y-112936000D01*
X154052288Y-112936000D01*
X154030000Y-112933805D01*
X154007712Y-112936000D01*
X153638053Y-112936000D01*
X153316959Y-112614907D01*
X153344213Y-112525064D01*
X153358500Y-112380003D01*
X153358500Y-110962197D01*
X153344213Y-110817136D01*
X153287752Y-110631010D01*
X153196065Y-110459476D01*
X153072675Y-110309125D01*
X152922324Y-110185735D01*
X152750789Y-110094048D01*
X152564663Y-110037587D01*
X152371100Y-110018523D01*
X152177536Y-110037587D01*
X151991410Y-110094048D01*
X151819876Y-110185735D01*
X151669525Y-110309125D01*
X151546135Y-110459476D01*
X151454448Y-110631011D01*
X151397987Y-110817137D01*
X151383700Y-110962198D01*
X151383701Y-112380003D01*
X151397988Y-112525064D01*
X151454449Y-112711190D01*
X151546136Y-112882724D01*
X151600637Y-112949134D01*
X151578999Y-112942570D01*
X151512295Y-112936000D01*
X151512288Y-112936000D01*
X151490000Y-112933805D01*
X151467712Y-112936000D01*
X151258053Y-112936000D01*
X150808060Y-112486007D01*
X150818500Y-112380003D01*
X150818500Y-110962197D01*
X150804213Y-110817136D01*
X150747752Y-110631010D01*
X150656065Y-110459476D01*
X150532675Y-110309125D01*
X150382324Y-110185735D01*
X150210789Y-110094048D01*
X150024663Y-110037587D01*
X149831100Y-110018523D01*
X149637536Y-110037587D01*
X149451410Y-110094048D01*
X149279876Y-110185735D01*
X149129525Y-110309125D01*
X149006135Y-110459476D01*
X148914448Y-110631011D01*
X148857987Y-110817137D01*
X148843700Y-110962198D01*
X148843701Y-112380003D01*
X148857988Y-112525064D01*
X148914449Y-112711190D01*
X149006136Y-112882724D01*
X149129526Y-113033075D01*
X149236589Y-113120939D01*
X149208999Y-113112570D01*
X149142295Y-113106000D01*
X149142288Y-113106000D01*
X149120000Y-113103805D01*
X149097712Y-113106000D01*
X148728053Y-113106000D01*
X148236959Y-112614907D01*
X148264213Y-112525064D01*
X148278500Y-112380003D01*
X148278500Y-110962197D01*
X148264213Y-110817136D01*
X148207752Y-110631010D01*
X148116065Y-110459476D01*
X147992675Y-110309125D01*
X147842324Y-110185735D01*
X147670789Y-110094048D01*
X147555642Y-110059118D01*
X148020761Y-109594000D01*
X149852800Y-109594000D01*
X149864107Y-109597430D01*
X149930811Y-109604000D01*
X149930817Y-109604000D01*
X149953105Y-109606195D01*
X149975393Y-109604000D01*
X153067712Y-109604000D01*
X153090000Y-109606195D01*
X153112288Y-109604000D01*
X153112295Y-109604000D01*
X153178999Y-109597430D01*
X153264579Y-109571470D01*
X153343449Y-109529313D01*
X153412579Y-109472579D01*
X153426794Y-109455258D01*
X155216364Y-107665689D01*
X155233679Y-107651479D01*
X155290413Y-107582349D01*
X155332570Y-107503479D01*
X155358530Y-107417899D01*
X155365100Y-107351195D01*
X155365100Y-107351189D01*
X155367295Y-107328901D01*
X155365100Y-107306613D01*
X155365100Y-97968432D01*
X155462324Y-97916465D01*
X155612675Y-97793075D01*
X155736065Y-97642724D01*
X155827752Y-97471190D01*
X155884213Y-97285064D01*
X155898500Y-97140003D01*
X155898500Y-95722197D01*
X155884213Y-95577136D01*
X155827752Y-95391010D01*
X155736065Y-95219476D01*
X155612675Y-95069125D01*
X155462324Y-94945735D01*
X155290789Y-94854048D01*
X155104663Y-94797587D01*
X154911100Y-94778523D01*
X154717536Y-94797587D01*
X154531410Y-94854048D01*
X154359876Y-94945735D01*
X154209525Y-95069125D01*
X154086135Y-95219476D01*
X153994448Y-95391011D01*
X153937987Y-95577137D01*
X153923700Y-95722198D01*
X153923701Y-97140003D01*
X153937988Y-97285064D01*
X153994449Y-97471190D01*
X154086136Y-97642724D01*
X154209526Y-97793075D01*
X154359877Y-97916465D01*
X154457101Y-97968432D01*
X154457100Y-107140847D01*
X152901948Y-108696000D01*
X150043412Y-108696000D01*
X150032105Y-108692570D01*
X149965401Y-108686000D01*
X149965394Y-108686000D01*
X149943106Y-108683805D01*
X149920818Y-108686000D01*
X147854996Y-108686000D01*
X147836543Y-108684183D01*
X147920531Y-108628064D01*
X148058064Y-108490531D01*
X148166123Y-108328809D01*
X148240555Y-108149114D01*
X148278500Y-107958350D01*
X148278500Y-107763850D01*
X148240555Y-107573086D01*
X148234876Y-107559376D01*
X148747647Y-107046606D01*
X148764579Y-107041470D01*
X148843449Y-106999313D01*
X148912579Y-106942579D01*
X148969313Y-106873449D01*
X149011470Y-106794579D01*
X149037430Y-106708999D01*
X149046196Y-106620000D01*
X149044000Y-106597705D01*
X149044000Y-105036230D01*
X149046195Y-105013945D01*
X149044000Y-104991660D01*
X149044000Y-104991651D01*
X149037430Y-104924947D01*
X149011470Y-104839367D01*
X148969313Y-104760497D01*
X148912579Y-104691367D01*
X148895264Y-104677157D01*
X145287998Y-101069892D01*
X145380531Y-101008064D01*
X145518064Y-100870531D01*
X145626123Y-100708809D01*
X145700555Y-100529114D01*
X145738500Y-100338350D01*
X145738500Y-100143850D01*
X145700555Y-99953086D01*
X145626123Y-99773391D01*
X145518064Y-99611669D01*
X145380531Y-99474136D01*
X145218809Y-99366077D01*
X145066400Y-99302947D01*
X145056364Y-99294711D01*
X143152211Y-97390559D01*
X143184213Y-97285064D01*
X143198500Y-97140003D01*
X143198500Y-95722198D01*
X143763700Y-95722198D01*
X143763701Y-97140003D01*
X143777988Y-97285064D01*
X143834449Y-97471190D01*
X143926136Y-97642724D01*
X144049526Y-97793075D01*
X144199877Y-97916465D01*
X144371411Y-98008152D01*
X144557537Y-98064613D01*
X144751100Y-98083677D01*
X144944664Y-98064613D01*
X145050159Y-98032611D01*
X146576676Y-99559129D01*
X146524136Y-99611669D01*
X146416077Y-99773391D01*
X146341645Y-99953086D01*
X146303700Y-100143850D01*
X146303700Y-100338350D01*
X146341645Y-100529114D01*
X146416077Y-100708809D01*
X146524136Y-100870531D01*
X146661669Y-101008064D01*
X146823391Y-101116123D01*
X147003086Y-101190555D01*
X147193850Y-101228500D01*
X147388350Y-101228500D01*
X147579114Y-101190555D01*
X147758809Y-101116123D01*
X147920531Y-101008064D01*
X148058064Y-100870531D01*
X148166123Y-100708809D01*
X148240555Y-100529114D01*
X148278500Y-100338350D01*
X148278500Y-100143850D01*
X148240555Y-99953086D01*
X148166123Y-99773391D01*
X148058064Y-99611669D01*
X147920531Y-99474136D01*
X147758809Y-99366077D01*
X147606400Y-99302947D01*
X147596364Y-99294711D01*
X145692211Y-97390559D01*
X145724213Y-97285064D01*
X145738500Y-97140003D01*
X145738500Y-95722198D01*
X146303700Y-95722198D01*
X146303701Y-97140003D01*
X146317988Y-97285064D01*
X146374449Y-97471190D01*
X146466136Y-97642724D01*
X146589526Y-97793075D01*
X146739877Y-97916465D01*
X146911411Y-98008152D01*
X147097537Y-98064613D01*
X147291100Y-98083677D01*
X147484664Y-98064613D01*
X147670790Y-98008152D01*
X147842324Y-97916465D01*
X147992675Y-97793075D01*
X148116065Y-97642724D01*
X148207752Y-97471190D01*
X148264213Y-97285064D01*
X148278500Y-97140003D01*
X148278500Y-95722198D01*
X148843700Y-95722198D01*
X148843701Y-97140003D01*
X148857988Y-97285064D01*
X148914449Y-97471190D01*
X149006136Y-97642724D01*
X149129526Y-97793075D01*
X149279877Y-97916465D01*
X149451411Y-98008152D01*
X149637537Y-98064613D01*
X149831100Y-98083677D01*
X150024664Y-98064613D01*
X150210790Y-98008152D01*
X150382324Y-97916465D01*
X150532675Y-97793075D01*
X150656065Y-97642724D01*
X150747752Y-97471190D01*
X150804213Y-97285064D01*
X150818500Y-97140003D01*
X150818500Y-95722198D01*
X151383700Y-95722198D01*
X151383701Y-97140003D01*
X151397988Y-97285064D01*
X151454449Y-97471190D01*
X151546136Y-97642724D01*
X151669526Y-97793075D01*
X151819877Y-97916465D01*
X151991411Y-98008152D01*
X152177537Y-98064613D01*
X152371100Y-98083677D01*
X152564664Y-98064613D01*
X152750790Y-98008152D01*
X152922324Y-97916465D01*
X153072675Y-97793075D01*
X153196065Y-97642724D01*
X153287752Y-97471190D01*
X153344213Y-97285064D01*
X153358500Y-97140003D01*
X153358500Y-95722197D01*
X153344213Y-95577136D01*
X153287752Y-95391010D01*
X153196065Y-95219476D01*
X153072675Y-95069125D01*
X152922324Y-94945735D01*
X152750789Y-94854048D01*
X152564663Y-94797587D01*
X152371100Y-94778523D01*
X152177536Y-94797587D01*
X151991410Y-94854048D01*
X151819876Y-94945735D01*
X151669525Y-95069125D01*
X151546135Y-95219476D01*
X151454448Y-95391011D01*
X151397987Y-95577137D01*
X151383700Y-95722198D01*
X150818500Y-95722198D01*
X150818500Y-95722197D01*
X150804213Y-95577136D01*
X150747752Y-95391010D01*
X150656065Y-95219476D01*
X150532675Y-95069125D01*
X150382324Y-94945735D01*
X150210789Y-94854048D01*
X150024663Y-94797587D01*
X149831100Y-94778523D01*
X149637536Y-94797587D01*
X149451410Y-94854048D01*
X149279876Y-94945735D01*
X149129525Y-95069125D01*
X149006135Y-95219476D01*
X148914448Y-95391011D01*
X148857987Y-95577137D01*
X148843700Y-95722198D01*
X148278500Y-95722198D01*
X148278500Y-95722197D01*
X148264213Y-95577136D01*
X148207752Y-95391010D01*
X148116065Y-95219476D01*
X147992675Y-95069125D01*
X147842324Y-94945735D01*
X147670789Y-94854048D01*
X147484663Y-94797587D01*
X147291100Y-94778523D01*
X147097536Y-94797587D01*
X146911410Y-94854048D01*
X146739876Y-94945735D01*
X146589525Y-95069125D01*
X146466135Y-95219476D01*
X146374448Y-95391011D01*
X146317987Y-95577137D01*
X146303700Y-95722198D01*
X145738500Y-95722198D01*
X145738500Y-95722197D01*
X145724213Y-95577136D01*
X145667752Y-95391010D01*
X145576065Y-95219476D01*
X145452675Y-95069125D01*
X145302324Y-94945735D01*
X145130789Y-94854048D01*
X144944663Y-94797587D01*
X144751100Y-94778523D01*
X144557536Y-94797587D01*
X144371410Y-94854048D01*
X144199876Y-94945735D01*
X144049525Y-95069125D01*
X143926135Y-95219476D01*
X143834448Y-95391011D01*
X143777987Y-95577137D01*
X143763700Y-95722198D01*
X143198500Y-95722198D01*
X143198500Y-95722197D01*
X143184213Y-95577136D01*
X143127752Y-95391010D01*
X143036065Y-95219476D01*
X142912675Y-95069125D01*
X142762324Y-94945735D01*
X142590789Y-94854048D01*
X142404663Y-94797587D01*
X142211100Y-94778523D01*
X142017536Y-94797587D01*
X141831410Y-94854048D01*
X141659876Y-94945735D01*
X141509525Y-95069125D01*
X141386135Y-95219476D01*
X141294448Y-95391011D01*
X141237987Y-95577137D01*
X141223700Y-95722198D01*
X141223701Y-97140003D01*
X141237988Y-97285064D01*
X141294449Y-97471190D01*
X141386136Y-97642724D01*
X141509526Y-97793075D01*
X141659877Y-97916465D01*
X141831411Y-98008152D01*
X142017537Y-98064613D01*
X142211100Y-98083677D01*
X142404664Y-98064613D01*
X142510159Y-98032611D01*
X144036676Y-99559129D01*
X143984136Y-99611669D01*
X143876077Y-99773391D01*
X143801645Y-99953086D01*
X143763700Y-100143850D01*
X143763700Y-100338350D01*
X143801645Y-100529114D01*
X143876077Y-100708809D01*
X143984136Y-100870531D01*
X144121669Y-101008064D01*
X144283391Y-101116123D01*
X144297101Y-101121802D01*
X144297101Y-101152748D01*
X144294905Y-101175046D01*
X144303670Y-101264045D01*
X144329630Y-101349624D01*
X144329631Y-101349625D01*
X144371788Y-101428495D01*
X144428522Y-101497625D01*
X144445838Y-101511836D01*
X148136000Y-105201999D01*
X148136001Y-106374146D01*
X147592824Y-106917324D01*
X147579114Y-106911645D01*
X147388350Y-106873700D01*
X147193850Y-106873700D01*
X147003086Y-106911645D01*
X146823391Y-106986077D01*
X146661669Y-107094136D01*
X146524136Y-107231669D01*
X146416077Y-107393391D01*
X146341645Y-107573086D01*
X146303700Y-107763850D01*
X146303700Y-107958350D01*
X146341645Y-108149114D01*
X146416077Y-108328809D01*
X146524136Y-108490531D01*
X146661669Y-108628064D01*
X146823391Y-108736123D01*
X147003086Y-108810555D01*
X147193850Y-108848500D01*
X147388350Y-108848500D01*
X147503405Y-108825614D01*
X147495918Y-108834737D01*
X146026938Y-110303718D01*
X146009622Y-110317929D01*
X145952888Y-110387059D01*
X145930354Y-110429217D01*
X145910730Y-110465930D01*
X145884770Y-110551509D01*
X145876005Y-110640508D01*
X145878201Y-110662806D01*
X145878200Y-116191947D01*
X144385838Y-117684310D01*
X144368522Y-117698521D01*
X144311788Y-117767651D01*
X144297834Y-117793757D01*
X144269630Y-117846522D01*
X144243670Y-117932101D01*
X144234905Y-118021100D01*
X144237101Y-118043398D01*
X144237101Y-119799100D01*
X142605100Y-119799100D01*
X142605100Y-116939152D01*
X145055263Y-114488990D01*
X145072579Y-114474779D01*
X145129313Y-114405649D01*
X145171470Y-114326779D01*
X145197430Y-114241199D01*
X145204000Y-114174495D01*
X145204000Y-114174488D01*
X145206195Y-114152200D01*
X145204000Y-114129912D01*
X145204000Y-113279363D01*
X145205100Y-113268195D01*
X145205100Y-113268188D01*
X145207295Y-113245900D01*
X145205100Y-113223612D01*
X145205100Y-113208432D01*
X145302324Y-113156465D01*
X145452675Y-113033075D01*
X145576065Y-112882724D01*
X145667752Y-112711190D01*
X145724213Y-112525064D01*
X145738500Y-112380003D01*
X145738500Y-110962197D01*
X145724213Y-110817136D01*
X145667752Y-110631010D01*
X145576065Y-110459476D01*
X145452675Y-110309125D01*
X145302324Y-110185735D01*
X145130789Y-110094048D01*
X144944663Y-110037587D01*
X144751100Y-110018523D01*
X144557536Y-110037587D01*
X144371410Y-110094048D01*
X144199876Y-110185735D01*
X144049525Y-110309125D01*
X143926135Y-110459476D01*
X143834448Y-110631011D01*
X143777987Y-110817137D01*
X143763700Y-110962198D01*
X143763701Y-112380003D01*
X143777988Y-112525064D01*
X143834449Y-112711190D01*
X143926136Y-112882724D01*
X144049526Y-113033075D01*
X144199877Y-113156465D01*
X144297101Y-113208432D01*
X144297101Y-113213528D01*
X144296000Y-113224706D01*
X144296000Y-113224712D01*
X144293805Y-113247000D01*
X144296000Y-113269288D01*
X144296001Y-113964146D01*
X141845838Y-116414310D01*
X141828522Y-116428521D01*
X141771788Y-116497651D01*
X141749254Y-116539809D01*
X141729630Y-116576522D01*
X141703670Y-116662101D01*
X141694905Y-116751100D01*
X141697101Y-116773398D01*
X141697101Y-119799100D01*
X124825100Y-119799100D01*
X124825100Y-115470000D01*
X132341418Y-115470000D01*
X132341418Y-117170000D01*
X132347732Y-117234103D01*
X132366430Y-117295743D01*
X132396794Y-117352550D01*
X132437657Y-117402343D01*
X132487450Y-117443206D01*
X132544257Y-117473570D01*
X132605897Y-117492268D01*
X132670000Y-117498582D01*
X134370000Y-117498582D01*
X134434103Y-117492268D01*
X134495743Y-117473570D01*
X134552550Y-117443206D01*
X134602343Y-117402343D01*
X134643206Y-117352550D01*
X134673570Y-117295743D01*
X134692268Y-117234103D01*
X134698582Y-117170000D01*
X134698582Y-116320000D01*
X134877306Y-116320000D01*
X134900031Y-116550732D01*
X134967333Y-116772597D01*
X135076626Y-116977070D01*
X135223709Y-117156291D01*
X135402930Y-117303374D01*
X135607403Y-117412667D01*
X135829268Y-117479969D01*
X136002188Y-117497000D01*
X136117812Y-117497000D01*
X136290732Y-117479969D01*
X136512597Y-117412667D01*
X136717070Y-117303374D01*
X136896291Y-117156291D01*
X137043374Y-116977070D01*
X137152667Y-116772597D01*
X137219969Y-116550732D01*
X137242694Y-116320000D01*
X137219969Y-116089268D01*
X137152667Y-115867403D01*
X137043374Y-115662930D01*
X136896291Y-115483709D01*
X136717070Y-115336626D01*
X136512597Y-115227333D01*
X136290732Y-115160031D01*
X136117812Y-115143000D01*
X136002188Y-115143000D01*
X135829268Y-115160031D01*
X135607403Y-115227333D01*
X135402930Y-115336626D01*
X135223709Y-115483709D01*
X135076626Y-115662930D01*
X134967333Y-115867403D01*
X134900031Y-116089268D01*
X134877306Y-116320000D01*
X134698582Y-116320000D01*
X134698582Y-115470000D01*
X134692268Y-115405897D01*
X134673570Y-115344257D01*
X134643206Y-115287450D01*
X134602343Y-115237657D01*
X134552550Y-115196794D01*
X134495743Y-115166430D01*
X134434103Y-115147732D01*
X134370000Y-115141418D01*
X132670000Y-115141418D01*
X132605897Y-115147732D01*
X132544257Y-115166430D01*
X132487450Y-115196794D01*
X132437657Y-115237657D01*
X132396794Y-115287450D01*
X132366430Y-115344257D01*
X132347732Y-115405897D01*
X132341418Y-115470000D01*
X124825100Y-115470000D01*
X124825100Y-114545352D01*
X125365405Y-114005047D01*
X132258922Y-114005047D01*
X132327058Y-114246747D01*
X132441038Y-114470510D01*
X132596482Y-114667737D01*
X132787416Y-114830849D01*
X133006503Y-114953577D01*
X133245323Y-115031205D01*
X133294953Y-115041077D01*
X133495000Y-114952984D01*
X133495000Y-113805000D01*
X133545000Y-113805000D01*
X133545000Y-114952984D01*
X133745047Y-115041077D01*
X133794677Y-115031205D01*
X134033497Y-114953577D01*
X134252584Y-114830849D01*
X134443518Y-114667737D01*
X134598962Y-114470510D01*
X134712942Y-114246747D01*
X134781078Y-114005047D01*
X134798922Y-114005047D01*
X134867058Y-114246747D01*
X134981038Y-114470510D01*
X135136482Y-114667737D01*
X135327416Y-114830849D01*
X135546503Y-114953577D01*
X135785323Y-115031205D01*
X135834953Y-115041077D01*
X136035000Y-114952984D01*
X136035000Y-113805000D01*
X136085000Y-113805000D01*
X136085000Y-114952984D01*
X136285047Y-115041077D01*
X136334677Y-115031205D01*
X136573497Y-114953577D01*
X136792584Y-114830849D01*
X136983518Y-114667737D01*
X137138962Y-114470510D01*
X137252942Y-114246747D01*
X137321078Y-114005047D01*
X137233007Y-113805000D01*
X136085000Y-113805000D01*
X136035000Y-113805000D01*
X134886993Y-113805000D01*
X134798922Y-114005047D01*
X134781078Y-114005047D01*
X134693007Y-113805000D01*
X133545000Y-113805000D01*
X133495000Y-113805000D01*
X132346993Y-113805000D01*
X132258922Y-114005047D01*
X125365405Y-114005047D01*
X125815499Y-113554953D01*
X132258922Y-113554953D01*
X132346993Y-113755000D01*
X133495000Y-113755000D01*
X133495000Y-112607016D01*
X133545000Y-112607016D01*
X133545000Y-113755000D01*
X134693007Y-113755000D01*
X134781078Y-113554953D01*
X134798922Y-113554953D01*
X134886993Y-113755000D01*
X136035000Y-113755000D01*
X136035000Y-112607016D01*
X136085000Y-112607016D01*
X136085000Y-113755000D01*
X137233007Y-113755000D01*
X137321078Y-113554953D01*
X137252942Y-113313253D01*
X137138962Y-113089490D01*
X136983518Y-112892263D01*
X136792584Y-112729151D01*
X136573497Y-112606423D01*
X136334677Y-112528795D01*
X136285047Y-112518923D01*
X136085000Y-112607016D01*
X136035000Y-112607016D01*
X135834953Y-112518923D01*
X135785323Y-112528795D01*
X135546503Y-112606423D01*
X135327416Y-112729151D01*
X135136482Y-112892263D01*
X134981038Y-113089490D01*
X134867058Y-113313253D01*
X134798922Y-113554953D01*
X134781078Y-113554953D01*
X134712942Y-113313253D01*
X134598962Y-113089490D01*
X134443518Y-112892263D01*
X134252584Y-112729151D01*
X134033497Y-112606423D01*
X133794677Y-112528795D01*
X133745047Y-112518923D01*
X133545000Y-112607016D01*
X133495000Y-112607016D01*
X133294953Y-112518923D01*
X133245323Y-112528795D01*
X133006503Y-112606423D01*
X132787416Y-112729151D01*
X132596482Y-112892263D01*
X132441038Y-113089490D01*
X132327058Y-113313253D01*
X132258922Y-113554953D01*
X125815499Y-113554953D01*
X128305264Y-111065189D01*
X128322579Y-111050979D01*
X128379313Y-110981849D01*
X128421470Y-110902979D01*
X128447430Y-110817399D01*
X128454000Y-110750695D01*
X128454000Y-110750688D01*
X128456195Y-110728400D01*
X128454000Y-110706112D01*
X128454000Y-109128582D01*
X128800000Y-109128582D01*
X128864103Y-109122268D01*
X128925743Y-109103570D01*
X128982550Y-109073206D01*
X129032343Y-109032343D01*
X129073206Y-108982550D01*
X129103570Y-108925743D01*
X129122268Y-108864103D01*
X129128582Y-108800000D01*
X129128582Y-107200000D01*
X130871418Y-107200000D01*
X130871418Y-108800000D01*
X130877732Y-108864103D01*
X130896430Y-108925743D01*
X130926794Y-108982550D01*
X130967657Y-109032343D01*
X131017450Y-109073206D01*
X131074257Y-109103570D01*
X131135897Y-109122268D01*
X131200000Y-109128582D01*
X132800000Y-109128582D01*
X132864103Y-109122268D01*
X132925743Y-109103570D01*
X132982550Y-109073206D01*
X133032343Y-109032343D01*
X133073206Y-108982550D01*
X133103570Y-108925743D01*
X133122268Y-108864103D01*
X133128582Y-108800000D01*
X133128582Y-107495000D01*
X135477800Y-107495000D01*
X135477800Y-108206200D01*
X135504624Y-108428552D01*
X135574312Y-108641398D01*
X135684185Y-108836559D01*
X135830021Y-109006535D01*
X136006215Y-109144794D01*
X136205997Y-109246022D01*
X136416671Y-109305156D01*
X136595000Y-109215348D01*
X136595000Y-107495000D01*
X136645000Y-107495000D01*
X136645000Y-109215348D01*
X136823329Y-109305156D01*
X137034003Y-109246022D01*
X137233785Y-109144794D01*
X137409979Y-109006535D01*
X137555815Y-108836559D01*
X137665688Y-108641398D01*
X137735376Y-108428552D01*
X137762200Y-108206200D01*
X137762200Y-107495000D01*
X136645000Y-107495000D01*
X136595000Y-107495000D01*
X135477800Y-107495000D01*
X133128582Y-107495000D01*
X133128582Y-107200000D01*
X133122268Y-107135897D01*
X133103570Y-107074257D01*
X133073206Y-107017450D01*
X133032343Y-106967657D01*
X132982550Y-106926794D01*
X132925743Y-106896430D01*
X132864103Y-106877732D01*
X132800000Y-106871418D01*
X131200000Y-106871418D01*
X131135897Y-106877732D01*
X131074257Y-106896430D01*
X131017450Y-106926794D01*
X130967657Y-106967657D01*
X130926794Y-107017450D01*
X130896430Y-107074257D01*
X130877732Y-107135897D01*
X130871418Y-107200000D01*
X129128582Y-107200000D01*
X129122268Y-107135897D01*
X129103570Y-107074257D01*
X129073206Y-107017450D01*
X129032343Y-106967657D01*
X128982550Y-106926794D01*
X128925743Y-106896430D01*
X128864103Y-106877732D01*
X128800000Y-106871418D01*
X127200000Y-106871418D01*
X127135897Y-106877732D01*
X127074257Y-106896430D01*
X127017450Y-106926794D01*
X126967657Y-106967657D01*
X126926794Y-107017450D01*
X126896430Y-107074257D01*
X126877732Y-107135897D01*
X126871418Y-107200000D01*
X126871418Y-108800000D01*
X126877732Y-108864103D01*
X126896430Y-108925743D01*
X126926794Y-108982550D01*
X126967657Y-109032343D01*
X127017450Y-109073206D01*
X127074257Y-109103570D01*
X127135897Y-109122268D01*
X127200000Y-109128582D01*
X127546001Y-109128582D01*
X127546000Y-110540347D01*
X124065838Y-114020510D01*
X124048522Y-114034721D01*
X123991788Y-114103851D01*
X123985190Y-114116195D01*
X123949630Y-114182722D01*
X123923670Y-114268301D01*
X123914905Y-114357300D01*
X123917101Y-114379598D01*
X123917100Y-115458803D01*
X123917100Y-115722294D01*
X123917101Y-115722304D01*
X123917101Y-119799100D01*
X120053100Y-119799100D01*
X120053100Y-104195000D01*
X135377800Y-104195000D01*
X135377800Y-104906200D01*
X135404624Y-105128552D01*
X135474312Y-105341398D01*
X135584185Y-105536559D01*
X135730021Y-105706535D01*
X135906215Y-105844794D01*
X135928580Y-105856126D01*
X135830021Y-105933465D01*
X135684185Y-106103441D01*
X135574312Y-106298602D01*
X135504624Y-106511448D01*
X135477800Y-106733800D01*
X135477800Y-107445000D01*
X136595000Y-107445000D01*
X136595000Y-107425000D01*
X136645000Y-107425000D01*
X136645000Y-107445000D01*
X137762200Y-107445000D01*
X137762200Y-106733800D01*
X137735376Y-106511448D01*
X137665688Y-106298602D01*
X137555815Y-106103441D01*
X137409979Y-105933465D01*
X137233785Y-105795206D01*
X137211420Y-105783874D01*
X137309979Y-105706535D01*
X137455815Y-105536559D01*
X137565688Y-105341398D01*
X137635376Y-105128552D01*
X137659063Y-104932199D01*
X138021800Y-104932199D01*
X138036822Y-105084722D01*
X138096188Y-105280423D01*
X138192592Y-105460784D01*
X138322330Y-105618870D01*
X138480416Y-105748608D01*
X138660776Y-105845012D01*
X138664867Y-105846253D01*
X138580417Y-105891392D01*
X138422331Y-106021130D01*
X138292593Y-106179216D01*
X138196189Y-106359576D01*
X138136823Y-106555277D01*
X138121801Y-106707800D01*
X138121800Y-108232199D01*
X138136822Y-108384722D01*
X138196188Y-108580423D01*
X138292592Y-108760784D01*
X138422330Y-108918870D01*
X138580416Y-109048608D01*
X138760776Y-109145012D01*
X138956477Y-109204378D01*
X139160000Y-109224423D01*
X139363522Y-109204378D01*
X139559223Y-109145012D01*
X139739584Y-109048608D01*
X139897670Y-108918870D01*
X140027408Y-108760784D01*
X140123812Y-108580424D01*
X140183178Y-108384723D01*
X140190035Y-108315100D01*
X143870399Y-108315100D01*
X143876077Y-108328809D01*
X143984136Y-108490531D01*
X144036676Y-108543071D01*
X142510159Y-110069589D01*
X142404663Y-110037587D01*
X142211100Y-110018523D01*
X142017536Y-110037587D01*
X141831410Y-110094048D01*
X141659876Y-110185735D01*
X141509525Y-110309125D01*
X141386135Y-110459476D01*
X141294448Y-110631011D01*
X141237987Y-110817137D01*
X141223700Y-110962198D01*
X141223701Y-112380003D01*
X141237988Y-112525064D01*
X141294449Y-112711190D01*
X141386136Y-112882724D01*
X141509526Y-113033075D01*
X141659877Y-113156465D01*
X141831411Y-113248152D01*
X142017537Y-113304613D01*
X142211100Y-113323677D01*
X142404664Y-113304613D01*
X142590790Y-113248152D01*
X142762324Y-113156465D01*
X142912675Y-113033075D01*
X143036065Y-112882724D01*
X143127752Y-112711190D01*
X143184213Y-112525064D01*
X143198500Y-112380003D01*
X143198500Y-110962197D01*
X143184213Y-110817136D01*
X143152211Y-110711641D01*
X145056364Y-108807489D01*
X145066400Y-108799253D01*
X145218809Y-108736123D01*
X145380531Y-108628064D01*
X145518064Y-108490531D01*
X145626123Y-108328809D01*
X145700555Y-108149114D01*
X145738500Y-107958350D01*
X145738500Y-107763850D01*
X145700555Y-107573086D01*
X145626123Y-107393391D01*
X145518064Y-107231669D01*
X145380531Y-107094136D01*
X145218809Y-106986077D01*
X145039114Y-106911645D01*
X144848350Y-106873700D01*
X144653850Y-106873700D01*
X144463086Y-106911645D01*
X144283391Y-106986077D01*
X144121669Y-107094136D01*
X143984136Y-107231669D01*
X143876077Y-107393391D01*
X143870399Y-107407100D01*
X140198200Y-107407100D01*
X140198200Y-106707800D01*
X140183178Y-106555277D01*
X140123812Y-106359576D01*
X140027408Y-106179216D01*
X139897670Y-106021130D01*
X139739584Y-105891392D01*
X139559224Y-105794988D01*
X139555134Y-105793747D01*
X139639584Y-105748608D01*
X139797670Y-105618870D01*
X139927408Y-105460784D01*
X140023812Y-105280424D01*
X140083178Y-105084723D01*
X140098200Y-104932200D01*
X140098200Y-103407800D01*
X140083178Y-103255277D01*
X140023812Y-103059576D01*
X139927408Y-102879216D01*
X139797670Y-102721130D01*
X139639584Y-102591392D01*
X139459224Y-102494988D01*
X139263523Y-102435622D01*
X139060000Y-102415577D01*
X138856478Y-102435622D01*
X138660777Y-102494988D01*
X138480417Y-102591392D01*
X138322331Y-102721130D01*
X138192593Y-102879216D01*
X138096189Y-103059576D01*
X138036823Y-103255277D01*
X138021801Y-103407800D01*
X138021800Y-104932199D01*
X137659063Y-104932199D01*
X137662200Y-104906200D01*
X137662200Y-104195000D01*
X136545000Y-104195000D01*
X136545000Y-104215000D01*
X136495000Y-104215000D01*
X136495000Y-104195000D01*
X135377800Y-104195000D01*
X120053100Y-104195000D01*
X120053100Y-103433800D01*
X135377800Y-103433800D01*
X135377800Y-104145000D01*
X136495000Y-104145000D01*
X136495000Y-102424652D01*
X136545000Y-102424652D01*
X136545000Y-104145000D01*
X137662200Y-104145000D01*
X137662200Y-103433800D01*
X137635376Y-103211448D01*
X137565688Y-102998602D01*
X137455815Y-102803441D01*
X137309979Y-102633465D01*
X137133785Y-102495206D01*
X136934003Y-102393978D01*
X136723329Y-102334844D01*
X136545000Y-102424652D01*
X136495000Y-102424652D01*
X136316671Y-102334844D01*
X136105997Y-102393978D01*
X135906215Y-102495206D01*
X135730021Y-102633465D01*
X135584185Y-102803441D01*
X135474312Y-102998602D01*
X135404624Y-103211448D01*
X135377800Y-103433800D01*
X120053100Y-103433800D01*
X120053100Y-100380000D01*
X126867547Y-100380000D01*
X126889307Y-100600931D01*
X126953750Y-100813371D01*
X127058400Y-101009157D01*
X127199235Y-101180765D01*
X127370843Y-101321600D01*
X127566629Y-101426250D01*
X127779069Y-101490693D01*
X127944635Y-101507000D01*
X128055365Y-101507000D01*
X128220931Y-101490693D01*
X128433371Y-101426250D01*
X128629157Y-101321600D01*
X128800765Y-101180765D01*
X128941600Y-101009157D01*
X129035224Y-100834000D01*
X130964776Y-100834000D01*
X131058400Y-101009157D01*
X131199235Y-101180765D01*
X131370843Y-101321600D01*
X131566629Y-101426250D01*
X131779069Y-101490693D01*
X131944635Y-101507000D01*
X132055365Y-101507000D01*
X132220931Y-101490693D01*
X132433371Y-101426250D01*
X132629157Y-101321600D01*
X132800765Y-101180765D01*
X132941600Y-101009157D01*
X133046250Y-100813371D01*
X133110693Y-100600931D01*
X133132453Y-100380000D01*
X133110693Y-100159069D01*
X133053040Y-99969012D01*
X133965264Y-99056789D01*
X133982579Y-99042579D01*
X134039313Y-98973449D01*
X134081470Y-98894579D01*
X134087757Y-98873850D01*
X138048700Y-98873850D01*
X138048700Y-99068350D01*
X138086645Y-99259114D01*
X138161077Y-99438809D01*
X138269136Y-99600531D01*
X138406669Y-99738064D01*
X138568391Y-99846123D01*
X138748086Y-99920555D01*
X138938850Y-99958500D01*
X139133350Y-99958500D01*
X139324114Y-99920555D01*
X139503809Y-99846123D01*
X139665531Y-99738064D01*
X139803064Y-99600531D01*
X139911123Y-99438809D01*
X139985555Y-99259114D01*
X140023500Y-99068350D01*
X140023500Y-98873850D01*
X139985555Y-98683086D01*
X139911123Y-98503391D01*
X139803064Y-98341669D01*
X139665531Y-98204136D01*
X139503809Y-98096077D01*
X139324114Y-98021645D01*
X139133350Y-97983700D01*
X138938850Y-97983700D01*
X138748086Y-98021645D01*
X138568391Y-98096077D01*
X138406669Y-98204136D01*
X138269136Y-98341669D01*
X138161077Y-98503391D01*
X138086645Y-98683086D01*
X138048700Y-98873850D01*
X134087757Y-98873850D01*
X134107430Y-98808999D01*
X134114000Y-98742295D01*
X134114000Y-98742288D01*
X134116195Y-98720000D01*
X134114000Y-98697712D01*
X134114000Y-97320701D01*
X134127709Y-97315023D01*
X134289431Y-97206964D01*
X134348561Y-97147834D01*
X138354721Y-97147834D01*
X138411880Y-97332798D01*
X138599786Y-97437251D01*
X138804460Y-97503039D01*
X139018036Y-97527632D01*
X139232305Y-97510087D01*
X139439036Y-97451077D01*
X139630281Y-97352870D01*
X139660320Y-97332798D01*
X139717479Y-97147834D01*
X139036100Y-96466455D01*
X138354721Y-97147834D01*
X134348561Y-97147834D01*
X134426964Y-97069431D01*
X134535023Y-96907709D01*
X134609455Y-96728014D01*
X134647400Y-96537250D01*
X134647400Y-96413036D01*
X137939568Y-96413036D01*
X137957113Y-96627305D01*
X138016123Y-96834036D01*
X138114330Y-97025281D01*
X138134402Y-97055320D01*
X138319366Y-97112479D01*
X139000745Y-96431100D01*
X139071455Y-96431100D01*
X139752834Y-97112479D01*
X139937798Y-97055320D01*
X140042251Y-96867414D01*
X140108039Y-96662740D01*
X140132632Y-96449164D01*
X140115087Y-96234895D01*
X140056077Y-96028164D01*
X139957870Y-95836919D01*
X139937798Y-95806880D01*
X139752834Y-95749721D01*
X139071455Y-96431100D01*
X139000745Y-96431100D01*
X138319366Y-95749721D01*
X138134402Y-95806880D01*
X138029949Y-95994786D01*
X137964161Y-96199460D01*
X137939568Y-96413036D01*
X134647400Y-96413036D01*
X134647400Y-96342750D01*
X134609455Y-96151986D01*
X134603776Y-96138276D01*
X135027686Y-95714366D01*
X138354721Y-95714366D01*
X139036100Y-96395745D01*
X139717479Y-95714366D01*
X139660320Y-95529402D01*
X139472414Y-95424949D01*
X139267740Y-95359161D01*
X139054164Y-95334568D01*
X138839895Y-95352113D01*
X138633164Y-95411123D01*
X138441919Y-95509330D01*
X138411880Y-95529402D01*
X138354721Y-95714366D01*
X135027686Y-95714366D01*
X136396953Y-94345100D01*
X155383448Y-94345100D01*
X156509989Y-95471642D01*
X156477987Y-95577137D01*
X156463700Y-95722198D01*
X156463701Y-97140003D01*
X156477988Y-97285064D01*
X156534449Y-97471190D01*
X156626136Y-97642724D01*
X156749526Y-97793075D01*
X156899877Y-97916465D01*
X157071411Y-98008152D01*
X157257537Y-98064613D01*
X157451100Y-98083677D01*
X157644664Y-98064613D01*
X157830790Y-98008152D01*
X158002324Y-97916465D01*
X158152675Y-97793075D01*
X158276065Y-97642724D01*
X158367752Y-97471190D01*
X158424213Y-97285064D01*
X158438500Y-97140003D01*
X158438500Y-95722198D01*
X159003700Y-95722198D01*
X159003701Y-97140003D01*
X159017988Y-97285064D01*
X159074449Y-97471190D01*
X159166136Y-97642724D01*
X159289526Y-97793075D01*
X159439877Y-97916465D01*
X159611411Y-98008152D01*
X159797537Y-98064613D01*
X159991100Y-98083677D01*
X160184664Y-98064613D01*
X160370790Y-98008152D01*
X160542324Y-97916465D01*
X160692675Y-97793075D01*
X160816065Y-97642724D01*
X160907752Y-97471190D01*
X160964213Y-97285064D01*
X160978500Y-97140003D01*
X160978500Y-95722197D01*
X160964213Y-95577136D01*
X160907752Y-95391010D01*
X160816065Y-95219476D01*
X160692675Y-95069125D01*
X160542324Y-94945735D01*
X160370789Y-94854048D01*
X160184663Y-94797587D01*
X159991100Y-94778523D01*
X159797536Y-94797587D01*
X159611410Y-94854048D01*
X159439876Y-94945735D01*
X159289525Y-95069125D01*
X159166135Y-95219476D01*
X159074448Y-95391011D01*
X159017987Y-95577137D01*
X159003700Y-95722198D01*
X158438500Y-95722198D01*
X158438500Y-95722197D01*
X158424213Y-95577136D01*
X158367752Y-95391010D01*
X158276065Y-95219476D01*
X158152675Y-95069125D01*
X158002324Y-94945735D01*
X157830789Y-94854048D01*
X157644663Y-94797587D01*
X157451100Y-94778523D01*
X157257536Y-94797587D01*
X157152041Y-94829589D01*
X156706052Y-94383600D01*
X160501948Y-94383600D01*
X161589989Y-95471642D01*
X161557987Y-95577137D01*
X161543700Y-95722198D01*
X161543701Y-97140003D01*
X161557988Y-97285064D01*
X161614449Y-97471190D01*
X161706136Y-97642724D01*
X161829526Y-97793075D01*
X161979877Y-97916465D01*
X162151411Y-98008152D01*
X162337537Y-98064613D01*
X162531100Y-98083677D01*
X162724664Y-98064613D01*
X162910790Y-98008152D01*
X163082324Y-97916465D01*
X163232675Y-97793075D01*
X163356065Y-97642724D01*
X163447752Y-97471190D01*
X163504213Y-97285064D01*
X163518500Y-97140003D01*
X163518500Y-95722198D01*
X164083700Y-95722198D01*
X164083701Y-97140003D01*
X164097988Y-97285064D01*
X164154449Y-97471190D01*
X164246136Y-97642724D01*
X164369526Y-97793075D01*
X164519877Y-97916465D01*
X164691411Y-98008152D01*
X164877537Y-98064613D01*
X165071100Y-98083677D01*
X165264664Y-98064613D01*
X165450790Y-98008152D01*
X165622324Y-97916465D01*
X165772675Y-97793075D01*
X165896065Y-97642724D01*
X165987752Y-97471190D01*
X166044213Y-97285064D01*
X166058500Y-97140003D01*
X166058500Y-95722198D01*
X166623700Y-95722198D01*
X166623701Y-97140003D01*
X166637988Y-97285064D01*
X166694449Y-97471190D01*
X166786136Y-97642724D01*
X166909526Y-97793075D01*
X167059877Y-97916465D01*
X167231411Y-98008152D01*
X167417537Y-98064613D01*
X167611100Y-98083677D01*
X167804664Y-98064613D01*
X167990790Y-98008152D01*
X168162324Y-97916465D01*
X168312675Y-97793075D01*
X168436065Y-97642724D01*
X168527752Y-97471190D01*
X168584213Y-97285064D01*
X168598500Y-97140003D01*
X168598500Y-95722198D01*
X169163700Y-95722198D01*
X169163701Y-97140003D01*
X169177988Y-97285064D01*
X169234449Y-97471190D01*
X169326136Y-97642724D01*
X169449526Y-97793075D01*
X169599877Y-97916465D01*
X169771411Y-98008152D01*
X169957537Y-98064613D01*
X170151100Y-98083677D01*
X170344664Y-98064613D01*
X170530790Y-98008152D01*
X170702324Y-97916465D01*
X170852675Y-97793075D01*
X170976065Y-97642724D01*
X171067752Y-97471190D01*
X171124213Y-97285064D01*
X171138500Y-97140003D01*
X171138500Y-95722198D01*
X171703700Y-95722198D01*
X171703701Y-97140003D01*
X171717988Y-97285064D01*
X171774449Y-97471190D01*
X171866136Y-97642724D01*
X171989526Y-97793075D01*
X172139877Y-97916465D01*
X172311411Y-98008152D01*
X172497537Y-98064613D01*
X172691100Y-98083677D01*
X172884664Y-98064613D01*
X173070790Y-98008152D01*
X173242324Y-97916465D01*
X173392675Y-97793075D01*
X173516065Y-97642724D01*
X173607752Y-97471190D01*
X173664213Y-97285064D01*
X173678500Y-97140003D01*
X173678500Y-95722198D01*
X174243700Y-95722198D01*
X174243701Y-97140003D01*
X174257988Y-97285064D01*
X174314449Y-97471190D01*
X174406136Y-97642724D01*
X174529526Y-97793075D01*
X174679877Y-97916465D01*
X174851411Y-98008152D01*
X175037537Y-98064613D01*
X175231100Y-98083677D01*
X175424664Y-98064613D01*
X175610790Y-98008152D01*
X175782324Y-97916465D01*
X175932675Y-97793075D01*
X176056065Y-97642724D01*
X176147752Y-97471190D01*
X176204213Y-97285064D01*
X176218500Y-97140003D01*
X176218500Y-95722197D01*
X176204213Y-95577136D01*
X176147752Y-95391010D01*
X176056065Y-95219476D01*
X175932675Y-95069125D01*
X175782324Y-94945735D01*
X175610789Y-94854048D01*
X175424663Y-94797587D01*
X175231100Y-94778523D01*
X175037536Y-94797587D01*
X174851410Y-94854048D01*
X174679876Y-94945735D01*
X174529525Y-95069125D01*
X174406135Y-95219476D01*
X174314448Y-95391011D01*
X174257987Y-95577137D01*
X174243700Y-95722198D01*
X173678500Y-95722198D01*
X173678500Y-95722197D01*
X173664213Y-95577136D01*
X173607752Y-95391010D01*
X173516065Y-95219476D01*
X173392675Y-95069125D01*
X173242324Y-94945735D01*
X173070789Y-94854048D01*
X172884663Y-94797587D01*
X172691100Y-94778523D01*
X172497536Y-94797587D01*
X172311410Y-94854048D01*
X172139876Y-94945735D01*
X171989525Y-95069125D01*
X171866135Y-95219476D01*
X171774448Y-95391011D01*
X171717987Y-95577137D01*
X171703700Y-95722198D01*
X171138500Y-95722198D01*
X171138500Y-95722197D01*
X171124213Y-95577136D01*
X171067752Y-95391010D01*
X170976065Y-95219476D01*
X170852675Y-95069125D01*
X170702324Y-94945735D01*
X170530789Y-94854048D01*
X170344663Y-94797587D01*
X170151100Y-94778523D01*
X169957536Y-94797587D01*
X169771410Y-94854048D01*
X169599876Y-94945735D01*
X169449525Y-95069125D01*
X169326135Y-95219476D01*
X169234448Y-95391011D01*
X169177987Y-95577137D01*
X169163700Y-95722198D01*
X168598500Y-95722198D01*
X168598500Y-95722197D01*
X168584213Y-95577136D01*
X168527752Y-95391010D01*
X168436065Y-95219476D01*
X168312675Y-95069125D01*
X168162324Y-94945735D01*
X167990789Y-94854048D01*
X167804663Y-94797587D01*
X167611100Y-94778523D01*
X167417536Y-94797587D01*
X167231410Y-94854048D01*
X167059876Y-94945735D01*
X166909525Y-95069125D01*
X166786135Y-95219476D01*
X166694448Y-95391011D01*
X166637987Y-95577137D01*
X166623700Y-95722198D01*
X166058500Y-95722198D01*
X166058500Y-95722197D01*
X166044213Y-95577136D01*
X165987752Y-95391010D01*
X165896065Y-95219476D01*
X165772675Y-95069125D01*
X165622324Y-94945735D01*
X165450789Y-94854048D01*
X165264663Y-94797587D01*
X165071100Y-94778523D01*
X164877536Y-94797587D01*
X164691410Y-94854048D01*
X164519876Y-94945735D01*
X164369525Y-95069125D01*
X164246135Y-95219476D01*
X164154448Y-95391011D01*
X164097987Y-95577137D01*
X164083700Y-95722198D01*
X163518500Y-95722198D01*
X163518500Y-95722197D01*
X163504213Y-95577136D01*
X163447752Y-95391010D01*
X163356065Y-95219476D01*
X163232675Y-95069125D01*
X163082324Y-94945735D01*
X162910789Y-94854048D01*
X162724663Y-94797587D01*
X162531100Y-94778523D01*
X162337536Y-94797587D01*
X162232041Y-94829589D01*
X161026794Y-93624342D01*
X161012579Y-93607021D01*
X160943449Y-93550287D01*
X160864579Y-93508130D01*
X160778999Y-93482170D01*
X160712295Y-93475600D01*
X160712288Y-93475600D01*
X160690000Y-93473405D01*
X160667712Y-93475600D01*
X155795748Y-93475600D01*
X155784579Y-93469630D01*
X155698999Y-93443670D01*
X155632295Y-93437100D01*
X155610000Y-93434904D01*
X155587705Y-93437100D01*
X136231188Y-93437100D01*
X136208900Y-93434905D01*
X136186612Y-93437100D01*
X136186605Y-93437100D01*
X136128321Y-93442841D01*
X136119900Y-93443670D01*
X136034321Y-93469630D01*
X135955451Y-93511787D01*
X135886321Y-93568521D01*
X135872110Y-93585837D01*
X133961724Y-95496224D01*
X133948014Y-95490545D01*
X133757250Y-95452600D01*
X133562750Y-95452600D01*
X133371986Y-95490545D01*
X133192291Y-95564977D01*
X133030569Y-95673036D01*
X132893036Y-95810569D01*
X132784977Y-95972291D01*
X132710545Y-96151986D01*
X132672600Y-96342750D01*
X132672600Y-96537250D01*
X132710545Y-96728014D01*
X132784977Y-96907709D01*
X132893036Y-97069431D01*
X133030569Y-97206964D01*
X133192291Y-97315023D01*
X133206001Y-97320702D01*
X133206000Y-98531947D01*
X132410988Y-99326960D01*
X132220931Y-99269307D01*
X132055365Y-99253000D01*
X131944635Y-99253000D01*
X131779069Y-99269307D01*
X131566629Y-99333750D01*
X131370843Y-99438400D01*
X131199235Y-99579235D01*
X131058400Y-99750843D01*
X130964776Y-99926000D01*
X129035224Y-99926000D01*
X128941600Y-99750843D01*
X128800765Y-99579235D01*
X128629157Y-99438400D01*
X128433371Y-99333750D01*
X128220931Y-99269307D01*
X128055365Y-99253000D01*
X127944635Y-99253000D01*
X127779069Y-99269307D01*
X127566629Y-99333750D01*
X127370843Y-99438400D01*
X127199235Y-99579235D01*
X127058400Y-99750843D01*
X126953750Y-99946629D01*
X126889307Y-100159069D01*
X126867547Y-100380000D01*
X120053100Y-100380000D01*
X120053100Y-96342750D01*
X125052600Y-96342750D01*
X125052600Y-96537250D01*
X125090545Y-96728014D01*
X125164977Y-96907709D01*
X125273036Y-97069431D01*
X125410569Y-97206964D01*
X125572291Y-97315023D01*
X125751986Y-97389455D01*
X125942750Y-97427400D01*
X126137250Y-97427400D01*
X126328014Y-97389455D01*
X126507709Y-97315023D01*
X126669431Y-97206964D01*
X126806964Y-97069431D01*
X126915023Y-96907709D01*
X126989455Y-96728014D01*
X127027400Y-96537250D01*
X127027400Y-96342750D01*
X126989455Y-96151986D01*
X126915023Y-95972291D01*
X126806964Y-95810569D01*
X126669431Y-95673036D01*
X126507709Y-95564977D01*
X126328014Y-95490545D01*
X126137250Y-95452600D01*
X125942750Y-95452600D01*
X125751986Y-95490545D01*
X125572291Y-95564977D01*
X125410569Y-95673036D01*
X125273036Y-95810569D01*
X125164977Y-95972291D01*
X125090545Y-96151986D01*
X125052600Y-96342750D01*
X120053100Y-96342750D01*
X120053100Y-85353725D01*
X145634100Y-85353725D01*
X145634100Y-85918475D01*
X145744277Y-86472373D01*
X145960398Y-86994134D01*
X146274156Y-87463706D01*
X146673494Y-87863044D01*
X147143066Y-88176802D01*
X147664827Y-88392923D01*
X148218725Y-88503100D01*
X148783475Y-88503100D01*
X149337373Y-88392923D01*
X149859134Y-88176802D01*
X150328706Y-87863044D01*
X150728044Y-87463706D01*
X151041802Y-86994134D01*
X151257923Y-86472373D01*
X151368100Y-85918475D01*
X151368100Y-85353725D01*
X151257923Y-84799827D01*
X151041802Y-84278066D01*
X150728044Y-83808494D01*
X150328706Y-83409156D01*
X150105073Y-83259729D01*
X150219907Y-82982495D01*
X150288600Y-82637153D01*
X150288600Y-82285047D01*
X150219907Y-81939705D01*
X150085162Y-81614401D01*
X149889542Y-81321635D01*
X149640565Y-81072658D01*
X149347799Y-80877038D01*
X149022495Y-80742293D01*
X148677153Y-80673600D01*
X148325047Y-80673600D01*
X147979705Y-80742293D01*
X147654401Y-80877038D01*
X147361635Y-81072658D01*
X147112658Y-81321635D01*
X146917038Y-81614401D01*
X146782293Y-81939705D01*
X146713600Y-82285047D01*
X146713600Y-82637153D01*
X146782293Y-82982495D01*
X146897127Y-83259729D01*
X146673494Y-83409156D01*
X146274156Y-83808494D01*
X145960398Y-84278066D01*
X145744277Y-84799827D01*
X145634100Y-85353725D01*
X120053100Y-85353725D01*
X120053100Y-79958100D01*
X176949100Y-79958100D01*
X176949100Y-119799100D01*
X176949100Y-119799100D01*
G37*
X176949100Y-119799100D02*
X173085100Y-119799100D01*
X173085100Y-119313388D01*
X173087295Y-119291100D01*
X173085100Y-119268812D01*
X173085100Y-119268805D01*
X173078530Y-119202101D01*
X173052570Y-119116521D01*
X173010413Y-119037651D01*
X172953679Y-118968521D01*
X172936363Y-118954310D01*
X167336795Y-113354743D01*
X167322579Y-113337421D01*
X167253449Y-113280687D01*
X167174579Y-113238530D01*
X167088999Y-113212570D01*
X167022295Y-113206000D01*
X167022288Y-113206000D01*
X167000000Y-113203805D01*
X166977712Y-113206000D01*
X166658053Y-113206000D01*
X166028597Y-112576544D01*
X166044213Y-112525064D01*
X166058500Y-112380003D01*
X166058500Y-110962198D01*
X166623700Y-110962198D01*
X166623701Y-112380003D01*
X166637988Y-112525064D01*
X166694449Y-112711190D01*
X166786136Y-112882724D01*
X166909526Y-113033075D01*
X167059877Y-113156465D01*
X167231411Y-113248152D01*
X167417537Y-113304613D01*
X167611100Y-113323677D01*
X167804664Y-113304613D01*
X167990790Y-113248152D01*
X168162324Y-113156465D01*
X168312675Y-113033075D01*
X168436065Y-112882724D01*
X168527752Y-112711190D01*
X168584213Y-112525064D01*
X168598500Y-112380003D01*
X168598500Y-110962198D01*
X169163700Y-110962198D01*
X169163701Y-112380003D01*
X169177988Y-112525064D01*
X169234449Y-112711190D01*
X169326136Y-112882724D01*
X169449526Y-113033075D01*
X169599877Y-113156465D01*
X169771411Y-113248152D01*
X169957537Y-113304613D01*
X170151100Y-113323677D01*
X170344664Y-113304613D01*
X170530790Y-113248152D01*
X170702324Y-113156465D01*
X170852675Y-113033075D01*
X170976065Y-112882724D01*
X171067752Y-112711190D01*
X171124213Y-112525064D01*
X171138500Y-112380003D01*
X171138500Y-110962198D01*
X171703700Y-110962198D01*
X171703701Y-112380003D01*
X171717988Y-112525064D01*
X171774449Y-112711190D01*
X171866136Y-112882724D01*
X171989526Y-113033075D01*
X172139877Y-113156465D01*
X172311411Y-113248152D01*
X172497537Y-113304613D01*
X172691100Y-113323677D01*
X172884664Y-113304613D01*
X173070790Y-113248152D01*
X173242324Y-113156465D01*
X173392675Y-113033075D01*
X173516065Y-112882724D01*
X173607752Y-112711190D01*
X173664213Y-112525064D01*
X173678500Y-112380003D01*
X173678500Y-111696100D01*
X174139700Y-111696100D01*
X174139700Y-112356500D01*
X174165548Y-112568941D01*
X174232345Y-112772258D01*
X174337523Y-112958636D01*
X174477041Y-113120914D01*
X174645537Y-113252855D01*
X174836536Y-113349389D01*
X175035720Y-113405270D01*
X175206100Y-113314832D01*
X175206100Y-111696100D01*
X175256100Y-111696100D01*
X175256100Y-113314832D01*
X175426480Y-113405270D01*
X175625664Y-113349389D01*
X175816663Y-113252855D01*
X175985159Y-113120914D01*
X176124677Y-112958636D01*
X176229855Y-112772258D01*
X176296652Y-112568941D01*
X176322500Y-112356500D01*
X176322500Y-111696100D01*
X175256100Y-111696100D01*
X175206100Y-111696100D01*
X174139700Y-111696100D01*
X173678500Y-111696100D01*
X173678500Y-110985700D01*
X174139700Y-110985700D01*
X174139700Y-111646100D01*
X175206100Y-111646100D01*
X175206100Y-110027368D01*
X175256100Y-110027368D01*
X175256100Y-111646100D01*
X176322500Y-111646100D01*
X176322500Y-110985700D01*
X176296652Y-110773259D01*
X176229855Y-110569942D01*
X176124677Y-110383564D01*
X175985159Y-110221286D01*
X175816663Y-110089345D01*
X175625664Y-109992811D01*
X175426480Y-109936930D01*
X175256100Y-110027368D01*
X175206100Y-110027368D01*
X175035720Y-109936930D01*
X174836536Y-109992811D01*
X174645537Y-110089345D01*
X174477041Y-110221286D01*
X174337523Y-110383564D01*
X174232345Y-110569942D01*
X174165548Y-110773259D01*
X174139700Y-110985700D01*
X173678500Y-110985700D01*
X173678500Y-110962197D01*
X173664213Y-110817136D01*
X173607752Y-110631010D01*
X173516065Y-110459476D01*
X173392675Y-110309125D01*
X173242324Y-110185735D01*
X173070789Y-110094048D01*
X172884663Y-110037587D01*
X172691100Y-110018523D01*
X172497536Y-110037587D01*
X172311410Y-110094048D01*
X172139876Y-110185735D01*
X171989525Y-110309125D01*
X171866135Y-110459476D01*
X171774448Y-110631011D01*
X171717987Y-110817137D01*
X171703700Y-110962198D01*
X171138500Y-110962198D01*
X171138500Y-110962197D01*
X171124213Y-110817136D01*
X171067752Y-110631010D01*
X170976065Y-110459476D01*
X170852675Y-110309125D01*
X170702324Y-110185735D01*
X170530789Y-110094048D01*
X170344663Y-110037587D01*
X170151100Y-110018523D01*
X169957536Y-110037587D01*
X169771410Y-110094048D01*
X169599876Y-110185735D01*
X169449525Y-110309125D01*
X169326135Y-110459476D01*
X169234448Y-110631011D01*
X169177987Y-110817137D01*
X169163700Y-110962198D01*
X168598500Y-110962198D01*
X168598500Y-110962197D01*
X168584213Y-110817136D01*
X168527752Y-110631010D01*
X168436065Y-110459476D01*
X168312675Y-110309125D01*
X168162324Y-110185735D01*
X167990789Y-110094048D01*
X167804663Y-110037587D01*
X167611100Y-110018523D01*
X167417536Y-110037587D01*
X167231410Y-110094048D01*
X167059876Y-110185735D01*
X166909525Y-110309125D01*
X166786135Y-110459476D01*
X166694448Y-110631011D01*
X166637987Y-110817137D01*
X166623700Y-110962198D01*
X166058500Y-110962198D01*
X166058500Y-110962197D01*
X166044213Y-110817136D01*
X165987752Y-110631010D01*
X165896065Y-110459476D01*
X165772675Y-110309125D01*
X165622324Y-110185735D01*
X165450789Y-110094048D01*
X165264663Y-110037587D01*
X165071100Y-110018523D01*
X164877536Y-110037587D01*
X164691410Y-110094048D01*
X164519876Y-110185735D01*
X164369525Y-110309125D01*
X164246135Y-110459476D01*
X164154448Y-110631011D01*
X164097987Y-110817137D01*
X164083700Y-110962198D01*
X164083701Y-112380003D01*
X164097988Y-112525064D01*
X164154449Y-112711190D01*
X164237956Y-112867421D01*
X164188999Y-112852570D01*
X164122295Y-112846000D01*
X164122288Y-112846000D01*
X164100000Y-112843805D01*
X164077712Y-112846000D01*
X163848053Y-112846000D01*
X163506267Y-112504214D01*
X163518500Y-112380003D01*
X163518500Y-110962197D01*
X163504213Y-110817136D01*
X163447752Y-110631010D01*
X163356065Y-110459476D01*
X163232675Y-110309125D01*
X163082324Y-110185735D01*
X162910789Y-110094048D01*
X162724663Y-110037587D01*
X162531100Y-110018523D01*
X162337536Y-110037587D01*
X162151410Y-110094048D01*
X161979876Y-110185735D01*
X161829525Y-110309125D01*
X161706135Y-110459476D01*
X161614448Y-110631011D01*
X161557987Y-110817137D01*
X161543700Y-110962198D01*
X161543701Y-112380003D01*
X161557988Y-112525064D01*
X161614449Y-112711190D01*
X161706136Y-112882724D01*
X161829526Y-113033075D01*
X161882724Y-113076733D01*
X161868999Y-113072570D01*
X161802295Y-113066000D01*
X161802288Y-113066000D01*
X161780000Y-113063805D01*
X161757712Y-113066000D01*
X161408053Y-113066000D01*
X160941614Y-112599562D01*
X160964213Y-112525064D01*
X160978500Y-112380003D01*
X160978500Y-110962197D01*
X160964213Y-110817136D01*
X160907752Y-110631010D01*
X160816065Y-110459476D01*
X160692675Y-110309125D01*
X160542324Y-110185735D01*
X160370789Y-110094048D01*
X160184663Y-110037587D01*
X159991100Y-110018523D01*
X159797536Y-110037587D01*
X159611410Y-110094048D01*
X159439876Y-110185735D01*
X159289525Y-110309125D01*
X159166135Y-110459476D01*
X159074448Y-110631011D01*
X159017987Y-110817137D01*
X159003700Y-110962198D01*
X159003701Y-112380003D01*
X159017988Y-112525064D01*
X159074449Y-112711190D01*
X159166136Y-112882724D01*
X159289526Y-113033075D01*
X159356190Y-113087785D01*
X159338999Y-113082570D01*
X159272295Y-113076000D01*
X159272288Y-113076000D01*
X159250000Y-113073805D01*
X159227712Y-113076000D01*
X158848053Y-113076000D01*
X158394632Y-112622579D01*
X158424213Y-112525064D01*
X158438500Y-112380003D01*
X158438500Y-110962197D01*
X158424213Y-110817136D01*
X158367752Y-110631010D01*
X158276065Y-110459476D01*
X158152675Y-110309125D01*
X158002324Y-110185735D01*
X157830789Y-110094048D01*
X157644663Y-110037587D01*
X157451100Y-110018523D01*
X157257536Y-110037587D01*
X157071410Y-110094048D01*
X156899876Y-110185735D01*
X156749525Y-110309125D01*
X156626135Y-110459476D01*
X156534448Y-110631011D01*
X156477987Y-110817137D01*
X156463700Y-110962198D01*
X156463701Y-112380003D01*
X156477988Y-112525064D01*
X156534449Y-112711190D01*
X156626136Y-112882724D01*
X156749526Y-113033075D01*
X156762325Y-113043579D01*
X156758999Y-113042570D01*
X156692295Y-113036000D01*
X156692288Y-113036000D01*
X156670000Y-113033805D01*
X156647712Y-113036000D01*
X156238053Y-113036000D01*
X155847650Y-112645597D01*
X155884213Y-112525064D01*
X155898500Y-112380003D01*
X155898500Y-110962197D01*
X155884213Y-110817136D01*
X155827752Y-110631010D01*
X155736065Y-110459476D01*
X155612675Y-110309125D01*
X155462324Y-110185735D01*
X155290789Y-110094048D01*
X155104663Y-110037587D01*
X154911100Y-110018523D01*
X154717536Y-110037587D01*
X154531410Y-110094048D01*
X154359876Y-110185735D01*
X154209525Y-110309125D01*
X154086135Y-110459476D01*
X153994448Y-110631011D01*
X153937987Y-110817137D01*
X153923700Y-110962198D01*
X153923701Y-112380003D01*
X153937988Y-112525064D01*
X153994449Y-112711190D01*
X154086136Y-112882724D01*
X154140637Y-112949134D01*
X154118999Y-112942570D01*
X154052295Y-112936000D01*
X154052288Y-112936000D01*
X154030000Y-112933805D01*
X154007712Y-112936000D01*
X153638053Y-112936000D01*
X153316959Y-112614907D01*
X153344213Y-112525064D01*
X153358500Y-112380003D01*
X153358500Y-110962197D01*
X153344213Y-110817136D01*
X153287752Y-110631010D01*
X153196065Y-110459476D01*
X153072675Y-110309125D01*
X152922324Y-110185735D01*
X152750789Y-110094048D01*
X152564663Y-110037587D01*
X152371100Y-110018523D01*
X152177536Y-110037587D01*
X151991410Y-110094048D01*
X151819876Y-110185735D01*
X151669525Y-110309125D01*
X151546135Y-110459476D01*
X151454448Y-110631011D01*
X151397987Y-110817137D01*
X151383700Y-110962198D01*
X151383701Y-112380003D01*
X151397988Y-112525064D01*
X151454449Y-112711190D01*
X151546136Y-112882724D01*
X151600637Y-112949134D01*
X151578999Y-112942570D01*
X151512295Y-112936000D01*
X151512288Y-112936000D01*
X151490000Y-112933805D01*
X151467712Y-112936000D01*
X151258053Y-112936000D01*
X150808060Y-112486007D01*
X150818500Y-112380003D01*
X150818500Y-110962197D01*
X150804213Y-110817136D01*
X150747752Y-110631010D01*
X150656065Y-110459476D01*
X150532675Y-110309125D01*
X150382324Y-110185735D01*
X150210789Y-110094048D01*
X150024663Y-110037587D01*
X149831100Y-110018523D01*
X149637536Y-110037587D01*
X149451410Y-110094048D01*
X149279876Y-110185735D01*
X149129525Y-110309125D01*
X149006135Y-110459476D01*
X148914448Y-110631011D01*
X148857987Y-110817137D01*
X148843700Y-110962198D01*
X148843701Y-112380003D01*
X148857988Y-112525064D01*
X148914449Y-112711190D01*
X149006136Y-112882724D01*
X149129526Y-113033075D01*
X149236589Y-113120939D01*
X149208999Y-113112570D01*
X149142295Y-113106000D01*
X149142288Y-113106000D01*
X149120000Y-113103805D01*
X149097712Y-113106000D01*
X148728053Y-113106000D01*
X148236959Y-112614907D01*
X148264213Y-112525064D01*
X148278500Y-112380003D01*
X148278500Y-110962197D01*
X148264213Y-110817136D01*
X148207752Y-110631010D01*
X148116065Y-110459476D01*
X147992675Y-110309125D01*
X147842324Y-110185735D01*
X147670789Y-110094048D01*
X147555642Y-110059118D01*
X148020761Y-109594000D01*
X149852800Y-109594000D01*
X149864107Y-109597430D01*
X149930811Y-109604000D01*
X149930817Y-109604000D01*
X149953105Y-109606195D01*
X149975393Y-109604000D01*
X153067712Y-109604000D01*
X153090000Y-109606195D01*
X153112288Y-109604000D01*
X153112295Y-109604000D01*
X153178999Y-109597430D01*
X153264579Y-109571470D01*
X153343449Y-109529313D01*
X153412579Y-109472579D01*
X153426794Y-109455258D01*
X155216364Y-107665689D01*
X155233679Y-107651479D01*
X155290413Y-107582349D01*
X155332570Y-107503479D01*
X155358530Y-107417899D01*
X155365100Y-107351195D01*
X155365100Y-107351189D01*
X155367295Y-107328901D01*
X155365100Y-107306613D01*
X155365100Y-97968432D01*
X155462324Y-97916465D01*
X155612675Y-97793075D01*
X155736065Y-97642724D01*
X155827752Y-97471190D01*
X155884213Y-97285064D01*
X155898500Y-97140003D01*
X155898500Y-95722197D01*
X155884213Y-95577136D01*
X155827752Y-95391010D01*
X155736065Y-95219476D01*
X155612675Y-95069125D01*
X155462324Y-94945735D01*
X155290789Y-94854048D01*
X155104663Y-94797587D01*
X154911100Y-94778523D01*
X154717536Y-94797587D01*
X154531410Y-94854048D01*
X154359876Y-94945735D01*
X154209525Y-95069125D01*
X154086135Y-95219476D01*
X153994448Y-95391011D01*
X153937987Y-95577137D01*
X153923700Y-95722198D01*
X153923701Y-97140003D01*
X153937988Y-97285064D01*
X153994449Y-97471190D01*
X154086136Y-97642724D01*
X154209526Y-97793075D01*
X154359877Y-97916465D01*
X154457101Y-97968432D01*
X154457100Y-107140847D01*
X152901948Y-108696000D01*
X150043412Y-108696000D01*
X150032105Y-108692570D01*
X149965401Y-108686000D01*
X149965394Y-108686000D01*
X149943106Y-108683805D01*
X149920818Y-108686000D01*
X147854996Y-108686000D01*
X147836543Y-108684183D01*
X147920531Y-108628064D01*
X148058064Y-108490531D01*
X148166123Y-108328809D01*
X148240555Y-108149114D01*
X148278500Y-107958350D01*
X148278500Y-107763850D01*
X148240555Y-107573086D01*
X148234876Y-107559376D01*
X148747647Y-107046606D01*
X148764579Y-107041470D01*
X148843449Y-106999313D01*
X148912579Y-106942579D01*
X148969313Y-106873449D01*
X149011470Y-106794579D01*
X149037430Y-106708999D01*
X149046196Y-106620000D01*
X149044000Y-106597705D01*
X149044000Y-105036230D01*
X149046195Y-105013945D01*
X149044000Y-104991660D01*
X149044000Y-104991651D01*
X149037430Y-104924947D01*
X149011470Y-104839367D01*
X148969313Y-104760497D01*
X148912579Y-104691367D01*
X148895264Y-104677157D01*
X145287998Y-101069892D01*
X145380531Y-101008064D01*
X145518064Y-100870531D01*
X145626123Y-100708809D01*
X145700555Y-100529114D01*
X145738500Y-100338350D01*
X145738500Y-100143850D01*
X145700555Y-99953086D01*
X145626123Y-99773391D01*
X145518064Y-99611669D01*
X145380531Y-99474136D01*
X145218809Y-99366077D01*
X145066400Y-99302947D01*
X145056364Y-99294711D01*
X143152211Y-97390559D01*
X143184213Y-97285064D01*
X143198500Y-97140003D01*
X143198500Y-95722198D01*
X143763700Y-95722198D01*
X143763701Y-97140003D01*
X143777988Y-97285064D01*
X143834449Y-97471190D01*
X143926136Y-97642724D01*
X144049526Y-97793075D01*
X144199877Y-97916465D01*
X144371411Y-98008152D01*
X144557537Y-98064613D01*
X144751100Y-98083677D01*
X144944664Y-98064613D01*
X145050159Y-98032611D01*
X146576676Y-99559129D01*
X146524136Y-99611669D01*
X146416077Y-99773391D01*
X146341645Y-99953086D01*
X146303700Y-100143850D01*
X146303700Y-100338350D01*
X146341645Y-100529114D01*
X146416077Y-100708809D01*
X146524136Y-100870531D01*
X146661669Y-101008064D01*
X146823391Y-101116123D01*
X147003086Y-101190555D01*
X147193850Y-101228500D01*
X147388350Y-101228500D01*
X147579114Y-101190555D01*
X147758809Y-101116123D01*
X147920531Y-101008064D01*
X148058064Y-100870531D01*
X148166123Y-100708809D01*
X148240555Y-100529114D01*
X148278500Y-100338350D01*
X148278500Y-100143850D01*
X148240555Y-99953086D01*
X148166123Y-99773391D01*
X148058064Y-99611669D01*
X147920531Y-99474136D01*
X147758809Y-99366077D01*
X147606400Y-99302947D01*
X147596364Y-99294711D01*
X145692211Y-97390559D01*
X145724213Y-97285064D01*
X145738500Y-97140003D01*
X145738500Y-95722198D01*
X146303700Y-95722198D01*
X146303701Y-97140003D01*
X146317988Y-97285064D01*
X146374449Y-97471190D01*
X146466136Y-97642724D01*
X146589526Y-97793075D01*
X146739877Y-97916465D01*
X146911411Y-98008152D01*
X147097537Y-98064613D01*
X147291100Y-98083677D01*
X147484664Y-98064613D01*
X147670790Y-98008152D01*
X147842324Y-97916465D01*
X147992675Y-97793075D01*
X148116065Y-97642724D01*
X148207752Y-97471190D01*
X148264213Y-97285064D01*
X148278500Y-97140003D01*
X148278500Y-95722198D01*
X148843700Y-95722198D01*
X148843701Y-97140003D01*
X148857988Y-97285064D01*
X148914449Y-97471190D01*
X149006136Y-97642724D01*
X149129526Y-97793075D01*
X149279877Y-97916465D01*
X149451411Y-98008152D01*
X149637537Y-98064613D01*
X149831100Y-98083677D01*
X150024664Y-98064613D01*
X150210790Y-98008152D01*
X150382324Y-97916465D01*
X150532675Y-97793075D01*
X150656065Y-97642724D01*
X150747752Y-97471190D01*
X150804213Y-97285064D01*
X150818500Y-97140003D01*
X150818500Y-95722198D01*
X151383700Y-95722198D01*
X151383701Y-97140003D01*
X151397988Y-97285064D01*
X151454449Y-97471190D01*
X151546136Y-97642724D01*
X151669526Y-97793075D01*
X151819877Y-97916465D01*
X151991411Y-98008152D01*
X152177537Y-98064613D01*
X152371100Y-98083677D01*
X152564664Y-98064613D01*
X152750790Y-98008152D01*
X152922324Y-97916465D01*
X153072675Y-97793075D01*
X153196065Y-97642724D01*
X153287752Y-97471190D01*
X153344213Y-97285064D01*
X153358500Y-97140003D01*
X153358500Y-95722197D01*
X153344213Y-95577136D01*
X153287752Y-95391010D01*
X153196065Y-95219476D01*
X153072675Y-95069125D01*
X152922324Y-94945735D01*
X152750789Y-94854048D01*
X152564663Y-94797587D01*
X152371100Y-94778523D01*
X152177536Y-94797587D01*
X151991410Y-94854048D01*
X151819876Y-94945735D01*
X151669525Y-95069125D01*
X151546135Y-95219476D01*
X151454448Y-95391011D01*
X151397987Y-95577137D01*
X151383700Y-95722198D01*
X150818500Y-95722198D01*
X150818500Y-95722197D01*
X150804213Y-95577136D01*
X150747752Y-95391010D01*
X150656065Y-95219476D01*
X150532675Y-95069125D01*
X150382324Y-94945735D01*
X150210789Y-94854048D01*
X150024663Y-94797587D01*
X149831100Y-94778523D01*
X149637536Y-94797587D01*
X149451410Y-94854048D01*
X149279876Y-94945735D01*
X149129525Y-95069125D01*
X149006135Y-95219476D01*
X148914448Y-95391011D01*
X148857987Y-95577137D01*
X148843700Y-95722198D01*
X148278500Y-95722198D01*
X148278500Y-95722197D01*
X148264213Y-95577136D01*
X148207752Y-95391010D01*
X148116065Y-95219476D01*
X147992675Y-95069125D01*
X147842324Y-94945735D01*
X147670789Y-94854048D01*
X147484663Y-94797587D01*
X147291100Y-94778523D01*
X147097536Y-94797587D01*
X146911410Y-94854048D01*
X146739876Y-94945735D01*
X146589525Y-95069125D01*
X146466135Y-95219476D01*
X146374448Y-95391011D01*
X146317987Y-95577137D01*
X146303700Y-95722198D01*
X145738500Y-95722198D01*
X145738500Y-95722197D01*
X145724213Y-95577136D01*
X145667752Y-95391010D01*
X145576065Y-95219476D01*
X145452675Y-95069125D01*
X145302324Y-94945735D01*
X145130789Y-94854048D01*
X144944663Y-94797587D01*
X144751100Y-94778523D01*
X144557536Y-94797587D01*
X144371410Y-94854048D01*
X144199876Y-94945735D01*
X144049525Y-95069125D01*
X143926135Y-95219476D01*
X143834448Y-95391011D01*
X143777987Y-95577137D01*
X143763700Y-95722198D01*
X143198500Y-95722198D01*
X143198500Y-95722197D01*
X143184213Y-95577136D01*
X143127752Y-95391010D01*
X143036065Y-95219476D01*
X142912675Y-95069125D01*
X142762324Y-94945735D01*
X142590789Y-94854048D01*
X142404663Y-94797587D01*
X142211100Y-94778523D01*
X142017536Y-94797587D01*
X141831410Y-94854048D01*
X141659876Y-94945735D01*
X141509525Y-95069125D01*
X141386135Y-95219476D01*
X141294448Y-95391011D01*
X141237987Y-95577137D01*
X141223700Y-95722198D01*
X141223701Y-97140003D01*
X141237988Y-97285064D01*
X141294449Y-97471190D01*
X141386136Y-97642724D01*
X141509526Y-97793075D01*
X141659877Y-97916465D01*
X141831411Y-98008152D01*
X142017537Y-98064613D01*
X142211100Y-98083677D01*
X142404664Y-98064613D01*
X142510159Y-98032611D01*
X144036676Y-99559129D01*
X143984136Y-99611669D01*
X143876077Y-99773391D01*
X143801645Y-99953086D01*
X143763700Y-100143850D01*
X143763700Y-100338350D01*
X143801645Y-100529114D01*
X143876077Y-100708809D01*
X143984136Y-100870531D01*
X144121669Y-101008064D01*
X144283391Y-101116123D01*
X144297101Y-101121802D01*
X144297101Y-101152748D01*
X144294905Y-101175046D01*
X144303670Y-101264045D01*
X144329630Y-101349624D01*
X144329631Y-101349625D01*
X144371788Y-101428495D01*
X144428522Y-101497625D01*
X144445838Y-101511836D01*
X148136000Y-105201999D01*
X148136001Y-106374146D01*
X147592824Y-106917324D01*
X147579114Y-106911645D01*
X147388350Y-106873700D01*
X147193850Y-106873700D01*
X147003086Y-106911645D01*
X146823391Y-106986077D01*
X146661669Y-107094136D01*
X146524136Y-107231669D01*
X146416077Y-107393391D01*
X146341645Y-107573086D01*
X146303700Y-107763850D01*
X146303700Y-107958350D01*
X146341645Y-108149114D01*
X146416077Y-108328809D01*
X146524136Y-108490531D01*
X146661669Y-108628064D01*
X146823391Y-108736123D01*
X147003086Y-108810555D01*
X147193850Y-108848500D01*
X147388350Y-108848500D01*
X147503405Y-108825614D01*
X147495918Y-108834737D01*
X146026938Y-110303718D01*
X146009622Y-110317929D01*
X145952888Y-110387059D01*
X145930354Y-110429217D01*
X145910730Y-110465930D01*
X145884770Y-110551509D01*
X145876005Y-110640508D01*
X145878201Y-110662806D01*
X145878200Y-116191947D01*
X144385838Y-117684310D01*
X144368522Y-117698521D01*
X144311788Y-117767651D01*
X144297834Y-117793757D01*
X144269630Y-117846522D01*
X144243670Y-117932101D01*
X144234905Y-118021100D01*
X144237101Y-118043398D01*
X144237101Y-119799100D01*
X142605100Y-119799100D01*
X142605100Y-116939152D01*
X145055263Y-114488990D01*
X145072579Y-114474779D01*
X145129313Y-114405649D01*
X145171470Y-114326779D01*
X145197430Y-114241199D01*
X145204000Y-114174495D01*
X145204000Y-114174488D01*
X145206195Y-114152200D01*
X145204000Y-114129912D01*
X145204000Y-113279363D01*
X145205100Y-113268195D01*
X145205100Y-113268188D01*
X145207295Y-113245900D01*
X145205100Y-113223612D01*
X145205100Y-113208432D01*
X145302324Y-113156465D01*
X145452675Y-113033075D01*
X145576065Y-112882724D01*
X145667752Y-112711190D01*
X145724213Y-112525064D01*
X145738500Y-112380003D01*
X145738500Y-110962197D01*
X145724213Y-110817136D01*
X145667752Y-110631010D01*
X145576065Y-110459476D01*
X145452675Y-110309125D01*
X145302324Y-110185735D01*
X145130789Y-110094048D01*
X144944663Y-110037587D01*
X144751100Y-110018523D01*
X144557536Y-110037587D01*
X144371410Y-110094048D01*
X144199876Y-110185735D01*
X144049525Y-110309125D01*
X143926135Y-110459476D01*
X143834448Y-110631011D01*
X143777987Y-110817137D01*
X143763700Y-110962198D01*
X143763701Y-112380003D01*
X143777988Y-112525064D01*
X143834449Y-112711190D01*
X143926136Y-112882724D01*
X144049526Y-113033075D01*
X144199877Y-113156465D01*
X144297101Y-113208432D01*
X144297101Y-113213528D01*
X144296000Y-113224706D01*
X144296000Y-113224712D01*
X144293805Y-113247000D01*
X144296000Y-113269288D01*
X144296001Y-113964146D01*
X141845838Y-116414310D01*
X141828522Y-116428521D01*
X141771788Y-116497651D01*
X141749254Y-116539809D01*
X141729630Y-116576522D01*
X141703670Y-116662101D01*
X141694905Y-116751100D01*
X141697101Y-116773398D01*
X141697101Y-119799100D01*
X124825100Y-119799100D01*
X124825100Y-115470000D01*
X132341418Y-115470000D01*
X132341418Y-117170000D01*
X132347732Y-117234103D01*
X132366430Y-117295743D01*
X132396794Y-117352550D01*
X132437657Y-117402343D01*
X132487450Y-117443206D01*
X132544257Y-117473570D01*
X132605897Y-117492268D01*
X132670000Y-117498582D01*
X134370000Y-117498582D01*
X134434103Y-117492268D01*
X134495743Y-117473570D01*
X134552550Y-117443206D01*
X134602343Y-117402343D01*
X134643206Y-117352550D01*
X134673570Y-117295743D01*
X134692268Y-117234103D01*
X134698582Y-117170000D01*
X134698582Y-116320000D01*
X134877306Y-116320000D01*
X134900031Y-116550732D01*
X134967333Y-116772597D01*
X135076626Y-116977070D01*
X135223709Y-117156291D01*
X135402930Y-117303374D01*
X135607403Y-117412667D01*
X135829268Y-117479969D01*
X136002188Y-117497000D01*
X136117812Y-117497000D01*
X136290732Y-117479969D01*
X136512597Y-117412667D01*
X136717070Y-117303374D01*
X136896291Y-117156291D01*
X137043374Y-116977070D01*
X137152667Y-116772597D01*
X137219969Y-116550732D01*
X137242694Y-116320000D01*
X137219969Y-116089268D01*
X137152667Y-115867403D01*
X137043374Y-115662930D01*
X136896291Y-115483709D01*
X136717070Y-115336626D01*
X136512597Y-115227333D01*
X136290732Y-115160031D01*
X136117812Y-115143000D01*
X136002188Y-115143000D01*
X135829268Y-115160031D01*
X135607403Y-115227333D01*
X135402930Y-115336626D01*
X135223709Y-115483709D01*
X135076626Y-115662930D01*
X134967333Y-115867403D01*
X134900031Y-116089268D01*
X134877306Y-116320000D01*
X134698582Y-116320000D01*
X134698582Y-115470000D01*
X134692268Y-115405897D01*
X134673570Y-115344257D01*
X134643206Y-115287450D01*
X134602343Y-115237657D01*
X134552550Y-115196794D01*
X134495743Y-115166430D01*
X134434103Y-115147732D01*
X134370000Y-115141418D01*
X132670000Y-115141418D01*
X132605897Y-115147732D01*
X132544257Y-115166430D01*
X132487450Y-115196794D01*
X132437657Y-115237657D01*
X132396794Y-115287450D01*
X132366430Y-115344257D01*
X132347732Y-115405897D01*
X132341418Y-115470000D01*
X124825100Y-115470000D01*
X124825100Y-114545352D01*
X125365405Y-114005047D01*
X132258922Y-114005047D01*
X132327058Y-114246747D01*
X132441038Y-114470510D01*
X132596482Y-114667737D01*
X132787416Y-114830849D01*
X133006503Y-114953577D01*
X133245323Y-115031205D01*
X133294953Y-115041077D01*
X133495000Y-114952984D01*
X133495000Y-113805000D01*
X133545000Y-113805000D01*
X133545000Y-114952984D01*
X133745047Y-115041077D01*
X133794677Y-115031205D01*
X134033497Y-114953577D01*
X134252584Y-114830849D01*
X134443518Y-114667737D01*
X134598962Y-114470510D01*
X134712942Y-114246747D01*
X134781078Y-114005047D01*
X134798922Y-114005047D01*
X134867058Y-114246747D01*
X134981038Y-114470510D01*
X135136482Y-114667737D01*
X135327416Y-114830849D01*
X135546503Y-114953577D01*
X135785323Y-115031205D01*
X135834953Y-115041077D01*
X136035000Y-114952984D01*
X136035000Y-113805000D01*
X136085000Y-113805000D01*
X136085000Y-114952984D01*
X136285047Y-115041077D01*
X136334677Y-115031205D01*
X136573497Y-114953577D01*
X136792584Y-114830849D01*
X136983518Y-114667737D01*
X137138962Y-114470510D01*
X137252942Y-114246747D01*
X137321078Y-114005047D01*
X137233007Y-113805000D01*
X136085000Y-113805000D01*
X136035000Y-113805000D01*
X134886993Y-113805000D01*
X134798922Y-114005047D01*
X134781078Y-114005047D01*
X134693007Y-113805000D01*
X133545000Y-113805000D01*
X133495000Y-113805000D01*
X132346993Y-113805000D01*
X132258922Y-114005047D01*
X125365405Y-114005047D01*
X125815499Y-113554953D01*
X132258922Y-113554953D01*
X132346993Y-113755000D01*
X133495000Y-113755000D01*
X133495000Y-112607016D01*
X133545000Y-112607016D01*
X133545000Y-113755000D01*
X134693007Y-113755000D01*
X134781078Y-113554953D01*
X134798922Y-113554953D01*
X134886993Y-113755000D01*
X136035000Y-113755000D01*
X136035000Y-112607016D01*
X136085000Y-112607016D01*
X136085000Y-113755000D01*
X137233007Y-113755000D01*
X137321078Y-113554953D01*
X137252942Y-113313253D01*
X137138962Y-113089490D01*
X136983518Y-112892263D01*
X136792584Y-112729151D01*
X136573497Y-112606423D01*
X136334677Y-112528795D01*
X136285047Y-112518923D01*
X136085000Y-112607016D01*
X136035000Y-112607016D01*
X135834953Y-112518923D01*
X135785323Y-112528795D01*
X135546503Y-112606423D01*
X135327416Y-112729151D01*
X135136482Y-112892263D01*
X134981038Y-113089490D01*
X134867058Y-113313253D01*
X134798922Y-113554953D01*
X134781078Y-113554953D01*
X134712942Y-113313253D01*
X134598962Y-113089490D01*
X134443518Y-112892263D01*
X134252584Y-112729151D01*
X134033497Y-112606423D01*
X133794677Y-112528795D01*
X133745047Y-112518923D01*
X133545000Y-112607016D01*
X133495000Y-112607016D01*
X133294953Y-112518923D01*
X133245323Y-112528795D01*
X133006503Y-112606423D01*
X132787416Y-112729151D01*
X132596482Y-112892263D01*
X132441038Y-113089490D01*
X132327058Y-113313253D01*
X132258922Y-113554953D01*
X125815499Y-113554953D01*
X128305264Y-111065189D01*
X128322579Y-111050979D01*
X128379313Y-110981849D01*
X128421470Y-110902979D01*
X128447430Y-110817399D01*
X128454000Y-110750695D01*
X128454000Y-110750688D01*
X128456195Y-110728400D01*
X128454000Y-110706112D01*
X128454000Y-109128582D01*
X128800000Y-109128582D01*
X128864103Y-109122268D01*
X128925743Y-109103570D01*
X128982550Y-109073206D01*
X129032343Y-109032343D01*
X129073206Y-108982550D01*
X129103570Y-108925743D01*
X129122268Y-108864103D01*
X129128582Y-108800000D01*
X129128582Y-107200000D01*
X130871418Y-107200000D01*
X130871418Y-108800000D01*
X130877732Y-108864103D01*
X130896430Y-108925743D01*
X130926794Y-108982550D01*
X130967657Y-109032343D01*
X131017450Y-109073206D01*
X131074257Y-109103570D01*
X131135897Y-109122268D01*
X131200000Y-109128582D01*
X132800000Y-109128582D01*
X132864103Y-109122268D01*
X132925743Y-109103570D01*
X132982550Y-109073206D01*
X133032343Y-109032343D01*
X133073206Y-108982550D01*
X133103570Y-108925743D01*
X133122268Y-108864103D01*
X133128582Y-108800000D01*
X133128582Y-107495000D01*
X135477800Y-107495000D01*
X135477800Y-108206200D01*
X135504624Y-108428552D01*
X135574312Y-108641398D01*
X135684185Y-108836559D01*
X135830021Y-109006535D01*
X136006215Y-109144794D01*
X136205997Y-109246022D01*
X136416671Y-109305156D01*
X136595000Y-109215348D01*
X136595000Y-107495000D01*
X136645000Y-107495000D01*
X136645000Y-109215348D01*
X136823329Y-109305156D01*
X137034003Y-109246022D01*
X137233785Y-109144794D01*
X137409979Y-109006535D01*
X137555815Y-108836559D01*
X137665688Y-108641398D01*
X137735376Y-108428552D01*
X137762200Y-108206200D01*
X137762200Y-107495000D01*
X136645000Y-107495000D01*
X136595000Y-107495000D01*
X135477800Y-107495000D01*
X133128582Y-107495000D01*
X133128582Y-107200000D01*
X133122268Y-107135897D01*
X133103570Y-107074257D01*
X133073206Y-107017450D01*
X133032343Y-106967657D01*
X132982550Y-106926794D01*
X132925743Y-106896430D01*
X132864103Y-106877732D01*
X132800000Y-106871418D01*
X131200000Y-106871418D01*
X131135897Y-106877732D01*
X131074257Y-106896430D01*
X131017450Y-106926794D01*
X130967657Y-106967657D01*
X130926794Y-107017450D01*
X130896430Y-107074257D01*
X130877732Y-107135897D01*
X130871418Y-107200000D01*
X129128582Y-107200000D01*
X129122268Y-107135897D01*
X129103570Y-107074257D01*
X129073206Y-107017450D01*
X129032343Y-106967657D01*
X128982550Y-106926794D01*
X128925743Y-106896430D01*
X128864103Y-106877732D01*
X128800000Y-106871418D01*
X127200000Y-106871418D01*
X127135897Y-106877732D01*
X127074257Y-106896430D01*
X127017450Y-106926794D01*
X126967657Y-106967657D01*
X126926794Y-107017450D01*
X126896430Y-107074257D01*
X126877732Y-107135897D01*
X126871418Y-107200000D01*
X126871418Y-108800000D01*
X126877732Y-108864103D01*
X126896430Y-108925743D01*
X126926794Y-108982550D01*
X126967657Y-109032343D01*
X127017450Y-109073206D01*
X127074257Y-109103570D01*
X127135897Y-109122268D01*
X127200000Y-109128582D01*
X127546001Y-109128582D01*
X127546000Y-110540347D01*
X124065838Y-114020510D01*
X124048522Y-114034721D01*
X123991788Y-114103851D01*
X123985190Y-114116195D01*
X123949630Y-114182722D01*
X123923670Y-114268301D01*
X123914905Y-114357300D01*
X123917101Y-114379598D01*
X123917100Y-115458803D01*
X123917100Y-115722294D01*
X123917101Y-115722304D01*
X123917101Y-119799100D01*
X120053100Y-119799100D01*
X120053100Y-104195000D01*
X135377800Y-104195000D01*
X135377800Y-104906200D01*
X135404624Y-105128552D01*
X135474312Y-105341398D01*
X135584185Y-105536559D01*
X135730021Y-105706535D01*
X135906215Y-105844794D01*
X135928580Y-105856126D01*
X135830021Y-105933465D01*
X135684185Y-106103441D01*
X135574312Y-106298602D01*
X135504624Y-106511448D01*
X135477800Y-106733800D01*
X135477800Y-107445000D01*
X136595000Y-107445000D01*
X136595000Y-107425000D01*
X136645000Y-107425000D01*
X136645000Y-107445000D01*
X137762200Y-107445000D01*
X137762200Y-106733800D01*
X137735376Y-106511448D01*
X137665688Y-106298602D01*
X137555815Y-106103441D01*
X137409979Y-105933465D01*
X137233785Y-105795206D01*
X137211420Y-105783874D01*
X137309979Y-105706535D01*
X137455815Y-105536559D01*
X137565688Y-105341398D01*
X137635376Y-105128552D01*
X137659063Y-104932199D01*
X138021800Y-104932199D01*
X138036822Y-105084722D01*
X138096188Y-105280423D01*
X138192592Y-105460784D01*
X138322330Y-105618870D01*
X138480416Y-105748608D01*
X138660776Y-105845012D01*
X138664867Y-105846253D01*
X138580417Y-105891392D01*
X138422331Y-106021130D01*
X138292593Y-106179216D01*
X138196189Y-106359576D01*
X138136823Y-106555277D01*
X138121801Y-106707800D01*
X138121800Y-108232199D01*
X138136822Y-108384722D01*
X138196188Y-108580423D01*
X138292592Y-108760784D01*
X138422330Y-108918870D01*
X138580416Y-109048608D01*
X138760776Y-109145012D01*
X138956477Y-109204378D01*
X139160000Y-109224423D01*
X139363522Y-109204378D01*
X139559223Y-109145012D01*
X139739584Y-109048608D01*
X139897670Y-108918870D01*
X140027408Y-108760784D01*
X140123812Y-108580424D01*
X140183178Y-108384723D01*
X140190035Y-108315100D01*
X143870399Y-108315100D01*
X143876077Y-108328809D01*
X143984136Y-108490531D01*
X144036676Y-108543071D01*
X142510159Y-110069589D01*
X142404663Y-110037587D01*
X142211100Y-110018523D01*
X142017536Y-110037587D01*
X141831410Y-110094048D01*
X141659876Y-110185735D01*
X141509525Y-110309125D01*
X141386135Y-110459476D01*
X141294448Y-110631011D01*
X141237987Y-110817137D01*
X141223700Y-110962198D01*
X141223701Y-112380003D01*
X141237988Y-112525064D01*
X141294449Y-112711190D01*
X141386136Y-112882724D01*
X141509526Y-113033075D01*
X141659877Y-113156465D01*
X141831411Y-113248152D01*
X142017537Y-113304613D01*
X142211100Y-113323677D01*
X142404664Y-113304613D01*
X142590790Y-113248152D01*
X142762324Y-113156465D01*
X142912675Y-113033075D01*
X143036065Y-112882724D01*
X143127752Y-112711190D01*
X143184213Y-112525064D01*
X143198500Y-112380003D01*
X143198500Y-110962197D01*
X143184213Y-110817136D01*
X143152211Y-110711641D01*
X145056364Y-108807489D01*
X145066400Y-108799253D01*
X145218809Y-108736123D01*
X145380531Y-108628064D01*
X145518064Y-108490531D01*
X145626123Y-108328809D01*
X145700555Y-108149114D01*
X145738500Y-107958350D01*
X145738500Y-107763850D01*
X145700555Y-107573086D01*
X145626123Y-107393391D01*
X145518064Y-107231669D01*
X145380531Y-107094136D01*
X145218809Y-106986077D01*
X145039114Y-106911645D01*
X144848350Y-106873700D01*
X144653850Y-106873700D01*
X144463086Y-106911645D01*
X144283391Y-106986077D01*
X144121669Y-107094136D01*
X143984136Y-107231669D01*
X143876077Y-107393391D01*
X143870399Y-107407100D01*
X140198200Y-107407100D01*
X140198200Y-106707800D01*
X140183178Y-106555277D01*
X140123812Y-106359576D01*
X140027408Y-106179216D01*
X139897670Y-106021130D01*
X139739584Y-105891392D01*
X139559224Y-105794988D01*
X139555134Y-105793747D01*
X139639584Y-105748608D01*
X139797670Y-105618870D01*
X139927408Y-105460784D01*
X140023812Y-105280424D01*
X140083178Y-105084723D01*
X140098200Y-104932200D01*
X140098200Y-103407800D01*
X140083178Y-103255277D01*
X140023812Y-103059576D01*
X139927408Y-102879216D01*
X139797670Y-102721130D01*
X139639584Y-102591392D01*
X139459224Y-102494988D01*
X139263523Y-102435622D01*
X139060000Y-102415577D01*
X138856478Y-102435622D01*
X138660777Y-102494988D01*
X138480417Y-102591392D01*
X138322331Y-102721130D01*
X138192593Y-102879216D01*
X138096189Y-103059576D01*
X138036823Y-103255277D01*
X138021801Y-103407800D01*
X138021800Y-104932199D01*
X137659063Y-104932199D01*
X137662200Y-104906200D01*
X137662200Y-104195000D01*
X136545000Y-104195000D01*
X136545000Y-104215000D01*
X136495000Y-104215000D01*
X136495000Y-104195000D01*
X135377800Y-104195000D01*
X120053100Y-104195000D01*
X120053100Y-103433800D01*
X135377800Y-103433800D01*
X135377800Y-104145000D01*
X136495000Y-104145000D01*
X136495000Y-102424652D01*
X136545000Y-102424652D01*
X136545000Y-104145000D01*
X137662200Y-104145000D01*
X137662200Y-103433800D01*
X137635376Y-103211448D01*
X137565688Y-102998602D01*
X137455815Y-102803441D01*
X137309979Y-102633465D01*
X137133785Y-102495206D01*
X136934003Y-102393978D01*
X136723329Y-102334844D01*
X136545000Y-102424652D01*
X136495000Y-102424652D01*
X136316671Y-102334844D01*
X136105997Y-102393978D01*
X135906215Y-102495206D01*
X135730021Y-102633465D01*
X135584185Y-102803441D01*
X135474312Y-102998602D01*
X135404624Y-103211448D01*
X135377800Y-103433800D01*
X120053100Y-103433800D01*
X120053100Y-100380000D01*
X126867547Y-100380000D01*
X126889307Y-100600931D01*
X126953750Y-100813371D01*
X127058400Y-101009157D01*
X127199235Y-101180765D01*
X127370843Y-101321600D01*
X127566629Y-101426250D01*
X127779069Y-101490693D01*
X127944635Y-101507000D01*
X128055365Y-101507000D01*
X128220931Y-101490693D01*
X128433371Y-101426250D01*
X128629157Y-101321600D01*
X128800765Y-101180765D01*
X128941600Y-101009157D01*
X129035224Y-100834000D01*
X130964776Y-100834000D01*
X131058400Y-101009157D01*
X131199235Y-101180765D01*
X131370843Y-101321600D01*
X131566629Y-101426250D01*
X131779069Y-101490693D01*
X131944635Y-101507000D01*
X132055365Y-101507000D01*
X132220931Y-101490693D01*
X132433371Y-101426250D01*
X132629157Y-101321600D01*
X132800765Y-101180765D01*
X132941600Y-101009157D01*
X133046250Y-100813371D01*
X133110693Y-100600931D01*
X133132453Y-100380000D01*
X133110693Y-100159069D01*
X133053040Y-99969012D01*
X133965264Y-99056789D01*
X133982579Y-99042579D01*
X134039313Y-98973449D01*
X134081470Y-98894579D01*
X134087757Y-98873850D01*
X138048700Y-98873850D01*
X138048700Y-99068350D01*
X138086645Y-99259114D01*
X138161077Y-99438809D01*
X138269136Y-99600531D01*
X138406669Y-99738064D01*
X138568391Y-99846123D01*
X138748086Y-99920555D01*
X138938850Y-99958500D01*
X139133350Y-99958500D01*
X139324114Y-99920555D01*
X139503809Y-99846123D01*
X139665531Y-99738064D01*
X139803064Y-99600531D01*
X139911123Y-99438809D01*
X139985555Y-99259114D01*
X140023500Y-99068350D01*
X140023500Y-98873850D01*
X139985555Y-98683086D01*
X139911123Y-98503391D01*
X139803064Y-98341669D01*
X139665531Y-98204136D01*
X139503809Y-98096077D01*
X139324114Y-98021645D01*
X139133350Y-97983700D01*
X138938850Y-97983700D01*
X138748086Y-98021645D01*
X138568391Y-98096077D01*
X138406669Y-98204136D01*
X138269136Y-98341669D01*
X138161077Y-98503391D01*
X138086645Y-98683086D01*
X138048700Y-98873850D01*
X134087757Y-98873850D01*
X134107430Y-98808999D01*
X134114000Y-98742295D01*
X134114000Y-98742288D01*
X134116195Y-98720000D01*
X134114000Y-98697712D01*
X134114000Y-97320701D01*
X134127709Y-97315023D01*
X134289431Y-97206964D01*
X134348561Y-97147834D01*
X138354721Y-97147834D01*
X138411880Y-97332798D01*
X138599786Y-97437251D01*
X138804460Y-97503039D01*
X139018036Y-97527632D01*
X139232305Y-97510087D01*
X139439036Y-97451077D01*
X139630281Y-97352870D01*
X139660320Y-97332798D01*
X139717479Y-97147834D01*
X139036100Y-96466455D01*
X138354721Y-97147834D01*
X134348561Y-97147834D01*
X134426964Y-97069431D01*
X134535023Y-96907709D01*
X134609455Y-96728014D01*
X134647400Y-96537250D01*
X134647400Y-96413036D01*
X137939568Y-96413036D01*
X137957113Y-96627305D01*
X138016123Y-96834036D01*
X138114330Y-97025281D01*
X138134402Y-97055320D01*
X138319366Y-97112479D01*
X139000745Y-96431100D01*
X139071455Y-96431100D01*
X139752834Y-97112479D01*
X139937798Y-97055320D01*
X140042251Y-96867414D01*
X140108039Y-96662740D01*
X140132632Y-96449164D01*
X140115087Y-96234895D01*
X140056077Y-96028164D01*
X139957870Y-95836919D01*
X139937798Y-95806880D01*
X139752834Y-95749721D01*
X139071455Y-96431100D01*
X139000745Y-96431100D01*
X138319366Y-95749721D01*
X138134402Y-95806880D01*
X138029949Y-95994786D01*
X137964161Y-96199460D01*
X137939568Y-96413036D01*
X134647400Y-96413036D01*
X134647400Y-96342750D01*
X134609455Y-96151986D01*
X134603776Y-96138276D01*
X135027686Y-95714366D01*
X138354721Y-95714366D01*
X139036100Y-96395745D01*
X139717479Y-95714366D01*
X139660320Y-95529402D01*
X139472414Y-95424949D01*
X139267740Y-95359161D01*
X139054164Y-95334568D01*
X138839895Y-95352113D01*
X138633164Y-95411123D01*
X138441919Y-95509330D01*
X138411880Y-95529402D01*
X138354721Y-95714366D01*
X135027686Y-95714366D01*
X136396953Y-94345100D01*
X155383448Y-94345100D01*
X156509989Y-95471642D01*
X156477987Y-95577137D01*
X156463700Y-95722198D01*
X156463701Y-97140003D01*
X156477988Y-97285064D01*
X156534449Y-97471190D01*
X156626136Y-97642724D01*
X156749526Y-97793075D01*
X156899877Y-97916465D01*
X157071411Y-98008152D01*
X157257537Y-98064613D01*
X157451100Y-98083677D01*
X157644664Y-98064613D01*
X157830790Y-98008152D01*
X158002324Y-97916465D01*
X158152675Y-97793075D01*
X158276065Y-97642724D01*
X158367752Y-97471190D01*
X158424213Y-97285064D01*
X158438500Y-97140003D01*
X158438500Y-95722198D01*
X159003700Y-95722198D01*
X159003701Y-97140003D01*
X159017988Y-97285064D01*
X159074449Y-97471190D01*
X159166136Y-97642724D01*
X159289526Y-97793075D01*
X159439877Y-97916465D01*
X159611411Y-98008152D01*
X159797537Y-98064613D01*
X159991100Y-98083677D01*
X160184664Y-98064613D01*
X160370790Y-98008152D01*
X160542324Y-97916465D01*
X160692675Y-97793075D01*
X160816065Y-97642724D01*
X160907752Y-97471190D01*
X160964213Y-97285064D01*
X160978500Y-97140003D01*
X160978500Y-95722197D01*
X160964213Y-95577136D01*
X160907752Y-95391010D01*
X160816065Y-95219476D01*
X160692675Y-95069125D01*
X160542324Y-94945735D01*
X160370789Y-94854048D01*
X160184663Y-94797587D01*
X159991100Y-94778523D01*
X159797536Y-94797587D01*
X159611410Y-94854048D01*
X159439876Y-94945735D01*
X159289525Y-95069125D01*
X159166135Y-95219476D01*
X159074448Y-95391011D01*
X159017987Y-95577137D01*
X159003700Y-95722198D01*
X158438500Y-95722198D01*
X158438500Y-95722197D01*
X158424213Y-95577136D01*
X158367752Y-95391010D01*
X158276065Y-95219476D01*
X158152675Y-95069125D01*
X158002324Y-94945735D01*
X157830789Y-94854048D01*
X157644663Y-94797587D01*
X157451100Y-94778523D01*
X157257536Y-94797587D01*
X157152041Y-94829589D01*
X156706052Y-94383600D01*
X160501948Y-94383600D01*
X161589989Y-95471642D01*
X161557987Y-95577137D01*
X161543700Y-95722198D01*
X161543701Y-97140003D01*
X161557988Y-97285064D01*
X161614449Y-97471190D01*
X161706136Y-97642724D01*
X161829526Y-97793075D01*
X161979877Y-97916465D01*
X162151411Y-98008152D01*
X162337537Y-98064613D01*
X162531100Y-98083677D01*
X162724664Y-98064613D01*
X162910790Y-98008152D01*
X163082324Y-97916465D01*
X163232675Y-97793075D01*
X163356065Y-97642724D01*
X163447752Y-97471190D01*
X163504213Y-97285064D01*
X163518500Y-97140003D01*
X163518500Y-95722198D01*
X164083700Y-95722198D01*
X164083701Y-97140003D01*
X164097988Y-97285064D01*
X164154449Y-97471190D01*
X164246136Y-97642724D01*
X164369526Y-97793075D01*
X164519877Y-97916465D01*
X164691411Y-98008152D01*
X164877537Y-98064613D01*
X165071100Y-98083677D01*
X165264664Y-98064613D01*
X165450790Y-98008152D01*
X165622324Y-97916465D01*
X165772675Y-97793075D01*
X165896065Y-97642724D01*
X165987752Y-97471190D01*
X166044213Y-97285064D01*
X166058500Y-97140003D01*
X166058500Y-95722198D01*
X166623700Y-95722198D01*
X166623701Y-97140003D01*
X166637988Y-97285064D01*
X166694449Y-97471190D01*
X166786136Y-97642724D01*
X166909526Y-97793075D01*
X167059877Y-97916465D01*
X167231411Y-98008152D01*
X167417537Y-98064613D01*
X167611100Y-98083677D01*
X167804664Y-98064613D01*
X167990790Y-98008152D01*
X168162324Y-97916465D01*
X168312675Y-97793075D01*
X168436065Y-97642724D01*
X168527752Y-97471190D01*
X168584213Y-97285064D01*
X168598500Y-97140003D01*
X168598500Y-95722198D01*
X169163700Y-95722198D01*
X169163701Y-97140003D01*
X169177988Y-97285064D01*
X169234449Y-97471190D01*
X169326136Y-97642724D01*
X169449526Y-97793075D01*
X169599877Y-97916465D01*
X169771411Y-98008152D01*
X169957537Y-98064613D01*
X170151100Y-98083677D01*
X170344664Y-98064613D01*
X170530790Y-98008152D01*
X170702324Y-97916465D01*
X170852675Y-97793075D01*
X170976065Y-97642724D01*
X171067752Y-97471190D01*
X171124213Y-97285064D01*
X171138500Y-97140003D01*
X171138500Y-95722198D01*
X171703700Y-95722198D01*
X171703701Y-97140003D01*
X171717988Y-97285064D01*
X171774449Y-97471190D01*
X171866136Y-97642724D01*
X171989526Y-97793075D01*
X172139877Y-97916465D01*
X172311411Y-98008152D01*
X172497537Y-98064613D01*
X172691100Y-98083677D01*
X172884664Y-98064613D01*
X173070790Y-98008152D01*
X173242324Y-97916465D01*
X173392675Y-97793075D01*
X173516065Y-97642724D01*
X173607752Y-97471190D01*
X173664213Y-97285064D01*
X173678500Y-97140003D01*
X173678500Y-95722198D01*
X174243700Y-95722198D01*
X174243701Y-97140003D01*
X174257988Y-97285064D01*
X174314449Y-97471190D01*
X174406136Y-97642724D01*
X174529526Y-97793075D01*
X174679877Y-97916465D01*
X174851411Y-98008152D01*
X175037537Y-98064613D01*
X175231100Y-98083677D01*
X175424664Y-98064613D01*
X175610790Y-98008152D01*
X175782324Y-97916465D01*
X175932675Y-97793075D01*
X176056065Y-97642724D01*
X176147752Y-97471190D01*
X176204213Y-97285064D01*
X176218500Y-97140003D01*
X176218500Y-95722197D01*
X176204213Y-95577136D01*
X176147752Y-95391010D01*
X176056065Y-95219476D01*
X175932675Y-95069125D01*
X175782324Y-94945735D01*
X175610789Y-94854048D01*
X175424663Y-94797587D01*
X175231100Y-94778523D01*
X175037536Y-94797587D01*
X174851410Y-94854048D01*
X174679876Y-94945735D01*
X174529525Y-95069125D01*
X174406135Y-95219476D01*
X174314448Y-95391011D01*
X174257987Y-95577137D01*
X174243700Y-95722198D01*
X173678500Y-95722198D01*
X173678500Y-95722197D01*
X173664213Y-95577136D01*
X173607752Y-95391010D01*
X173516065Y-95219476D01*
X173392675Y-95069125D01*
X173242324Y-94945735D01*
X173070789Y-94854048D01*
X172884663Y-94797587D01*
X172691100Y-94778523D01*
X172497536Y-94797587D01*
X172311410Y-94854048D01*
X172139876Y-94945735D01*
X171989525Y-95069125D01*
X171866135Y-95219476D01*
X171774448Y-95391011D01*
X171717987Y-95577137D01*
X171703700Y-95722198D01*
X171138500Y-95722198D01*
X171138500Y-95722197D01*
X171124213Y-95577136D01*
X171067752Y-95391010D01*
X170976065Y-95219476D01*
X170852675Y-95069125D01*
X170702324Y-94945735D01*
X170530789Y-94854048D01*
X170344663Y-94797587D01*
X170151100Y-94778523D01*
X169957536Y-94797587D01*
X169771410Y-94854048D01*
X169599876Y-94945735D01*
X169449525Y-95069125D01*
X169326135Y-95219476D01*
X169234448Y-95391011D01*
X169177987Y-95577137D01*
X169163700Y-95722198D01*
X168598500Y-95722198D01*
X168598500Y-95722197D01*
X168584213Y-95577136D01*
X168527752Y-95391010D01*
X168436065Y-95219476D01*
X168312675Y-95069125D01*
X168162324Y-94945735D01*
X167990789Y-94854048D01*
X167804663Y-94797587D01*
X167611100Y-94778523D01*
X167417536Y-94797587D01*
X167231410Y-94854048D01*
X167059876Y-94945735D01*
X166909525Y-95069125D01*
X166786135Y-95219476D01*
X166694448Y-95391011D01*
X166637987Y-95577137D01*
X166623700Y-95722198D01*
X166058500Y-95722198D01*
X166058500Y-95722197D01*
X166044213Y-95577136D01*
X165987752Y-95391010D01*
X165896065Y-95219476D01*
X165772675Y-95069125D01*
X165622324Y-94945735D01*
X165450789Y-94854048D01*
X165264663Y-94797587D01*
X165071100Y-94778523D01*
X164877536Y-94797587D01*
X164691410Y-94854048D01*
X164519876Y-94945735D01*
X164369525Y-95069125D01*
X164246135Y-95219476D01*
X164154448Y-95391011D01*
X164097987Y-95577137D01*
X164083700Y-95722198D01*
X163518500Y-95722198D01*
X163518500Y-95722197D01*
X163504213Y-95577136D01*
X163447752Y-95391010D01*
X163356065Y-95219476D01*
X163232675Y-95069125D01*
X163082324Y-94945735D01*
X162910789Y-94854048D01*
X162724663Y-94797587D01*
X162531100Y-94778523D01*
X162337536Y-94797587D01*
X162232041Y-94829589D01*
X161026794Y-93624342D01*
X161012579Y-93607021D01*
X160943449Y-93550287D01*
X160864579Y-93508130D01*
X160778999Y-93482170D01*
X160712295Y-93475600D01*
X160712288Y-93475600D01*
X160690000Y-93473405D01*
X160667712Y-93475600D01*
X155795748Y-93475600D01*
X155784579Y-93469630D01*
X155698999Y-93443670D01*
X155632295Y-93437100D01*
X155610000Y-93434904D01*
X155587705Y-93437100D01*
X136231188Y-93437100D01*
X136208900Y-93434905D01*
X136186612Y-93437100D01*
X136186605Y-93437100D01*
X136128321Y-93442841D01*
X136119900Y-93443670D01*
X136034321Y-93469630D01*
X135955451Y-93511787D01*
X135886321Y-93568521D01*
X135872110Y-93585837D01*
X133961724Y-95496224D01*
X133948014Y-95490545D01*
X133757250Y-95452600D01*
X133562750Y-95452600D01*
X133371986Y-95490545D01*
X133192291Y-95564977D01*
X133030569Y-95673036D01*
X132893036Y-95810569D01*
X132784977Y-95972291D01*
X132710545Y-96151986D01*
X132672600Y-96342750D01*
X132672600Y-96537250D01*
X132710545Y-96728014D01*
X132784977Y-96907709D01*
X132893036Y-97069431D01*
X133030569Y-97206964D01*
X133192291Y-97315023D01*
X133206001Y-97320702D01*
X133206000Y-98531947D01*
X132410988Y-99326960D01*
X132220931Y-99269307D01*
X132055365Y-99253000D01*
X131944635Y-99253000D01*
X131779069Y-99269307D01*
X131566629Y-99333750D01*
X131370843Y-99438400D01*
X131199235Y-99579235D01*
X131058400Y-99750843D01*
X130964776Y-99926000D01*
X129035224Y-99926000D01*
X128941600Y-99750843D01*
X128800765Y-99579235D01*
X128629157Y-99438400D01*
X128433371Y-99333750D01*
X128220931Y-99269307D01*
X128055365Y-99253000D01*
X127944635Y-99253000D01*
X127779069Y-99269307D01*
X127566629Y-99333750D01*
X127370843Y-99438400D01*
X127199235Y-99579235D01*
X127058400Y-99750843D01*
X126953750Y-99946629D01*
X126889307Y-100159069D01*
X126867547Y-100380000D01*
X120053100Y-100380000D01*
X120053100Y-96342750D01*
X125052600Y-96342750D01*
X125052600Y-96537250D01*
X125090545Y-96728014D01*
X125164977Y-96907709D01*
X125273036Y-97069431D01*
X125410569Y-97206964D01*
X125572291Y-97315023D01*
X125751986Y-97389455D01*
X125942750Y-97427400D01*
X126137250Y-97427400D01*
X126328014Y-97389455D01*
X126507709Y-97315023D01*
X126669431Y-97206964D01*
X126806964Y-97069431D01*
X126915023Y-96907709D01*
X126989455Y-96728014D01*
X127027400Y-96537250D01*
X127027400Y-96342750D01*
X126989455Y-96151986D01*
X126915023Y-95972291D01*
X126806964Y-95810569D01*
X126669431Y-95673036D01*
X126507709Y-95564977D01*
X126328014Y-95490545D01*
X126137250Y-95452600D01*
X125942750Y-95452600D01*
X125751986Y-95490545D01*
X125572291Y-95564977D01*
X125410569Y-95673036D01*
X125273036Y-95810569D01*
X125164977Y-95972291D01*
X125090545Y-96151986D01*
X125052600Y-96342750D01*
X120053100Y-96342750D01*
X120053100Y-85353725D01*
X145634100Y-85353725D01*
X145634100Y-85918475D01*
X145744277Y-86472373D01*
X145960398Y-86994134D01*
X146274156Y-87463706D01*
X146673494Y-87863044D01*
X147143066Y-88176802D01*
X147664827Y-88392923D01*
X148218725Y-88503100D01*
X148783475Y-88503100D01*
X149337373Y-88392923D01*
X149859134Y-88176802D01*
X150328706Y-87863044D01*
X150728044Y-87463706D01*
X151041802Y-86994134D01*
X151257923Y-86472373D01*
X151368100Y-85918475D01*
X151368100Y-85353725D01*
X151257923Y-84799827D01*
X151041802Y-84278066D01*
X150728044Y-83808494D01*
X150328706Y-83409156D01*
X150105073Y-83259729D01*
X150219907Y-82982495D01*
X150288600Y-82637153D01*
X150288600Y-82285047D01*
X150219907Y-81939705D01*
X150085162Y-81614401D01*
X149889542Y-81321635D01*
X149640565Y-81072658D01*
X149347799Y-80877038D01*
X149022495Y-80742293D01*
X148677153Y-80673600D01*
X148325047Y-80673600D01*
X147979705Y-80742293D01*
X147654401Y-80877038D01*
X147361635Y-81072658D01*
X147112658Y-81321635D01*
X146917038Y-81614401D01*
X146782293Y-81939705D01*
X146713600Y-82285047D01*
X146713600Y-82637153D01*
X146782293Y-82982495D01*
X146897127Y-83259729D01*
X146673494Y-83409156D01*
X146274156Y-83808494D01*
X145960398Y-84278066D01*
X145744277Y-84799827D01*
X145634100Y-85353725D01*
X120053100Y-85353725D01*
X120053100Y-79958100D01*
X176949100Y-79958100D01*
X176949100Y-119799100D01*
G04 #@! TD*
M02*
