G04 #@! TF.GenerationSoftware,KiCad,Pcbnew,5.0.2-bee76a0~70~ubuntu18.04.1*
G04 #@! TF.CreationDate,2021-04-24T13:54:54-04:00*
G04 #@! TF.ProjectId,SimpleC64Cart,53696d70-6c65-4433-9634-436172742e6b,rev?*
G04 #@! TF.SameCoordinates,Original*
G04 #@! TF.FileFunction,Copper,L1,Top*
G04 #@! TF.FilePolarity,Positive*
%FSLAX46Y46*%
G04 Gerber Fmt 4.6, Leading zero omitted, Abs format (unit mm)*
G04 Created by KiCad (PCBNEW 5.0.2-bee76a0~70~ubuntu18.04.1) date Sat 24 Apr 2021 01:54:54 PM EDT*
%MOMM*%
%LPD*%
G01*
G04 APERTURE LIST*
G04 #@! TA.AperFunction,Conductor*
%ADD10C,0.100000*%
G04 #@! TD*
G04 #@! TA.AperFunction,ConnectorPad*
%ADD11C,1.500000*%
G04 #@! TD*
G04 #@! TA.AperFunction,ComponentPad*
%ADD12O,1.320800X2.641600*%
G04 #@! TD*
G04 #@! TA.AperFunction,ComponentPad*
%ADD13O,1.422400X2.844800*%
G04 #@! TD*
G04 #@! TA.AperFunction,ComponentPad*
%ADD14C,1.320800*%
G04 #@! TD*
G04 #@! TA.AperFunction,ViaPad*
%ADD15C,0.914400*%
G04 #@! TD*
G04 #@! TA.AperFunction,ViaPad*
%ADD16C,0.904800*%
G04 #@! TD*
G04 #@! TA.AperFunction,ViaPad*
%ADD17C,1.778000*%
G04 #@! TD*
G04 #@! TA.AperFunction,Conductor*
%ADD18C,1.270000*%
G04 #@! TD*
G04 #@! TA.AperFunction,Conductor*
%ADD19C,0.254000*%
G04 #@! TD*
G04 #@! TA.AperFunction,Conductor*
%ADD20C,0.406400*%
G04 #@! TD*
G04 APERTURE END LIST*
D10*
G04 #@! TO.N,GND*
G04 #@! TO.C,X1*
G36*
X175718154Y-120231983D02*
X175739995Y-120235223D01*
X175761414Y-120240588D01*
X175782204Y-120248027D01*
X175802164Y-120257468D01*
X175821103Y-120268819D01*
X175838838Y-120281973D01*
X175855199Y-120296801D01*
X175870027Y-120313162D01*
X175883181Y-120330897D01*
X175894532Y-120349836D01*
X175903973Y-120369796D01*
X175911412Y-120390586D01*
X175916777Y-120412005D01*
X175920017Y-120433846D01*
X175921100Y-120455900D01*
X175921100Y-128895900D01*
X175920017Y-128917954D01*
X175916777Y-128939795D01*
X175911412Y-128961214D01*
X175903973Y-128982004D01*
X175894532Y-129001964D01*
X175883181Y-129020903D01*
X175870027Y-129038638D01*
X175855199Y-129054999D01*
X175838838Y-129069827D01*
X175821103Y-129082981D01*
X175802164Y-129094332D01*
X175782204Y-129103773D01*
X175761414Y-129111212D01*
X175739995Y-129116577D01*
X175718154Y-129119817D01*
X175696100Y-129120900D01*
X174646100Y-129120900D01*
X174624046Y-129119817D01*
X174602205Y-129116577D01*
X174580786Y-129111212D01*
X174559996Y-129103773D01*
X174540036Y-129094332D01*
X174521097Y-129082981D01*
X174503362Y-129069827D01*
X174487001Y-129054999D01*
X174472173Y-129038638D01*
X174459019Y-129020903D01*
X174447668Y-129001964D01*
X174438227Y-128982004D01*
X174430788Y-128961214D01*
X174425423Y-128939795D01*
X174422183Y-128917954D01*
X174421100Y-128895900D01*
X174421100Y-120455900D01*
X174422183Y-120433846D01*
X174425423Y-120412005D01*
X174430788Y-120390586D01*
X174438227Y-120369796D01*
X174447668Y-120349836D01*
X174459019Y-120330897D01*
X174472173Y-120313162D01*
X174487001Y-120296801D01*
X174503362Y-120281973D01*
X174521097Y-120268819D01*
X174540036Y-120257468D01*
X174559996Y-120248027D01*
X174580786Y-120240588D01*
X174602205Y-120235223D01*
X174624046Y-120231983D01*
X174646100Y-120230900D01*
X175696100Y-120230900D01*
X175718154Y-120231983D01*
X175718154Y-120231983D01*
G37*
D11*
G04 #@! TD*
G04 #@! TO.P,X1,22*
G04 #@! TO.N,GND*
X175171100Y-124675900D03*
D10*
G04 #@! TO.N,D0*
G04 #@! TO.C,X1*
G36*
X173178154Y-120231983D02*
X173199995Y-120235223D01*
X173221414Y-120240588D01*
X173242204Y-120248027D01*
X173262164Y-120257468D01*
X173281103Y-120268819D01*
X173298838Y-120281973D01*
X173315199Y-120296801D01*
X173330027Y-120313162D01*
X173343181Y-120330897D01*
X173354532Y-120349836D01*
X173363973Y-120369796D01*
X173371412Y-120390586D01*
X173376777Y-120412005D01*
X173380017Y-120433846D01*
X173381100Y-120455900D01*
X173381100Y-128895900D01*
X173380017Y-128917954D01*
X173376777Y-128939795D01*
X173371412Y-128961214D01*
X173363973Y-128982004D01*
X173354532Y-129001964D01*
X173343181Y-129020903D01*
X173330027Y-129038638D01*
X173315199Y-129054999D01*
X173298838Y-129069827D01*
X173281103Y-129082981D01*
X173262164Y-129094332D01*
X173242204Y-129103773D01*
X173221414Y-129111212D01*
X173199995Y-129116577D01*
X173178154Y-129119817D01*
X173156100Y-129120900D01*
X172106100Y-129120900D01*
X172084046Y-129119817D01*
X172062205Y-129116577D01*
X172040786Y-129111212D01*
X172019996Y-129103773D01*
X172000036Y-129094332D01*
X171981097Y-129082981D01*
X171963362Y-129069827D01*
X171947001Y-129054999D01*
X171932173Y-129038638D01*
X171919019Y-129020903D01*
X171907668Y-129001964D01*
X171898227Y-128982004D01*
X171890788Y-128961214D01*
X171885423Y-128939795D01*
X171882183Y-128917954D01*
X171881100Y-128895900D01*
X171881100Y-120455900D01*
X171882183Y-120433846D01*
X171885423Y-120412005D01*
X171890788Y-120390586D01*
X171898227Y-120369796D01*
X171907668Y-120349836D01*
X171919019Y-120330897D01*
X171932173Y-120313162D01*
X171947001Y-120296801D01*
X171963362Y-120281973D01*
X171981097Y-120268819D01*
X172000036Y-120257468D01*
X172019996Y-120248027D01*
X172040786Y-120240588D01*
X172062205Y-120235223D01*
X172084046Y-120231983D01*
X172106100Y-120230900D01*
X173156100Y-120230900D01*
X173178154Y-120231983D01*
X173178154Y-120231983D01*
G37*
D11*
G04 #@! TD*
G04 #@! TO.P,X1,21*
G04 #@! TO.N,D0*
X172631100Y-124675900D03*
D10*
G04 #@! TO.N,D1*
G04 #@! TO.C,X1*
G36*
X170638154Y-120231983D02*
X170659995Y-120235223D01*
X170681414Y-120240588D01*
X170702204Y-120248027D01*
X170722164Y-120257468D01*
X170741103Y-120268819D01*
X170758838Y-120281973D01*
X170775199Y-120296801D01*
X170790027Y-120313162D01*
X170803181Y-120330897D01*
X170814532Y-120349836D01*
X170823973Y-120369796D01*
X170831412Y-120390586D01*
X170836777Y-120412005D01*
X170840017Y-120433846D01*
X170841100Y-120455900D01*
X170841100Y-128895900D01*
X170840017Y-128917954D01*
X170836777Y-128939795D01*
X170831412Y-128961214D01*
X170823973Y-128982004D01*
X170814532Y-129001964D01*
X170803181Y-129020903D01*
X170790027Y-129038638D01*
X170775199Y-129054999D01*
X170758838Y-129069827D01*
X170741103Y-129082981D01*
X170722164Y-129094332D01*
X170702204Y-129103773D01*
X170681414Y-129111212D01*
X170659995Y-129116577D01*
X170638154Y-129119817D01*
X170616100Y-129120900D01*
X169566100Y-129120900D01*
X169544046Y-129119817D01*
X169522205Y-129116577D01*
X169500786Y-129111212D01*
X169479996Y-129103773D01*
X169460036Y-129094332D01*
X169441097Y-129082981D01*
X169423362Y-129069827D01*
X169407001Y-129054999D01*
X169392173Y-129038638D01*
X169379019Y-129020903D01*
X169367668Y-129001964D01*
X169358227Y-128982004D01*
X169350788Y-128961214D01*
X169345423Y-128939795D01*
X169342183Y-128917954D01*
X169341100Y-128895900D01*
X169341100Y-120455900D01*
X169342183Y-120433846D01*
X169345423Y-120412005D01*
X169350788Y-120390586D01*
X169358227Y-120369796D01*
X169367668Y-120349836D01*
X169379019Y-120330897D01*
X169392173Y-120313162D01*
X169407001Y-120296801D01*
X169423362Y-120281973D01*
X169441097Y-120268819D01*
X169460036Y-120257468D01*
X169479996Y-120248027D01*
X169500786Y-120240588D01*
X169522205Y-120235223D01*
X169544046Y-120231983D01*
X169566100Y-120230900D01*
X170616100Y-120230900D01*
X170638154Y-120231983D01*
X170638154Y-120231983D01*
G37*
D11*
G04 #@! TD*
G04 #@! TO.P,X1,20*
G04 #@! TO.N,D1*
X170091100Y-124675900D03*
D10*
G04 #@! TO.N,D2*
G04 #@! TO.C,X1*
G36*
X168098154Y-120231983D02*
X168119995Y-120235223D01*
X168141414Y-120240588D01*
X168162204Y-120248027D01*
X168182164Y-120257468D01*
X168201103Y-120268819D01*
X168218838Y-120281973D01*
X168235199Y-120296801D01*
X168250027Y-120313162D01*
X168263181Y-120330897D01*
X168274532Y-120349836D01*
X168283973Y-120369796D01*
X168291412Y-120390586D01*
X168296777Y-120412005D01*
X168300017Y-120433846D01*
X168301100Y-120455900D01*
X168301100Y-128895900D01*
X168300017Y-128917954D01*
X168296777Y-128939795D01*
X168291412Y-128961214D01*
X168283973Y-128982004D01*
X168274532Y-129001964D01*
X168263181Y-129020903D01*
X168250027Y-129038638D01*
X168235199Y-129054999D01*
X168218838Y-129069827D01*
X168201103Y-129082981D01*
X168182164Y-129094332D01*
X168162204Y-129103773D01*
X168141414Y-129111212D01*
X168119995Y-129116577D01*
X168098154Y-129119817D01*
X168076100Y-129120900D01*
X167026100Y-129120900D01*
X167004046Y-129119817D01*
X166982205Y-129116577D01*
X166960786Y-129111212D01*
X166939996Y-129103773D01*
X166920036Y-129094332D01*
X166901097Y-129082981D01*
X166883362Y-129069827D01*
X166867001Y-129054999D01*
X166852173Y-129038638D01*
X166839019Y-129020903D01*
X166827668Y-129001964D01*
X166818227Y-128982004D01*
X166810788Y-128961214D01*
X166805423Y-128939795D01*
X166802183Y-128917954D01*
X166801100Y-128895900D01*
X166801100Y-120455900D01*
X166802183Y-120433846D01*
X166805423Y-120412005D01*
X166810788Y-120390586D01*
X166818227Y-120369796D01*
X166827668Y-120349836D01*
X166839019Y-120330897D01*
X166852173Y-120313162D01*
X166867001Y-120296801D01*
X166883362Y-120281973D01*
X166901097Y-120268819D01*
X166920036Y-120257468D01*
X166939996Y-120248027D01*
X166960786Y-120240588D01*
X166982205Y-120235223D01*
X167004046Y-120231983D01*
X167026100Y-120230900D01*
X168076100Y-120230900D01*
X168098154Y-120231983D01*
X168098154Y-120231983D01*
G37*
D11*
G04 #@! TD*
G04 #@! TO.P,X1,19*
G04 #@! TO.N,D2*
X167551100Y-124675900D03*
D10*
G04 #@! TO.N,D3*
G04 #@! TO.C,X1*
G36*
X165558154Y-120231983D02*
X165579995Y-120235223D01*
X165601414Y-120240588D01*
X165622204Y-120248027D01*
X165642164Y-120257468D01*
X165661103Y-120268819D01*
X165678838Y-120281973D01*
X165695199Y-120296801D01*
X165710027Y-120313162D01*
X165723181Y-120330897D01*
X165734532Y-120349836D01*
X165743973Y-120369796D01*
X165751412Y-120390586D01*
X165756777Y-120412005D01*
X165760017Y-120433846D01*
X165761100Y-120455900D01*
X165761100Y-128895900D01*
X165760017Y-128917954D01*
X165756777Y-128939795D01*
X165751412Y-128961214D01*
X165743973Y-128982004D01*
X165734532Y-129001964D01*
X165723181Y-129020903D01*
X165710027Y-129038638D01*
X165695199Y-129054999D01*
X165678838Y-129069827D01*
X165661103Y-129082981D01*
X165642164Y-129094332D01*
X165622204Y-129103773D01*
X165601414Y-129111212D01*
X165579995Y-129116577D01*
X165558154Y-129119817D01*
X165536100Y-129120900D01*
X164486100Y-129120900D01*
X164464046Y-129119817D01*
X164442205Y-129116577D01*
X164420786Y-129111212D01*
X164399996Y-129103773D01*
X164380036Y-129094332D01*
X164361097Y-129082981D01*
X164343362Y-129069827D01*
X164327001Y-129054999D01*
X164312173Y-129038638D01*
X164299019Y-129020903D01*
X164287668Y-129001964D01*
X164278227Y-128982004D01*
X164270788Y-128961214D01*
X164265423Y-128939795D01*
X164262183Y-128917954D01*
X164261100Y-128895900D01*
X164261100Y-120455900D01*
X164262183Y-120433846D01*
X164265423Y-120412005D01*
X164270788Y-120390586D01*
X164278227Y-120369796D01*
X164287668Y-120349836D01*
X164299019Y-120330897D01*
X164312173Y-120313162D01*
X164327001Y-120296801D01*
X164343362Y-120281973D01*
X164361097Y-120268819D01*
X164380036Y-120257468D01*
X164399996Y-120248027D01*
X164420786Y-120240588D01*
X164442205Y-120235223D01*
X164464046Y-120231983D01*
X164486100Y-120230900D01*
X165536100Y-120230900D01*
X165558154Y-120231983D01*
X165558154Y-120231983D01*
G37*
D11*
G04 #@! TD*
G04 #@! TO.P,X1,18*
G04 #@! TO.N,D3*
X165011100Y-124675900D03*
D10*
G04 #@! TO.N,D4*
G04 #@! TO.C,X1*
G36*
X163018154Y-120231983D02*
X163039995Y-120235223D01*
X163061414Y-120240588D01*
X163082204Y-120248027D01*
X163102164Y-120257468D01*
X163121103Y-120268819D01*
X163138838Y-120281973D01*
X163155199Y-120296801D01*
X163170027Y-120313162D01*
X163183181Y-120330897D01*
X163194532Y-120349836D01*
X163203973Y-120369796D01*
X163211412Y-120390586D01*
X163216777Y-120412005D01*
X163220017Y-120433846D01*
X163221100Y-120455900D01*
X163221100Y-128895900D01*
X163220017Y-128917954D01*
X163216777Y-128939795D01*
X163211412Y-128961214D01*
X163203973Y-128982004D01*
X163194532Y-129001964D01*
X163183181Y-129020903D01*
X163170027Y-129038638D01*
X163155199Y-129054999D01*
X163138838Y-129069827D01*
X163121103Y-129082981D01*
X163102164Y-129094332D01*
X163082204Y-129103773D01*
X163061414Y-129111212D01*
X163039995Y-129116577D01*
X163018154Y-129119817D01*
X162996100Y-129120900D01*
X161946100Y-129120900D01*
X161924046Y-129119817D01*
X161902205Y-129116577D01*
X161880786Y-129111212D01*
X161859996Y-129103773D01*
X161840036Y-129094332D01*
X161821097Y-129082981D01*
X161803362Y-129069827D01*
X161787001Y-129054999D01*
X161772173Y-129038638D01*
X161759019Y-129020903D01*
X161747668Y-129001964D01*
X161738227Y-128982004D01*
X161730788Y-128961214D01*
X161725423Y-128939795D01*
X161722183Y-128917954D01*
X161721100Y-128895900D01*
X161721100Y-120455900D01*
X161722183Y-120433846D01*
X161725423Y-120412005D01*
X161730788Y-120390586D01*
X161738227Y-120369796D01*
X161747668Y-120349836D01*
X161759019Y-120330897D01*
X161772173Y-120313162D01*
X161787001Y-120296801D01*
X161803362Y-120281973D01*
X161821097Y-120268819D01*
X161840036Y-120257468D01*
X161859996Y-120248027D01*
X161880786Y-120240588D01*
X161902205Y-120235223D01*
X161924046Y-120231983D01*
X161946100Y-120230900D01*
X162996100Y-120230900D01*
X163018154Y-120231983D01*
X163018154Y-120231983D01*
G37*
D11*
G04 #@! TD*
G04 #@! TO.P,X1,17*
G04 #@! TO.N,D4*
X162471100Y-124675900D03*
D10*
G04 #@! TO.N,D5*
G04 #@! TO.C,X1*
G36*
X160478154Y-120231983D02*
X160499995Y-120235223D01*
X160521414Y-120240588D01*
X160542204Y-120248027D01*
X160562164Y-120257468D01*
X160581103Y-120268819D01*
X160598838Y-120281973D01*
X160615199Y-120296801D01*
X160630027Y-120313162D01*
X160643181Y-120330897D01*
X160654532Y-120349836D01*
X160663973Y-120369796D01*
X160671412Y-120390586D01*
X160676777Y-120412005D01*
X160680017Y-120433846D01*
X160681100Y-120455900D01*
X160681100Y-128895900D01*
X160680017Y-128917954D01*
X160676777Y-128939795D01*
X160671412Y-128961214D01*
X160663973Y-128982004D01*
X160654532Y-129001964D01*
X160643181Y-129020903D01*
X160630027Y-129038638D01*
X160615199Y-129054999D01*
X160598838Y-129069827D01*
X160581103Y-129082981D01*
X160562164Y-129094332D01*
X160542204Y-129103773D01*
X160521414Y-129111212D01*
X160499995Y-129116577D01*
X160478154Y-129119817D01*
X160456100Y-129120900D01*
X159406100Y-129120900D01*
X159384046Y-129119817D01*
X159362205Y-129116577D01*
X159340786Y-129111212D01*
X159319996Y-129103773D01*
X159300036Y-129094332D01*
X159281097Y-129082981D01*
X159263362Y-129069827D01*
X159247001Y-129054999D01*
X159232173Y-129038638D01*
X159219019Y-129020903D01*
X159207668Y-129001964D01*
X159198227Y-128982004D01*
X159190788Y-128961214D01*
X159185423Y-128939795D01*
X159182183Y-128917954D01*
X159181100Y-128895900D01*
X159181100Y-120455900D01*
X159182183Y-120433846D01*
X159185423Y-120412005D01*
X159190788Y-120390586D01*
X159198227Y-120369796D01*
X159207668Y-120349836D01*
X159219019Y-120330897D01*
X159232173Y-120313162D01*
X159247001Y-120296801D01*
X159263362Y-120281973D01*
X159281097Y-120268819D01*
X159300036Y-120257468D01*
X159319996Y-120248027D01*
X159340786Y-120240588D01*
X159362205Y-120235223D01*
X159384046Y-120231983D01*
X159406100Y-120230900D01*
X160456100Y-120230900D01*
X160478154Y-120231983D01*
X160478154Y-120231983D01*
G37*
D11*
G04 #@! TD*
G04 #@! TO.P,X1,16*
G04 #@! TO.N,D5*
X159931100Y-124675900D03*
D10*
G04 #@! TO.N,D6*
G04 #@! TO.C,X1*
G36*
X157938154Y-120231983D02*
X157959995Y-120235223D01*
X157981414Y-120240588D01*
X158002204Y-120248027D01*
X158022164Y-120257468D01*
X158041103Y-120268819D01*
X158058838Y-120281973D01*
X158075199Y-120296801D01*
X158090027Y-120313162D01*
X158103181Y-120330897D01*
X158114532Y-120349836D01*
X158123973Y-120369796D01*
X158131412Y-120390586D01*
X158136777Y-120412005D01*
X158140017Y-120433846D01*
X158141100Y-120455900D01*
X158141100Y-128895900D01*
X158140017Y-128917954D01*
X158136777Y-128939795D01*
X158131412Y-128961214D01*
X158123973Y-128982004D01*
X158114532Y-129001964D01*
X158103181Y-129020903D01*
X158090027Y-129038638D01*
X158075199Y-129054999D01*
X158058838Y-129069827D01*
X158041103Y-129082981D01*
X158022164Y-129094332D01*
X158002204Y-129103773D01*
X157981414Y-129111212D01*
X157959995Y-129116577D01*
X157938154Y-129119817D01*
X157916100Y-129120900D01*
X156866100Y-129120900D01*
X156844046Y-129119817D01*
X156822205Y-129116577D01*
X156800786Y-129111212D01*
X156779996Y-129103773D01*
X156760036Y-129094332D01*
X156741097Y-129082981D01*
X156723362Y-129069827D01*
X156707001Y-129054999D01*
X156692173Y-129038638D01*
X156679019Y-129020903D01*
X156667668Y-129001964D01*
X156658227Y-128982004D01*
X156650788Y-128961214D01*
X156645423Y-128939795D01*
X156642183Y-128917954D01*
X156641100Y-128895900D01*
X156641100Y-120455900D01*
X156642183Y-120433846D01*
X156645423Y-120412005D01*
X156650788Y-120390586D01*
X156658227Y-120369796D01*
X156667668Y-120349836D01*
X156679019Y-120330897D01*
X156692173Y-120313162D01*
X156707001Y-120296801D01*
X156723362Y-120281973D01*
X156741097Y-120268819D01*
X156760036Y-120257468D01*
X156779996Y-120248027D01*
X156800786Y-120240588D01*
X156822205Y-120235223D01*
X156844046Y-120231983D01*
X156866100Y-120230900D01*
X157916100Y-120230900D01*
X157938154Y-120231983D01*
X157938154Y-120231983D01*
G37*
D11*
G04 #@! TD*
G04 #@! TO.P,X1,15*
G04 #@! TO.N,D6*
X157391100Y-124675900D03*
D10*
G04 #@! TO.N,D7*
G04 #@! TO.C,X1*
G36*
X155398154Y-120231983D02*
X155419995Y-120235223D01*
X155441414Y-120240588D01*
X155462204Y-120248027D01*
X155482164Y-120257468D01*
X155501103Y-120268819D01*
X155518838Y-120281973D01*
X155535199Y-120296801D01*
X155550027Y-120313162D01*
X155563181Y-120330897D01*
X155574532Y-120349836D01*
X155583973Y-120369796D01*
X155591412Y-120390586D01*
X155596777Y-120412005D01*
X155600017Y-120433846D01*
X155601100Y-120455900D01*
X155601100Y-128895900D01*
X155600017Y-128917954D01*
X155596777Y-128939795D01*
X155591412Y-128961214D01*
X155583973Y-128982004D01*
X155574532Y-129001964D01*
X155563181Y-129020903D01*
X155550027Y-129038638D01*
X155535199Y-129054999D01*
X155518838Y-129069827D01*
X155501103Y-129082981D01*
X155482164Y-129094332D01*
X155462204Y-129103773D01*
X155441414Y-129111212D01*
X155419995Y-129116577D01*
X155398154Y-129119817D01*
X155376100Y-129120900D01*
X154326100Y-129120900D01*
X154304046Y-129119817D01*
X154282205Y-129116577D01*
X154260786Y-129111212D01*
X154239996Y-129103773D01*
X154220036Y-129094332D01*
X154201097Y-129082981D01*
X154183362Y-129069827D01*
X154167001Y-129054999D01*
X154152173Y-129038638D01*
X154139019Y-129020903D01*
X154127668Y-129001964D01*
X154118227Y-128982004D01*
X154110788Y-128961214D01*
X154105423Y-128939795D01*
X154102183Y-128917954D01*
X154101100Y-128895900D01*
X154101100Y-120455900D01*
X154102183Y-120433846D01*
X154105423Y-120412005D01*
X154110788Y-120390586D01*
X154118227Y-120369796D01*
X154127668Y-120349836D01*
X154139019Y-120330897D01*
X154152173Y-120313162D01*
X154167001Y-120296801D01*
X154183362Y-120281973D01*
X154201097Y-120268819D01*
X154220036Y-120257468D01*
X154239996Y-120248027D01*
X154260786Y-120240588D01*
X154282205Y-120235223D01*
X154304046Y-120231983D01*
X154326100Y-120230900D01*
X155376100Y-120230900D01*
X155398154Y-120231983D01*
X155398154Y-120231983D01*
G37*
D11*
G04 #@! TD*
G04 #@! TO.P,X1,14*
G04 #@! TO.N,D7*
X154851100Y-124675900D03*
D10*
G04 #@! TO.N,GND*
G04 #@! TO.C,X1*
G36*
X122378154Y-120231983D02*
X122399995Y-120235223D01*
X122421414Y-120240588D01*
X122442204Y-120248027D01*
X122462164Y-120257468D01*
X122481103Y-120268819D01*
X122498838Y-120281973D01*
X122515199Y-120296801D01*
X122530027Y-120313162D01*
X122543181Y-120330897D01*
X122554532Y-120349836D01*
X122563973Y-120369796D01*
X122571412Y-120390586D01*
X122576777Y-120412005D01*
X122580017Y-120433846D01*
X122581100Y-120455900D01*
X122581100Y-128895900D01*
X122580017Y-128917954D01*
X122576777Y-128939795D01*
X122571412Y-128961214D01*
X122563973Y-128982004D01*
X122554532Y-129001964D01*
X122543181Y-129020903D01*
X122530027Y-129038638D01*
X122515199Y-129054999D01*
X122498838Y-129069827D01*
X122481103Y-129082981D01*
X122462164Y-129094332D01*
X122442204Y-129103773D01*
X122421414Y-129111212D01*
X122399995Y-129116577D01*
X122378154Y-129119817D01*
X122356100Y-129120900D01*
X121306100Y-129120900D01*
X121284046Y-129119817D01*
X121262205Y-129116577D01*
X121240786Y-129111212D01*
X121219996Y-129103773D01*
X121200036Y-129094332D01*
X121181097Y-129082981D01*
X121163362Y-129069827D01*
X121147001Y-129054999D01*
X121132173Y-129038638D01*
X121119019Y-129020903D01*
X121107668Y-129001964D01*
X121098227Y-128982004D01*
X121090788Y-128961214D01*
X121085423Y-128939795D01*
X121082183Y-128917954D01*
X121081100Y-128895900D01*
X121081100Y-120455900D01*
X121082183Y-120433846D01*
X121085423Y-120412005D01*
X121090788Y-120390586D01*
X121098227Y-120369796D01*
X121107668Y-120349836D01*
X121119019Y-120330897D01*
X121132173Y-120313162D01*
X121147001Y-120296801D01*
X121163362Y-120281973D01*
X121181097Y-120268819D01*
X121200036Y-120257468D01*
X121219996Y-120248027D01*
X121240786Y-120240588D01*
X121262205Y-120235223D01*
X121284046Y-120231983D01*
X121306100Y-120230900D01*
X122356100Y-120230900D01*
X122378154Y-120231983D01*
X122378154Y-120231983D01*
G37*
D11*
G04 #@! TD*
G04 #@! TO.P,X1,1*
G04 #@! TO.N,GND*
X121831100Y-124675900D03*
D10*
G04 #@! TO.N,VCC*
G04 #@! TO.C,X1*
G36*
X124918154Y-120231983D02*
X124939995Y-120235223D01*
X124961414Y-120240588D01*
X124982204Y-120248027D01*
X125002164Y-120257468D01*
X125021103Y-120268819D01*
X125038838Y-120281973D01*
X125055199Y-120296801D01*
X125070027Y-120313162D01*
X125083181Y-120330897D01*
X125094532Y-120349836D01*
X125103973Y-120369796D01*
X125111412Y-120390586D01*
X125116777Y-120412005D01*
X125120017Y-120433846D01*
X125121100Y-120455900D01*
X125121100Y-128895900D01*
X125120017Y-128917954D01*
X125116777Y-128939795D01*
X125111412Y-128961214D01*
X125103973Y-128982004D01*
X125094532Y-129001964D01*
X125083181Y-129020903D01*
X125070027Y-129038638D01*
X125055199Y-129054999D01*
X125038838Y-129069827D01*
X125021103Y-129082981D01*
X125002164Y-129094332D01*
X124982204Y-129103773D01*
X124961414Y-129111212D01*
X124939995Y-129116577D01*
X124918154Y-129119817D01*
X124896100Y-129120900D01*
X123846100Y-129120900D01*
X123824046Y-129119817D01*
X123802205Y-129116577D01*
X123780786Y-129111212D01*
X123759996Y-129103773D01*
X123740036Y-129094332D01*
X123721097Y-129082981D01*
X123703362Y-129069827D01*
X123687001Y-129054999D01*
X123672173Y-129038638D01*
X123659019Y-129020903D01*
X123647668Y-129001964D01*
X123638227Y-128982004D01*
X123630788Y-128961214D01*
X123625423Y-128939795D01*
X123622183Y-128917954D01*
X123621100Y-128895900D01*
X123621100Y-120455900D01*
X123622183Y-120433846D01*
X123625423Y-120412005D01*
X123630788Y-120390586D01*
X123638227Y-120369796D01*
X123647668Y-120349836D01*
X123659019Y-120330897D01*
X123672173Y-120313162D01*
X123687001Y-120296801D01*
X123703362Y-120281973D01*
X123721097Y-120268819D01*
X123740036Y-120257468D01*
X123759996Y-120248027D01*
X123780786Y-120240588D01*
X123802205Y-120235223D01*
X123824046Y-120231983D01*
X123846100Y-120230900D01*
X124896100Y-120230900D01*
X124918154Y-120231983D01*
X124918154Y-120231983D01*
G37*
D11*
G04 #@! TD*
G04 #@! TO.P,X1,2*
G04 #@! TO.N,VCC*
X124371100Y-124675900D03*
D10*
G04 #@! TO.N,VCC*
G04 #@! TO.C,X1*
G36*
X127458154Y-120231983D02*
X127479995Y-120235223D01*
X127501414Y-120240588D01*
X127522204Y-120248027D01*
X127542164Y-120257468D01*
X127561103Y-120268819D01*
X127578838Y-120281973D01*
X127595199Y-120296801D01*
X127610027Y-120313162D01*
X127623181Y-120330897D01*
X127634532Y-120349836D01*
X127643973Y-120369796D01*
X127651412Y-120390586D01*
X127656777Y-120412005D01*
X127660017Y-120433846D01*
X127661100Y-120455900D01*
X127661100Y-128895900D01*
X127660017Y-128917954D01*
X127656777Y-128939795D01*
X127651412Y-128961214D01*
X127643973Y-128982004D01*
X127634532Y-129001964D01*
X127623181Y-129020903D01*
X127610027Y-129038638D01*
X127595199Y-129054999D01*
X127578838Y-129069827D01*
X127561103Y-129082981D01*
X127542164Y-129094332D01*
X127522204Y-129103773D01*
X127501414Y-129111212D01*
X127479995Y-129116577D01*
X127458154Y-129119817D01*
X127436100Y-129120900D01*
X126386100Y-129120900D01*
X126364046Y-129119817D01*
X126342205Y-129116577D01*
X126320786Y-129111212D01*
X126299996Y-129103773D01*
X126280036Y-129094332D01*
X126261097Y-129082981D01*
X126243362Y-129069827D01*
X126227001Y-129054999D01*
X126212173Y-129038638D01*
X126199019Y-129020903D01*
X126187668Y-129001964D01*
X126178227Y-128982004D01*
X126170788Y-128961214D01*
X126165423Y-128939795D01*
X126162183Y-128917954D01*
X126161100Y-128895900D01*
X126161100Y-120455900D01*
X126162183Y-120433846D01*
X126165423Y-120412005D01*
X126170788Y-120390586D01*
X126178227Y-120369796D01*
X126187668Y-120349836D01*
X126199019Y-120330897D01*
X126212173Y-120313162D01*
X126227001Y-120296801D01*
X126243362Y-120281973D01*
X126261097Y-120268819D01*
X126280036Y-120257468D01*
X126299996Y-120248027D01*
X126320786Y-120240588D01*
X126342205Y-120235223D01*
X126364046Y-120231983D01*
X126386100Y-120230900D01*
X127436100Y-120230900D01*
X127458154Y-120231983D01*
X127458154Y-120231983D01*
G37*
D11*
G04 #@! TD*
G04 #@! TO.P,X1,3*
G04 #@! TO.N,VCC*
X126911100Y-124675900D03*
D10*
G04 #@! TO.N,~GAME*
G04 #@! TO.C,X1*
G36*
X140158154Y-120231983D02*
X140179995Y-120235223D01*
X140201414Y-120240588D01*
X140222204Y-120248027D01*
X140242164Y-120257468D01*
X140261103Y-120268819D01*
X140278838Y-120281973D01*
X140295199Y-120296801D01*
X140310027Y-120313162D01*
X140323181Y-120330897D01*
X140334532Y-120349836D01*
X140343973Y-120369796D01*
X140351412Y-120390586D01*
X140356777Y-120412005D01*
X140360017Y-120433846D01*
X140361100Y-120455900D01*
X140361100Y-128895900D01*
X140360017Y-128917954D01*
X140356777Y-128939795D01*
X140351412Y-128961214D01*
X140343973Y-128982004D01*
X140334532Y-129001964D01*
X140323181Y-129020903D01*
X140310027Y-129038638D01*
X140295199Y-129054999D01*
X140278838Y-129069827D01*
X140261103Y-129082981D01*
X140242164Y-129094332D01*
X140222204Y-129103773D01*
X140201414Y-129111212D01*
X140179995Y-129116577D01*
X140158154Y-129119817D01*
X140136100Y-129120900D01*
X139086100Y-129120900D01*
X139064046Y-129119817D01*
X139042205Y-129116577D01*
X139020786Y-129111212D01*
X138999996Y-129103773D01*
X138980036Y-129094332D01*
X138961097Y-129082981D01*
X138943362Y-129069827D01*
X138927001Y-129054999D01*
X138912173Y-129038638D01*
X138899019Y-129020903D01*
X138887668Y-129001964D01*
X138878227Y-128982004D01*
X138870788Y-128961214D01*
X138865423Y-128939795D01*
X138862183Y-128917954D01*
X138861100Y-128895900D01*
X138861100Y-120455900D01*
X138862183Y-120433846D01*
X138865423Y-120412005D01*
X138870788Y-120390586D01*
X138878227Y-120369796D01*
X138887668Y-120349836D01*
X138899019Y-120330897D01*
X138912173Y-120313162D01*
X138927001Y-120296801D01*
X138943362Y-120281973D01*
X138961097Y-120268819D01*
X138980036Y-120257468D01*
X138999996Y-120248027D01*
X139020786Y-120240588D01*
X139042205Y-120235223D01*
X139064046Y-120231983D01*
X139086100Y-120230900D01*
X140136100Y-120230900D01*
X140158154Y-120231983D01*
X140158154Y-120231983D01*
G37*
D11*
G04 #@! TD*
G04 #@! TO.P,X1,8*
G04 #@! TO.N,~GAME*
X139611100Y-124675900D03*
D10*
G04 #@! TO.N,~EXROM*
G04 #@! TO.C,X1*
G36*
X142698154Y-120231983D02*
X142719995Y-120235223D01*
X142741414Y-120240588D01*
X142762204Y-120248027D01*
X142782164Y-120257468D01*
X142801103Y-120268819D01*
X142818838Y-120281973D01*
X142835199Y-120296801D01*
X142850027Y-120313162D01*
X142863181Y-120330897D01*
X142874532Y-120349836D01*
X142883973Y-120369796D01*
X142891412Y-120390586D01*
X142896777Y-120412005D01*
X142900017Y-120433846D01*
X142901100Y-120455900D01*
X142901100Y-128895900D01*
X142900017Y-128917954D01*
X142896777Y-128939795D01*
X142891412Y-128961214D01*
X142883973Y-128982004D01*
X142874532Y-129001964D01*
X142863181Y-129020903D01*
X142850027Y-129038638D01*
X142835199Y-129054999D01*
X142818838Y-129069827D01*
X142801103Y-129082981D01*
X142782164Y-129094332D01*
X142762204Y-129103773D01*
X142741414Y-129111212D01*
X142719995Y-129116577D01*
X142698154Y-129119817D01*
X142676100Y-129120900D01*
X141626100Y-129120900D01*
X141604046Y-129119817D01*
X141582205Y-129116577D01*
X141560786Y-129111212D01*
X141539996Y-129103773D01*
X141520036Y-129094332D01*
X141501097Y-129082981D01*
X141483362Y-129069827D01*
X141467001Y-129054999D01*
X141452173Y-129038638D01*
X141439019Y-129020903D01*
X141427668Y-129001964D01*
X141418227Y-128982004D01*
X141410788Y-128961214D01*
X141405423Y-128939795D01*
X141402183Y-128917954D01*
X141401100Y-128895900D01*
X141401100Y-120455900D01*
X141402183Y-120433846D01*
X141405423Y-120412005D01*
X141410788Y-120390586D01*
X141418227Y-120369796D01*
X141427668Y-120349836D01*
X141439019Y-120330897D01*
X141452173Y-120313162D01*
X141467001Y-120296801D01*
X141483362Y-120281973D01*
X141501097Y-120268819D01*
X141520036Y-120257468D01*
X141539996Y-120248027D01*
X141560786Y-120240588D01*
X141582205Y-120235223D01*
X141604046Y-120231983D01*
X141626100Y-120230900D01*
X142676100Y-120230900D01*
X142698154Y-120231983D01*
X142698154Y-120231983D01*
G37*
D11*
G04 #@! TD*
G04 #@! TO.P,X1,9*
G04 #@! TO.N,~EXROM*
X142151100Y-124675900D03*
D10*
G04 #@! TO.N,~ROML*
G04 #@! TO.C,X1*
G36*
X147778154Y-120231983D02*
X147799995Y-120235223D01*
X147821414Y-120240588D01*
X147842204Y-120248027D01*
X147862164Y-120257468D01*
X147881103Y-120268819D01*
X147898838Y-120281973D01*
X147915199Y-120296801D01*
X147930027Y-120313162D01*
X147943181Y-120330897D01*
X147954532Y-120349836D01*
X147963973Y-120369796D01*
X147971412Y-120390586D01*
X147976777Y-120412005D01*
X147980017Y-120433846D01*
X147981100Y-120455900D01*
X147981100Y-128895900D01*
X147980017Y-128917954D01*
X147976777Y-128939795D01*
X147971412Y-128961214D01*
X147963973Y-128982004D01*
X147954532Y-129001964D01*
X147943181Y-129020903D01*
X147930027Y-129038638D01*
X147915199Y-129054999D01*
X147898838Y-129069827D01*
X147881103Y-129082981D01*
X147862164Y-129094332D01*
X147842204Y-129103773D01*
X147821414Y-129111212D01*
X147799995Y-129116577D01*
X147778154Y-129119817D01*
X147756100Y-129120900D01*
X146706100Y-129120900D01*
X146684046Y-129119817D01*
X146662205Y-129116577D01*
X146640786Y-129111212D01*
X146619996Y-129103773D01*
X146600036Y-129094332D01*
X146581097Y-129082981D01*
X146563362Y-129069827D01*
X146547001Y-129054999D01*
X146532173Y-129038638D01*
X146519019Y-129020903D01*
X146507668Y-129001964D01*
X146498227Y-128982004D01*
X146490788Y-128961214D01*
X146485423Y-128939795D01*
X146482183Y-128917954D01*
X146481100Y-128895900D01*
X146481100Y-120455900D01*
X146482183Y-120433846D01*
X146485423Y-120412005D01*
X146490788Y-120390586D01*
X146498227Y-120369796D01*
X146507668Y-120349836D01*
X146519019Y-120330897D01*
X146532173Y-120313162D01*
X146547001Y-120296801D01*
X146563362Y-120281973D01*
X146581097Y-120268819D01*
X146600036Y-120257468D01*
X146619996Y-120248027D01*
X146640786Y-120240588D01*
X146662205Y-120235223D01*
X146684046Y-120231983D01*
X146706100Y-120230900D01*
X147756100Y-120230900D01*
X147778154Y-120231983D01*
X147778154Y-120231983D01*
G37*
D11*
G04 #@! TD*
G04 #@! TO.P,X1,11*
G04 #@! TO.N,~ROML*
X147231100Y-124675900D03*
D12*
G04 #@! TO.P,U1,28*
G04 #@! TO.N,VCC*
X142211100Y-96431100D03*
G04 #@! TO.P,U1,27*
G04 #@! TO.N,ADDR14*
X144751100Y-96431100D03*
G04 #@! TO.P,U1,26*
G04 #@! TO.N,ADDR13*
X147291100Y-96431100D03*
G04 #@! TO.P,U1,25*
G04 #@! TO.N,A8*
X149831100Y-96431100D03*
G04 #@! TO.P,U1,24*
G04 #@! TO.N,A9*
X152371100Y-96431100D03*
G04 #@! TO.P,U1,23*
G04 #@! TO.N,A11*
X154911100Y-96431100D03*
G04 #@! TO.P,U1,22*
G04 #@! TO.N,N$1*
X157451100Y-96431100D03*
G04 #@! TO.P,U1,21*
G04 #@! TO.N,A10*
X159991100Y-96431100D03*
G04 #@! TO.P,U1,20*
G04 #@! TO.N,GND*
X162531100Y-96431100D03*
G04 #@! TO.P,U1,19*
G04 #@! TO.N,D7*
X165071100Y-96431100D03*
G04 #@! TO.P,U1,18*
G04 #@! TO.N,D6*
X167611100Y-96431100D03*
G04 #@! TO.P,U1,17*
G04 #@! TO.N,D5*
X170151100Y-96431100D03*
G04 #@! TO.P,U1,16*
G04 #@! TO.N,D4*
X172691100Y-96431100D03*
G04 #@! TO.P,U1,15*
G04 #@! TO.N,D3*
X175231100Y-96431100D03*
G04 #@! TO.P,U1,14*
G04 #@! TO.N,GND*
X175231100Y-111671100D03*
G04 #@! TO.P,U1,13*
G04 #@! TO.N,D2*
X172691100Y-111671100D03*
G04 #@! TO.P,U1,12*
G04 #@! TO.N,D1*
X170151100Y-111671100D03*
G04 #@! TO.P,U1,11*
G04 #@! TO.N,D0*
X167611100Y-111671100D03*
G04 #@! TO.P,U1,10*
G04 #@! TO.N,A0*
X165071100Y-111671100D03*
G04 #@! TO.P,U1,9*
G04 #@! TO.N,A1*
X162531100Y-111671100D03*
G04 #@! TO.P,U1,8*
G04 #@! TO.N,A2*
X159991100Y-111671100D03*
G04 #@! TO.P,U1,7*
G04 #@! TO.N,A3*
X157451100Y-111671100D03*
G04 #@! TO.P,U1,6*
G04 #@! TO.N,A4*
X154911100Y-111671100D03*
G04 #@! TO.P,U1,5*
G04 #@! TO.N,A5*
X152371100Y-111671100D03*
G04 #@! TO.P,U1,4*
G04 #@! TO.N,A6*
X149831100Y-111671100D03*
G04 #@! TO.P,U1,3*
G04 #@! TO.N,A7*
X147291100Y-111671100D03*
G04 #@! TO.P,U1,2*
G04 #@! TO.N,A12*
X144751100Y-111671100D03*
G04 #@! TO.P,U1,1*
G04 #@! TO.N,ADDR15*
X142211100Y-111671100D03*
G04 #@! TD*
D13*
G04 #@! TO.P,JP2,3*
G04 #@! TO.N,~EXROM*
X134611100Y-111661100D03*
G04 #@! TO.P,JP2,2*
G04 #@! TO.N,GND*
X132071100Y-111661100D03*
G04 #@! TO.P,JP2,1*
G04 #@! TO.N,~GAME*
X129531100Y-111661100D03*
G04 #@! TD*
G04 #@! TO.P,JP1,3*
G04 #@! TO.N,~ROML*
X134611100Y-108486100D03*
G04 #@! TO.P,JP1,2*
G04 #@! TO.N,N$1*
X132071100Y-108486100D03*
G04 #@! TO.P,JP1,1*
G04 #@! TO.N,~ROMH*
X129531100Y-108486100D03*
G04 #@! TD*
D14*
G04 #@! TO.P,R1,2*
G04 #@! TO.N,ADDR13*
X149831100Y-100241100D03*
G04 #@! TO.P,R1,1*
G04 #@! TO.N,VCC*
X149831100Y-107861100D03*
G04 #@! TD*
G04 #@! TO.P,R2,2*
G04 #@! TO.N,ADDR14*
X147291100Y-100241100D03*
G04 #@! TO.P,R2,1*
G04 #@! TO.N,VCC*
X147291100Y-107861100D03*
G04 #@! TD*
G04 #@! TO.P,R3,2*
G04 #@! TO.N,ADDR15*
X144751100Y-107861100D03*
G04 #@! TO.P,R3,1*
G04 #@! TO.N,VCC*
X144751100Y-100241100D03*
G04 #@! TD*
G04 #@! TO.P,C1,2*
G04 #@! TO.N,GND*
X139036100Y-96431100D03*
G04 #@! TO.P,C1,1*
G04 #@! TO.N,VCC*
X139036100Y-98971100D03*
G04 #@! TD*
D13*
G04 #@! TO.P,A13,2*
G04 #@! TO.N,A13*
X134611100Y-105311100D03*
G04 #@! TO.P,A13,1*
G04 #@! TO.N,ADDR13*
X132071100Y-105311100D03*
G04 #@! TD*
D15*
G04 #@! TO.N,GND*
X121860000Y-117480000D03*
X175170000Y-117310000D03*
D16*
G04 #@! TO.N,A10*
X147231100Y-118021100D03*
G04 #@! TO.N,A9*
X149771100Y-118021100D03*
G04 #@! TO.N,A8*
X152311100Y-118021100D03*
D17*
G04 #@! TO.N,ADDR13*
X139036100Y-101511100D03*
G04 #@! TO.N,ADDR14*
X139036100Y-104051100D03*
G04 #@! TO.N,ADDR15*
X139036100Y-106591100D03*
G04 #@! TD*
D18*
G04 #@! TO.N,GND*
X175171100Y-119291100D02*
X175171100Y-124675900D01*
X121831100Y-124675900D02*
X121831100Y-117508900D01*
D19*
X131991100Y-112941100D02*
X131991100Y-111671100D01*
D18*
X175170000Y-119290000D02*
X175170000Y-117310000D01*
D20*
G04 #@! TO.N,VCC*
X132928900Y-98971100D02*
X139036100Y-98971100D01*
X126911100Y-104988900D02*
X132928900Y-98971100D01*
X141576100Y-96431100D02*
X142211100Y-96431100D01*
X139036100Y-98971100D02*
X141576100Y-96431100D01*
X126911100Y-115900000D02*
X126911100Y-116418900D01*
X126911100Y-115900000D02*
X126911100Y-104988900D01*
X126911100Y-124675900D02*
X126911100Y-115900000D01*
X124371100Y-118958900D02*
X124371100Y-124675900D01*
X126911100Y-116418900D02*
X124371100Y-118958900D01*
D19*
G04 #@! TO.N,~ROML*
X147231100Y-124675900D02*
X147231100Y-119291100D01*
X136426100Y-108486100D02*
X134611100Y-108486100D01*
X147231100Y-119291100D02*
X136426100Y-108486100D01*
G04 #@! TO.N,D7*
X165071100Y-98005900D02*
X165060000Y-98017000D01*
X165071100Y-96431100D02*
X165071100Y-98005900D01*
X153971290Y-110408710D02*
X165060000Y-99320000D01*
X153971290Y-113250190D02*
X153971290Y-110408710D01*
X154851100Y-114130000D02*
X153971290Y-113250190D01*
X154851100Y-124675900D02*
X154851100Y-114130000D01*
X165060000Y-98017000D02*
X165060000Y-99320000D01*
G04 #@! TO.N,D6*
X167611100Y-98005900D02*
X167602200Y-98014800D01*
X167611100Y-96431100D02*
X167611100Y-98005900D01*
X156511290Y-113020190D02*
X156511290Y-110320910D01*
X157391100Y-113900000D02*
X156511290Y-113020190D01*
X157391100Y-124675900D02*
X157391100Y-113900000D01*
X156511290Y-110320910D02*
X167602200Y-99230000D01*
X167602200Y-98014800D02*
X167602200Y-99230000D01*
G04 #@! TO.N,D5*
X170151100Y-98005900D02*
X170152200Y-98007000D01*
X170151100Y-96431100D02*
X170151100Y-98005900D01*
X159051290Y-110420910D02*
X170152200Y-99320000D01*
X159051290Y-113250190D02*
X159051290Y-110420910D01*
X159931100Y-114130000D02*
X159051290Y-113250190D01*
X159931100Y-124675900D02*
X159931100Y-114130000D01*
X170152200Y-98007000D02*
X170152200Y-99320000D01*
G04 #@! TO.N,D4*
X172691100Y-98005900D02*
X172690000Y-98007000D01*
X172691100Y-96431100D02*
X172691100Y-98005900D01*
X161591290Y-110338710D02*
X172690000Y-99240000D01*
X161591290Y-113350190D02*
X161591290Y-110338710D01*
X162471100Y-114230000D02*
X161591290Y-113350190D01*
X162471100Y-124675900D02*
X162471100Y-114230000D01*
X172690000Y-98007000D02*
X172690000Y-99240000D01*
G04 #@! TO.N,D3*
X164040000Y-110261100D02*
X175231100Y-99070000D01*
X164040000Y-113598900D02*
X164040000Y-110261100D01*
X165011100Y-114570000D02*
X164040000Y-113598900D01*
X165011100Y-124675900D02*
X165011100Y-114570000D01*
X175231100Y-96431100D02*
X175231100Y-99070000D01*
G04 #@! TO.N,D2*
X172691100Y-110096300D02*
X171150000Y-108555200D01*
X172691100Y-111671100D02*
X172691100Y-110096300D01*
X171150000Y-108555200D02*
X167854800Y-108555200D01*
X167854800Y-108555200D02*
X166350000Y-110060000D01*
X166350000Y-110060000D02*
X166350000Y-115830000D01*
X167551100Y-117031100D02*
X167551100Y-124675900D01*
X166350000Y-115830000D02*
X167551100Y-117031100D01*
G04 #@! TO.N,D1*
X170151100Y-112991100D02*
X170151100Y-111671100D01*
X170091100Y-124675900D02*
X170091100Y-113051100D01*
X170091100Y-113051100D02*
X170151100Y-112991100D01*
G04 #@! TO.N,D0*
X167611100Y-110096300D02*
X168307400Y-109400000D01*
X167611100Y-111671100D02*
X167611100Y-110096300D01*
X168307400Y-109400000D02*
X170840000Y-109400000D01*
X170840000Y-109400000D02*
X171380000Y-109940000D01*
X171380000Y-109940000D02*
X171380000Y-117500000D01*
X172631100Y-118751100D02*
X172631100Y-124675900D01*
X171380000Y-117500000D02*
X172631100Y-118751100D01*
G04 #@! TO.N,~EXROM*
X142151100Y-124675900D02*
X142151100Y-118021100D01*
X135791100Y-111661100D02*
X134611100Y-111661100D01*
X142151100Y-118021100D02*
X135791100Y-111661100D01*
G04 #@! TO.N,~GAME*
X139611100Y-124675900D02*
X139611100Y-120561100D01*
X139611100Y-124675900D02*
X139611100Y-118821100D01*
X139611100Y-118821100D02*
X137370000Y-116580000D01*
X129531100Y-112372300D02*
X129531100Y-111661100D01*
X133738800Y-116580000D02*
X129531100Y-112372300D01*
X137370000Y-116580000D02*
X133738800Y-116580000D01*
G04 #@! TO.N,A13*
X134531100Y-105321100D02*
X134531100Y-104051100D01*
G04 #@! TO.N,A10*
X158920000Y-93891100D02*
X159391100Y-93891100D01*
X159991100Y-94491100D02*
X159991100Y-96431100D01*
X159391100Y-93891100D02*
X159991100Y-94491100D01*
X146260000Y-106292200D02*
X147430000Y-105122200D01*
X146260000Y-112728900D02*
X146260000Y-106292200D01*
X147231100Y-113700000D02*
X146260000Y-112728900D01*
X147231100Y-118021100D02*
X147231100Y-113700000D01*
X150381608Y-93891100D02*
X148470000Y-95802708D01*
X150600000Y-93891100D02*
X150381608Y-93891100D01*
X148470000Y-95802708D02*
X148470000Y-104082200D01*
X150406100Y-93891100D02*
X150600000Y-93891100D01*
X150600000Y-93891100D02*
X158920000Y-93891100D01*
X147430000Y-105122200D02*
X148470000Y-104082200D01*
G04 #@! TO.N,A9*
X148891290Y-113830190D02*
X148891290Y-110585660D01*
X149771100Y-118021100D02*
X149771100Y-114710000D01*
X149771100Y-114710000D02*
X148891290Y-113830190D01*
X152786950Y-98421750D02*
X152786950Y-106690000D01*
X152371100Y-96431100D02*
X152371100Y-98005900D01*
X148891290Y-110585660D02*
X152786950Y-106690000D01*
X152371100Y-98005900D02*
X152786950Y-98421750D01*
G04 #@! TO.N,A8*
X151071800Y-94530000D02*
X149831100Y-95770700D01*
X155180000Y-94530000D02*
X151071800Y-94530000D01*
X152311100Y-118021100D02*
X152311100Y-114360000D01*
X149831100Y-95770700D02*
X149831100Y-96431100D01*
X151431290Y-110621418D02*
X156020000Y-106032708D01*
X152311100Y-114360000D02*
X151431290Y-113480190D01*
X151431290Y-113480190D02*
X151431290Y-110621418D01*
X156020000Y-95370000D02*
X155180000Y-94530000D01*
X156020000Y-106032708D02*
X156020000Y-95370000D01*
G04 #@! TO.N,ADDR13*
X140246100Y-101511100D02*
X142786100Y-98971100D01*
X135159900Y-101511100D02*
X132071100Y-104599900D01*
X132071100Y-104599900D02*
X132071100Y-105311100D01*
X140246100Y-101511100D02*
X135159900Y-101511100D01*
X147291100Y-98005900D02*
X146325900Y-98971100D01*
X147291100Y-96431100D02*
X147291100Y-98005900D01*
X142786100Y-98971100D02*
X146290000Y-98971100D01*
G04 #@! TO.N,ADDR14*
X146630701Y-100901499D02*
X146629601Y-100901499D01*
X147291100Y-100241100D02*
X146630701Y-100901499D01*
X146629601Y-100901499D02*
X143480000Y-104051100D01*
X140580000Y-104051100D02*
X143480000Y-104051100D01*
X140580000Y-104051100D02*
X139036100Y-104051100D01*
G04 #@! TD*
G04 #@! TO.N,GND*
G36*
X176898987Y-119831503D02*
X176083127Y-119831503D01*
X176046818Y-119816463D01*
X175963550Y-119799900D01*
X175303850Y-119799900D01*
X175272247Y-119831503D01*
X175069953Y-119831503D01*
X175038350Y-119799900D01*
X174378650Y-119799900D01*
X174295382Y-119816463D01*
X174259073Y-119831503D01*
X173085100Y-119831503D01*
X173085100Y-118773388D01*
X173087295Y-118751100D01*
X173085100Y-118728812D01*
X173085100Y-118728805D01*
X173078530Y-118662101D01*
X173052570Y-118576521D01*
X173010413Y-118497651D01*
X172953679Y-118428521D01*
X172936364Y-118414311D01*
X171834000Y-117311948D01*
X171834000Y-112822602D01*
X171866136Y-112882724D01*
X171989526Y-113033075D01*
X172139877Y-113156465D01*
X172311411Y-113248152D01*
X172497537Y-113304613D01*
X172691100Y-113323677D01*
X172884664Y-113304613D01*
X173070790Y-113248152D01*
X173242324Y-113156465D01*
X173392675Y-113033075D01*
X173516065Y-112882724D01*
X173607752Y-112711190D01*
X173664213Y-112525064D01*
X173678500Y-112380003D01*
X173678500Y-111696100D01*
X174139700Y-111696100D01*
X174139700Y-112356500D01*
X174165548Y-112568941D01*
X174232345Y-112772258D01*
X174337523Y-112958636D01*
X174477041Y-113120914D01*
X174645537Y-113252855D01*
X174836536Y-113349389D01*
X175035720Y-113405270D01*
X175206100Y-113314832D01*
X175206100Y-111696100D01*
X175256100Y-111696100D01*
X175256100Y-113314832D01*
X175426480Y-113405270D01*
X175625664Y-113349389D01*
X175816663Y-113252855D01*
X175985159Y-113120914D01*
X176124677Y-112958636D01*
X176229855Y-112772258D01*
X176296652Y-112568941D01*
X176322500Y-112356500D01*
X176322500Y-111696100D01*
X175256100Y-111696100D01*
X175206100Y-111696100D01*
X174139700Y-111696100D01*
X173678500Y-111696100D01*
X173678500Y-110985700D01*
X174139700Y-110985700D01*
X174139700Y-111646100D01*
X175206100Y-111646100D01*
X175206100Y-110027368D01*
X175256100Y-110027368D01*
X175256100Y-111646100D01*
X176322500Y-111646100D01*
X176322500Y-110985700D01*
X176296652Y-110773259D01*
X176229855Y-110569942D01*
X176124677Y-110383564D01*
X175985159Y-110221286D01*
X175816663Y-110089345D01*
X175625664Y-109992811D01*
X175426480Y-109936930D01*
X175256100Y-110027368D01*
X175206100Y-110027368D01*
X175035720Y-109936930D01*
X174836536Y-109992811D01*
X174645537Y-110089345D01*
X174477041Y-110221286D01*
X174337523Y-110383564D01*
X174232345Y-110569942D01*
X174165548Y-110773259D01*
X174139700Y-110985700D01*
X173678500Y-110985700D01*
X173678500Y-110962197D01*
X173664213Y-110817136D01*
X173607752Y-110631010D01*
X173516065Y-110459476D01*
X173392675Y-110309125D01*
X173242324Y-110185735D01*
X173145100Y-110133768D01*
X173145100Y-110118588D01*
X173147295Y-110096300D01*
X173145100Y-110074012D01*
X173145100Y-110074005D01*
X173138530Y-110007301D01*
X173112570Y-109921721D01*
X173070413Y-109842851D01*
X173013679Y-109773721D01*
X172996363Y-109759510D01*
X171486794Y-108249942D01*
X171472579Y-108232621D01*
X171403449Y-108175887D01*
X171324579Y-108133730D01*
X171238999Y-108107770D01*
X171172295Y-108101200D01*
X171172288Y-108101200D01*
X171150000Y-108099005D01*
X171127712Y-108101200D01*
X167877088Y-108101200D01*
X167854800Y-108099005D01*
X167832512Y-108101200D01*
X167832505Y-108101200D01*
X167765801Y-108107770D01*
X167680221Y-108133730D01*
X167601351Y-108175887D01*
X167532221Y-108232621D01*
X167518010Y-108249937D01*
X166044742Y-109723206D01*
X166027421Y-109737421D01*
X165970687Y-109806552D01*
X165939599Y-109864714D01*
X165928530Y-109885422D01*
X165907170Y-109955839D01*
X165902570Y-109971002D01*
X165896000Y-110037706D01*
X165896000Y-110037712D01*
X165893805Y-110060000D01*
X165896000Y-110082288D01*
X165896000Y-110459397D01*
X165772675Y-110309125D01*
X165622324Y-110185735D01*
X165450789Y-110094048D01*
X165264663Y-110037587D01*
X165071100Y-110018523D01*
X164908627Y-110034525D01*
X175536363Y-99406790D01*
X175553679Y-99392579D01*
X175610413Y-99323449D01*
X175652570Y-99244579D01*
X175653959Y-99240001D01*
X175678530Y-99159000D01*
X175680303Y-99141001D01*
X175685100Y-99092295D01*
X175685100Y-99092289D01*
X175687295Y-99070001D01*
X175685100Y-99047713D01*
X175685100Y-97968432D01*
X175782324Y-97916465D01*
X175932675Y-97793075D01*
X176056065Y-97642724D01*
X176147752Y-97471190D01*
X176204213Y-97285064D01*
X176218500Y-97140003D01*
X176218500Y-95722197D01*
X176204213Y-95577136D01*
X176147752Y-95391010D01*
X176056065Y-95219476D01*
X175932675Y-95069125D01*
X175782324Y-94945735D01*
X175610789Y-94854048D01*
X175424663Y-94797587D01*
X175231100Y-94778523D01*
X175037536Y-94797587D01*
X174851410Y-94854048D01*
X174679876Y-94945735D01*
X174529525Y-95069125D01*
X174406135Y-95219476D01*
X174314448Y-95391011D01*
X174257987Y-95577137D01*
X174243700Y-95722198D01*
X174243701Y-97140003D01*
X174257988Y-97285064D01*
X174314449Y-97471190D01*
X174406136Y-97642724D01*
X174529526Y-97793075D01*
X174679877Y-97916465D01*
X174777101Y-97968432D01*
X174777101Y-98881946D01*
X163734738Y-109924310D01*
X163717422Y-109938521D01*
X163660688Y-110007651D01*
X163638154Y-110049809D01*
X163618530Y-110086522D01*
X163592570Y-110172101D01*
X163583805Y-110261100D01*
X163586001Y-110283398D01*
X163586000Y-113576612D01*
X163583805Y-113598900D01*
X163586000Y-113621188D01*
X163586000Y-113621194D01*
X163588498Y-113646551D01*
X163592570Y-113687899D01*
X163617979Y-113771660D01*
X163618530Y-113773478D01*
X163660687Y-113852348D01*
X163717421Y-113921479D01*
X163734742Y-113935694D01*
X164557101Y-114758054D01*
X164557100Y-119831503D01*
X162925100Y-119831503D01*
X162925100Y-114252287D01*
X162927295Y-114229999D01*
X162925100Y-114207711D01*
X162925100Y-114207705D01*
X162918530Y-114141001D01*
X162916847Y-114135451D01*
X162892570Y-114055421D01*
X162882612Y-114036791D01*
X162850413Y-113976551D01*
X162793679Y-113907421D01*
X162776363Y-113893210D01*
X162108216Y-113225064D01*
X162151411Y-113248152D01*
X162337537Y-113304613D01*
X162531100Y-113323677D01*
X162724664Y-113304613D01*
X162910790Y-113248152D01*
X163082324Y-113156465D01*
X163232675Y-113033075D01*
X163356065Y-112882724D01*
X163447752Y-112711190D01*
X163504213Y-112525064D01*
X163518500Y-112380003D01*
X163518500Y-110962197D01*
X163504213Y-110817136D01*
X163447752Y-110631010D01*
X163356065Y-110459476D01*
X163232675Y-110309125D01*
X163082324Y-110185735D01*
X162910789Y-110094048D01*
X162724663Y-110037587D01*
X162551518Y-110020534D01*
X172995263Y-99576790D01*
X173012579Y-99562579D01*
X173069313Y-99493449D01*
X173111470Y-99414579D01*
X173118146Y-99392570D01*
X173137430Y-99329000D01*
X173142614Y-99276362D01*
X173144000Y-99262295D01*
X173144000Y-99262289D01*
X173146195Y-99240001D01*
X173144000Y-99217713D01*
X173144000Y-98039363D01*
X173145100Y-98028195D01*
X173145100Y-98028188D01*
X173147295Y-98005900D01*
X173145100Y-97983612D01*
X173145100Y-97968432D01*
X173242324Y-97916465D01*
X173392675Y-97793075D01*
X173516065Y-97642724D01*
X173607752Y-97471190D01*
X173664213Y-97285064D01*
X173678500Y-97140003D01*
X173678500Y-95722197D01*
X173664213Y-95577136D01*
X173607752Y-95391010D01*
X173516065Y-95219476D01*
X173392675Y-95069125D01*
X173242324Y-94945735D01*
X173070789Y-94854048D01*
X172884663Y-94797587D01*
X172691100Y-94778523D01*
X172497536Y-94797587D01*
X172311410Y-94854048D01*
X172139876Y-94945735D01*
X171989525Y-95069125D01*
X171866135Y-95219476D01*
X171774448Y-95391011D01*
X171717987Y-95577137D01*
X171703700Y-95722198D01*
X171703701Y-97140003D01*
X171717988Y-97285064D01*
X171774449Y-97471190D01*
X171866136Y-97642724D01*
X171989526Y-97793075D01*
X172139877Y-97916465D01*
X172237101Y-97968432D01*
X172237101Y-97973528D01*
X172236000Y-97984706D01*
X172236000Y-97984712D01*
X172233805Y-98007000D01*
X172236000Y-98029288D01*
X172236001Y-99051946D01*
X161286028Y-110001920D01*
X161268712Y-110016131D01*
X161254501Y-110033447D01*
X161254499Y-110033449D01*
X161247812Y-110041597D01*
X161211978Y-110085261D01*
X161196308Y-110114578D01*
X161169820Y-110164132D01*
X161143860Y-110249711D01*
X161135095Y-110338710D01*
X161137291Y-110361008D01*
X161137290Y-113327902D01*
X161135095Y-113350190D01*
X161137290Y-113372478D01*
X161137290Y-113372484D01*
X161140859Y-113408720D01*
X161143860Y-113439189D01*
X161160304Y-113493399D01*
X161169820Y-113524768D01*
X161211977Y-113603638D01*
X161268711Y-113672769D01*
X161286032Y-113686984D01*
X162017101Y-114418054D01*
X162017100Y-119831503D01*
X160385100Y-119831503D01*
X160385100Y-114152287D01*
X160387295Y-114129999D01*
X160385100Y-114107711D01*
X160385100Y-114107705D01*
X160378530Y-114041001D01*
X160352570Y-113955421D01*
X160310413Y-113876551D01*
X160253679Y-113807421D01*
X160236363Y-113793210D01*
X159726093Y-113282941D01*
X159797537Y-113304613D01*
X159991100Y-113323677D01*
X160184664Y-113304613D01*
X160370790Y-113248152D01*
X160542324Y-113156465D01*
X160692675Y-113033075D01*
X160816065Y-112882724D01*
X160907752Y-112711190D01*
X160964213Y-112525064D01*
X160978500Y-112380003D01*
X160978500Y-110962197D01*
X160964213Y-110817136D01*
X160907752Y-110631010D01*
X160816065Y-110459476D01*
X160692675Y-110309125D01*
X160542324Y-110185735D01*
X160370789Y-110094048D01*
X160184663Y-110037587D01*
X160086348Y-110027904D01*
X170457463Y-99656790D01*
X170474779Y-99642579D01*
X170531513Y-99573449D01*
X170573670Y-99494579D01*
X170599630Y-99408999D01*
X170606200Y-99342295D01*
X170606200Y-99342286D01*
X170608395Y-99320001D01*
X170606200Y-99297716D01*
X170606200Y-98029288D01*
X170608395Y-98007000D01*
X170606200Y-97984712D01*
X170606200Y-97984705D01*
X170605100Y-97973537D01*
X170605100Y-97968432D01*
X170702324Y-97916465D01*
X170852675Y-97793075D01*
X170976065Y-97642724D01*
X171067752Y-97471190D01*
X171124213Y-97285064D01*
X171138500Y-97140003D01*
X171138500Y-95722197D01*
X171124213Y-95577136D01*
X171067752Y-95391010D01*
X170976065Y-95219476D01*
X170852675Y-95069125D01*
X170702324Y-94945735D01*
X170530789Y-94854048D01*
X170344663Y-94797587D01*
X170151100Y-94778523D01*
X169957536Y-94797587D01*
X169771410Y-94854048D01*
X169599876Y-94945735D01*
X169449525Y-95069125D01*
X169326135Y-95219476D01*
X169234448Y-95391011D01*
X169177987Y-95577137D01*
X169163700Y-95722198D01*
X169163701Y-97140003D01*
X169177988Y-97285064D01*
X169234449Y-97471190D01*
X169326136Y-97642724D01*
X169449526Y-97793075D01*
X169599877Y-97916465D01*
X169697101Y-97968432D01*
X169697101Y-97983602D01*
X169694905Y-98005900D01*
X169698200Y-98039358D01*
X169698201Y-99131946D01*
X158746028Y-110084120D01*
X158728712Y-110098331D01*
X158671978Y-110167461D01*
X158658088Y-110193448D01*
X158629820Y-110246332D01*
X158603860Y-110331911D01*
X158595095Y-110420910D01*
X158597291Y-110443208D01*
X158597290Y-113227902D01*
X158595095Y-113250190D01*
X158597290Y-113272478D01*
X158597290Y-113272484D01*
X158601461Y-113314832D01*
X158603860Y-113339189D01*
X158614418Y-113373995D01*
X158629820Y-113424768D01*
X158671977Y-113503638D01*
X158728711Y-113572769D01*
X158746032Y-113586984D01*
X159477101Y-114318054D01*
X159477100Y-119831503D01*
X157845100Y-119831503D01*
X157845100Y-113922287D01*
X157847295Y-113899999D01*
X157845100Y-113877711D01*
X157845100Y-113877705D01*
X157838530Y-113811001D01*
X157837781Y-113808530D01*
X157812570Y-113725421D01*
X157770413Y-113646551D01*
X157713679Y-113577421D01*
X157696363Y-113563210D01*
X157456316Y-113323163D01*
X157644664Y-113304613D01*
X157830790Y-113248152D01*
X158002324Y-113156465D01*
X158152675Y-113033075D01*
X158276065Y-112882724D01*
X158367752Y-112711190D01*
X158424213Y-112525064D01*
X158438500Y-112380003D01*
X158438500Y-110962197D01*
X158424213Y-110817136D01*
X158367752Y-110631010D01*
X158276065Y-110459476D01*
X158152675Y-110309125D01*
X158002324Y-110185735D01*
X157830789Y-110094048D01*
X157644663Y-110037587D01*
X157455314Y-110018938D01*
X167907463Y-99566790D01*
X167924779Y-99552579D01*
X167981513Y-99483449D01*
X168023670Y-99404579D01*
X168040887Y-99347821D01*
X168049630Y-99319000D01*
X168052324Y-99291645D01*
X168056200Y-99252295D01*
X168056200Y-99252289D01*
X168058395Y-99230001D01*
X168056200Y-99207713D01*
X168056200Y-98102580D01*
X168058530Y-98094899D01*
X168065100Y-98028195D01*
X168065100Y-98028188D01*
X168067295Y-98005900D01*
X168065100Y-97983612D01*
X168065100Y-97968432D01*
X168162324Y-97916465D01*
X168312675Y-97793075D01*
X168436065Y-97642724D01*
X168527752Y-97471190D01*
X168584213Y-97285064D01*
X168598500Y-97140003D01*
X168598500Y-95722197D01*
X168584213Y-95577136D01*
X168527752Y-95391010D01*
X168436065Y-95219476D01*
X168312675Y-95069125D01*
X168162324Y-94945735D01*
X167990789Y-94854048D01*
X167804663Y-94797587D01*
X167611100Y-94778523D01*
X167417536Y-94797587D01*
X167231410Y-94854048D01*
X167059876Y-94945735D01*
X166909525Y-95069125D01*
X166786135Y-95219476D01*
X166694448Y-95391011D01*
X166637987Y-95577137D01*
X166623700Y-95722198D01*
X166623701Y-97140003D01*
X166637988Y-97285064D01*
X166694449Y-97471190D01*
X166786136Y-97642724D01*
X166909526Y-97793075D01*
X167059877Y-97916465D01*
X167150898Y-97965117D01*
X167148200Y-97992506D01*
X167148200Y-97992512D01*
X167146005Y-98014800D01*
X167148200Y-98037088D01*
X167148201Y-99041946D01*
X156206028Y-109984120D01*
X156188712Y-109998331D01*
X156174501Y-110015647D01*
X156174499Y-110015649D01*
X156164882Y-110027368D01*
X156131978Y-110067461D01*
X156123944Y-110082492D01*
X156089820Y-110146332D01*
X156063860Y-110231911D01*
X156055095Y-110320910D01*
X156057291Y-110343208D01*
X156057290Y-112997902D01*
X156055095Y-113020190D01*
X156057290Y-113042478D01*
X156057290Y-113042484D01*
X156060553Y-113075612D01*
X156063860Y-113109189D01*
X156076352Y-113150370D01*
X156089820Y-113194768D01*
X156131977Y-113273638D01*
X156188711Y-113342769D01*
X156206032Y-113356984D01*
X156937101Y-114088054D01*
X156937100Y-119831503D01*
X155305100Y-119831503D01*
X155305100Y-114152287D01*
X155307295Y-114129999D01*
X155305100Y-114107711D01*
X155305100Y-114107705D01*
X155298530Y-114041001D01*
X155272570Y-113955421D01*
X155230413Y-113876551D01*
X155173679Y-113807421D01*
X155156363Y-113793210D01*
X154646093Y-113282941D01*
X154717537Y-113304613D01*
X154911100Y-113323677D01*
X155104664Y-113304613D01*
X155290790Y-113248152D01*
X155462324Y-113156465D01*
X155612675Y-113033075D01*
X155736065Y-112882724D01*
X155827752Y-112711190D01*
X155884213Y-112525064D01*
X155898500Y-112380003D01*
X155898500Y-110962197D01*
X155884213Y-110817136D01*
X155827752Y-110631010D01*
X155736065Y-110459476D01*
X155612675Y-110309125D01*
X155462324Y-110185735D01*
X155290789Y-110094048D01*
X155104663Y-110037587D01*
X154995242Y-110026810D01*
X165365263Y-99656790D01*
X165382579Y-99642579D01*
X165439313Y-99573449D01*
X165481470Y-99494579D01*
X165495201Y-99449313D01*
X165507430Y-99409000D01*
X165510753Y-99375262D01*
X165514000Y-99342295D01*
X165514000Y-99342289D01*
X165516195Y-99320001D01*
X165514000Y-99297713D01*
X165514000Y-98109833D01*
X165518530Y-98094899D01*
X165525100Y-98028195D01*
X165525100Y-98028188D01*
X165527295Y-98005900D01*
X165525100Y-97983612D01*
X165525100Y-97968432D01*
X165622324Y-97916465D01*
X165772675Y-97793075D01*
X165896065Y-97642724D01*
X165987752Y-97471190D01*
X166044213Y-97285064D01*
X166058500Y-97140003D01*
X166058500Y-95722197D01*
X166044213Y-95577136D01*
X165987752Y-95391010D01*
X165896065Y-95219476D01*
X165772675Y-95069125D01*
X165622324Y-94945735D01*
X165450789Y-94854048D01*
X165264663Y-94797587D01*
X165071100Y-94778523D01*
X164877536Y-94797587D01*
X164691410Y-94854048D01*
X164519876Y-94945735D01*
X164369525Y-95069125D01*
X164246135Y-95219476D01*
X164154448Y-95391011D01*
X164097987Y-95577137D01*
X164083700Y-95722198D01*
X164083701Y-97140003D01*
X164097988Y-97285064D01*
X164154449Y-97471190D01*
X164246136Y-97642724D01*
X164369526Y-97793075D01*
X164519877Y-97916465D01*
X164609014Y-97964110D01*
X164606000Y-97994706D01*
X164606000Y-97994712D01*
X164603805Y-98017000D01*
X164606000Y-98039288D01*
X164606001Y-99131946D01*
X153666028Y-110071920D01*
X153648712Y-110086131D01*
X153591978Y-110155261D01*
X153582977Y-110172101D01*
X153549820Y-110234132D01*
X153523860Y-110319711D01*
X153515095Y-110408710D01*
X153517291Y-110431008D01*
X153517290Y-113227902D01*
X153515095Y-113250190D01*
X153517290Y-113272478D01*
X153517290Y-113272484D01*
X153521461Y-113314832D01*
X153523860Y-113339189D01*
X153534418Y-113373995D01*
X153549820Y-113424768D01*
X153591977Y-113503638D01*
X153648711Y-113572769D01*
X153666032Y-113586984D01*
X154397101Y-114318054D01*
X154397100Y-119831503D01*
X147685100Y-119831503D01*
X147685100Y-119313388D01*
X147687295Y-119291100D01*
X147685100Y-119268812D01*
X147685100Y-119268805D01*
X147678530Y-119202101D01*
X147652570Y-119116521D01*
X147610413Y-119037651D01*
X147553679Y-118968521D01*
X147536363Y-118954310D01*
X147370161Y-118788108D01*
X147458443Y-118770548D01*
X147600284Y-118711795D01*
X147727938Y-118626499D01*
X147836499Y-118517938D01*
X147921795Y-118390284D01*
X147980548Y-118248443D01*
X148010500Y-118097864D01*
X148010500Y-117944336D01*
X147980548Y-117793757D01*
X147921795Y-117651916D01*
X147836499Y-117524262D01*
X147727938Y-117415701D01*
X147685100Y-117387077D01*
X147685100Y-113722288D01*
X147687295Y-113700000D01*
X147685100Y-113677712D01*
X147685100Y-113677705D01*
X147678530Y-113611001D01*
X147676297Y-113603638D01*
X147652570Y-113525421D01*
X147640927Y-113503639D01*
X147610413Y-113446551D01*
X147553679Y-113377421D01*
X147536363Y-113363210D01*
X147478384Y-113305231D01*
X147484664Y-113304613D01*
X147670790Y-113248152D01*
X147842324Y-113156465D01*
X147992675Y-113033075D01*
X148116065Y-112882724D01*
X148207752Y-112711190D01*
X148264213Y-112525064D01*
X148278500Y-112380003D01*
X148278500Y-110962197D01*
X148264213Y-110817136D01*
X148207752Y-110631010D01*
X148116065Y-110459476D01*
X147992675Y-110309125D01*
X147842324Y-110185735D01*
X147670789Y-110094048D01*
X147484663Y-110037587D01*
X147291100Y-110018523D01*
X147097536Y-110037587D01*
X146911410Y-110094048D01*
X146739876Y-110185735D01*
X146714000Y-110206971D01*
X146714000Y-108663030D01*
X146823391Y-108736123D01*
X147003086Y-108810555D01*
X147193850Y-108848500D01*
X147388350Y-108848500D01*
X147579114Y-108810555D01*
X147758809Y-108736123D01*
X147920531Y-108628064D01*
X148058064Y-108490531D01*
X148166123Y-108328809D01*
X148240555Y-108149114D01*
X148278500Y-107958350D01*
X148278500Y-107763850D01*
X148240555Y-107573086D01*
X148166123Y-107393391D01*
X148058064Y-107231669D01*
X147920531Y-107094136D01*
X147758809Y-106986077D01*
X147579114Y-106911645D01*
X147388350Y-106873700D01*
X147193850Y-106873700D01*
X147003086Y-106911645D01*
X146823391Y-106986077D01*
X146714000Y-107059170D01*
X146714000Y-106480252D01*
X147766791Y-105427462D01*
X147766795Y-105427457D01*
X148775263Y-104418990D01*
X148792579Y-104404779D01*
X148849313Y-104335649D01*
X148891470Y-104256779D01*
X148902449Y-104220587D01*
X148917430Y-104171200D01*
X148920493Y-104140099D01*
X148924000Y-104104495D01*
X148924000Y-104104489D01*
X148926195Y-104082201D01*
X148924000Y-104059913D01*
X148924000Y-100631368D01*
X148956077Y-100708809D01*
X149064136Y-100870531D01*
X149201669Y-101008064D01*
X149363391Y-101116123D01*
X149543086Y-101190555D01*
X149733850Y-101228500D01*
X149928350Y-101228500D01*
X150119114Y-101190555D01*
X150298809Y-101116123D01*
X150460531Y-101008064D01*
X150598064Y-100870531D01*
X150706123Y-100708809D01*
X150780555Y-100529114D01*
X150818500Y-100338350D01*
X150818500Y-100143850D01*
X150780555Y-99953086D01*
X150706123Y-99773391D01*
X150598064Y-99611669D01*
X150460531Y-99474136D01*
X150298809Y-99366077D01*
X150119114Y-99291645D01*
X149928350Y-99253700D01*
X149733850Y-99253700D01*
X149543086Y-99291645D01*
X149363391Y-99366077D01*
X149201669Y-99474136D01*
X149064136Y-99611669D01*
X148956077Y-99773391D01*
X148924000Y-99850832D01*
X148924000Y-97489059D01*
X149006136Y-97642724D01*
X149129526Y-97793075D01*
X149279877Y-97916465D01*
X149451411Y-98008152D01*
X149637537Y-98064613D01*
X149831100Y-98083677D01*
X150024664Y-98064613D01*
X150210790Y-98008152D01*
X150382324Y-97916465D01*
X150532675Y-97793075D01*
X150656065Y-97642724D01*
X150747752Y-97471190D01*
X150804213Y-97285064D01*
X150818500Y-97140003D01*
X150818500Y-95722197D01*
X150804213Y-95577136D01*
X150772211Y-95471641D01*
X151259853Y-94984000D01*
X151773250Y-94984000D01*
X151669525Y-95069125D01*
X151546135Y-95219476D01*
X151454448Y-95391011D01*
X151397987Y-95577137D01*
X151383700Y-95722198D01*
X151383701Y-97140003D01*
X151397988Y-97285064D01*
X151454449Y-97471190D01*
X151546136Y-97642724D01*
X151669526Y-97793075D01*
X151819877Y-97916465D01*
X151917101Y-97968432D01*
X151917101Y-97983602D01*
X151914905Y-98005900D01*
X151923670Y-98094899D01*
X151949630Y-98180478D01*
X151962276Y-98204136D01*
X151991788Y-98259349D01*
X152048522Y-98328479D01*
X152065838Y-98342690D01*
X152332950Y-98609803D01*
X152332951Y-106501946D01*
X150804087Y-108030811D01*
X150818500Y-107958350D01*
X150818500Y-107763850D01*
X150780555Y-107573086D01*
X150706123Y-107393391D01*
X150598064Y-107231669D01*
X150460531Y-107094136D01*
X150298809Y-106986077D01*
X150119114Y-106911645D01*
X149928350Y-106873700D01*
X149733850Y-106873700D01*
X149543086Y-106911645D01*
X149363391Y-106986077D01*
X149201669Y-107094136D01*
X149064136Y-107231669D01*
X148956077Y-107393391D01*
X148881645Y-107573086D01*
X148843700Y-107763850D01*
X148843700Y-107958350D01*
X148881645Y-108149114D01*
X148956077Y-108328809D01*
X149064136Y-108490531D01*
X149201669Y-108628064D01*
X149363391Y-108736123D01*
X149543086Y-108810555D01*
X149733850Y-108848500D01*
X149928350Y-108848500D01*
X150000811Y-108834087D01*
X148586028Y-110248870D01*
X148568712Y-110263081D01*
X148511978Y-110332211D01*
X148502604Y-110349749D01*
X148469820Y-110411082D01*
X148443860Y-110496661D01*
X148435095Y-110585660D01*
X148437291Y-110607958D01*
X148437290Y-113807902D01*
X148435095Y-113830190D01*
X148437290Y-113852478D01*
X148437290Y-113852484D01*
X148439774Y-113877705D01*
X148443860Y-113919189D01*
X148446418Y-113927620D01*
X148469820Y-114004768D01*
X148511977Y-114083638D01*
X148568711Y-114152769D01*
X148586032Y-114166984D01*
X149317101Y-114898054D01*
X149317100Y-117387077D01*
X149274262Y-117415701D01*
X149165701Y-117524262D01*
X149080405Y-117651916D01*
X149021652Y-117793757D01*
X148991700Y-117944336D01*
X148991700Y-118097864D01*
X149021652Y-118248443D01*
X149080405Y-118390284D01*
X149165701Y-118517938D01*
X149274262Y-118626499D01*
X149401916Y-118711795D01*
X149543757Y-118770548D01*
X149694336Y-118800500D01*
X149847864Y-118800500D01*
X149998443Y-118770548D01*
X150140284Y-118711795D01*
X150267938Y-118626499D01*
X150376499Y-118517938D01*
X150461795Y-118390284D01*
X150520548Y-118248443D01*
X150550500Y-118097864D01*
X150550500Y-117944336D01*
X150520548Y-117793757D01*
X150461795Y-117651916D01*
X150376499Y-117524262D01*
X150267938Y-117415701D01*
X150225100Y-117387077D01*
X150225100Y-114732287D01*
X150227295Y-114709999D01*
X150225100Y-114687711D01*
X150225100Y-114687705D01*
X150218530Y-114621001D01*
X150192570Y-114535421D01*
X150150413Y-114456551D01*
X150093679Y-114387421D01*
X150076363Y-114373210D01*
X149345290Y-113642138D01*
X149345290Y-113191429D01*
X149451411Y-113248152D01*
X149637537Y-113304613D01*
X149831100Y-113323677D01*
X150024664Y-113304613D01*
X150210790Y-113248152D01*
X150382324Y-113156465D01*
X150532675Y-113033075D01*
X150656065Y-112882724D01*
X150747752Y-112711190D01*
X150804213Y-112525064D01*
X150818500Y-112380003D01*
X150818500Y-110962197D01*
X150804213Y-110817136D01*
X150747752Y-110631010D01*
X150656065Y-110459476D01*
X150532675Y-110309125D01*
X150382324Y-110185735D01*
X150210789Y-110094048D01*
X150068206Y-110050796D01*
X153092213Y-107026790D01*
X153109529Y-107012579D01*
X153166263Y-106943449D01*
X153208420Y-106864579D01*
X153234380Y-106778999D01*
X153240950Y-106712295D01*
X153240950Y-106712289D01*
X153243145Y-106690001D01*
X153240950Y-106667713D01*
X153240950Y-98444038D01*
X153243145Y-98421750D01*
X153240950Y-98399462D01*
X153240950Y-98399455D01*
X153234380Y-98332751D01*
X153212448Y-98260448D01*
X153208420Y-98247171D01*
X153185417Y-98204136D01*
X153166263Y-98168301D01*
X153109529Y-98099171D01*
X153092214Y-98084961D01*
X152923089Y-97915837D01*
X153072675Y-97793075D01*
X153196065Y-97642724D01*
X153287752Y-97471190D01*
X153344213Y-97285064D01*
X153358500Y-97140003D01*
X153358500Y-95722197D01*
X153344213Y-95577136D01*
X153287752Y-95391010D01*
X153196065Y-95219476D01*
X153072675Y-95069125D01*
X152968950Y-94984000D01*
X154313250Y-94984000D01*
X154209525Y-95069125D01*
X154086135Y-95219476D01*
X153994448Y-95391011D01*
X153937987Y-95577137D01*
X153923700Y-95722198D01*
X153923701Y-97140003D01*
X153937988Y-97285064D01*
X153994449Y-97471190D01*
X154086136Y-97642724D01*
X154209526Y-97793075D01*
X154359877Y-97916465D01*
X154531411Y-98008152D01*
X154717537Y-98064613D01*
X154911100Y-98083677D01*
X155104664Y-98064613D01*
X155290790Y-98008152D01*
X155462324Y-97916465D01*
X155566001Y-97831380D01*
X155566000Y-105844655D01*
X151126028Y-110284628D01*
X151108712Y-110298839D01*
X151094501Y-110316155D01*
X151094499Y-110316157D01*
X151081570Y-110331911D01*
X151051978Y-110367969D01*
X151041576Y-110387430D01*
X151009820Y-110446840D01*
X150983860Y-110532419D01*
X150975095Y-110621418D01*
X150977291Y-110643716D01*
X150977290Y-113457902D01*
X150975095Y-113480190D01*
X150977290Y-113502478D01*
X150977290Y-113502484D01*
X150982507Y-113555451D01*
X150983860Y-113569189D01*
X150999636Y-113621195D01*
X151009820Y-113654768D01*
X151051977Y-113733638D01*
X151108711Y-113802769D01*
X151126032Y-113816984D01*
X151857101Y-114548054D01*
X151857100Y-117387077D01*
X151814262Y-117415701D01*
X151705701Y-117524262D01*
X151620405Y-117651916D01*
X151561652Y-117793757D01*
X151531700Y-117944336D01*
X151531700Y-118097864D01*
X151561652Y-118248443D01*
X151620405Y-118390284D01*
X151705701Y-118517938D01*
X151814262Y-118626499D01*
X151941916Y-118711795D01*
X152083757Y-118770548D01*
X152234336Y-118800500D01*
X152387864Y-118800500D01*
X152538443Y-118770548D01*
X152680284Y-118711795D01*
X152807938Y-118626499D01*
X152916499Y-118517938D01*
X153001795Y-118390284D01*
X153060548Y-118248443D01*
X153090500Y-118097864D01*
X153090500Y-117944336D01*
X153060548Y-117793757D01*
X153001795Y-117651916D01*
X152916499Y-117524262D01*
X152807938Y-117415701D01*
X152765100Y-117387077D01*
X152765100Y-114382287D01*
X152767295Y-114359999D01*
X152765100Y-114337711D01*
X152765100Y-114337705D01*
X152758530Y-114271001D01*
X152753314Y-114253804D01*
X152732570Y-114185421D01*
X152698387Y-114121470D01*
X152690413Y-114106551D01*
X152664173Y-114074578D01*
X152647891Y-114054738D01*
X152647890Y-114054737D01*
X152633679Y-114037421D01*
X152616363Y-114023210D01*
X151885290Y-113292138D01*
X151885290Y-113191429D01*
X151991411Y-113248152D01*
X152177537Y-113304613D01*
X152371100Y-113323677D01*
X152564664Y-113304613D01*
X152750790Y-113248152D01*
X152922324Y-113156465D01*
X153072675Y-113033075D01*
X153196065Y-112882724D01*
X153287752Y-112711190D01*
X153344213Y-112525064D01*
X153358500Y-112380003D01*
X153358500Y-110962197D01*
X153344213Y-110817136D01*
X153287752Y-110631010D01*
X153196065Y-110459476D01*
X153072675Y-110309125D01*
X152922324Y-110185735D01*
X152750789Y-110094048D01*
X152635642Y-110059118D01*
X156325264Y-106369497D01*
X156342579Y-106355287D01*
X156399313Y-106286157D01*
X156441470Y-106207287D01*
X156467430Y-106121707D01*
X156467833Y-106117621D01*
X156468259Y-106113287D01*
X156474000Y-106055003D01*
X156474000Y-106054996D01*
X156476195Y-106032708D01*
X156474000Y-106010420D01*
X156474000Y-97244572D01*
X156477988Y-97285064D01*
X156534449Y-97471190D01*
X156626136Y-97642724D01*
X156749526Y-97793075D01*
X156899877Y-97916465D01*
X157071411Y-98008152D01*
X157257537Y-98064613D01*
X157451100Y-98083677D01*
X157644664Y-98064613D01*
X157830790Y-98008152D01*
X158002324Y-97916465D01*
X158152675Y-97793075D01*
X158276065Y-97642724D01*
X158367752Y-97471190D01*
X158424213Y-97285064D01*
X158438500Y-97140003D01*
X158438500Y-95722197D01*
X158424213Y-95577136D01*
X158367752Y-95391010D01*
X158276065Y-95219476D01*
X158152675Y-95069125D01*
X158002324Y-94945735D01*
X157830789Y-94854048D01*
X157644663Y-94797587D01*
X157451100Y-94778523D01*
X157257536Y-94797587D01*
X157071410Y-94854048D01*
X156899876Y-94945735D01*
X156749525Y-95069125D01*
X156626135Y-95219476D01*
X156534448Y-95391011D01*
X156477987Y-95577137D01*
X156474000Y-95617618D01*
X156474000Y-95392287D01*
X156476195Y-95369999D01*
X156474000Y-95347711D01*
X156474000Y-95347705D01*
X156467430Y-95281001D01*
X156441470Y-95195421D01*
X156399313Y-95116551D01*
X156342579Y-95047421D01*
X156325263Y-95033210D01*
X155637152Y-94345100D01*
X159203048Y-94345100D01*
X159537100Y-94679153D01*
X159537100Y-94893767D01*
X159439876Y-94945735D01*
X159289525Y-95069125D01*
X159166135Y-95219476D01*
X159074448Y-95391011D01*
X159017987Y-95577137D01*
X159003700Y-95722198D01*
X159003701Y-97140003D01*
X159017988Y-97285064D01*
X159074449Y-97471190D01*
X159166136Y-97642724D01*
X159289526Y-97793075D01*
X159439877Y-97916465D01*
X159611411Y-98008152D01*
X159797537Y-98064613D01*
X159991100Y-98083677D01*
X160184664Y-98064613D01*
X160370790Y-98008152D01*
X160542324Y-97916465D01*
X160692675Y-97793075D01*
X160816065Y-97642724D01*
X160907752Y-97471190D01*
X160964213Y-97285064D01*
X160978500Y-97140003D01*
X160978500Y-96456100D01*
X161439700Y-96456100D01*
X161439700Y-97116500D01*
X161465548Y-97328941D01*
X161532345Y-97532258D01*
X161637523Y-97718636D01*
X161777041Y-97880914D01*
X161945537Y-98012855D01*
X162136536Y-98109389D01*
X162335720Y-98165270D01*
X162506100Y-98074832D01*
X162506100Y-96456100D01*
X162556100Y-96456100D01*
X162556100Y-98074832D01*
X162726480Y-98165270D01*
X162925664Y-98109389D01*
X163116663Y-98012855D01*
X163285159Y-97880914D01*
X163424677Y-97718636D01*
X163529855Y-97532258D01*
X163596652Y-97328941D01*
X163622500Y-97116500D01*
X163622500Y-96456100D01*
X162556100Y-96456100D01*
X162506100Y-96456100D01*
X161439700Y-96456100D01*
X160978500Y-96456100D01*
X160978500Y-95745700D01*
X161439700Y-95745700D01*
X161439700Y-96406100D01*
X162506100Y-96406100D01*
X162506100Y-94787368D01*
X162556100Y-94787368D01*
X162556100Y-96406100D01*
X163622500Y-96406100D01*
X163622500Y-95745700D01*
X163596652Y-95533259D01*
X163529855Y-95329942D01*
X163424677Y-95143564D01*
X163285159Y-94981286D01*
X163116663Y-94849345D01*
X162925664Y-94752811D01*
X162726480Y-94696930D01*
X162556100Y-94787368D01*
X162506100Y-94787368D01*
X162335720Y-94696930D01*
X162136536Y-94752811D01*
X161945537Y-94849345D01*
X161777041Y-94981286D01*
X161637523Y-95143564D01*
X161532345Y-95329942D01*
X161465548Y-95533259D01*
X161439700Y-95745700D01*
X160978500Y-95745700D01*
X160978500Y-95722197D01*
X160964213Y-95577136D01*
X160907752Y-95391010D01*
X160816065Y-95219476D01*
X160692675Y-95069125D01*
X160542324Y-94945735D01*
X160445100Y-94893768D01*
X160445100Y-94513387D01*
X160447295Y-94491099D01*
X160445100Y-94468811D01*
X160445100Y-94468805D01*
X160438530Y-94402101D01*
X160412570Y-94316521D01*
X160370413Y-94237651D01*
X160313679Y-94168521D01*
X160296364Y-94154311D01*
X159727894Y-93585842D01*
X159713679Y-93568521D01*
X159644549Y-93511787D01*
X159565679Y-93469630D01*
X159480099Y-93443670D01*
X159413395Y-93437100D01*
X159413388Y-93437100D01*
X159391100Y-93434905D01*
X159368812Y-93437100D01*
X150403896Y-93437100D01*
X150381608Y-93434905D01*
X150359320Y-93437100D01*
X150359313Y-93437100D01*
X150301029Y-93442841D01*
X150292608Y-93443670D01*
X150207029Y-93469630D01*
X150128159Y-93511787D01*
X150059029Y-93568521D01*
X150044818Y-93585837D01*
X148215175Y-95415481D01*
X148207752Y-95391010D01*
X148116065Y-95219476D01*
X147992675Y-95069125D01*
X147842324Y-94945735D01*
X147670789Y-94854048D01*
X147484663Y-94797587D01*
X147291100Y-94778523D01*
X147097536Y-94797587D01*
X146911410Y-94854048D01*
X146739876Y-94945735D01*
X146589525Y-95069125D01*
X146466135Y-95219476D01*
X146374448Y-95391011D01*
X146317987Y-95577137D01*
X146303700Y-95722198D01*
X146303701Y-97140003D01*
X146317988Y-97285064D01*
X146374449Y-97471190D01*
X146466136Y-97642724D01*
X146589526Y-97793075D01*
X146739111Y-97915836D01*
X146137848Y-98517100D01*
X142808384Y-98517100D01*
X142786099Y-98514905D01*
X142763814Y-98517100D01*
X142763805Y-98517100D01*
X142697101Y-98523670D01*
X142611521Y-98549630D01*
X142532651Y-98591787D01*
X142463521Y-98648521D01*
X142449310Y-98665837D01*
X140133134Y-100982014D01*
X140113705Y-100935108D01*
X139980629Y-100735945D01*
X139811255Y-100566571D01*
X139612092Y-100433495D01*
X139390794Y-100341830D01*
X139155866Y-100295100D01*
X138916334Y-100295100D01*
X138681406Y-100341830D01*
X138460108Y-100433495D01*
X138260945Y-100566571D01*
X138091571Y-100735945D01*
X137958495Y-100935108D01*
X137907964Y-101057100D01*
X135182188Y-101057100D01*
X135159900Y-101054905D01*
X135137612Y-101057100D01*
X135137605Y-101057100D01*
X135079321Y-101062841D01*
X135070900Y-101063670D01*
X134985321Y-101089630D01*
X134906451Y-101131787D01*
X134837321Y-101188521D01*
X134823110Y-101205837D01*
X132410889Y-103618058D01*
X132274623Y-103576722D01*
X132071100Y-103556677D01*
X131867578Y-103576722D01*
X131671877Y-103636088D01*
X131491517Y-103732492D01*
X131333431Y-103862230D01*
X131203693Y-104020316D01*
X131107289Y-104200676D01*
X131047923Y-104396377D01*
X131032901Y-104548900D01*
X131032900Y-106073299D01*
X131047922Y-106225822D01*
X131107288Y-106421523D01*
X131203692Y-106601884D01*
X131333430Y-106759970D01*
X131491516Y-106889708D01*
X131508152Y-106898600D01*
X131491516Y-106907492D01*
X131333430Y-107037230D01*
X131203692Y-107195316D01*
X131107288Y-107375677D01*
X131047922Y-107571378D01*
X131032900Y-107723901D01*
X131032901Y-109248300D01*
X131047923Y-109400823D01*
X131107289Y-109596524D01*
X131203693Y-109776884D01*
X131333431Y-109934970D01*
X131425962Y-110010908D01*
X131281121Y-110124565D01*
X131135285Y-110294541D01*
X131025412Y-110489702D01*
X130955724Y-110702548D01*
X130928900Y-110924900D01*
X130928900Y-111636100D01*
X132046100Y-111636100D01*
X132046100Y-111616100D01*
X132096100Y-111616100D01*
X132096100Y-111636100D01*
X133213300Y-111636100D01*
X133213300Y-110924900D01*
X133186476Y-110702548D01*
X133116788Y-110489702D01*
X133006915Y-110294541D01*
X132861079Y-110124565D01*
X132716238Y-110010909D01*
X132808770Y-109934970D01*
X132938508Y-109776884D01*
X133034912Y-109596524D01*
X133094278Y-109400823D01*
X133109300Y-109248300D01*
X133109300Y-107723900D01*
X133094278Y-107571377D01*
X133034912Y-107375676D01*
X132938508Y-107195316D01*
X132808770Y-107037230D01*
X132650684Y-106907492D01*
X132634048Y-106898600D01*
X132650684Y-106889708D01*
X132808770Y-106759970D01*
X132938508Y-106601884D01*
X133034912Y-106421524D01*
X133094278Y-106225823D01*
X133109300Y-106073300D01*
X133109300Y-104548900D01*
X133094278Y-104396377D01*
X133052942Y-104260111D01*
X135347953Y-101965100D01*
X137907964Y-101965100D01*
X137958495Y-102087092D01*
X138091571Y-102286255D01*
X138260945Y-102455629D01*
X138460108Y-102588705D01*
X138681406Y-102680370D01*
X138916334Y-102727100D01*
X139155866Y-102727100D01*
X139390794Y-102680370D01*
X139612092Y-102588705D01*
X139811255Y-102455629D01*
X139980629Y-102286255D01*
X140113705Y-102087092D01*
X140164236Y-101965100D01*
X140223812Y-101965100D01*
X140246100Y-101967295D01*
X140268388Y-101965100D01*
X140268395Y-101965100D01*
X140335099Y-101958530D01*
X140420679Y-101932570D01*
X140499549Y-101890413D01*
X140568679Y-101833679D01*
X140582894Y-101816358D01*
X142974153Y-99425100D01*
X144195057Y-99425100D01*
X144121669Y-99474136D01*
X143984136Y-99611669D01*
X143876077Y-99773391D01*
X143801645Y-99953086D01*
X143763700Y-100143850D01*
X143763700Y-100338350D01*
X143801645Y-100529114D01*
X143876077Y-100708809D01*
X143984136Y-100870531D01*
X144121669Y-101008064D01*
X144283391Y-101116123D01*
X144463086Y-101190555D01*
X144653850Y-101228500D01*
X144848350Y-101228500D01*
X145039114Y-101190555D01*
X145218809Y-101116123D01*
X145380531Y-101008064D01*
X145518064Y-100870531D01*
X145626123Y-100708809D01*
X145700555Y-100529114D01*
X145738500Y-100338350D01*
X145738500Y-100143850D01*
X145700555Y-99953086D01*
X145626123Y-99773391D01*
X145518064Y-99611669D01*
X145380531Y-99474136D01*
X145307143Y-99425100D01*
X146303612Y-99425100D01*
X146325900Y-99427295D01*
X146414899Y-99418530D01*
X146500478Y-99392570D01*
X146579348Y-99350412D01*
X146631161Y-99307891D01*
X147596363Y-98342690D01*
X147613679Y-98328479D01*
X147670413Y-98259349D01*
X147712570Y-98180479D01*
X147735163Y-98105999D01*
X147738530Y-98094900D01*
X147743697Y-98042437D01*
X147745100Y-98028195D01*
X147745100Y-98028188D01*
X147747295Y-98005900D01*
X147745100Y-97983612D01*
X147745100Y-97968432D01*
X147842324Y-97916465D01*
X147992675Y-97793075D01*
X148016000Y-97764653D01*
X148016000Y-99569605D01*
X147920531Y-99474136D01*
X147758809Y-99366077D01*
X147579114Y-99291645D01*
X147388350Y-99253700D01*
X147193850Y-99253700D01*
X147003086Y-99291645D01*
X146823391Y-99366077D01*
X146661669Y-99474136D01*
X146524136Y-99611669D01*
X146416077Y-99773391D01*
X146341645Y-99953086D01*
X146303700Y-100143850D01*
X146303700Y-100338350D01*
X146341645Y-100529114D01*
X146347324Y-100542824D01*
X146330478Y-100559670D01*
X146307022Y-100578920D01*
X146292811Y-100596236D01*
X143291948Y-103597100D01*
X140164236Y-103597100D01*
X140113705Y-103475108D01*
X139980629Y-103275945D01*
X139811255Y-103106571D01*
X139612092Y-102973495D01*
X139390794Y-102881830D01*
X139155866Y-102835100D01*
X138916334Y-102835100D01*
X138681406Y-102881830D01*
X138460108Y-102973495D01*
X138260945Y-103106571D01*
X138091571Y-103275945D01*
X137958495Y-103475108D01*
X137866830Y-103696406D01*
X137820100Y-103931334D01*
X137820100Y-104170866D01*
X137866830Y-104405794D01*
X137958495Y-104627092D01*
X138091571Y-104826255D01*
X138260945Y-104995629D01*
X138460108Y-105128705D01*
X138681406Y-105220370D01*
X138916334Y-105267100D01*
X139155866Y-105267100D01*
X139390794Y-105220370D01*
X139612092Y-105128705D01*
X139811255Y-104995629D01*
X139980629Y-104826255D01*
X140113705Y-104627092D01*
X140164236Y-104505100D01*
X143457712Y-104505100D01*
X143480000Y-104507295D01*
X143502288Y-104505100D01*
X143502295Y-104505100D01*
X143568999Y-104498530D01*
X143654579Y-104472570D01*
X143733449Y-104430413D01*
X143802579Y-104373679D01*
X143816794Y-104356358D01*
X146929829Y-101243323D01*
X146953280Y-101224078D01*
X146967495Y-101206757D01*
X146989376Y-101184876D01*
X147003086Y-101190555D01*
X147193850Y-101228500D01*
X147388350Y-101228500D01*
X147579114Y-101190555D01*
X147758809Y-101116123D01*
X147920531Y-101008064D01*
X148016001Y-100912594D01*
X148016001Y-103894146D01*
X147124743Y-104785405D01*
X147124738Y-104785409D01*
X145954738Y-105955410D01*
X145937422Y-105969621D01*
X145880688Y-106038751D01*
X145872002Y-106055002D01*
X145838530Y-106117622D01*
X145812570Y-106203201D01*
X145803805Y-106292200D01*
X145806001Y-106314498D01*
X145806000Y-112706612D01*
X145803805Y-112728900D01*
X145806000Y-112751188D01*
X145806000Y-112751194D01*
X145808075Y-112772258D01*
X145812570Y-112817899D01*
X145815785Y-112828496D01*
X145838530Y-112903478D01*
X145880687Y-112982348D01*
X145937421Y-113051479D01*
X145954742Y-113065694D01*
X146777101Y-113888054D01*
X146777100Y-117387077D01*
X146734262Y-117415701D01*
X146625701Y-117524262D01*
X146540405Y-117651916D01*
X146481652Y-117793757D01*
X146464092Y-117882039D01*
X141828819Y-113246767D01*
X141831411Y-113248152D01*
X142017537Y-113304613D01*
X142211100Y-113323677D01*
X142404664Y-113304613D01*
X142590790Y-113248152D01*
X142762324Y-113156465D01*
X142912675Y-113033075D01*
X143036065Y-112882724D01*
X143127752Y-112711190D01*
X143184213Y-112525064D01*
X143198500Y-112380003D01*
X143198500Y-110962198D01*
X143763700Y-110962198D01*
X143763701Y-112380003D01*
X143777988Y-112525064D01*
X143834449Y-112711190D01*
X143926136Y-112882724D01*
X144049526Y-113033075D01*
X144199877Y-113156465D01*
X144371411Y-113248152D01*
X144557537Y-113304613D01*
X144751100Y-113323677D01*
X144944664Y-113304613D01*
X145130790Y-113248152D01*
X145302324Y-113156465D01*
X145452675Y-113033075D01*
X145576065Y-112882724D01*
X145667752Y-112711190D01*
X145724213Y-112525064D01*
X145738500Y-112380003D01*
X145738500Y-110962197D01*
X145724213Y-110817136D01*
X145667752Y-110631010D01*
X145576065Y-110459476D01*
X145452675Y-110309125D01*
X145302324Y-110185735D01*
X145130789Y-110094048D01*
X144944663Y-110037587D01*
X144751100Y-110018523D01*
X144557536Y-110037587D01*
X144371410Y-110094048D01*
X144199876Y-110185735D01*
X144049525Y-110309125D01*
X143926135Y-110459476D01*
X143834448Y-110631011D01*
X143777987Y-110817137D01*
X143763700Y-110962198D01*
X143198500Y-110962198D01*
X143198500Y-110962197D01*
X143184213Y-110817136D01*
X143127752Y-110631010D01*
X143036065Y-110459476D01*
X142912675Y-110309125D01*
X142762324Y-110185735D01*
X142590789Y-110094048D01*
X142404663Y-110037587D01*
X142211100Y-110018523D01*
X142017536Y-110037587D01*
X141831410Y-110094048D01*
X141659876Y-110185735D01*
X141509525Y-110309125D01*
X141386135Y-110459476D01*
X141294448Y-110631011D01*
X141237987Y-110817137D01*
X141223700Y-110962198D01*
X141223701Y-112380003D01*
X141237988Y-112525064D01*
X141294449Y-112711190D01*
X141295834Y-112713782D01*
X136762895Y-108180843D01*
X136748679Y-108163521D01*
X136679549Y-108106787D01*
X136600679Y-108064630D01*
X136515099Y-108038670D01*
X136448395Y-108032100D01*
X136448388Y-108032100D01*
X136426100Y-108029905D01*
X136403812Y-108032100D01*
X135649300Y-108032100D01*
X135649300Y-107723900D01*
X135634278Y-107571377D01*
X135574912Y-107375676D01*
X135478508Y-107195316D01*
X135348770Y-107037230D01*
X135190684Y-106907492D01*
X135174048Y-106898600D01*
X135190684Y-106889708D01*
X135348770Y-106759970D01*
X135478508Y-106601884D01*
X135548288Y-106471334D01*
X137820100Y-106471334D01*
X137820100Y-106710866D01*
X137866830Y-106945794D01*
X137958495Y-107167092D01*
X138091571Y-107366255D01*
X138260945Y-107535629D01*
X138460108Y-107668705D01*
X138681406Y-107760370D01*
X138916334Y-107807100D01*
X139155866Y-107807100D01*
X139373298Y-107763850D01*
X143763700Y-107763850D01*
X143763700Y-107958350D01*
X143801645Y-108149114D01*
X143876077Y-108328809D01*
X143984136Y-108490531D01*
X144121669Y-108628064D01*
X144283391Y-108736123D01*
X144463086Y-108810555D01*
X144653850Y-108848500D01*
X144848350Y-108848500D01*
X145039114Y-108810555D01*
X145218809Y-108736123D01*
X145380531Y-108628064D01*
X145518064Y-108490531D01*
X145626123Y-108328809D01*
X145700555Y-108149114D01*
X145738500Y-107958350D01*
X145738500Y-107763850D01*
X145700555Y-107573086D01*
X145626123Y-107393391D01*
X145518064Y-107231669D01*
X145380531Y-107094136D01*
X145218809Y-106986077D01*
X145039114Y-106911645D01*
X144848350Y-106873700D01*
X144653850Y-106873700D01*
X144463086Y-106911645D01*
X144283391Y-106986077D01*
X144121669Y-107094136D01*
X143984136Y-107231669D01*
X143876077Y-107393391D01*
X143801645Y-107573086D01*
X143763700Y-107763850D01*
X139373298Y-107763850D01*
X139390794Y-107760370D01*
X139612092Y-107668705D01*
X139811255Y-107535629D01*
X139980629Y-107366255D01*
X140113705Y-107167092D01*
X140205370Y-106945794D01*
X140252100Y-106710866D01*
X140252100Y-106471334D01*
X140205370Y-106236406D01*
X140113705Y-106015108D01*
X139980629Y-105815945D01*
X139811255Y-105646571D01*
X139612092Y-105513495D01*
X139390794Y-105421830D01*
X139155866Y-105375100D01*
X138916334Y-105375100D01*
X138681406Y-105421830D01*
X138460108Y-105513495D01*
X138260945Y-105646571D01*
X138091571Y-105815945D01*
X137958495Y-106015108D01*
X137866830Y-106236406D01*
X137820100Y-106471334D01*
X135548288Y-106471334D01*
X135574912Y-106421524D01*
X135634278Y-106225823D01*
X135649300Y-106073300D01*
X135649300Y-104548900D01*
X135634278Y-104396377D01*
X135574912Y-104200676D01*
X135478508Y-104020316D01*
X135348770Y-103862230D01*
X135190684Y-103732492D01*
X135010324Y-103636088D01*
X134814623Y-103576722D01*
X134611100Y-103556677D01*
X134407578Y-103576722D01*
X134211877Y-103636088D01*
X134031517Y-103732492D01*
X133873431Y-103862230D01*
X133743693Y-104020316D01*
X133647289Y-104200676D01*
X133587923Y-104396377D01*
X133572901Y-104548900D01*
X133572900Y-106073299D01*
X133587922Y-106225822D01*
X133647288Y-106421523D01*
X133743692Y-106601884D01*
X133873430Y-106759970D01*
X134031516Y-106889708D01*
X134048152Y-106898600D01*
X134031516Y-106907492D01*
X133873430Y-107037230D01*
X133743692Y-107195316D01*
X133647288Y-107375677D01*
X133587922Y-107571378D01*
X133572900Y-107723901D01*
X133572901Y-109248300D01*
X133587923Y-109400823D01*
X133647289Y-109596524D01*
X133743693Y-109776884D01*
X133873431Y-109934970D01*
X134031517Y-110064708D01*
X134048152Y-110073600D01*
X134031516Y-110082492D01*
X133873430Y-110212230D01*
X133743692Y-110370316D01*
X133647288Y-110550677D01*
X133587922Y-110746378D01*
X133572900Y-110898901D01*
X133572901Y-112423300D01*
X133587923Y-112575823D01*
X133647289Y-112771524D01*
X133743693Y-112951884D01*
X133873431Y-113109970D01*
X134031517Y-113239708D01*
X134211877Y-113336112D01*
X134407578Y-113395478D01*
X134611100Y-113415523D01*
X134814623Y-113395478D01*
X135010324Y-113336112D01*
X135190684Y-113239708D01*
X135348770Y-113109970D01*
X135478508Y-112951884D01*
X135574912Y-112771524D01*
X135634278Y-112575823D01*
X135649300Y-112423300D01*
X135649300Y-112161352D01*
X141697101Y-118209154D01*
X141697101Y-119831503D01*
X140065100Y-119831503D01*
X140065100Y-118843387D01*
X140067295Y-118821099D01*
X140065100Y-118798811D01*
X140065100Y-118798805D01*
X140058530Y-118732101D01*
X140057531Y-118728806D01*
X140032570Y-118646521D01*
X140008991Y-118602408D01*
X139990413Y-118567651D01*
X139933679Y-118498521D01*
X139916363Y-118484310D01*
X137706794Y-116274742D01*
X137692579Y-116257421D01*
X137623449Y-116200687D01*
X137544579Y-116158530D01*
X137458999Y-116132570D01*
X137392295Y-116126000D01*
X137392288Y-116126000D01*
X137370000Y-116123805D01*
X137347712Y-116126000D01*
X133926853Y-116126000D01*
X130512942Y-112712089D01*
X130554278Y-112575823D01*
X130569300Y-112423300D01*
X130569300Y-111686100D01*
X130928900Y-111686100D01*
X130928900Y-112397300D01*
X130955724Y-112619652D01*
X131025412Y-112832498D01*
X131135285Y-113027659D01*
X131281121Y-113197635D01*
X131457315Y-113335894D01*
X131657097Y-113437122D01*
X131867771Y-113496256D01*
X132046100Y-113406448D01*
X132046100Y-111686100D01*
X132096100Y-111686100D01*
X132096100Y-113406448D01*
X132274429Y-113496256D01*
X132485103Y-113437122D01*
X132684885Y-113335894D01*
X132861079Y-113197635D01*
X133006915Y-113027659D01*
X133116788Y-112832498D01*
X133186476Y-112619652D01*
X133213300Y-112397300D01*
X133213300Y-111686100D01*
X132096100Y-111686100D01*
X132046100Y-111686100D01*
X130928900Y-111686100D01*
X130569300Y-111686100D01*
X130569300Y-110898900D01*
X130554278Y-110746377D01*
X130494912Y-110550676D01*
X130398508Y-110370316D01*
X130268770Y-110212230D01*
X130110684Y-110082492D01*
X130094048Y-110073600D01*
X130110684Y-110064708D01*
X130268770Y-109934970D01*
X130398508Y-109776884D01*
X130494912Y-109596524D01*
X130554278Y-109400823D01*
X130569300Y-109248300D01*
X130569300Y-107723900D01*
X130554278Y-107571377D01*
X130494912Y-107375676D01*
X130398508Y-107195316D01*
X130268770Y-107037230D01*
X130110684Y-106907492D01*
X129930323Y-106811088D01*
X129734622Y-106751722D01*
X129531100Y-106731677D01*
X129327577Y-106751722D01*
X129131876Y-106811088D01*
X128951516Y-106907492D01*
X128793430Y-107037230D01*
X128663692Y-107195316D01*
X128567288Y-107375677D01*
X128507922Y-107571378D01*
X128492900Y-107723901D01*
X128492901Y-109248300D01*
X128507923Y-109400823D01*
X128567289Y-109596524D01*
X128663693Y-109776884D01*
X128793431Y-109934970D01*
X128951517Y-110064708D01*
X128968152Y-110073600D01*
X128951516Y-110082492D01*
X128793430Y-110212230D01*
X128663692Y-110370316D01*
X128567288Y-110550677D01*
X128507922Y-110746378D01*
X128492900Y-110898901D01*
X128492901Y-112423300D01*
X128507923Y-112575823D01*
X128567289Y-112771524D01*
X128663693Y-112951884D01*
X128793431Y-113109970D01*
X128951517Y-113239708D01*
X129131877Y-113336112D01*
X129327578Y-113395478D01*
X129531100Y-113415523D01*
X129734623Y-113395478D01*
X129870889Y-113354142D01*
X133402008Y-116885261D01*
X133416221Y-116902579D01*
X133485351Y-116959313D01*
X133564221Y-117001470D01*
X133649800Y-117027430D01*
X133659101Y-117028346D01*
X133716505Y-117034000D01*
X133716511Y-117034000D01*
X133738799Y-117036195D01*
X133761087Y-117034000D01*
X137181948Y-117034000D01*
X139157101Y-119009154D01*
X139157101Y-119831503D01*
X127441300Y-119831503D01*
X127441300Y-116444941D01*
X127443865Y-116418901D01*
X127441300Y-116392861D01*
X127441300Y-105208515D01*
X133148516Y-99501300D01*
X138202832Y-99501300D01*
X138269136Y-99600531D01*
X138406669Y-99738064D01*
X138568391Y-99846123D01*
X138748086Y-99920555D01*
X138938850Y-99958500D01*
X139133350Y-99958500D01*
X139324114Y-99920555D01*
X139503809Y-99846123D01*
X139665531Y-99738064D01*
X139803064Y-99600531D01*
X139911123Y-99438809D01*
X139985555Y-99259114D01*
X140023500Y-99068350D01*
X140023500Y-98873850D01*
X140000217Y-98756798D01*
X141292442Y-97464574D01*
X141294449Y-97471190D01*
X141386136Y-97642724D01*
X141509526Y-97793075D01*
X141659877Y-97916465D01*
X141831411Y-98008152D01*
X142017537Y-98064613D01*
X142211100Y-98083677D01*
X142404664Y-98064613D01*
X142590790Y-98008152D01*
X142762324Y-97916465D01*
X142912675Y-97793075D01*
X143036065Y-97642724D01*
X143127752Y-97471190D01*
X143184213Y-97285064D01*
X143198500Y-97140003D01*
X143198500Y-95722198D01*
X143763700Y-95722198D01*
X143763701Y-97140003D01*
X143777988Y-97285064D01*
X143834449Y-97471190D01*
X143926136Y-97642724D01*
X144049526Y-97793075D01*
X144199877Y-97916465D01*
X144371411Y-98008152D01*
X144557537Y-98064613D01*
X144751100Y-98083677D01*
X144944664Y-98064613D01*
X145130790Y-98008152D01*
X145302324Y-97916465D01*
X145452675Y-97793075D01*
X145576065Y-97642724D01*
X145667752Y-97471190D01*
X145724213Y-97285064D01*
X145738500Y-97140003D01*
X145738500Y-95722197D01*
X145724213Y-95577136D01*
X145667752Y-95391010D01*
X145576065Y-95219476D01*
X145452675Y-95069125D01*
X145302324Y-94945735D01*
X145130789Y-94854048D01*
X144944663Y-94797587D01*
X144751100Y-94778523D01*
X144557536Y-94797587D01*
X144371410Y-94854048D01*
X144199876Y-94945735D01*
X144049525Y-95069125D01*
X143926135Y-95219476D01*
X143834448Y-95391011D01*
X143777987Y-95577137D01*
X143763700Y-95722198D01*
X143198500Y-95722198D01*
X143198500Y-95722197D01*
X143184213Y-95577136D01*
X143127752Y-95391010D01*
X143036065Y-95219476D01*
X142912675Y-95069125D01*
X142762324Y-94945735D01*
X142590789Y-94854048D01*
X142404663Y-94797587D01*
X142211100Y-94778523D01*
X142017536Y-94797587D01*
X141831410Y-94854048D01*
X141659876Y-94945735D01*
X141509525Y-95069125D01*
X141386135Y-95219476D01*
X141294448Y-95391011D01*
X141237987Y-95577137D01*
X141223700Y-95722198D01*
X141223700Y-96034417D01*
X141199378Y-96054378D01*
X141182775Y-96074609D01*
X139250402Y-98006983D01*
X139133350Y-97983700D01*
X138938850Y-97983700D01*
X138748086Y-98021645D01*
X138568391Y-98096077D01*
X138406669Y-98204136D01*
X138269136Y-98341669D01*
X138202832Y-98440900D01*
X132954939Y-98440900D01*
X132928899Y-98438335D01*
X132902859Y-98440900D01*
X132902857Y-98440900D01*
X132824963Y-98448572D01*
X132725020Y-98478889D01*
X132632912Y-98528122D01*
X132552178Y-98594378D01*
X132535576Y-98614608D01*
X126554610Y-104595575D01*
X126534379Y-104612178D01*
X126517777Y-104632408D01*
X126468123Y-104692912D01*
X126418890Y-104785020D01*
X126388573Y-104884963D01*
X126378335Y-104988900D01*
X126380901Y-105014950D01*
X126380900Y-115873957D01*
X126380900Y-116199284D01*
X124014614Y-118565571D01*
X123994378Y-118582178D01*
X123928122Y-118662912D01*
X123878889Y-118755021D01*
X123848572Y-118854964D01*
X123841607Y-118925678D01*
X123838335Y-118958900D01*
X123840900Y-118984940D01*
X123840900Y-119831503D01*
X122743127Y-119831503D01*
X122706818Y-119816463D01*
X122623550Y-119799900D01*
X121963850Y-119799900D01*
X121932247Y-119831503D01*
X121729953Y-119831503D01*
X121698350Y-119799900D01*
X121038650Y-119799900D01*
X120955382Y-119816463D01*
X120919073Y-119831503D01*
X120003112Y-119831503D01*
X120005275Y-97147834D01*
X138354721Y-97147834D01*
X138411880Y-97332798D01*
X138599786Y-97437251D01*
X138804460Y-97503039D01*
X139018036Y-97527632D01*
X139232305Y-97510087D01*
X139439036Y-97451077D01*
X139630281Y-97352870D01*
X139660320Y-97332798D01*
X139717479Y-97147834D01*
X139036100Y-96466455D01*
X138354721Y-97147834D01*
X120005275Y-97147834D01*
X120005346Y-96413036D01*
X137939568Y-96413036D01*
X137957113Y-96627305D01*
X138016123Y-96834036D01*
X138114330Y-97025281D01*
X138134402Y-97055320D01*
X138319366Y-97112479D01*
X139000745Y-96431100D01*
X139071455Y-96431100D01*
X139752834Y-97112479D01*
X139937798Y-97055320D01*
X140042251Y-96867414D01*
X140108039Y-96662740D01*
X140132632Y-96449164D01*
X140115087Y-96234895D01*
X140056077Y-96028164D01*
X139957870Y-95836919D01*
X139937798Y-95806880D01*
X139752834Y-95749721D01*
X139071455Y-96431100D01*
X139000745Y-96431100D01*
X138319366Y-95749721D01*
X138134402Y-95806880D01*
X138029949Y-95994786D01*
X137964161Y-96199460D01*
X137939568Y-96413036D01*
X120005346Y-96413036D01*
X120005412Y-95714366D01*
X138354721Y-95714366D01*
X139036100Y-96395745D01*
X139717479Y-95714366D01*
X139660320Y-95529402D01*
X139472414Y-95424949D01*
X139267740Y-95359161D01*
X139054164Y-95334568D01*
X138839895Y-95352113D01*
X138633164Y-95411123D01*
X138441919Y-95509330D01*
X138411880Y-95529402D01*
X138354721Y-95714366D01*
X120005412Y-95714366D01*
X120006400Y-85353725D01*
X145634100Y-85353725D01*
X145634100Y-85918475D01*
X145744277Y-86472373D01*
X145960398Y-86994134D01*
X146274156Y-87463706D01*
X146673494Y-87863044D01*
X147143066Y-88176802D01*
X147664827Y-88392923D01*
X148218725Y-88503100D01*
X148783475Y-88503100D01*
X149337373Y-88392923D01*
X149859134Y-88176802D01*
X150328706Y-87863044D01*
X150728044Y-87463706D01*
X151041802Y-86994134D01*
X151257923Y-86472373D01*
X151368100Y-85918475D01*
X151368100Y-85353725D01*
X151257923Y-84799827D01*
X151041802Y-84278066D01*
X150728044Y-83808494D01*
X150328706Y-83409156D01*
X150105073Y-83259729D01*
X150219907Y-82982495D01*
X150288600Y-82637153D01*
X150288600Y-82285047D01*
X150219907Y-81939705D01*
X150085162Y-81614401D01*
X149889542Y-81321635D01*
X149640565Y-81072658D01*
X149347799Y-80877038D01*
X149022495Y-80742293D01*
X148677153Y-80673600D01*
X148325047Y-80673600D01*
X147979705Y-80742293D01*
X147654401Y-80877038D01*
X147361635Y-81072658D01*
X147112658Y-81321635D01*
X146917038Y-81614401D01*
X146782293Y-81939705D01*
X146713600Y-82285047D01*
X146713600Y-82637153D01*
X146782293Y-82982495D01*
X146897127Y-83259729D01*
X146673494Y-83409156D01*
X146274156Y-83808494D01*
X145960398Y-84278066D01*
X145744277Y-84799827D01*
X145634100Y-85353725D01*
X120006400Y-85353725D01*
X120006916Y-79958100D01*
X176863614Y-79958100D01*
X176898987Y-119831503D01*
X176898987Y-119831503D01*
G37*
X176898987Y-119831503D02*
X176083127Y-119831503D01*
X176046818Y-119816463D01*
X175963550Y-119799900D01*
X175303850Y-119799900D01*
X175272247Y-119831503D01*
X175069953Y-119831503D01*
X175038350Y-119799900D01*
X174378650Y-119799900D01*
X174295382Y-119816463D01*
X174259073Y-119831503D01*
X173085100Y-119831503D01*
X173085100Y-118773388D01*
X173087295Y-118751100D01*
X173085100Y-118728812D01*
X173085100Y-118728805D01*
X173078530Y-118662101D01*
X173052570Y-118576521D01*
X173010413Y-118497651D01*
X172953679Y-118428521D01*
X172936364Y-118414311D01*
X171834000Y-117311948D01*
X171834000Y-112822602D01*
X171866136Y-112882724D01*
X171989526Y-113033075D01*
X172139877Y-113156465D01*
X172311411Y-113248152D01*
X172497537Y-113304613D01*
X172691100Y-113323677D01*
X172884664Y-113304613D01*
X173070790Y-113248152D01*
X173242324Y-113156465D01*
X173392675Y-113033075D01*
X173516065Y-112882724D01*
X173607752Y-112711190D01*
X173664213Y-112525064D01*
X173678500Y-112380003D01*
X173678500Y-111696100D01*
X174139700Y-111696100D01*
X174139700Y-112356500D01*
X174165548Y-112568941D01*
X174232345Y-112772258D01*
X174337523Y-112958636D01*
X174477041Y-113120914D01*
X174645537Y-113252855D01*
X174836536Y-113349389D01*
X175035720Y-113405270D01*
X175206100Y-113314832D01*
X175206100Y-111696100D01*
X175256100Y-111696100D01*
X175256100Y-113314832D01*
X175426480Y-113405270D01*
X175625664Y-113349389D01*
X175816663Y-113252855D01*
X175985159Y-113120914D01*
X176124677Y-112958636D01*
X176229855Y-112772258D01*
X176296652Y-112568941D01*
X176322500Y-112356500D01*
X176322500Y-111696100D01*
X175256100Y-111696100D01*
X175206100Y-111696100D01*
X174139700Y-111696100D01*
X173678500Y-111696100D01*
X173678500Y-110985700D01*
X174139700Y-110985700D01*
X174139700Y-111646100D01*
X175206100Y-111646100D01*
X175206100Y-110027368D01*
X175256100Y-110027368D01*
X175256100Y-111646100D01*
X176322500Y-111646100D01*
X176322500Y-110985700D01*
X176296652Y-110773259D01*
X176229855Y-110569942D01*
X176124677Y-110383564D01*
X175985159Y-110221286D01*
X175816663Y-110089345D01*
X175625664Y-109992811D01*
X175426480Y-109936930D01*
X175256100Y-110027368D01*
X175206100Y-110027368D01*
X175035720Y-109936930D01*
X174836536Y-109992811D01*
X174645537Y-110089345D01*
X174477041Y-110221286D01*
X174337523Y-110383564D01*
X174232345Y-110569942D01*
X174165548Y-110773259D01*
X174139700Y-110985700D01*
X173678500Y-110985700D01*
X173678500Y-110962197D01*
X173664213Y-110817136D01*
X173607752Y-110631010D01*
X173516065Y-110459476D01*
X173392675Y-110309125D01*
X173242324Y-110185735D01*
X173145100Y-110133768D01*
X173145100Y-110118588D01*
X173147295Y-110096300D01*
X173145100Y-110074012D01*
X173145100Y-110074005D01*
X173138530Y-110007301D01*
X173112570Y-109921721D01*
X173070413Y-109842851D01*
X173013679Y-109773721D01*
X172996363Y-109759510D01*
X171486794Y-108249942D01*
X171472579Y-108232621D01*
X171403449Y-108175887D01*
X171324579Y-108133730D01*
X171238999Y-108107770D01*
X171172295Y-108101200D01*
X171172288Y-108101200D01*
X171150000Y-108099005D01*
X171127712Y-108101200D01*
X167877088Y-108101200D01*
X167854800Y-108099005D01*
X167832512Y-108101200D01*
X167832505Y-108101200D01*
X167765801Y-108107770D01*
X167680221Y-108133730D01*
X167601351Y-108175887D01*
X167532221Y-108232621D01*
X167518010Y-108249937D01*
X166044742Y-109723206D01*
X166027421Y-109737421D01*
X165970687Y-109806552D01*
X165939599Y-109864714D01*
X165928530Y-109885422D01*
X165907170Y-109955839D01*
X165902570Y-109971002D01*
X165896000Y-110037706D01*
X165896000Y-110037712D01*
X165893805Y-110060000D01*
X165896000Y-110082288D01*
X165896000Y-110459397D01*
X165772675Y-110309125D01*
X165622324Y-110185735D01*
X165450789Y-110094048D01*
X165264663Y-110037587D01*
X165071100Y-110018523D01*
X164908627Y-110034525D01*
X175536363Y-99406790D01*
X175553679Y-99392579D01*
X175610413Y-99323449D01*
X175652570Y-99244579D01*
X175653959Y-99240001D01*
X175678530Y-99159000D01*
X175680303Y-99141001D01*
X175685100Y-99092295D01*
X175685100Y-99092289D01*
X175687295Y-99070001D01*
X175685100Y-99047713D01*
X175685100Y-97968432D01*
X175782324Y-97916465D01*
X175932675Y-97793075D01*
X176056065Y-97642724D01*
X176147752Y-97471190D01*
X176204213Y-97285064D01*
X176218500Y-97140003D01*
X176218500Y-95722197D01*
X176204213Y-95577136D01*
X176147752Y-95391010D01*
X176056065Y-95219476D01*
X175932675Y-95069125D01*
X175782324Y-94945735D01*
X175610789Y-94854048D01*
X175424663Y-94797587D01*
X175231100Y-94778523D01*
X175037536Y-94797587D01*
X174851410Y-94854048D01*
X174679876Y-94945735D01*
X174529525Y-95069125D01*
X174406135Y-95219476D01*
X174314448Y-95391011D01*
X174257987Y-95577137D01*
X174243700Y-95722198D01*
X174243701Y-97140003D01*
X174257988Y-97285064D01*
X174314449Y-97471190D01*
X174406136Y-97642724D01*
X174529526Y-97793075D01*
X174679877Y-97916465D01*
X174777101Y-97968432D01*
X174777101Y-98881946D01*
X163734738Y-109924310D01*
X163717422Y-109938521D01*
X163660688Y-110007651D01*
X163638154Y-110049809D01*
X163618530Y-110086522D01*
X163592570Y-110172101D01*
X163583805Y-110261100D01*
X163586001Y-110283398D01*
X163586000Y-113576612D01*
X163583805Y-113598900D01*
X163586000Y-113621188D01*
X163586000Y-113621194D01*
X163588498Y-113646551D01*
X163592570Y-113687899D01*
X163617979Y-113771660D01*
X163618530Y-113773478D01*
X163660687Y-113852348D01*
X163717421Y-113921479D01*
X163734742Y-113935694D01*
X164557101Y-114758054D01*
X164557100Y-119831503D01*
X162925100Y-119831503D01*
X162925100Y-114252287D01*
X162927295Y-114229999D01*
X162925100Y-114207711D01*
X162925100Y-114207705D01*
X162918530Y-114141001D01*
X162916847Y-114135451D01*
X162892570Y-114055421D01*
X162882612Y-114036791D01*
X162850413Y-113976551D01*
X162793679Y-113907421D01*
X162776363Y-113893210D01*
X162108216Y-113225064D01*
X162151411Y-113248152D01*
X162337537Y-113304613D01*
X162531100Y-113323677D01*
X162724664Y-113304613D01*
X162910790Y-113248152D01*
X163082324Y-113156465D01*
X163232675Y-113033075D01*
X163356065Y-112882724D01*
X163447752Y-112711190D01*
X163504213Y-112525064D01*
X163518500Y-112380003D01*
X163518500Y-110962197D01*
X163504213Y-110817136D01*
X163447752Y-110631010D01*
X163356065Y-110459476D01*
X163232675Y-110309125D01*
X163082324Y-110185735D01*
X162910789Y-110094048D01*
X162724663Y-110037587D01*
X162551518Y-110020534D01*
X172995263Y-99576790D01*
X173012579Y-99562579D01*
X173069313Y-99493449D01*
X173111470Y-99414579D01*
X173118146Y-99392570D01*
X173137430Y-99329000D01*
X173142614Y-99276362D01*
X173144000Y-99262295D01*
X173144000Y-99262289D01*
X173146195Y-99240001D01*
X173144000Y-99217713D01*
X173144000Y-98039363D01*
X173145100Y-98028195D01*
X173145100Y-98028188D01*
X173147295Y-98005900D01*
X173145100Y-97983612D01*
X173145100Y-97968432D01*
X173242324Y-97916465D01*
X173392675Y-97793075D01*
X173516065Y-97642724D01*
X173607752Y-97471190D01*
X173664213Y-97285064D01*
X173678500Y-97140003D01*
X173678500Y-95722197D01*
X173664213Y-95577136D01*
X173607752Y-95391010D01*
X173516065Y-95219476D01*
X173392675Y-95069125D01*
X173242324Y-94945735D01*
X173070789Y-94854048D01*
X172884663Y-94797587D01*
X172691100Y-94778523D01*
X172497536Y-94797587D01*
X172311410Y-94854048D01*
X172139876Y-94945735D01*
X171989525Y-95069125D01*
X171866135Y-95219476D01*
X171774448Y-95391011D01*
X171717987Y-95577137D01*
X171703700Y-95722198D01*
X171703701Y-97140003D01*
X171717988Y-97285064D01*
X171774449Y-97471190D01*
X171866136Y-97642724D01*
X171989526Y-97793075D01*
X172139877Y-97916465D01*
X172237101Y-97968432D01*
X172237101Y-97973528D01*
X172236000Y-97984706D01*
X172236000Y-97984712D01*
X172233805Y-98007000D01*
X172236000Y-98029288D01*
X172236001Y-99051946D01*
X161286028Y-110001920D01*
X161268712Y-110016131D01*
X161254501Y-110033447D01*
X161254499Y-110033449D01*
X161247812Y-110041597D01*
X161211978Y-110085261D01*
X161196308Y-110114578D01*
X161169820Y-110164132D01*
X161143860Y-110249711D01*
X161135095Y-110338710D01*
X161137291Y-110361008D01*
X161137290Y-113327902D01*
X161135095Y-113350190D01*
X161137290Y-113372478D01*
X161137290Y-113372484D01*
X161140859Y-113408720D01*
X161143860Y-113439189D01*
X161160304Y-113493399D01*
X161169820Y-113524768D01*
X161211977Y-113603638D01*
X161268711Y-113672769D01*
X161286032Y-113686984D01*
X162017101Y-114418054D01*
X162017100Y-119831503D01*
X160385100Y-119831503D01*
X160385100Y-114152287D01*
X160387295Y-114129999D01*
X160385100Y-114107711D01*
X160385100Y-114107705D01*
X160378530Y-114041001D01*
X160352570Y-113955421D01*
X160310413Y-113876551D01*
X160253679Y-113807421D01*
X160236363Y-113793210D01*
X159726093Y-113282941D01*
X159797537Y-113304613D01*
X159991100Y-113323677D01*
X160184664Y-113304613D01*
X160370790Y-113248152D01*
X160542324Y-113156465D01*
X160692675Y-113033075D01*
X160816065Y-112882724D01*
X160907752Y-112711190D01*
X160964213Y-112525064D01*
X160978500Y-112380003D01*
X160978500Y-110962197D01*
X160964213Y-110817136D01*
X160907752Y-110631010D01*
X160816065Y-110459476D01*
X160692675Y-110309125D01*
X160542324Y-110185735D01*
X160370789Y-110094048D01*
X160184663Y-110037587D01*
X160086348Y-110027904D01*
X170457463Y-99656790D01*
X170474779Y-99642579D01*
X170531513Y-99573449D01*
X170573670Y-99494579D01*
X170599630Y-99408999D01*
X170606200Y-99342295D01*
X170606200Y-99342286D01*
X170608395Y-99320001D01*
X170606200Y-99297716D01*
X170606200Y-98029288D01*
X170608395Y-98007000D01*
X170606200Y-97984712D01*
X170606200Y-97984705D01*
X170605100Y-97973537D01*
X170605100Y-97968432D01*
X170702324Y-97916465D01*
X170852675Y-97793075D01*
X170976065Y-97642724D01*
X171067752Y-97471190D01*
X171124213Y-97285064D01*
X171138500Y-97140003D01*
X171138500Y-95722197D01*
X171124213Y-95577136D01*
X171067752Y-95391010D01*
X170976065Y-95219476D01*
X170852675Y-95069125D01*
X170702324Y-94945735D01*
X170530789Y-94854048D01*
X170344663Y-94797587D01*
X170151100Y-94778523D01*
X169957536Y-94797587D01*
X169771410Y-94854048D01*
X169599876Y-94945735D01*
X169449525Y-95069125D01*
X169326135Y-95219476D01*
X169234448Y-95391011D01*
X169177987Y-95577137D01*
X169163700Y-95722198D01*
X169163701Y-97140003D01*
X169177988Y-97285064D01*
X169234449Y-97471190D01*
X169326136Y-97642724D01*
X169449526Y-97793075D01*
X169599877Y-97916465D01*
X169697101Y-97968432D01*
X169697101Y-97983602D01*
X169694905Y-98005900D01*
X169698200Y-98039358D01*
X169698201Y-99131946D01*
X158746028Y-110084120D01*
X158728712Y-110098331D01*
X158671978Y-110167461D01*
X158658088Y-110193448D01*
X158629820Y-110246332D01*
X158603860Y-110331911D01*
X158595095Y-110420910D01*
X158597291Y-110443208D01*
X158597290Y-113227902D01*
X158595095Y-113250190D01*
X158597290Y-113272478D01*
X158597290Y-113272484D01*
X158601461Y-113314832D01*
X158603860Y-113339189D01*
X158614418Y-113373995D01*
X158629820Y-113424768D01*
X158671977Y-113503638D01*
X158728711Y-113572769D01*
X158746032Y-113586984D01*
X159477101Y-114318054D01*
X159477100Y-119831503D01*
X157845100Y-119831503D01*
X157845100Y-113922287D01*
X157847295Y-113899999D01*
X157845100Y-113877711D01*
X157845100Y-113877705D01*
X157838530Y-113811001D01*
X157837781Y-113808530D01*
X157812570Y-113725421D01*
X157770413Y-113646551D01*
X157713679Y-113577421D01*
X157696363Y-113563210D01*
X157456316Y-113323163D01*
X157644664Y-113304613D01*
X157830790Y-113248152D01*
X158002324Y-113156465D01*
X158152675Y-113033075D01*
X158276065Y-112882724D01*
X158367752Y-112711190D01*
X158424213Y-112525064D01*
X158438500Y-112380003D01*
X158438500Y-110962197D01*
X158424213Y-110817136D01*
X158367752Y-110631010D01*
X158276065Y-110459476D01*
X158152675Y-110309125D01*
X158002324Y-110185735D01*
X157830789Y-110094048D01*
X157644663Y-110037587D01*
X157455314Y-110018938D01*
X167907463Y-99566790D01*
X167924779Y-99552579D01*
X167981513Y-99483449D01*
X168023670Y-99404579D01*
X168040887Y-99347821D01*
X168049630Y-99319000D01*
X168052324Y-99291645D01*
X168056200Y-99252295D01*
X168056200Y-99252289D01*
X168058395Y-99230001D01*
X168056200Y-99207713D01*
X168056200Y-98102580D01*
X168058530Y-98094899D01*
X168065100Y-98028195D01*
X168065100Y-98028188D01*
X168067295Y-98005900D01*
X168065100Y-97983612D01*
X168065100Y-97968432D01*
X168162324Y-97916465D01*
X168312675Y-97793075D01*
X168436065Y-97642724D01*
X168527752Y-97471190D01*
X168584213Y-97285064D01*
X168598500Y-97140003D01*
X168598500Y-95722197D01*
X168584213Y-95577136D01*
X168527752Y-95391010D01*
X168436065Y-95219476D01*
X168312675Y-95069125D01*
X168162324Y-94945735D01*
X167990789Y-94854048D01*
X167804663Y-94797587D01*
X167611100Y-94778523D01*
X167417536Y-94797587D01*
X167231410Y-94854048D01*
X167059876Y-94945735D01*
X166909525Y-95069125D01*
X166786135Y-95219476D01*
X166694448Y-95391011D01*
X166637987Y-95577137D01*
X166623700Y-95722198D01*
X166623701Y-97140003D01*
X166637988Y-97285064D01*
X166694449Y-97471190D01*
X166786136Y-97642724D01*
X166909526Y-97793075D01*
X167059877Y-97916465D01*
X167150898Y-97965117D01*
X167148200Y-97992506D01*
X167148200Y-97992512D01*
X167146005Y-98014800D01*
X167148200Y-98037088D01*
X167148201Y-99041946D01*
X156206028Y-109984120D01*
X156188712Y-109998331D01*
X156174501Y-110015647D01*
X156174499Y-110015649D01*
X156164882Y-110027368D01*
X156131978Y-110067461D01*
X156123944Y-110082492D01*
X156089820Y-110146332D01*
X156063860Y-110231911D01*
X156055095Y-110320910D01*
X156057291Y-110343208D01*
X156057290Y-112997902D01*
X156055095Y-113020190D01*
X156057290Y-113042478D01*
X156057290Y-113042484D01*
X156060553Y-113075612D01*
X156063860Y-113109189D01*
X156076352Y-113150370D01*
X156089820Y-113194768D01*
X156131977Y-113273638D01*
X156188711Y-113342769D01*
X156206032Y-113356984D01*
X156937101Y-114088054D01*
X156937100Y-119831503D01*
X155305100Y-119831503D01*
X155305100Y-114152287D01*
X155307295Y-114129999D01*
X155305100Y-114107711D01*
X155305100Y-114107705D01*
X155298530Y-114041001D01*
X155272570Y-113955421D01*
X155230413Y-113876551D01*
X155173679Y-113807421D01*
X155156363Y-113793210D01*
X154646093Y-113282941D01*
X154717537Y-113304613D01*
X154911100Y-113323677D01*
X155104664Y-113304613D01*
X155290790Y-113248152D01*
X155462324Y-113156465D01*
X155612675Y-113033075D01*
X155736065Y-112882724D01*
X155827752Y-112711190D01*
X155884213Y-112525064D01*
X155898500Y-112380003D01*
X155898500Y-110962197D01*
X155884213Y-110817136D01*
X155827752Y-110631010D01*
X155736065Y-110459476D01*
X155612675Y-110309125D01*
X155462324Y-110185735D01*
X155290789Y-110094048D01*
X155104663Y-110037587D01*
X154995242Y-110026810D01*
X165365263Y-99656790D01*
X165382579Y-99642579D01*
X165439313Y-99573449D01*
X165481470Y-99494579D01*
X165495201Y-99449313D01*
X165507430Y-99409000D01*
X165510753Y-99375262D01*
X165514000Y-99342295D01*
X165514000Y-99342289D01*
X165516195Y-99320001D01*
X165514000Y-99297713D01*
X165514000Y-98109833D01*
X165518530Y-98094899D01*
X165525100Y-98028195D01*
X165525100Y-98028188D01*
X165527295Y-98005900D01*
X165525100Y-97983612D01*
X165525100Y-97968432D01*
X165622324Y-97916465D01*
X165772675Y-97793075D01*
X165896065Y-97642724D01*
X165987752Y-97471190D01*
X166044213Y-97285064D01*
X166058500Y-97140003D01*
X166058500Y-95722197D01*
X166044213Y-95577136D01*
X165987752Y-95391010D01*
X165896065Y-95219476D01*
X165772675Y-95069125D01*
X165622324Y-94945735D01*
X165450789Y-94854048D01*
X165264663Y-94797587D01*
X165071100Y-94778523D01*
X164877536Y-94797587D01*
X164691410Y-94854048D01*
X164519876Y-94945735D01*
X164369525Y-95069125D01*
X164246135Y-95219476D01*
X164154448Y-95391011D01*
X164097987Y-95577137D01*
X164083700Y-95722198D01*
X164083701Y-97140003D01*
X164097988Y-97285064D01*
X164154449Y-97471190D01*
X164246136Y-97642724D01*
X164369526Y-97793075D01*
X164519877Y-97916465D01*
X164609014Y-97964110D01*
X164606000Y-97994706D01*
X164606000Y-97994712D01*
X164603805Y-98017000D01*
X164606000Y-98039288D01*
X164606001Y-99131946D01*
X153666028Y-110071920D01*
X153648712Y-110086131D01*
X153591978Y-110155261D01*
X153582977Y-110172101D01*
X153549820Y-110234132D01*
X153523860Y-110319711D01*
X153515095Y-110408710D01*
X153517291Y-110431008D01*
X153517290Y-113227902D01*
X153515095Y-113250190D01*
X153517290Y-113272478D01*
X153517290Y-113272484D01*
X153521461Y-113314832D01*
X153523860Y-113339189D01*
X153534418Y-113373995D01*
X153549820Y-113424768D01*
X153591977Y-113503638D01*
X153648711Y-113572769D01*
X153666032Y-113586984D01*
X154397101Y-114318054D01*
X154397100Y-119831503D01*
X147685100Y-119831503D01*
X147685100Y-119313388D01*
X147687295Y-119291100D01*
X147685100Y-119268812D01*
X147685100Y-119268805D01*
X147678530Y-119202101D01*
X147652570Y-119116521D01*
X147610413Y-119037651D01*
X147553679Y-118968521D01*
X147536363Y-118954310D01*
X147370161Y-118788108D01*
X147458443Y-118770548D01*
X147600284Y-118711795D01*
X147727938Y-118626499D01*
X147836499Y-118517938D01*
X147921795Y-118390284D01*
X147980548Y-118248443D01*
X148010500Y-118097864D01*
X148010500Y-117944336D01*
X147980548Y-117793757D01*
X147921795Y-117651916D01*
X147836499Y-117524262D01*
X147727938Y-117415701D01*
X147685100Y-117387077D01*
X147685100Y-113722288D01*
X147687295Y-113700000D01*
X147685100Y-113677712D01*
X147685100Y-113677705D01*
X147678530Y-113611001D01*
X147676297Y-113603638D01*
X147652570Y-113525421D01*
X147640927Y-113503639D01*
X147610413Y-113446551D01*
X147553679Y-113377421D01*
X147536363Y-113363210D01*
X147478384Y-113305231D01*
X147484664Y-113304613D01*
X147670790Y-113248152D01*
X147842324Y-113156465D01*
X147992675Y-113033075D01*
X148116065Y-112882724D01*
X148207752Y-112711190D01*
X148264213Y-112525064D01*
X148278500Y-112380003D01*
X148278500Y-110962197D01*
X148264213Y-110817136D01*
X148207752Y-110631010D01*
X148116065Y-110459476D01*
X147992675Y-110309125D01*
X147842324Y-110185735D01*
X147670789Y-110094048D01*
X147484663Y-110037587D01*
X147291100Y-110018523D01*
X147097536Y-110037587D01*
X146911410Y-110094048D01*
X146739876Y-110185735D01*
X146714000Y-110206971D01*
X146714000Y-108663030D01*
X146823391Y-108736123D01*
X147003086Y-108810555D01*
X147193850Y-108848500D01*
X147388350Y-108848500D01*
X147579114Y-108810555D01*
X147758809Y-108736123D01*
X147920531Y-108628064D01*
X148058064Y-108490531D01*
X148166123Y-108328809D01*
X148240555Y-108149114D01*
X148278500Y-107958350D01*
X148278500Y-107763850D01*
X148240555Y-107573086D01*
X148166123Y-107393391D01*
X148058064Y-107231669D01*
X147920531Y-107094136D01*
X147758809Y-106986077D01*
X147579114Y-106911645D01*
X147388350Y-106873700D01*
X147193850Y-106873700D01*
X147003086Y-106911645D01*
X146823391Y-106986077D01*
X146714000Y-107059170D01*
X146714000Y-106480252D01*
X147766791Y-105427462D01*
X147766795Y-105427457D01*
X148775263Y-104418990D01*
X148792579Y-104404779D01*
X148849313Y-104335649D01*
X148891470Y-104256779D01*
X148902449Y-104220587D01*
X148917430Y-104171200D01*
X148920493Y-104140099D01*
X148924000Y-104104495D01*
X148924000Y-104104489D01*
X148926195Y-104082201D01*
X148924000Y-104059913D01*
X148924000Y-100631368D01*
X148956077Y-100708809D01*
X149064136Y-100870531D01*
X149201669Y-101008064D01*
X149363391Y-101116123D01*
X149543086Y-101190555D01*
X149733850Y-101228500D01*
X149928350Y-101228500D01*
X150119114Y-101190555D01*
X150298809Y-101116123D01*
X150460531Y-101008064D01*
X150598064Y-100870531D01*
X150706123Y-100708809D01*
X150780555Y-100529114D01*
X150818500Y-100338350D01*
X150818500Y-100143850D01*
X150780555Y-99953086D01*
X150706123Y-99773391D01*
X150598064Y-99611669D01*
X150460531Y-99474136D01*
X150298809Y-99366077D01*
X150119114Y-99291645D01*
X149928350Y-99253700D01*
X149733850Y-99253700D01*
X149543086Y-99291645D01*
X149363391Y-99366077D01*
X149201669Y-99474136D01*
X149064136Y-99611669D01*
X148956077Y-99773391D01*
X148924000Y-99850832D01*
X148924000Y-97489059D01*
X149006136Y-97642724D01*
X149129526Y-97793075D01*
X149279877Y-97916465D01*
X149451411Y-98008152D01*
X149637537Y-98064613D01*
X149831100Y-98083677D01*
X150024664Y-98064613D01*
X150210790Y-98008152D01*
X150382324Y-97916465D01*
X150532675Y-97793075D01*
X150656065Y-97642724D01*
X150747752Y-97471190D01*
X150804213Y-97285064D01*
X150818500Y-97140003D01*
X150818500Y-95722197D01*
X150804213Y-95577136D01*
X150772211Y-95471641D01*
X151259853Y-94984000D01*
X151773250Y-94984000D01*
X151669525Y-95069125D01*
X151546135Y-95219476D01*
X151454448Y-95391011D01*
X151397987Y-95577137D01*
X151383700Y-95722198D01*
X151383701Y-97140003D01*
X151397988Y-97285064D01*
X151454449Y-97471190D01*
X151546136Y-97642724D01*
X151669526Y-97793075D01*
X151819877Y-97916465D01*
X151917101Y-97968432D01*
X151917101Y-97983602D01*
X151914905Y-98005900D01*
X151923670Y-98094899D01*
X151949630Y-98180478D01*
X151962276Y-98204136D01*
X151991788Y-98259349D01*
X152048522Y-98328479D01*
X152065838Y-98342690D01*
X152332950Y-98609803D01*
X152332951Y-106501946D01*
X150804087Y-108030811D01*
X150818500Y-107958350D01*
X150818500Y-107763850D01*
X150780555Y-107573086D01*
X150706123Y-107393391D01*
X150598064Y-107231669D01*
X150460531Y-107094136D01*
X150298809Y-106986077D01*
X150119114Y-106911645D01*
X149928350Y-106873700D01*
X149733850Y-106873700D01*
X149543086Y-106911645D01*
X149363391Y-106986077D01*
X149201669Y-107094136D01*
X149064136Y-107231669D01*
X148956077Y-107393391D01*
X148881645Y-107573086D01*
X148843700Y-107763850D01*
X148843700Y-107958350D01*
X148881645Y-108149114D01*
X148956077Y-108328809D01*
X149064136Y-108490531D01*
X149201669Y-108628064D01*
X149363391Y-108736123D01*
X149543086Y-108810555D01*
X149733850Y-108848500D01*
X149928350Y-108848500D01*
X150000811Y-108834087D01*
X148586028Y-110248870D01*
X148568712Y-110263081D01*
X148511978Y-110332211D01*
X148502604Y-110349749D01*
X148469820Y-110411082D01*
X148443860Y-110496661D01*
X148435095Y-110585660D01*
X148437291Y-110607958D01*
X148437290Y-113807902D01*
X148435095Y-113830190D01*
X148437290Y-113852478D01*
X148437290Y-113852484D01*
X148439774Y-113877705D01*
X148443860Y-113919189D01*
X148446418Y-113927620D01*
X148469820Y-114004768D01*
X148511977Y-114083638D01*
X148568711Y-114152769D01*
X148586032Y-114166984D01*
X149317101Y-114898054D01*
X149317100Y-117387077D01*
X149274262Y-117415701D01*
X149165701Y-117524262D01*
X149080405Y-117651916D01*
X149021652Y-117793757D01*
X148991700Y-117944336D01*
X148991700Y-118097864D01*
X149021652Y-118248443D01*
X149080405Y-118390284D01*
X149165701Y-118517938D01*
X149274262Y-118626499D01*
X149401916Y-118711795D01*
X149543757Y-118770548D01*
X149694336Y-118800500D01*
X149847864Y-118800500D01*
X149998443Y-118770548D01*
X150140284Y-118711795D01*
X150267938Y-118626499D01*
X150376499Y-118517938D01*
X150461795Y-118390284D01*
X150520548Y-118248443D01*
X150550500Y-118097864D01*
X150550500Y-117944336D01*
X150520548Y-117793757D01*
X150461795Y-117651916D01*
X150376499Y-117524262D01*
X150267938Y-117415701D01*
X150225100Y-117387077D01*
X150225100Y-114732287D01*
X150227295Y-114709999D01*
X150225100Y-114687711D01*
X150225100Y-114687705D01*
X150218530Y-114621001D01*
X150192570Y-114535421D01*
X150150413Y-114456551D01*
X150093679Y-114387421D01*
X150076363Y-114373210D01*
X149345290Y-113642138D01*
X149345290Y-113191429D01*
X149451411Y-113248152D01*
X149637537Y-113304613D01*
X149831100Y-113323677D01*
X150024664Y-113304613D01*
X150210790Y-113248152D01*
X150382324Y-113156465D01*
X150532675Y-113033075D01*
X150656065Y-112882724D01*
X150747752Y-112711190D01*
X150804213Y-112525064D01*
X150818500Y-112380003D01*
X150818500Y-110962197D01*
X150804213Y-110817136D01*
X150747752Y-110631010D01*
X150656065Y-110459476D01*
X150532675Y-110309125D01*
X150382324Y-110185735D01*
X150210789Y-110094048D01*
X150068206Y-110050796D01*
X153092213Y-107026790D01*
X153109529Y-107012579D01*
X153166263Y-106943449D01*
X153208420Y-106864579D01*
X153234380Y-106778999D01*
X153240950Y-106712295D01*
X153240950Y-106712289D01*
X153243145Y-106690001D01*
X153240950Y-106667713D01*
X153240950Y-98444038D01*
X153243145Y-98421750D01*
X153240950Y-98399462D01*
X153240950Y-98399455D01*
X153234380Y-98332751D01*
X153212448Y-98260448D01*
X153208420Y-98247171D01*
X153185417Y-98204136D01*
X153166263Y-98168301D01*
X153109529Y-98099171D01*
X153092214Y-98084961D01*
X152923089Y-97915837D01*
X153072675Y-97793075D01*
X153196065Y-97642724D01*
X153287752Y-97471190D01*
X153344213Y-97285064D01*
X153358500Y-97140003D01*
X153358500Y-95722197D01*
X153344213Y-95577136D01*
X153287752Y-95391010D01*
X153196065Y-95219476D01*
X153072675Y-95069125D01*
X152968950Y-94984000D01*
X154313250Y-94984000D01*
X154209525Y-95069125D01*
X154086135Y-95219476D01*
X153994448Y-95391011D01*
X153937987Y-95577137D01*
X153923700Y-95722198D01*
X153923701Y-97140003D01*
X153937988Y-97285064D01*
X153994449Y-97471190D01*
X154086136Y-97642724D01*
X154209526Y-97793075D01*
X154359877Y-97916465D01*
X154531411Y-98008152D01*
X154717537Y-98064613D01*
X154911100Y-98083677D01*
X155104664Y-98064613D01*
X155290790Y-98008152D01*
X155462324Y-97916465D01*
X155566001Y-97831380D01*
X155566000Y-105844655D01*
X151126028Y-110284628D01*
X151108712Y-110298839D01*
X151094501Y-110316155D01*
X151094499Y-110316157D01*
X151081570Y-110331911D01*
X151051978Y-110367969D01*
X151041576Y-110387430D01*
X151009820Y-110446840D01*
X150983860Y-110532419D01*
X150975095Y-110621418D01*
X150977291Y-110643716D01*
X150977290Y-113457902D01*
X150975095Y-113480190D01*
X150977290Y-113502478D01*
X150977290Y-113502484D01*
X150982507Y-113555451D01*
X150983860Y-113569189D01*
X150999636Y-113621195D01*
X151009820Y-113654768D01*
X151051977Y-113733638D01*
X151108711Y-113802769D01*
X151126032Y-113816984D01*
X151857101Y-114548054D01*
X151857100Y-117387077D01*
X151814262Y-117415701D01*
X151705701Y-117524262D01*
X151620405Y-117651916D01*
X151561652Y-117793757D01*
X151531700Y-117944336D01*
X151531700Y-118097864D01*
X151561652Y-118248443D01*
X151620405Y-118390284D01*
X151705701Y-118517938D01*
X151814262Y-118626499D01*
X151941916Y-118711795D01*
X152083757Y-118770548D01*
X152234336Y-118800500D01*
X152387864Y-118800500D01*
X152538443Y-118770548D01*
X152680284Y-118711795D01*
X152807938Y-118626499D01*
X152916499Y-118517938D01*
X153001795Y-118390284D01*
X153060548Y-118248443D01*
X153090500Y-118097864D01*
X153090500Y-117944336D01*
X153060548Y-117793757D01*
X153001795Y-117651916D01*
X152916499Y-117524262D01*
X152807938Y-117415701D01*
X152765100Y-117387077D01*
X152765100Y-114382287D01*
X152767295Y-114359999D01*
X152765100Y-114337711D01*
X152765100Y-114337705D01*
X152758530Y-114271001D01*
X152753314Y-114253804D01*
X152732570Y-114185421D01*
X152698387Y-114121470D01*
X152690413Y-114106551D01*
X152664173Y-114074578D01*
X152647891Y-114054738D01*
X152647890Y-114054737D01*
X152633679Y-114037421D01*
X152616363Y-114023210D01*
X151885290Y-113292138D01*
X151885290Y-113191429D01*
X151991411Y-113248152D01*
X152177537Y-113304613D01*
X152371100Y-113323677D01*
X152564664Y-113304613D01*
X152750790Y-113248152D01*
X152922324Y-113156465D01*
X153072675Y-113033075D01*
X153196065Y-112882724D01*
X153287752Y-112711190D01*
X153344213Y-112525064D01*
X153358500Y-112380003D01*
X153358500Y-110962197D01*
X153344213Y-110817136D01*
X153287752Y-110631010D01*
X153196065Y-110459476D01*
X153072675Y-110309125D01*
X152922324Y-110185735D01*
X152750789Y-110094048D01*
X152635642Y-110059118D01*
X156325264Y-106369497D01*
X156342579Y-106355287D01*
X156399313Y-106286157D01*
X156441470Y-106207287D01*
X156467430Y-106121707D01*
X156467833Y-106117621D01*
X156468259Y-106113287D01*
X156474000Y-106055003D01*
X156474000Y-106054996D01*
X156476195Y-106032708D01*
X156474000Y-106010420D01*
X156474000Y-97244572D01*
X156477988Y-97285064D01*
X156534449Y-97471190D01*
X156626136Y-97642724D01*
X156749526Y-97793075D01*
X156899877Y-97916465D01*
X157071411Y-98008152D01*
X157257537Y-98064613D01*
X157451100Y-98083677D01*
X157644664Y-98064613D01*
X157830790Y-98008152D01*
X158002324Y-97916465D01*
X158152675Y-97793075D01*
X158276065Y-97642724D01*
X158367752Y-97471190D01*
X158424213Y-97285064D01*
X158438500Y-97140003D01*
X158438500Y-95722197D01*
X158424213Y-95577136D01*
X158367752Y-95391010D01*
X158276065Y-95219476D01*
X158152675Y-95069125D01*
X158002324Y-94945735D01*
X157830789Y-94854048D01*
X157644663Y-94797587D01*
X157451100Y-94778523D01*
X157257536Y-94797587D01*
X157071410Y-94854048D01*
X156899876Y-94945735D01*
X156749525Y-95069125D01*
X156626135Y-95219476D01*
X156534448Y-95391011D01*
X156477987Y-95577137D01*
X156474000Y-95617618D01*
X156474000Y-95392287D01*
X156476195Y-95369999D01*
X156474000Y-95347711D01*
X156474000Y-95347705D01*
X156467430Y-95281001D01*
X156441470Y-95195421D01*
X156399313Y-95116551D01*
X156342579Y-95047421D01*
X156325263Y-95033210D01*
X155637152Y-94345100D01*
X159203048Y-94345100D01*
X159537100Y-94679153D01*
X159537100Y-94893767D01*
X159439876Y-94945735D01*
X159289525Y-95069125D01*
X159166135Y-95219476D01*
X159074448Y-95391011D01*
X159017987Y-95577137D01*
X159003700Y-95722198D01*
X159003701Y-97140003D01*
X159017988Y-97285064D01*
X159074449Y-97471190D01*
X159166136Y-97642724D01*
X159289526Y-97793075D01*
X159439877Y-97916465D01*
X159611411Y-98008152D01*
X159797537Y-98064613D01*
X159991100Y-98083677D01*
X160184664Y-98064613D01*
X160370790Y-98008152D01*
X160542324Y-97916465D01*
X160692675Y-97793075D01*
X160816065Y-97642724D01*
X160907752Y-97471190D01*
X160964213Y-97285064D01*
X160978500Y-97140003D01*
X160978500Y-96456100D01*
X161439700Y-96456100D01*
X161439700Y-97116500D01*
X161465548Y-97328941D01*
X161532345Y-97532258D01*
X161637523Y-97718636D01*
X161777041Y-97880914D01*
X161945537Y-98012855D01*
X162136536Y-98109389D01*
X162335720Y-98165270D01*
X162506100Y-98074832D01*
X162506100Y-96456100D01*
X162556100Y-96456100D01*
X162556100Y-98074832D01*
X162726480Y-98165270D01*
X162925664Y-98109389D01*
X163116663Y-98012855D01*
X163285159Y-97880914D01*
X163424677Y-97718636D01*
X163529855Y-97532258D01*
X163596652Y-97328941D01*
X163622500Y-97116500D01*
X163622500Y-96456100D01*
X162556100Y-96456100D01*
X162506100Y-96456100D01*
X161439700Y-96456100D01*
X160978500Y-96456100D01*
X160978500Y-95745700D01*
X161439700Y-95745700D01*
X161439700Y-96406100D01*
X162506100Y-96406100D01*
X162506100Y-94787368D01*
X162556100Y-94787368D01*
X162556100Y-96406100D01*
X163622500Y-96406100D01*
X163622500Y-95745700D01*
X163596652Y-95533259D01*
X163529855Y-95329942D01*
X163424677Y-95143564D01*
X163285159Y-94981286D01*
X163116663Y-94849345D01*
X162925664Y-94752811D01*
X162726480Y-94696930D01*
X162556100Y-94787368D01*
X162506100Y-94787368D01*
X162335720Y-94696930D01*
X162136536Y-94752811D01*
X161945537Y-94849345D01*
X161777041Y-94981286D01*
X161637523Y-95143564D01*
X161532345Y-95329942D01*
X161465548Y-95533259D01*
X161439700Y-95745700D01*
X160978500Y-95745700D01*
X160978500Y-95722197D01*
X160964213Y-95577136D01*
X160907752Y-95391010D01*
X160816065Y-95219476D01*
X160692675Y-95069125D01*
X160542324Y-94945735D01*
X160445100Y-94893768D01*
X160445100Y-94513387D01*
X160447295Y-94491099D01*
X160445100Y-94468811D01*
X160445100Y-94468805D01*
X160438530Y-94402101D01*
X160412570Y-94316521D01*
X160370413Y-94237651D01*
X160313679Y-94168521D01*
X160296364Y-94154311D01*
X159727894Y-93585842D01*
X159713679Y-93568521D01*
X159644549Y-93511787D01*
X159565679Y-93469630D01*
X159480099Y-93443670D01*
X159413395Y-93437100D01*
X159413388Y-93437100D01*
X159391100Y-93434905D01*
X159368812Y-93437100D01*
X150403896Y-93437100D01*
X150381608Y-93434905D01*
X150359320Y-93437100D01*
X150359313Y-93437100D01*
X150301029Y-93442841D01*
X150292608Y-93443670D01*
X150207029Y-93469630D01*
X150128159Y-93511787D01*
X150059029Y-93568521D01*
X150044818Y-93585837D01*
X148215175Y-95415481D01*
X148207752Y-95391010D01*
X148116065Y-95219476D01*
X147992675Y-95069125D01*
X147842324Y-94945735D01*
X147670789Y-94854048D01*
X147484663Y-94797587D01*
X147291100Y-94778523D01*
X147097536Y-94797587D01*
X146911410Y-94854048D01*
X146739876Y-94945735D01*
X146589525Y-95069125D01*
X146466135Y-95219476D01*
X146374448Y-95391011D01*
X146317987Y-95577137D01*
X146303700Y-95722198D01*
X146303701Y-97140003D01*
X146317988Y-97285064D01*
X146374449Y-97471190D01*
X146466136Y-97642724D01*
X146589526Y-97793075D01*
X146739111Y-97915836D01*
X146137848Y-98517100D01*
X142808384Y-98517100D01*
X142786099Y-98514905D01*
X142763814Y-98517100D01*
X142763805Y-98517100D01*
X142697101Y-98523670D01*
X142611521Y-98549630D01*
X142532651Y-98591787D01*
X142463521Y-98648521D01*
X142449310Y-98665837D01*
X140133134Y-100982014D01*
X140113705Y-100935108D01*
X139980629Y-100735945D01*
X139811255Y-100566571D01*
X139612092Y-100433495D01*
X139390794Y-100341830D01*
X139155866Y-100295100D01*
X138916334Y-100295100D01*
X138681406Y-100341830D01*
X138460108Y-100433495D01*
X138260945Y-100566571D01*
X138091571Y-100735945D01*
X137958495Y-100935108D01*
X137907964Y-101057100D01*
X135182188Y-101057100D01*
X135159900Y-101054905D01*
X135137612Y-101057100D01*
X135137605Y-101057100D01*
X135079321Y-101062841D01*
X135070900Y-101063670D01*
X134985321Y-101089630D01*
X134906451Y-101131787D01*
X134837321Y-101188521D01*
X134823110Y-101205837D01*
X132410889Y-103618058D01*
X132274623Y-103576722D01*
X132071100Y-103556677D01*
X131867578Y-103576722D01*
X131671877Y-103636088D01*
X131491517Y-103732492D01*
X131333431Y-103862230D01*
X131203693Y-104020316D01*
X131107289Y-104200676D01*
X131047923Y-104396377D01*
X131032901Y-104548900D01*
X131032900Y-106073299D01*
X131047922Y-106225822D01*
X131107288Y-106421523D01*
X131203692Y-106601884D01*
X131333430Y-106759970D01*
X131491516Y-106889708D01*
X131508152Y-106898600D01*
X131491516Y-106907492D01*
X131333430Y-107037230D01*
X131203692Y-107195316D01*
X131107288Y-107375677D01*
X131047922Y-107571378D01*
X131032900Y-107723901D01*
X131032901Y-109248300D01*
X131047923Y-109400823D01*
X131107289Y-109596524D01*
X131203693Y-109776884D01*
X131333431Y-109934970D01*
X131425962Y-110010908D01*
X131281121Y-110124565D01*
X131135285Y-110294541D01*
X131025412Y-110489702D01*
X130955724Y-110702548D01*
X130928900Y-110924900D01*
X130928900Y-111636100D01*
X132046100Y-111636100D01*
X132046100Y-111616100D01*
X132096100Y-111616100D01*
X132096100Y-111636100D01*
X133213300Y-111636100D01*
X133213300Y-110924900D01*
X133186476Y-110702548D01*
X133116788Y-110489702D01*
X133006915Y-110294541D01*
X132861079Y-110124565D01*
X132716238Y-110010909D01*
X132808770Y-109934970D01*
X132938508Y-109776884D01*
X133034912Y-109596524D01*
X133094278Y-109400823D01*
X133109300Y-109248300D01*
X133109300Y-107723900D01*
X133094278Y-107571377D01*
X133034912Y-107375676D01*
X132938508Y-107195316D01*
X132808770Y-107037230D01*
X132650684Y-106907492D01*
X132634048Y-106898600D01*
X132650684Y-106889708D01*
X132808770Y-106759970D01*
X132938508Y-106601884D01*
X133034912Y-106421524D01*
X133094278Y-106225823D01*
X133109300Y-106073300D01*
X133109300Y-104548900D01*
X133094278Y-104396377D01*
X133052942Y-104260111D01*
X135347953Y-101965100D01*
X137907964Y-101965100D01*
X137958495Y-102087092D01*
X138091571Y-102286255D01*
X138260945Y-102455629D01*
X138460108Y-102588705D01*
X138681406Y-102680370D01*
X138916334Y-102727100D01*
X139155866Y-102727100D01*
X139390794Y-102680370D01*
X139612092Y-102588705D01*
X139811255Y-102455629D01*
X139980629Y-102286255D01*
X140113705Y-102087092D01*
X140164236Y-101965100D01*
X140223812Y-101965100D01*
X140246100Y-101967295D01*
X140268388Y-101965100D01*
X140268395Y-101965100D01*
X140335099Y-101958530D01*
X140420679Y-101932570D01*
X140499549Y-101890413D01*
X140568679Y-101833679D01*
X140582894Y-101816358D01*
X142974153Y-99425100D01*
X144195057Y-99425100D01*
X144121669Y-99474136D01*
X143984136Y-99611669D01*
X143876077Y-99773391D01*
X143801645Y-99953086D01*
X143763700Y-100143850D01*
X143763700Y-100338350D01*
X143801645Y-100529114D01*
X143876077Y-100708809D01*
X143984136Y-100870531D01*
X144121669Y-101008064D01*
X144283391Y-101116123D01*
X144463086Y-101190555D01*
X144653850Y-101228500D01*
X144848350Y-101228500D01*
X145039114Y-101190555D01*
X145218809Y-101116123D01*
X145380531Y-101008064D01*
X145518064Y-100870531D01*
X145626123Y-100708809D01*
X145700555Y-100529114D01*
X145738500Y-100338350D01*
X145738500Y-100143850D01*
X145700555Y-99953086D01*
X145626123Y-99773391D01*
X145518064Y-99611669D01*
X145380531Y-99474136D01*
X145307143Y-99425100D01*
X146303612Y-99425100D01*
X146325900Y-99427295D01*
X146414899Y-99418530D01*
X146500478Y-99392570D01*
X146579348Y-99350412D01*
X146631161Y-99307891D01*
X147596363Y-98342690D01*
X147613679Y-98328479D01*
X147670413Y-98259349D01*
X147712570Y-98180479D01*
X147735163Y-98105999D01*
X147738530Y-98094900D01*
X147743697Y-98042437D01*
X147745100Y-98028195D01*
X147745100Y-98028188D01*
X147747295Y-98005900D01*
X147745100Y-97983612D01*
X147745100Y-97968432D01*
X147842324Y-97916465D01*
X147992675Y-97793075D01*
X148016000Y-97764653D01*
X148016000Y-99569605D01*
X147920531Y-99474136D01*
X147758809Y-99366077D01*
X147579114Y-99291645D01*
X147388350Y-99253700D01*
X147193850Y-99253700D01*
X147003086Y-99291645D01*
X146823391Y-99366077D01*
X146661669Y-99474136D01*
X146524136Y-99611669D01*
X146416077Y-99773391D01*
X146341645Y-99953086D01*
X146303700Y-100143850D01*
X146303700Y-100338350D01*
X146341645Y-100529114D01*
X146347324Y-100542824D01*
X146330478Y-100559670D01*
X146307022Y-100578920D01*
X146292811Y-100596236D01*
X143291948Y-103597100D01*
X140164236Y-103597100D01*
X140113705Y-103475108D01*
X139980629Y-103275945D01*
X139811255Y-103106571D01*
X139612092Y-102973495D01*
X139390794Y-102881830D01*
X139155866Y-102835100D01*
X138916334Y-102835100D01*
X138681406Y-102881830D01*
X138460108Y-102973495D01*
X138260945Y-103106571D01*
X138091571Y-103275945D01*
X137958495Y-103475108D01*
X137866830Y-103696406D01*
X137820100Y-103931334D01*
X137820100Y-104170866D01*
X137866830Y-104405794D01*
X137958495Y-104627092D01*
X138091571Y-104826255D01*
X138260945Y-104995629D01*
X138460108Y-105128705D01*
X138681406Y-105220370D01*
X138916334Y-105267100D01*
X139155866Y-105267100D01*
X139390794Y-105220370D01*
X139612092Y-105128705D01*
X139811255Y-104995629D01*
X139980629Y-104826255D01*
X140113705Y-104627092D01*
X140164236Y-104505100D01*
X143457712Y-104505100D01*
X143480000Y-104507295D01*
X143502288Y-104505100D01*
X143502295Y-104505100D01*
X143568999Y-104498530D01*
X143654579Y-104472570D01*
X143733449Y-104430413D01*
X143802579Y-104373679D01*
X143816794Y-104356358D01*
X146929829Y-101243323D01*
X146953280Y-101224078D01*
X146967495Y-101206757D01*
X146989376Y-101184876D01*
X147003086Y-101190555D01*
X147193850Y-101228500D01*
X147388350Y-101228500D01*
X147579114Y-101190555D01*
X147758809Y-101116123D01*
X147920531Y-101008064D01*
X148016001Y-100912594D01*
X148016001Y-103894146D01*
X147124743Y-104785405D01*
X147124738Y-104785409D01*
X145954738Y-105955410D01*
X145937422Y-105969621D01*
X145880688Y-106038751D01*
X145872002Y-106055002D01*
X145838530Y-106117622D01*
X145812570Y-106203201D01*
X145803805Y-106292200D01*
X145806001Y-106314498D01*
X145806000Y-112706612D01*
X145803805Y-112728900D01*
X145806000Y-112751188D01*
X145806000Y-112751194D01*
X145808075Y-112772258D01*
X145812570Y-112817899D01*
X145815785Y-112828496D01*
X145838530Y-112903478D01*
X145880687Y-112982348D01*
X145937421Y-113051479D01*
X145954742Y-113065694D01*
X146777101Y-113888054D01*
X146777100Y-117387077D01*
X146734262Y-117415701D01*
X146625701Y-117524262D01*
X146540405Y-117651916D01*
X146481652Y-117793757D01*
X146464092Y-117882039D01*
X141828819Y-113246767D01*
X141831411Y-113248152D01*
X142017537Y-113304613D01*
X142211100Y-113323677D01*
X142404664Y-113304613D01*
X142590790Y-113248152D01*
X142762324Y-113156465D01*
X142912675Y-113033075D01*
X143036065Y-112882724D01*
X143127752Y-112711190D01*
X143184213Y-112525064D01*
X143198500Y-112380003D01*
X143198500Y-110962198D01*
X143763700Y-110962198D01*
X143763701Y-112380003D01*
X143777988Y-112525064D01*
X143834449Y-112711190D01*
X143926136Y-112882724D01*
X144049526Y-113033075D01*
X144199877Y-113156465D01*
X144371411Y-113248152D01*
X144557537Y-113304613D01*
X144751100Y-113323677D01*
X144944664Y-113304613D01*
X145130790Y-113248152D01*
X145302324Y-113156465D01*
X145452675Y-113033075D01*
X145576065Y-112882724D01*
X145667752Y-112711190D01*
X145724213Y-112525064D01*
X145738500Y-112380003D01*
X145738500Y-110962197D01*
X145724213Y-110817136D01*
X145667752Y-110631010D01*
X145576065Y-110459476D01*
X145452675Y-110309125D01*
X145302324Y-110185735D01*
X145130789Y-110094048D01*
X144944663Y-110037587D01*
X144751100Y-110018523D01*
X144557536Y-110037587D01*
X144371410Y-110094048D01*
X144199876Y-110185735D01*
X144049525Y-110309125D01*
X143926135Y-110459476D01*
X143834448Y-110631011D01*
X143777987Y-110817137D01*
X143763700Y-110962198D01*
X143198500Y-110962198D01*
X143198500Y-110962197D01*
X143184213Y-110817136D01*
X143127752Y-110631010D01*
X143036065Y-110459476D01*
X142912675Y-110309125D01*
X142762324Y-110185735D01*
X142590789Y-110094048D01*
X142404663Y-110037587D01*
X142211100Y-110018523D01*
X142017536Y-110037587D01*
X141831410Y-110094048D01*
X141659876Y-110185735D01*
X141509525Y-110309125D01*
X141386135Y-110459476D01*
X141294448Y-110631011D01*
X141237987Y-110817137D01*
X141223700Y-110962198D01*
X141223701Y-112380003D01*
X141237988Y-112525064D01*
X141294449Y-112711190D01*
X141295834Y-112713782D01*
X136762895Y-108180843D01*
X136748679Y-108163521D01*
X136679549Y-108106787D01*
X136600679Y-108064630D01*
X136515099Y-108038670D01*
X136448395Y-108032100D01*
X136448388Y-108032100D01*
X136426100Y-108029905D01*
X136403812Y-108032100D01*
X135649300Y-108032100D01*
X135649300Y-107723900D01*
X135634278Y-107571377D01*
X135574912Y-107375676D01*
X135478508Y-107195316D01*
X135348770Y-107037230D01*
X135190684Y-106907492D01*
X135174048Y-106898600D01*
X135190684Y-106889708D01*
X135348770Y-106759970D01*
X135478508Y-106601884D01*
X135548288Y-106471334D01*
X137820100Y-106471334D01*
X137820100Y-106710866D01*
X137866830Y-106945794D01*
X137958495Y-107167092D01*
X138091571Y-107366255D01*
X138260945Y-107535629D01*
X138460108Y-107668705D01*
X138681406Y-107760370D01*
X138916334Y-107807100D01*
X139155866Y-107807100D01*
X139373298Y-107763850D01*
X143763700Y-107763850D01*
X143763700Y-107958350D01*
X143801645Y-108149114D01*
X143876077Y-108328809D01*
X143984136Y-108490531D01*
X144121669Y-108628064D01*
X144283391Y-108736123D01*
X144463086Y-108810555D01*
X144653850Y-108848500D01*
X144848350Y-108848500D01*
X145039114Y-108810555D01*
X145218809Y-108736123D01*
X145380531Y-108628064D01*
X145518064Y-108490531D01*
X145626123Y-108328809D01*
X145700555Y-108149114D01*
X145738500Y-107958350D01*
X145738500Y-107763850D01*
X145700555Y-107573086D01*
X145626123Y-107393391D01*
X145518064Y-107231669D01*
X145380531Y-107094136D01*
X145218809Y-106986077D01*
X145039114Y-106911645D01*
X144848350Y-106873700D01*
X144653850Y-106873700D01*
X144463086Y-106911645D01*
X144283391Y-106986077D01*
X144121669Y-107094136D01*
X143984136Y-107231669D01*
X143876077Y-107393391D01*
X143801645Y-107573086D01*
X143763700Y-107763850D01*
X139373298Y-107763850D01*
X139390794Y-107760370D01*
X139612092Y-107668705D01*
X139811255Y-107535629D01*
X139980629Y-107366255D01*
X140113705Y-107167092D01*
X140205370Y-106945794D01*
X140252100Y-106710866D01*
X140252100Y-106471334D01*
X140205370Y-106236406D01*
X140113705Y-106015108D01*
X139980629Y-105815945D01*
X139811255Y-105646571D01*
X139612092Y-105513495D01*
X139390794Y-105421830D01*
X139155866Y-105375100D01*
X138916334Y-105375100D01*
X138681406Y-105421830D01*
X138460108Y-105513495D01*
X138260945Y-105646571D01*
X138091571Y-105815945D01*
X137958495Y-106015108D01*
X137866830Y-106236406D01*
X137820100Y-106471334D01*
X135548288Y-106471334D01*
X135574912Y-106421524D01*
X135634278Y-106225823D01*
X135649300Y-106073300D01*
X135649300Y-104548900D01*
X135634278Y-104396377D01*
X135574912Y-104200676D01*
X135478508Y-104020316D01*
X135348770Y-103862230D01*
X135190684Y-103732492D01*
X135010324Y-103636088D01*
X134814623Y-103576722D01*
X134611100Y-103556677D01*
X134407578Y-103576722D01*
X134211877Y-103636088D01*
X134031517Y-103732492D01*
X133873431Y-103862230D01*
X133743693Y-104020316D01*
X133647289Y-104200676D01*
X133587923Y-104396377D01*
X133572901Y-104548900D01*
X133572900Y-106073299D01*
X133587922Y-106225822D01*
X133647288Y-106421523D01*
X133743692Y-106601884D01*
X133873430Y-106759970D01*
X134031516Y-106889708D01*
X134048152Y-106898600D01*
X134031516Y-106907492D01*
X133873430Y-107037230D01*
X133743692Y-107195316D01*
X133647288Y-107375677D01*
X133587922Y-107571378D01*
X133572900Y-107723901D01*
X133572901Y-109248300D01*
X133587923Y-109400823D01*
X133647289Y-109596524D01*
X133743693Y-109776884D01*
X133873431Y-109934970D01*
X134031517Y-110064708D01*
X134048152Y-110073600D01*
X134031516Y-110082492D01*
X133873430Y-110212230D01*
X133743692Y-110370316D01*
X133647288Y-110550677D01*
X133587922Y-110746378D01*
X133572900Y-110898901D01*
X133572901Y-112423300D01*
X133587923Y-112575823D01*
X133647289Y-112771524D01*
X133743693Y-112951884D01*
X133873431Y-113109970D01*
X134031517Y-113239708D01*
X134211877Y-113336112D01*
X134407578Y-113395478D01*
X134611100Y-113415523D01*
X134814623Y-113395478D01*
X135010324Y-113336112D01*
X135190684Y-113239708D01*
X135348770Y-113109970D01*
X135478508Y-112951884D01*
X135574912Y-112771524D01*
X135634278Y-112575823D01*
X135649300Y-112423300D01*
X135649300Y-112161352D01*
X141697101Y-118209154D01*
X141697101Y-119831503D01*
X140065100Y-119831503D01*
X140065100Y-118843387D01*
X140067295Y-118821099D01*
X140065100Y-118798811D01*
X140065100Y-118798805D01*
X140058530Y-118732101D01*
X140057531Y-118728806D01*
X140032570Y-118646521D01*
X140008991Y-118602408D01*
X139990413Y-118567651D01*
X139933679Y-118498521D01*
X139916363Y-118484310D01*
X137706794Y-116274742D01*
X137692579Y-116257421D01*
X137623449Y-116200687D01*
X137544579Y-116158530D01*
X137458999Y-116132570D01*
X137392295Y-116126000D01*
X137392288Y-116126000D01*
X137370000Y-116123805D01*
X137347712Y-116126000D01*
X133926853Y-116126000D01*
X130512942Y-112712089D01*
X130554278Y-112575823D01*
X130569300Y-112423300D01*
X130569300Y-111686100D01*
X130928900Y-111686100D01*
X130928900Y-112397300D01*
X130955724Y-112619652D01*
X131025412Y-112832498D01*
X131135285Y-113027659D01*
X131281121Y-113197635D01*
X131457315Y-113335894D01*
X131657097Y-113437122D01*
X131867771Y-113496256D01*
X132046100Y-113406448D01*
X132046100Y-111686100D01*
X132096100Y-111686100D01*
X132096100Y-113406448D01*
X132274429Y-113496256D01*
X132485103Y-113437122D01*
X132684885Y-113335894D01*
X132861079Y-113197635D01*
X133006915Y-113027659D01*
X133116788Y-112832498D01*
X133186476Y-112619652D01*
X133213300Y-112397300D01*
X133213300Y-111686100D01*
X132096100Y-111686100D01*
X132046100Y-111686100D01*
X130928900Y-111686100D01*
X130569300Y-111686100D01*
X130569300Y-110898900D01*
X130554278Y-110746377D01*
X130494912Y-110550676D01*
X130398508Y-110370316D01*
X130268770Y-110212230D01*
X130110684Y-110082492D01*
X130094048Y-110073600D01*
X130110684Y-110064708D01*
X130268770Y-109934970D01*
X130398508Y-109776884D01*
X130494912Y-109596524D01*
X130554278Y-109400823D01*
X130569300Y-109248300D01*
X130569300Y-107723900D01*
X130554278Y-107571377D01*
X130494912Y-107375676D01*
X130398508Y-107195316D01*
X130268770Y-107037230D01*
X130110684Y-106907492D01*
X129930323Y-106811088D01*
X129734622Y-106751722D01*
X129531100Y-106731677D01*
X129327577Y-106751722D01*
X129131876Y-106811088D01*
X128951516Y-106907492D01*
X128793430Y-107037230D01*
X128663692Y-107195316D01*
X128567288Y-107375677D01*
X128507922Y-107571378D01*
X128492900Y-107723901D01*
X128492901Y-109248300D01*
X128507923Y-109400823D01*
X128567289Y-109596524D01*
X128663693Y-109776884D01*
X128793431Y-109934970D01*
X128951517Y-110064708D01*
X128968152Y-110073600D01*
X128951516Y-110082492D01*
X128793430Y-110212230D01*
X128663692Y-110370316D01*
X128567288Y-110550677D01*
X128507922Y-110746378D01*
X128492900Y-110898901D01*
X128492901Y-112423300D01*
X128507923Y-112575823D01*
X128567289Y-112771524D01*
X128663693Y-112951884D01*
X128793431Y-113109970D01*
X128951517Y-113239708D01*
X129131877Y-113336112D01*
X129327578Y-113395478D01*
X129531100Y-113415523D01*
X129734623Y-113395478D01*
X129870889Y-113354142D01*
X133402008Y-116885261D01*
X133416221Y-116902579D01*
X133485351Y-116959313D01*
X133564221Y-117001470D01*
X133649800Y-117027430D01*
X133659101Y-117028346D01*
X133716505Y-117034000D01*
X133716511Y-117034000D01*
X133738799Y-117036195D01*
X133761087Y-117034000D01*
X137181948Y-117034000D01*
X139157101Y-119009154D01*
X139157101Y-119831503D01*
X127441300Y-119831503D01*
X127441300Y-116444941D01*
X127443865Y-116418901D01*
X127441300Y-116392861D01*
X127441300Y-105208515D01*
X133148516Y-99501300D01*
X138202832Y-99501300D01*
X138269136Y-99600531D01*
X138406669Y-99738064D01*
X138568391Y-99846123D01*
X138748086Y-99920555D01*
X138938850Y-99958500D01*
X139133350Y-99958500D01*
X139324114Y-99920555D01*
X139503809Y-99846123D01*
X139665531Y-99738064D01*
X139803064Y-99600531D01*
X139911123Y-99438809D01*
X139985555Y-99259114D01*
X140023500Y-99068350D01*
X140023500Y-98873850D01*
X140000217Y-98756798D01*
X141292442Y-97464574D01*
X141294449Y-97471190D01*
X141386136Y-97642724D01*
X141509526Y-97793075D01*
X141659877Y-97916465D01*
X141831411Y-98008152D01*
X142017537Y-98064613D01*
X142211100Y-98083677D01*
X142404664Y-98064613D01*
X142590790Y-98008152D01*
X142762324Y-97916465D01*
X142912675Y-97793075D01*
X143036065Y-97642724D01*
X143127752Y-97471190D01*
X143184213Y-97285064D01*
X143198500Y-97140003D01*
X143198500Y-95722198D01*
X143763700Y-95722198D01*
X143763701Y-97140003D01*
X143777988Y-97285064D01*
X143834449Y-97471190D01*
X143926136Y-97642724D01*
X144049526Y-97793075D01*
X144199877Y-97916465D01*
X144371411Y-98008152D01*
X144557537Y-98064613D01*
X144751100Y-98083677D01*
X144944664Y-98064613D01*
X145130790Y-98008152D01*
X145302324Y-97916465D01*
X145452675Y-97793075D01*
X145576065Y-97642724D01*
X145667752Y-97471190D01*
X145724213Y-97285064D01*
X145738500Y-97140003D01*
X145738500Y-95722197D01*
X145724213Y-95577136D01*
X145667752Y-95391010D01*
X145576065Y-95219476D01*
X145452675Y-95069125D01*
X145302324Y-94945735D01*
X145130789Y-94854048D01*
X144944663Y-94797587D01*
X144751100Y-94778523D01*
X144557536Y-94797587D01*
X144371410Y-94854048D01*
X144199876Y-94945735D01*
X144049525Y-95069125D01*
X143926135Y-95219476D01*
X143834448Y-95391011D01*
X143777987Y-95577137D01*
X143763700Y-95722198D01*
X143198500Y-95722198D01*
X143198500Y-95722197D01*
X143184213Y-95577136D01*
X143127752Y-95391010D01*
X143036065Y-95219476D01*
X142912675Y-95069125D01*
X142762324Y-94945735D01*
X142590789Y-94854048D01*
X142404663Y-94797587D01*
X142211100Y-94778523D01*
X142017536Y-94797587D01*
X141831410Y-94854048D01*
X141659876Y-94945735D01*
X141509525Y-95069125D01*
X141386135Y-95219476D01*
X141294448Y-95391011D01*
X141237987Y-95577137D01*
X141223700Y-95722198D01*
X141223700Y-96034417D01*
X141199378Y-96054378D01*
X141182775Y-96074609D01*
X139250402Y-98006983D01*
X139133350Y-97983700D01*
X138938850Y-97983700D01*
X138748086Y-98021645D01*
X138568391Y-98096077D01*
X138406669Y-98204136D01*
X138269136Y-98341669D01*
X138202832Y-98440900D01*
X132954939Y-98440900D01*
X132928899Y-98438335D01*
X132902859Y-98440900D01*
X132902857Y-98440900D01*
X132824963Y-98448572D01*
X132725020Y-98478889D01*
X132632912Y-98528122D01*
X132552178Y-98594378D01*
X132535576Y-98614608D01*
X126554610Y-104595575D01*
X126534379Y-104612178D01*
X126517777Y-104632408D01*
X126468123Y-104692912D01*
X126418890Y-104785020D01*
X126388573Y-104884963D01*
X126378335Y-104988900D01*
X126380901Y-105014950D01*
X126380900Y-115873957D01*
X126380900Y-116199284D01*
X124014614Y-118565571D01*
X123994378Y-118582178D01*
X123928122Y-118662912D01*
X123878889Y-118755021D01*
X123848572Y-118854964D01*
X123841607Y-118925678D01*
X123838335Y-118958900D01*
X123840900Y-118984940D01*
X123840900Y-119831503D01*
X122743127Y-119831503D01*
X122706818Y-119816463D01*
X122623550Y-119799900D01*
X121963850Y-119799900D01*
X121932247Y-119831503D01*
X121729953Y-119831503D01*
X121698350Y-119799900D01*
X121038650Y-119799900D01*
X120955382Y-119816463D01*
X120919073Y-119831503D01*
X120003112Y-119831503D01*
X120005275Y-97147834D01*
X138354721Y-97147834D01*
X138411880Y-97332798D01*
X138599786Y-97437251D01*
X138804460Y-97503039D01*
X139018036Y-97527632D01*
X139232305Y-97510087D01*
X139439036Y-97451077D01*
X139630281Y-97352870D01*
X139660320Y-97332798D01*
X139717479Y-97147834D01*
X139036100Y-96466455D01*
X138354721Y-97147834D01*
X120005275Y-97147834D01*
X120005346Y-96413036D01*
X137939568Y-96413036D01*
X137957113Y-96627305D01*
X138016123Y-96834036D01*
X138114330Y-97025281D01*
X138134402Y-97055320D01*
X138319366Y-97112479D01*
X139000745Y-96431100D01*
X139071455Y-96431100D01*
X139752834Y-97112479D01*
X139937798Y-97055320D01*
X140042251Y-96867414D01*
X140108039Y-96662740D01*
X140132632Y-96449164D01*
X140115087Y-96234895D01*
X140056077Y-96028164D01*
X139957870Y-95836919D01*
X139937798Y-95806880D01*
X139752834Y-95749721D01*
X139071455Y-96431100D01*
X139000745Y-96431100D01*
X138319366Y-95749721D01*
X138134402Y-95806880D01*
X138029949Y-95994786D01*
X137964161Y-96199460D01*
X137939568Y-96413036D01*
X120005346Y-96413036D01*
X120005412Y-95714366D01*
X138354721Y-95714366D01*
X139036100Y-96395745D01*
X139717479Y-95714366D01*
X139660320Y-95529402D01*
X139472414Y-95424949D01*
X139267740Y-95359161D01*
X139054164Y-95334568D01*
X138839895Y-95352113D01*
X138633164Y-95411123D01*
X138441919Y-95509330D01*
X138411880Y-95529402D01*
X138354721Y-95714366D01*
X120005412Y-95714366D01*
X120006400Y-85353725D01*
X145634100Y-85353725D01*
X145634100Y-85918475D01*
X145744277Y-86472373D01*
X145960398Y-86994134D01*
X146274156Y-87463706D01*
X146673494Y-87863044D01*
X147143066Y-88176802D01*
X147664827Y-88392923D01*
X148218725Y-88503100D01*
X148783475Y-88503100D01*
X149337373Y-88392923D01*
X149859134Y-88176802D01*
X150328706Y-87863044D01*
X150728044Y-87463706D01*
X151041802Y-86994134D01*
X151257923Y-86472373D01*
X151368100Y-85918475D01*
X151368100Y-85353725D01*
X151257923Y-84799827D01*
X151041802Y-84278066D01*
X150728044Y-83808494D01*
X150328706Y-83409156D01*
X150105073Y-83259729D01*
X150219907Y-82982495D01*
X150288600Y-82637153D01*
X150288600Y-82285047D01*
X150219907Y-81939705D01*
X150085162Y-81614401D01*
X149889542Y-81321635D01*
X149640565Y-81072658D01*
X149347799Y-80877038D01*
X149022495Y-80742293D01*
X148677153Y-80673600D01*
X148325047Y-80673600D01*
X147979705Y-80742293D01*
X147654401Y-80877038D01*
X147361635Y-81072658D01*
X147112658Y-81321635D01*
X146917038Y-81614401D01*
X146782293Y-81939705D01*
X146713600Y-82285047D01*
X146713600Y-82637153D01*
X146782293Y-82982495D01*
X146897127Y-83259729D01*
X146673494Y-83409156D01*
X146274156Y-83808494D01*
X145960398Y-84278066D01*
X145744277Y-84799827D01*
X145634100Y-85353725D01*
X120006400Y-85353725D01*
X120006916Y-79958100D01*
X176863614Y-79958100D01*
X176898987Y-119831503D01*
G04 #@! TD*
M02*
